<?xml version="1.0" standalone="no"?>
<!DOCTYPE svg PUBLIC "-//W3C//DTD SVG 1.1//EN" "http://www.w3.org/Graphics/SVG/1.1/DTD/svg11.dtd">
<svg xmlns="http://www.w3.org/2000/svg"><metadata>This SVG WebFont was generated by YouWorkForThem.
</metadata><defs><font horiz-adv-x="1728" id="ywftsvg"><font-face ascent="1638" bbox="-399 -662 3207 2259" cap-height="1708" descent="-410" font-family="" font-stretch="normal" font-weight="400" panose-1="0 0 0 0 0 0 0 0 0 0" underline-position="0" underline-thickness="0" unicode-range="U+000A-20AC" units-per-em="2048" x-height="1214"/><missing-glyph d="M102 1434h875v-1434h-875v1434zM160 1393l379 -633l381 633h-760zM514 717l-369 614v-1231zM541 674l-379 -631h758zM565 717l371 -621v1239z" horiz-adv-x="1079"/><glyph d="M102 1434h875v-1434h-875v1434zM160 1393l379 -633l381 633h-760zM514 717l-369 614v-1231zM541 674l-379 -631h758zM565 717l371 -621v1239z" glyph-name=".notdef" horiz-adv-x="1079"/><glyph glyph-name="glyph1" horiz-adv-x="0"/><glyph glyph-name="glyph1" horiz-adv-x="0"/><glyph glyph-name="glyph2" horiz-adv-x="681"/><glyph glyph-name="uni000A" horiz-adv-x="0" unicode="&#x0a;"/><glyph glyph-name="space" horiz-adv-x="790" unicode=" "/><glyph d="M35 0l26 184h222l-27 -184h-221zM293 1710h186l-180 -1286h-186z" glyph-name="exclam" horiz-adv-x="532" unicode="!"/><glyph d="M1636 858h-268l-154 -463h269l-64 -184h-266l-88 -264h-197l88 264h-487l-88 -264h-195l88 264h-268l62 184h268l153 463h-268l62 186h268l82 244h194l-79 -244h487l80 244h196l-81 -244h268zM1018 395l156 463h-490l-154 -463h488z" glyph-name="numbersign" horiz-adv-x="1767" unicode="#"/><glyph d="M1407 1198q8 68 -43 129q-51 57 -143.5 95t-204.5 48l-80 -567q172 -23 291 -64.5t188 -131.5q92 -119 68 -301q-25 -180 -219.5 -309.5t-462.5 -149.5l-33 -238h-186l32 240q-147 16 -268 69.5t-192 137.5q-96 109 -91 241h185q-4 -63 45 -121q51 -57 142 -95t206 -48 l84 606q-137 16 -230.5 40t-158.5 71q-92 70 -134 159t-28 189q25 178 218.5 308t461.5 151l35 237h186l-35 -239q147 -16 268.5 -69.5t194.5 -137.5q98 -113 88 -250h-184zM752 924l75 542q-178 -23 -316 -103.5t-155 -191.5q-12 -96 90 -172q66 -48 306 -75zM1270 592 q-70 90 -361 127l-82 -582q178 23 317.5 104t153.5 191q15 105 -28 160z" glyph-name="dollar" horiz-adv-x="1673" unicode="$"/><glyph d="M498 1055q-150 0 -244 108q-94 109 -74 260q20 145 134 244.5t259 99.5q150 0 244 -108q94 -109 74 -260q-20 -145 -134 -244.5t-259 -99.5zM365 1399q-10 -70 28 -115q39 -43 105 -43q76 0 137 54.5t72 127.5q10 68 -29 115q-39 43 -105 43q-76 0 -137 -54t-71 -128z M1249 653q150 0 244 -108q96 -109 74 -260q-20 -143 -134 -242.5t-257 -99.5q-152 0 -246 106q-94 111 -72 262q18 143 132 242.5t259 99.5zM1384 311q8 68 -30 113q-39 45 -105 45q-74 0 -136 -55.5t-73 -128.5q-10 -68 31 -113q39 -45 105 -45q74 0 136 54t72 130z M1491 1702h227l-1462 -1706h-229z" glyph-name="percent" horiz-adv-x="1748" unicode="%"/><glyph d="M1382 573l-10 -67q-10 -76 -43 -148l289 -358h-254l-150 186q-104 -113 -253.5 -178t-311.5 -65q-141 0 -265 52t-208 146q-145 168 -115 389q25 172 152 311.5t311 205.5q-172 227 -53 462q57 113 170 183.5t248 79.5q145 10 258 -51.5t156 -174.5q35 -94 15 -196.5 t-91 -196.5q-63 -86 -155.5 -146.5t-192.5 -84.5q33 -39 102 -129q92 -115 143 -179l66 -82l10 66q14 106 99 180t192 74h182v-186h-182q-37 0 -70 -28t-39 -65zM637 1446q-72 -139 55 -293l51 -61q23 2 43 2h13q74 0 152.5 43t131.5 110q82 111 43 213q-25 66 -89 97.5 t-140 31.5h-23q-80 -6 -143 -44t-94 -99zM649 127q133 0 253 55.5t196 149.5l-127 157q-45 57 -144 181q-113 141 -176 223q-160 -37 -273.5 -144.5t-131.5 -242.5q-18 -139 71 -244q55 -63 142.5 -99t189.5 -36z" glyph-name="ampersand" horiz-adv-x="1820" unicode="&amp;"/><glyph d="M485 1921l99 -115l-289 -254l-98 115z" glyph-name="quotesingle" horiz-adv-x="436" unicode="'"/><glyph d="M823 1849q-868 -1051 -299 -2095l-164 -88q-307 567 -226 1153t546 1149z" glyph-name="parenleft" horiz-adv-x="681" unicode="("/><glyph d="M297 1968q307 -567 226 -1153t-546 -1149l-143 119q868 1051 299 2095z" glyph-name="parenright" horiz-adv-x="665" unicode=")"/><glyph d="M739 1655v-92h-174l103 -119l-72 -60l-100 117l-25 -174l-92 12l22 154l-129 -115l-61 70l131 115h-154v92h174l-100 119l70 61l100 -119l25 176l92 -14l-23 -152l129 113l62 -70l-129 -114h151z" glyph-name="asterisk" horiz-adv-x="716" unicode="*"/><glyph d="M750 702h501l-26 -184h-502l-72 -518h-186l72 518h-504v27l22 157h508l72 519h188z" glyph-name="plus" horiz-adv-x="1349" unicode="+"/><glyph d="M45 700h754l-25 -186h-756z" glyph-name="hyphen" horiz-adv-x="888" unicode="-"/><glyph d="M1376 1708h228l-1463 -1708h-229z" glyph-name="slash" horiz-adv-x="1511" unicode="/"/><glyph d="M1376 1573q174 -201 135 -481l-69 -496q-25 -176 -133.5 -326.5t-272.5 -238.5t-340 -88q-279 0 -450 198q-174 201 -135 482l69 493q25 178 133.5 328.5t272.5 239t340 88.5q278 0 450 -199zM1329 1116q27 199 -92 336q-117 133 -311 133q-203 0 -369 -144.5 t-195 -348.5l-67 -496q-29 -197 90 -334q117 -133 311 -133q203 0 369 144.5t195 349.5z" glyph-name="zero" horiz-adv-x="1622" unicode="0"/><glyph d="M725 1356l-164 -1172h377l-27 -184h-936l27 184h373l168 1196q8 61 -27 101.5t-96 40.5h-236v6l25 178h211q145 0 235 -103.5t70 -246.5z" glyph-name="one" horiz-adv-x="1083" unicode="1"/><glyph d="M821 563q-82 -57 -119 -84l-405 -295h960l-24 -184h-1229l31 209l571 416q39 29 125 86q100 70 163.5 116.5t131.5 110t103.5 118t55 121t11.5 140.5q-14 115 -91 189.5t-187 80.5h-27q-201 0 -363.5 -143.5t-191.5 -347.5h-186q27 184 138 339.5t279 247t351 91.5 q16 0 34 -2q172 -8 291 -121t137 -289q10 -80 -4 -157t-39.5 -138t-78 -127t-94.5 -109t-114.5 -101t-112.5 -87t-116 -80z" glyph-name="two" horiz-adv-x="1472" unicode="2"/><glyph d="M236 1524l26 184h1272l-27 -186l-514 -435q193 -57 298.5 -210.5t78.5 -348.5q-23 -158 -129 -293t-269 -213.5t-341 -78.5t-317.5 78.5t-209 214t-47.5 292.5h187q-25 -164 97 -281.5t316.5 -117.5t349 118t179.5 281q23 172 -98 310.5t-312 138.5l25 174l440 373h-1005 z" glyph-name="three" horiz-adv-x="1546" unicode="3"/><glyph d="M1313 1708l-152 -1073h256l-24 -184h-258l-62 -451h-188l63 451h-921l26 184l856 1073h404zM274 635h701l149 1065z" glyph-name="four" horiz-adv-x="1538" unicode="4"/><glyph d="M289 862l254 848h944l-27 -186h-784l-135 -449q121 41 245 41q178 0 318.5 -79t209 -214t46 -293.5t-129 -294t-269 -214t-341 -78.5t-317.5 78.5t-208.5 214t-47.5 292.5h186q-25 -164 97.5 -281.5t317 -117.5t349 118t178 282.5t-98.5 282.5t-316 118q-143 0 -273 -68 h-198z" glyph-name="five" horiz-adv-x="1527" unicode="5"/><glyph d="M950 1774q150 0 280 -70t202.5 -196t52.5 -275h-187q14 98 -40 181t-144 127t-190 44q-203 0 -369 -152.5t-197 -367.5l-22 -166q274 227 502 227q178 0 318 -78.5t209 -215t46.5 -297t-130 -297t-269.5 -216t-340 -79.5t-318.5 79.5t-209 216t-46.5 296.5l76 530 q27 193 140.5 355.5t282.5 258t353 95.5zM811 940q-195 0 -349.5 -119t-178 -286.5t98.5 -285.5t316.5 -118t349 118t178 285.5t-98 286.5t-316.5 119z" glyph-name="six" horiz-adv-x="1587" unicode="6"/><glyph d="M201 1522l26 184h1135l-27 -197q-281 -240 -528 -503q-565 -608 -623 -1006h-184q23 158 113 342t204.5 343t266 330t267.5 284.5t236 222.5h-886z" glyph-name="seven" horiz-adv-x="1304" unicode="7"/><glyph d="M911.5 1774q249.5 0 406.5 -148.5t126 -355.5q-16 -115 -112.5 -220.5t-229.5 -183.5q133 -74 215 -185.5t65 -234.5q-20 -135 -124.5 -251.5t-265.5 -184t-338 -67.5t-319 67.5t-214 183t-51 252.5q16 123 128.5 235t268.5 185q-113 78 -179.5 183.5t-49.5 220.5 q29 207 226.5 355.5t447 148.5zM1196 446q18 129 -108.5 223.5t-318 94.5t-344.5 -94.5t-171 -223.5t108.5 -223t318 -94t344.5 94t171 223zM1259.5 1269q18.5 132 -91 225t-282.5 93t-309.5 -93t-155 -225t91.5 -225.5t283 -93.5t309 93.5t154.5 225.5z" glyph-name="eight" horiz-adv-x="1564" unicode="8"/><glyph d="M917.5 1774q178.5 0 317.5 -80t208.5 -216.5t47.5 -295.5l-76 -531q-27 -193 -140.5 -355.5t-283.5 -257.5t-352 -95q-150 0 -280 68.5t-202.5 195.5t-52.5 276h185q-12 -98 41 -182t144 -127t190 -43q205 0 370.5 152.5t196.5 367.5l22 166q-276 -227 -503 -227 q-176 0 -316.5 79t-209 215t-46 296.5t129 297t269 216.5t341 80zM1305.5 1181q23.5 167 -98.5 285.5t-316.5 118.5t-349 -118.5t-178 -285.5t97.5 -286t315.5 -119t350 119t179 286z" glyph-name="nine" horiz-adv-x="1589" unicode="9"/><glyph d="M-14 0l26 186h219l-24 -186h-221zM156 1217h221l-25 -185h-221z" glyph-name="colon" horiz-adv-x="432" unicode=":"/><glyph d="M152 1217h221l-27 -185h-221zM0 14l20 152h187l-25 -176q-14 -109 -99 -185.5t-194 -80.5l29 192q31 12 53.5 39.5t28.5 58.5z" glyph-name="semicolon" horiz-adv-x="421" unicode=";"/><glyph d="M881 1241l-31 -213l-774 -407l659 -408l-30 -213l-662 410l31 208v5l28 208z" glyph-name="less" horiz-adv-x="931" unicode="&lt;"/><glyph d="M125 989h1182l-27 -184h-1180zM23 252l24 186h1182l-25 -186h-1181z" glyph-name="equal" horiz-adv-x="1394" unicode="="/><glyph d="M160 1241l661 -410l-28 -208l-2 -5l-29 -208l-776 -410l30 213l772 408l-659 407z" glyph-name="greater" horiz-adv-x="929" unicode=">"/><glyph d="M502 0l26 184h220l-25 -184h-221zM1321 1573q145 -168 115 -389q-31 -213 -215.5 -372t-427.5 -185l-29 -203h-186l55 383h80q199 0 357.5 118.5t180.5 284.5q20 137 -69 240q-57 66 -144.5 100.5t-189.5 34.5q-199 0 -352.5 -104.5t-182.5 -259.5h-186l2 12 q31 231 236.5 385t482.5 154q143 0 267 -52.5t206 -146.5z" glyph-name="question" horiz-adv-x="1490" unicode="?"/><glyph d="M1944 1513q248 -143 381 -396t104 -521q-12 -121 -62.5 -236.5t-127 -209t-190.5 -150.5t-243 -57h-10q-115 0 -188 82q-72 84 -56 198l19 129q-57 -205 -181 -327.5t-305 -122.5q-221 0 -353 176t-97 424t217 424t403 176q178 0 267.5 -123t89.5 -328l55 393h188 l-118 -845q-6 -33 12 -52q16 -20 47 -20h10q115 0 213.5 72.5t155.5 183.5t70 233q27 231 -92 430t-302 306l-8 6q-199 113 -446 112q-272 0 -522 -133t-416 -360t-203 -494q-29 -193 20.5 -367.5t167 -310t284.5 -209t364 -73.5l-27 -185q-227 6 -424 95.5t-338 251.5 q-145 166 -204.5 378.5t-27 445t154.5 444.5t300.5 366t406.5 245t464 91q297 0 536 -137zM1536 502q23 166 -60 284.5t-224.5 118.5t-259.5 -118.5t-141.5 -284.5t60.5 -285t225.5 -119t259 119t140.5 285z" glyph-name="at" horiz-adv-x="2580" unicode="@"/><glyph d="M1116 1708l322 -1708h-205l-103 551h-759l-258 -551h-205l801 1708h407zM457 737h637l-183 967z" glyph-name="A" horiz-adv-x="1583" unicode="A"/><glyph d="M1659 1206q-14 -109 -89 -205t-181 -159q88 -72 134 -177.5t29 -222.5q-27 -182 -162 -312t-298 -130h-1045l240 1712h987q188 0 302 -148.5t83 -357.5zM1366 442q20 133 -46.5 227.5t-178.5 94.5h-801l-82 -580h858q88 0 162 76t88 182zM1475 1206q18 133 -48.5 227.5 t-179.5 94.5h-801l-81 -580h860q88 0 162 76t88 182z" glyph-name="B" unicode="B"/><glyph d="M772 129q174 0 338 108.5t272 294.5l160 -92q-131 -229 -338 -363t-432 -134q-145 0 -272 58t-224 169q-115 131 -162.5 315.5t-19.5 384.5q35 246 169 454t331 329t410 121q262 0 449 -176.5t228 -462.5l-182 -27q-33 215 -169 348t-326 133q-168 0 -326 -100 t-265.5 -271t-133.5 -372q-25 -162 12 -307.5t125 -247.5q141 -162 356 -162z" glyph-name="C" horiz-adv-x="1708" unicode="C"/><glyph d="M1604 1473q100 -115 141 -263.5t18 -310.5l-16 -117q-31 -211 -161 -391t-324.5 -285.5t-407.5 -105.5h-809l240 1708h782q160 0 299.5 -61t237.5 -174zM1579 926q35 250 -117 424q-147 172 -395 172h-621l-188 -1336h596q256 0 465 182.5t244 440.5z" glyph-name="D" horiz-adv-x="1849" unicode="D"/><glyph d="M1493 1522h-1047l-81 -576h845l-26 -184h-846l-80 -576h1049l-27 -186h-1235l240 1708h1235z" glyph-name="E" horiz-adv-x="1466" unicode="E"/><glyph d="M1501 1522h-1055l-81 -576h845v-6l-24 -178h-848l-107 -762h-186l240 1708h1243z" glyph-name="F" horiz-adv-x="1437" unicode="F"/><glyph d="M1206 772h475l-108 -770h-189l60 410q-123 -221 -295 -345t-385 -124q-217 0 -384 122.5t-245 333.5t-43 459t172 459t339 334t419 123q158 0 294 -69t230 -196q90 -123 129 -280h-202q-31 86 -82 155q-72 96 -174.5 148.5t-221.5 52.5q-168 0 -322.5 -97t-261 -265 t-134 -364.5t32 -364.5t187.5 -265.5t294 -97.5q188 0 361 126t271 331h-243z" glyph-name="G" horiz-adv-x="1802" unicode="G"/><glyph d="M1452 1708h186l-239 -1708h-189l109 762h-979l-107 -762h-188l242 1708h186l-106 -762h976z" glyph-name="H" horiz-adv-x="1683" unicode="H"/><glyph d="M287 1708h186l-240 -1708h-188z" glyph-name="I" horiz-adv-x="518" unicode="I"/><glyph d="M868 1669h189l-187 -1321q-25 -186 -172 -315t-336 -129q-193 0 -313 137q-109 127 -96 303h186q-14 -109 50.5 -182.5t172.5 -73.5q115 0 212.5 85t113.5 202z" glyph-name="J" horiz-adv-x="1097" unicode="J"/><glyph d="M1501 1712h299l-928 -657l676 -1051h-235l-604 938l-381 -270l-95 -672h-186l240 1712h188l-115 -805z" glyph-name="K" horiz-adv-x="1695" unicode="K"/><glyph d="M471 1708l-213 -1522h758l-27 -186h-944l240 1708h186z" glyph-name="L" horiz-adv-x="1126" unicode="L"/><glyph d="M1948 1706h186l-240 -1706h-188l240 1702l-783 -1702h-387l-305 1704l-240 -1704h-186l240 1706h186v2h195l305 -1704l784 1704h195z" glyph-name="M" horiz-adv-x="2179" unicode="M"/><glyph d="M1444 1712h186l-239 -1710h-189h-192l-537 1704l-240 -1706h-186l240 1710h381l536 -1704z" glyph-name="N" horiz-adv-x="1675" unicode="N"/><glyph d="M1016 1774q147 0 278 -59.5t228 -170.5q117 -133 164 -316.5t20 -381.5q-35 -246 -171 -454t-336 -328.5t-415 -120.5q-150 0 -279.5 59t-228.5 172q-115 131 -162.5 314.5t-19.5 381.5q35 246 170 454t336 329t416 121zM1522 870q23 162 -14.5 305.5t-125.5 245.5 q-145 168 -366 168q-172 0 -332 -100t-269.5 -271t-135.5 -372q-23 -160 13 -304.5t126 -246.5q143 -166 366 -166q172 0 332 99.5t268.5 270t137.5 371.5z" glyph-name="O" horiz-adv-x="1798" unicode="O"/><glyph d="M1569 1565q125 -143 98 -344q-27 -190 -181.5 -325.5t-346.5 -135.5h-799l-107 -760h-188l119 842l123 866h960q199 0 322 -143zM1483 1247q16 117 -53 197q-68 78 -183 78h-801l-79 -578h772q123 0 225.5 90t118.5 213z" glyph-name="P" horiz-adv-x="1673" unicode="P"/><glyph d="M1014 1763q150 0 280.5 -59t227.5 -172q117 -133 164 -314.5t20 -381.5q-29 -190 -119 -360.5t-227 -297.5l242 -282l-142 -121l-248 291q-207 -129 -430 -129q-147 0 -279 59t-229 172q-115 131 -163 313.5t-19 380.5q35 244 170 452t336 328.5t416 120.5zM1522 862 q23 160 -14.5 303.5t-125.5 245.5q-145 166 -368 166q-172 0 -332 -99.5t-269.5 -269.5t-138.5 -372q-20 -158 16 -301.5t124 -245.5q145 -168 368 -168q158 0 308 86l-136 160l140 120l145 -170q113 104 186.5 245.5t96.5 299.5z" glyph-name="Q" horiz-adv-x="1806" unicode="Q"/><glyph d="M1245 1710q201 0 324 -143q125 -143 96 -344q-27 -190 -181.5 -325.5t-344.5 -135.5h-47l405 -760h-223l-406 760h-530l-107 -762h-186l107 762l133 948h960zM1483 1249q16 117 -53 197q-70 78 -185 78h-799l-81 -578h774q123 0 224.5 90t119.5 213z" glyph-name="R" horiz-adv-x="1699" unicode="R"/><glyph d="M924 1774q174 0 321.5 -56.5t233.5 -156.5q109 -123 98 -277h-186q10 84 -52 156q-59 68 -171.5 108.5t-243.5 40.5q-231 0 -398.5 -102.5t-185.5 -229.5q-14 -111 90 -194q31 -25 97.5 -43.5t118.5 -26.5t153 -18q90 -10 139 -17.5t129 -23.5t129 -36.5t102.5 -56.5 t90.5 -81q98 -127 69 -326q-29 -207 -251 -349t-515 -142q-174 0 -321.5 56t-235.5 157q-109 125 -96 280h172l14 -2q-12 -84 51 -155q59 -70 171 -110t245 -40q229 0 397 102.5t185 229.5q18 121 -33 184q-27 37 -74 61.5t-119.5 41t-124 24.5t-147.5 19q-119 14 -182.5 23 t-146 37t-134.5 69q-186 150 -155 362q29 207 251 349.5t515 142.5z" glyph-name="S" horiz-adv-x="1617" unicode="S"/><glyph d="M109 1518l26 184h1479v-10l-23 -174h-651l-213 -1518h-188l213 1518h-643z" glyph-name="T" horiz-adv-x="1511" unicode="T"/><glyph d="M1372 655l148 1057h186l-152 -1083q-25 -186 -142.5 -344t-293.5 -250t-368 -92q-150 0 -278 55t-218 160q-182 209 -141 497l149 1057h187l-152 -1083q-29 -205 96 -348q133 -152 357 -152q227 0 409 153.5t213 372.5z" glyph-name="U" unicode="U"/><glyph d="M672 2l801 1706h204l-803 -1708h-407l-322 1708h205z" glyph-name="V" horiz-adv-x="1585" unicode="V"/><glyph d="M3000 1708h205l-803 -1708h-405l-322 1702l-801 -1702h-407l-322 1708h205l322 -1706l801 1706h405l322 -1706z" glyph-name="W" horiz-adv-x="3112" unicode="W"/><glyph d="M1841 1708l-868 -854l629 -854h-244l-504 711l-704 -711h-244l870 854l-629 854h242l506 -711l702 711h244z" glyph-name="X" horiz-adv-x="1746" unicode="X"/><glyph d="M1724 1710l-825 -833l-123 -877h-188l125 877l-594 833h243l467 -657l652 657h243z" glyph-name="Y" horiz-adv-x="1603" unicode="Y"/><glyph d="M156 1524l24 184h1600l-31 -219l-1552 -1307h1370l-27 -182h-1599l30 219l1553 1305h-1368z" glyph-name="Z" horiz-adv-x="1720" unicode="Z"/><glyph d="M317 1921h367l-27 -186h-178l-258 -1825h180l-26 -184h-367z" glyph-name="bracketleft" horiz-adv-x="524" unicode="["/><glyph d="M377 1706l983 -1706h-227l-986 1706h230z" glyph-name="backslash" horiz-adv-x="1511" unicode="\"/><glyph d="M143 1921h361l-307 -2195h-363l27 184h174l256 1825h-174z" glyph-name="bracketright" horiz-adv-x="520" unicode="]"/><glyph d="M164 -215l26 186h756l-26 -186h-756z" glyph-name="underscore" horiz-adv-x="1110" unicode="_"/><glyph d="M1120 1126q141 -164 109 -391l-103 -729h-186l18 144q-131 -207 -407 -207q-229 0 -372.5 131t-118 316t207 317.5t410.5 132.5q274 0 350 -207l16 129q20 143 -65 244q-84 96 -225 96q-129 0 -241 -53.5t-153 -137.5l-165 84q66 131 220 212t339 81q225 0 366 -162z M991 369l6 43q2 102 -95 171.5t-245 69.5q-154 0 -274.5 -76.5t-136 -185t84 -185.5t253.5 -77q147 0 263.5 70t143.5 170z" glyph-name="a" horiz-adv-x="1341" unicode="a"/><glyph d="M838 1284q160 0 283.5 -90t181 -244.5t32.5 -337.5q-39 -276 -240.5 -472.5t-445.5 -196.5q-145 0 -237.5 74.5t-128.5 209.5l-33 -227h-187l240 1708h186l-98 -709q162 285 447 285zM1150 613.5q28 199.5 -71.5 342t-267.5 142.5t-307 -142.5t-168 -342t70.5 -342 t268.5 -142.5t308 142.5t167 342z" glyph-name="b" horiz-adv-x="1429" unicode="b"/><glyph d="M600 129q123 0 239.5 85t184.5 224l168 -80q-92 -188 -253 -301.5t-339 -113.5q-221 0 -367 168q-86 98 -121.5 234t-13.5 284q37 274 232.5 467.5t433.5 193.5q180 0 316.5 -117.5t176.5 -310.5l-180 -39q-29 127 -113.5 204t-199.5 77q-170 0 -312.5 -146.5 t-170.5 -353.5q-14 -111 9 -207t83 -166q90 -102 227 -102z" glyph-name="c" horiz-adv-x="1304" unicode="c"/><glyph d="M1245 276q-6 -39 17 -63q20 -25 57 -25l-25 -184q-106 10 -172 86q-63 74 -63 174q-76 -152 -193.5 -236.5t-271.5 -84.5q-162 0 -286 90t-181 244.5t-31 336.5q39 276 240 474t446 198q152 0 245 -83t128 -230l105 737h186zM1094.5 614.5q27.5 200.5 -71.5 342 t-267 141.5t-307.5 -141.5t-168 -342t71 -342t268 -141.5t308 141.5t167 342z" glyph-name="d" horiz-adv-x="1472" unicode="d"/><glyph d="M1266 600l-13 -80h-979q0 -176 97 -287q90 -104 229 -104h12q117 0 229.5 49t194.5 137h221q-109 -166 -286.5 -267t-370.5 -105h-4h-3h-3h-4q-213 6 -355 168q-86 98 -120.5 232t-14.5 282q39 272 233.5 464.5t432.5 192.5q223 0 368 -168q84 -96 120 -231.5t16 -282.5z M305 705h782q0 176 -96 288q-92 104 -229 105q-147 0 -275.5 -111.5t-181.5 -281.5z" glyph-name="e" horiz-adv-x="1380" unicode="e"/><glyph d="M662 1522q-45 0 -84 -34t-46 -81l-26 -186h356l-24 -185h-359l-145 -1036h-189l148 1036h-172l24 185h172l31 213q16 115 107.5 194.5t206.5 79.5h270l-27 -186h-243z" glyph-name="f" horiz-adv-x="815" unicode="f"/><glyph d="M1180 1212h186l-170 -1208q-33 -231 -219 -395t-418 -164q-166 0 -306 63.5t-233 180.5l146 114q66 -82 168 -127t225 -45q164 0 297 117t156 281l26 190q-162 -287 -446 -287q-160 0 -284 90.5t-182 245t-32 336.5q39 276 240 474t446 198q145 0 236.5 -76t130.5 -211z M1092.5 604q27.5 201 -71.5 342t-267 141t-307.5 -141t-167 -342t72 -342t267 -141t307 141t167 342z" glyph-name="g" horiz-adv-x="1429" unicode="g"/><glyph d="M838 1280q160 0 283.5 -90t182 -244.5t31.5 -337.5l-84 -608h-186l86 608q27 201 -72.5 342.5t-267.5 141.5t-307 -141.5t-168 -342.5l-86 -608h-187l240 1704h186l-98 -711q162 287 447 287z" glyph-name="h" horiz-adv-x="1458" unicode="h"/><glyph d="M274 1595h222l-27 -186h-221zM63 0l173 1221h186l-172 -1221h-187z" glyph-name="i" horiz-adv-x="487" unicode="i"/><glyph d="M279 1624h221l-27 -186h-221zM51 -119l195 1374h186l-199 -1398q-20 -156 -142 -262.5t-277 -106.5h-213l26 186h187q84 0 154.5 61.5t82.5 145.5z" glyph-name="j" horiz-adv-x="491" unicode="j"/><glyph d="M1038 1225h301l-589 -416l518 -805h-236l-428 701l-282 -199l-72 -506h-187l240 1712h189l-138 -971z" glyph-name="k" horiz-adv-x="1382" unicode="k"/><glyph d="M483 1706l-202 -1434q-6 -39 16 -65q20 -23 55 -25l-26 -182q-102 10 -168 86q-78 88 -62 211l201 1409h186z" glyph-name="l" horiz-adv-x="505" unicode="l"/><glyph d="M1835 1282q160 0 284 -90t182 -244.5t32 -337.5l-84 -610h-189l88 610q27 201 -72.5 342.5t-267.5 141.5q-164 0 -302 -136.5t-169 -332.5q-2 -14 -2 -15l-86 -610h-186l86 610q29 201 -70.5 342.5t-267.5 141.5t-307 -141.5t-168 -342.5l-86 -610h-187l170 1221h189 l-33 -226q162 287 449 287q164 0 288.5 -95t180.5 -253q88 160 226 254t302 94z" glyph-name="m" horiz-adv-x="2455" unicode="m"/><glyph d="M838 1282q160 0 283.5 -90t181 -244.5t32.5 -337.5l-86 -610h-186l86 610q29 201 -70.5 342.5t-267.5 141.5t-307 -141.5t-168 -342.5l-86 -610h-187l170 1221h189l-33 -226q162 287 449 287z" glyph-name="n" horiz-adv-x="1458" unicode="n"/><glyph d="M762 1282q223 0 368 -168q84 -98 120 -232t16 -282q-39 -272 -234.5 -464.5t-431.5 -192.5q-223 0 -369 168q-86 98 -120.5 232t-14.5 282q39 272 233.5 464.5t432.5 192.5zM1081 625q14 109 -9 205t-81 163q-92 104 -229 105q-170 0 -311.5 -146.5t-169.5 -351.5 q-16 -109 8 -205t82 -164q90 -104 229 -104q170 0 311 146.5t170 351.5z" glyph-name="o" horiz-adv-x="1359" unicode="o"/><glyph d="M838 1282q160 0 283.5 -90t181 -244.5t32.5 -335.5q-39 -279 -240.5 -475t-445.5 -196q-145 0 -236 75.5t-130 208.5l-101 -714h-186l240 1708h186l-31 -222q162 285 447 285zM1150 611.5q28 199.5 -71.5 342t-267.5 142.5t-307 -142.5t-168 -342t71.5 -341t268.5 -141.5 t307 141.5t167 341z" glyph-name="p" horiz-adv-x="1429" unicode="p"/><glyph d="M1149 991l31 226h186l-240 -1706h-186l100 716q-162 -289 -448 -288q-160 0 -284 89t-181 243.5t-33 336.5q39 279 241 475.5t445 196.5q145 0 237.5 -77t131.5 -212zM1093.5 608.5q28.5 200.5 -70.5 343t-268 142.5t-308.5 -142.5t-167 -343t72 -342t267 -141.5 t307 141.5t168 342z" glyph-name="q" horiz-adv-x="1429" unicode="q"/><glyph d="M377 899q123 385 438 385q35 0 70 -6l-27 -188q-35 8 -70 8q-131 0 -249.5 -92.5t-180.5 -237.5l-108 -768h-187l170 1221h189z" glyph-name="r" horiz-adv-x="821" unicode="r"/><glyph d="M1190 913h-186q6 47 -29 88q-39 43 -111.5 69t-158.5 26q-147 0 -258 -64.5t-121 -144.5q-10 -59 51 -109q41 -33 244 -57q80 -10 123.5 -17.5t111.5 -23.5t115 -47t80 -74q76 -98 55 -248q-23 -156 -185.5 -262t-377.5 -106q-127 0 -235.5 42t-174.5 115q-80 94 -76 209 h187q-6 -45 28 -86q39 -45 112 -70.5t159 -25.5q147 0 257.5 65.5t121.5 143.5q10 74 -17 110q-23 29 -78 47.5t-100 25.5t-129 18q-86 10 -131 17t-106.5 27.5t-98.5 51.5q-143 115 -121 280q23 156 185.5 262.5t378.5 106.5q127 0 235.5 -42t173.5 -118q80 -92 76 -209z " glyph-name="s" horiz-adv-x="1251" unicode="s"/><glyph d="M584 1706l-68 -487h356l-26 -187h-357l-106 -758q-6 -39 16 -65q20 -25 60 -25h268l-27 -184h-241q-123 0 -199 88q-78 88 -61 211l104 733h-192l24 187h195l67 487h187z" glyph-name="t" horiz-adv-x="858" unicode="t"/><glyph d="M1120 614l88 613h187l-172 -1219h-187l31 221q-162 -287 -446 -286q-162 0 -286 90t-181.5 244.5t-30.5 336.5l84 613h188l-88 -613q-29 -201 70.5 -342t268.5 -141t308 141t166 342z" glyph-name="u" horiz-adv-x="1456" unicode="u"/><glyph d="M561 2l572 1217h204l-573 -1219h-406l-231 1219h205z" glyph-name="v" horiz-adv-x="1294" unicode="v"/><glyph d="M2339 1219h203l-572 -1219h-407l-228 1212l-571 -1212h-406l-231 1219h205l229 -1217l572 1217h405l229 -1217z" glyph-name="w" horiz-adv-x="2500" unicode="w"/><glyph d="M1165 1219h244l-625 -605l461 -614h-244l-335 471l-467 -471h-244l633 614l-455 605h244l330 -463z" glyph-name="x" horiz-adv-x="1372" unicode="x"/><glyph d="M563 -4l563 1218h195l-721 -1562q-43 -90 -127 -146.5t-178 -56.5h-412l27 189h412q35 0 65.5 20t44.5 53l131 285h-203l-231 1218h205z" glyph-name="y" horiz-adv-x="1280" unicode="y"/><glyph d="M164 1221h1243l-27 -185l-1065 -852h945l-25 -184h-1243l26 184l1065 852h-946z" glyph-name="z" horiz-adv-x="1396" unicode="z"/><glyph d="M313 1569q25 172 146 291.5t274 121.5l-26 -188q-76 -14 -136.5 -86t-72.5 -166l-90 -635l-84 -82q-8 -8 -9 -18l66 -86l-90 -643q-16 -113 45 -182q37 -45 96 -48l-24 -182q-129 10 -213 109q-115 131 -86 329l79 566l-22 30q-43 55 -34 130t63 128l38 37z" glyph-name="braceleft" horiz-adv-x="593" unicode="{"/><glyph d="M287 1706h184l-240 -1706h-184z" glyph-name="bar" horiz-adv-x="518" unicode="|"/><glyph d="M383 1874q115 -131 86 -330l-80 -565l23 -31q41 -55 32.5 -130t-61.5 -128l-39 -37l-80 -573q-25 -174 -147.5 -294t-278.5 -120v8l27 179q76 12 139.5 84.5t75.5 168.5l90 635l84 82q8 8 8 19l-65 86l90 643q16 113 -45 182q-41 47 -103 47v8l25 177q131 -11 219 -111z " glyph-name="braceright" horiz-adv-x="585" unicode="}"/><glyph glyph-name="uni00A0" horiz-adv-x="790" unicode=" "/><glyph d="M176 1190h221l-26 -186h-221zM-47 -516l180 1270h186l-178 -1270h-188z" glyph-name="exclamdown" horiz-adv-x="481" unicode="¡"/><glyph d="M438 334q66 0 126.5 45t97.5 121l167 -60q-53 -106 -138 -180t-185 -100l-23 -160h-186l25 160q-131 37 -202 161.5t-48.5 286.5t128 286t246.5 161l23 164h186l-24 -164q92 -25 156.5 -96.5t86.5 -176.5l-182 -63q-16 76 -64 120t-114 44q-90 0 -166 -81t-91 -194.5 t37 -193.5t144 -80z" glyph-name="cent" horiz-adv-x="989" unicode="¢"/><glyph d="M840 1520q-68 0 -124.5 -50.5t-66.5 -117.5l-57 -406h369l-25 -186h-371l-80 -576h768l-24 -184h-1241l26 184h285l80 576h-285l27 186h285l59 430q20 139 128.5 233.5t246.5 94.5h628l-26 -184h-602z" glyph-name="sterling" horiz-adv-x="1439" unicode="£"/><glyph d="M1761 1708l-587 -592h200l-26 -186h-357l-55 -56l-18 -135h403l-27 -186h-403l-78 -553h-186l75 553h-407l27 186h407l21 135l-41 56h-361l27 186h203l-422 592h243l467 -657l652 657h243z" glyph-name="yen" horiz-adv-x="1677" unicode="¥"/><glyph d="M698 1212q80 -8 125 -15t111.5 -24.5t114 -47t81.5 -74.5q76 -96 54 -248q-18 -139 -156 -242q106 -109 88 -250q-23 -156 -186.5 -262t-378.5 -106q-127 0 -235.5 42t-172.5 115q-80 92 -75 205h184q-2 -45 31 -82q39 -45 110.5 -70.5t157.5 -25.5q150 0 260.5 65.5 t120.5 143.5q8 61 -53 110q-41 33 -242 58q-80 8 -125 15t-111.5 24.5t-113.5 47.5t-82 73q-76 98 -53 249q18 133 153 242q-104 109 -86 250q23 156 185.5 262.5t377.5 106.5q129 0 237.5 -42t172.5 -116q80 -92 76 -207h-187q6 45 -28 84q-39 45 -111 70.5t-160 25.5 q-147 0 -257.5 -65.5t-121.5 -143.5q-8 -61 54 -110q40 -33 241 -58zM1001 829q10 74 -18 109q-20 29 -76.5 48.5t-101.5 26.5t-127 15q-125 16 -182 29q-63 -31 -109.5 -79t-52.5 -91q-10 -74 18 -109q20 -29 76.5 -48t101.5 -26.5t127 -15.5q117 -14 174 -26 q72 29 117 74.5t53 92.5z" glyph-name="section" horiz-adv-x="1335" unicode="§"/><glyph d="M1849 1489q115 -131 162 -297t23 -346q-35 -246 -190.5 -454t-391 -328.5t-491.5 -120.5q-199 0 -368 73.5t-290 210.5q-113 131 -160 297t-22 348q35 244 190.5 452t390 329t490.5 121q199 0 368.5 -74t288.5 -211zM1849 872q41 289 -139 496q-92 106 -226 163.5 t-292 57.5q-213 0 -407.5 -100t-323.5 -271t-156 -372q-41 -289 139 -496q92 -109 225.5 -165t291.5 -56q213 0 407.5 99.5t323 270t157.5 373.5zM1151 1202q-117 0 -218.5 -105.5t-121.5 -250.5q-23 -162 63 -262q61 -70 154 -70q86 0 169 61.5t130 159.5l168 -82 q-72 -147 -199 -235t-268 -88q-176 0 -293 133q-68 78 -95.5 184.5t-10.5 224.5q31 217 182.5 367t339.5 150q145 0 253.5 -94.5t141.5 -245.5l-180 -39q-20 88 -77.5 140t-137.5 52z" glyph-name="copyright" horiz-adv-x="2154" unicode="©"/><glyph d="M512 1319q135 0 216 -94.5t63 -229.5l-64 -446h-111l13 90q-80 -127 -246 -127q-137 0 -223 79t-71 190.5t124 190.5t246 79q166 0 211 -125l10 69q12 88 -41 150.5t-141 62.5q-82 0 -144.5 -31.5t-85.5 -76.5l-98 39q41 80 136 130t206 50zM649 786q6 63 -52 107.5 t-148 44.5q-94 0 -166 -46t-81 -110.5t50 -110.5t151 -46q90 0 162 44t84 107v10z" glyph-name="ordfeminine" horiz-adv-x="882" unicode="ª"/><glyph d="M874 1157l-16 -113l-401 -210l342 -211l-17 -111l-342 211l15 111l16 110zM485 1044l-401 -210l342 -211l-16 -111l-344 211l16 111l16 110l402 213z" glyph-name="guillemotleft" horiz-adv-x="925" unicode="«"/><glyph glyph-name="uni00AD" horiz-adv-x="0" unicode="­"/><glyph d="M1849 1489q115 -131 162 -297t23 -346q-35 -246 -190.5 -454t-391 -328.5t-491.5 -120.5q-199 0 -368 73.5t-290 210.5q-113 131 -160 297t-22 348q35 244 190.5 452t390 329t490.5 121q199 0 368.5 -74t288.5 -211zM1849 872q41 289 -139 496q-92 106 -226 163.5 t-292 57.5q-213 0 -407.5 -100t-323.5 -271t-156 -372q-41 -289 139 -496q92 -109 225.5 -165t291.5 -56q213 0 407.5 99.5t323 270t157.5 373.5zM1274 1311q117 0 190 -84q74 -86 58 -203q-14 -104 -92 -178t-181 -82l168 -315h-184l-166 313h-184l-43 -313h-189l66 469 l55 393h502zM1337 1049q6 35 -14 55q-16 23 -49 22h-340l-25 -180h314q39 0 73.5 31t40.5 72z" glyph-name="registered" horiz-adv-x="2154" unicode="®"/><glyph d="M674 1790q72 -82 55 -199q-16 -111 -103 -187.5t-198 -76.5q-115 0 -186 82q-72 84 -58 201q16 111 103.5 186.5t199.5 75.5q115 0 187 -82zM602 1610q8 57 -24 96q-35 39 -91 39q-63 0 -115.5 -45t-60.5 -109q-8 -57 27 -98q33 -39 90 -39q61 0 113.5 46.5t60.5 109.5z " glyph-name="degree" horiz-adv-x="704" unicode="°"/><glyph d="M342 1077l-131 -96h309l-8 -59h-395l10 67l184 135q12 8 39 27q84 57 121 99t31 98q-6 37 -31 60.5t-59 25.5h-9q-66 0 -119 -46.5t-61 -111.5h-59q12 90 85 154.5t163 64.5h10q55 -4 94 -41t45 -92q4 -45 -9 -84t-47 -73t-57.5 -53t-66.5 -48q-27 -19 -39 -27z" glyph-name="uni00B2" horiz-adv-x="606" unicode="²"/><glyph d="M606 1491l-8 -59l-166 -142q61 -18 95 -67t26 -113q-10 -78 -81 -133t-158 -55t-141 55t-44 133h61q-8 -53 31 -91t102.5 -38t112.5 38t58 91q8 55 -31 100t-101 45l7 56l143 121h-326l9 59h411z" glyph-name="uni00B3" horiz-adv-x="618" unicode="³"/><glyph d="M1192 1219h186l-86 -615q-39 -279 -240.5 -475.5t-447.5 -196.5q-143 0 -235.5 76t-130.5 211l-99 -708h-188l239 1708h189l-86 -615q-29 -201 70.5 -342t267.5 -141t307 141t168 342z" glyph-name="uni00B5" horiz-adv-x="1456" unicode="µ"/><glyph d="M311 981h127l-10 -59h-311l8 59h127l53 383q2 20 -10 34.5t-33 14.5h-76l9 60h75q45 0 73 -32t22 -77z" glyph-name="uni00B9" horiz-adv-x="522" unicode="¹"/><glyph d="M514 1315q145 0 231 -118t62.5 -283.5t-142 -283.5t-264 -118t-231.5 118t-63.5 283.5t142.5 283.5t265 118zM697.5 913.5q17.5 120.5 -41 205.5t-158 85t-182.5 -85t-99 -205.5t42 -205.5t157.5 -85t181.5 85t99.5 205.5z" glyph-name="ordmasculine" horiz-adv-x="897" unicode="º"/><glyph d="M465 834l-14 -111l-404 -211l14 111l404 211l-344 210l16 113l344 -213zM510 1157l344 -213l-16 -110l-15 -111l-403 -211l16 111l402 211l-342 210z" glyph-name="guillemotright" horiz-adv-x="925" unicode="»"/><glyph d="M907 1284l-26 -186h-222l27 186h221zM1094 61h190l-4 -18q-35 -227 -239.5 -379.5t-479.5 -152.5q-143 0 -267 52t-206 148q-145 166 -115 387q29 213 214.5 372t426.5 185l29 209h172l16 -4l-55 -385h-80q-201 0 -358.5 -117.5t-181.5 -283.5q-18 -137 71 -242 q55 -63 142.5 -99t191.5 -36q199 0 352.5 105t180.5 259z" glyph-name="questiondown" horiz-adv-x="1427" unicode="¿"/><glyph d="M1116 1708l322 -1708h-205l-103 551h-759l-258 -551h-205l801 1708h407zM457 737h637l-183 967zM1128 1962l-122 -107l-218 254l123 107z" glyph-name="Agrave" horiz-adv-x="1583" unicode="À"/><glyph d="M1116 1708l322 -1708h-205l-103 551h-759l-258 -551h-205l801 1708h407zM457 737h637l-183 967zM1155 2101l-289 -254l-108 123l291 254z" glyph-name="Aacute" horiz-adv-x="1583" unicode="Á"/><glyph d="M1116 1708l322 -1708h-205l-103 551h-759l-258 -551h-205l801 1708h407zM457 737h637l-183 967zM965 2025l-179 -155l-106 121l301 264l236 -273l-123 -104z" glyph-name="Acircumflex" horiz-adv-x="1583" unicode="Â"/><glyph d="M1116 1708l322 -1708h-205l-103 551h-759l-258 -551h-205l801 1708h407zM457 737h637l-183 967zM907 1968q-53 35 -124.5 16.5t-118.5 -79.5l-129 96q84 115 220 144.5t242 -42.5q53 -35 125 -16.5t117 80.5l131 -99q-86 -113 -221.5 -141.5t-241.5 41.5z" glyph-name="Atilde" horiz-adv-x="1583" unicode="Ã"/><glyph d="M1116 1708l322 -1708h-205l-103 551h-759l-258 -551h-205l801 1708h407zM457 737h637l-183 967zM825 2128l-26 -186h-221l26 186h221zM1335 2128l-24 -186h-221l26 186h219z" glyph-name="Adieresis" horiz-adv-x="1583" unicode="Ä"/><glyph d="M1116 1708l322 -1708h-205l-103 551h-759l-258 -551h-205l801 1708h407zM457 737h637l-183 967zM940 1812q-96 0 -156 68q-61 70 -47 166q12 90 82 151.5t160 61.5q96 0 156 -70q61 -70 47 -166q-12 -88 -83 -149.5t-159 -61.5zM897 2023q-4 -23 8 -36q12 -12 35 -13 q29 0 53.5 21.5t28.5 50.5q2 25 -10 37q-10 14 -33 14q-29 0 -53.5 -21.5t-28.5 -52.5z" glyph-name="Aring" horiz-adv-x="1583" unicode="Å"/><glyph d="M2103 0h-870l-103 551h-759l-258 -551h-205l801 1708h1071l35 -186h-664l109 -576h663l35 -184h-664l109 -576h663zM457 737h637l-183 967z" glyph-name="AE" horiz-adv-x="2236" unicode="Æ"/><glyph d="M768 96q174 0 338 108.5t272 295.5l160 -92q-119 -207 -301 -337t-387 -155v-106q-53 0 -97 -36t-53 -85q-4 -41 19 -68q29 -33 78 -33v-161q-123 0 -199 88q-74 82 -57 196q18 129 133 207q-240 33 -402 219q-115 131 -163 315.5t-19 385.5q35 246 168 453.5 t330.5 328.5t410.5 121q262 0 449.5 -176t228.5 -463l-182 -27q-33 215 -169 348t-327 133q-170 0 -326.5 -100t-264 -271t-136.5 -372q-23 -162 14.5 -307.5t125.5 -247.5q141 -162 356 -162z" glyph-name="Ccedilla" horiz-adv-x="1708" unicode="Ç"/><glyph d="M1167 1952l-123 -107l-219 254l123 107zM1495 1522h-1049l-79 -576h843l-26 -186h-844l-82 -576h1049l-27 -184h-1235l240 1706h1237z" glyph-name="Egrave" horiz-adv-x="1468" unicode="È"/><glyph d="M1495 1522h-1049l-79 -576h843l-26 -186h-844l-82 -576h1049l-27 -184h-1235l240 1706h1237zM1194 2091l-289 -254l-108 123l290 254z" glyph-name="Eacute" horiz-adv-x="1468" unicode="É"/><glyph d="M1495 1522h-1049l-79 -576h843l-26 -186h-844l-82 -576h1049l-27 -184h-1235l240 1706h1237zM997 2015l-178 -155l-106 122l301 265l235 -273l-123 -106z" glyph-name="Ecircumflex" horiz-adv-x="1468" unicode="Ê"/><glyph d="M1495 1522h-1049l-79 -576h843l-26 -186h-844l-82 -576h1049l-27 -184h-1235l240 1706h1237zM862 2118l-26 -185h-220l25 185h221zM1374 2118l-26 -185h-222l27 185h221z" glyph-name="Edieresis" horiz-adv-x="1468" unicode="Ë"/><glyph d="M47 0l240 1710h188l-242 -1710h-186zM596 1954l-123 -107l-219 254l123 107z" glyph-name="Igrave" horiz-adv-x="520" unicode="Ì"/><glyph d="M47 0l240 1710h188l-242 -1710h-186zM623 2095l-291 -256l-107 123l291 254z" glyph-name="Iacute" horiz-adv-x="522" unicode="Í"/><glyph d="M47 0l240 1710h188l-242 -1710h-186zM451 2249l233 -273l-123 -106l-127 147l-178 -155l-106 123z" glyph-name="Icircumflex" horiz-adv-x="522" unicode="Î"/><glyph d="M47 0l240 1710h188l-242 -1710h-186zM299 2120l-25 -185h-221l27 185h219zM590 2120h221l-27 -185h-219z" glyph-name="Idieresis" horiz-adv-x="522" unicode="Ï"/><glyph d="M958 1968q-51 37 -123.5 17.5t-117.5 -80.5l-131 96q86 115 221 144.5t242 -42.5q53 -35 124.5 -16.5t118.5 80.5l129 -96q-84 -113 -220.5 -143t-242.5 40zM1442 1710h186l-239 -1708h-187h-192l-537 1704l-240 -1706h-188l242 1708h379l536 -1704z" glyph-name="Ntilde" horiz-adv-x="1675" unicode="Ñ"/><glyph d="M1235 1956l-123 -107l-219 256l123 105zM1522 1542q117 -133 164 -315.5t20 -382.5q-35 -244 -171 -452t-336 -328.5t-415 -120.5q-150 0 -279.5 59t-228.5 170q-115 133 -162.5 315.5t-19.5 382.5q35 244 170 452t336 330t416 122q147 0 278.5 -59.5t227.5 -172.5z M1522 870q23 160 -14.5 304.5t-125.5 246.5q-145 166 -366 166q-172 0 -332 -99t-269.5 -270t-135.5 -374q-23 -160 13 -304.5t126 -246.5q143 -166 366 -166q172 0 332 99.5t268.5 271t137.5 372.5z" glyph-name="Ograve" horiz-adv-x="1798" unicode="Ò"/><glyph d="M1264 2097l-291 -254l-107 121l289 254zM1522 1542q117 -133 164 -315.5t20 -382.5q-35 -244 -171 -452t-336 -328.5t-415 -120.5q-150 0 -279.5 59t-228.5 170q-115 133 -162.5 315.5t-19.5 382.5q35 244 170 452t336 330t416 122q147 0 278.5 -59.5t227.5 -172.5z M1522 870q23 160 -14.5 304.5t-125.5 246.5q-145 166 -366 166q-172 0 -332 -99t-269.5 -270t-135.5 -374q-23 -160 13 -304.5t126 -246.5q143 -166 366 -166q172 0 332 99.5t268.5 271t137.5 372.5z" glyph-name="Oacute" horiz-adv-x="1798" unicode="Ó"/><glyph d="M1522 1542q117 -133 164 -315.5t20 -382.5q-35 -244 -171 -452t-336 -328.5t-415 -120.5q-150 0 -279.5 59t-228.5 170q-115 133 -162.5 315.5t-19.5 382.5q35 244 170 453t336 330t416 121q147 0 278.5 -59.5t227.5 -172.5zM1522 870q23 160 -14.5 304.5t-125.5 246.5 q-145 166 -366 166q-172 0 -332 -99t-269.5 -270t-135.5 -374q-23 -160 13 -304.5t126 -244.5q143 -168 366 -168q172 0 332 99.5t268.5 271t137.5 372.5zM1071 2021l-178 -157l-107 123l301 264l234 -273l-123 -106z" glyph-name="Ocircumflex" horiz-adv-x="1798" unicode="Ô"/><glyph d="M1522 1542q117 -133 164 -315.5t20 -382.5q-35 -244 -171 -452t-336 -328.5t-415 -120.5q-150 0 -279.5 59t-228.5 170q-115 133 -162.5 315.5t-19.5 382.5q35 244 170 453t336 330t416 121q147 0 278.5 -59.5t227.5 -172.5zM1522 870q23 160 -14.5 304.5t-125.5 246.5 q-145 166 -366 166q-172 0 -332 -99t-269.5 -270t-135.5 -374q-23 -160 13 -304.5t126 -244.5q143 -168 366 -168q172 0 332 99.5t268.5 271t137.5 372.5zM776 1901l-65 47l-64 49q86 113 221.5 142.5t241.5 -40.5q53 -37 125 -17.5t117 81.5l131 -99 q-86 -113 -221.5 -142.5t-241.5 42.5q-53 35 -125 16.5t-119 -79.5z" glyph-name="Otilde" horiz-adv-x="1798" unicode="Õ"/><glyph d="M1522 1542q117 -133 164 -315.5t20 -382.5q-35 -244 -171 -452t-336 -328.5t-415 -120.5q-150 0 -279.5 59t-228.5 170q-115 133 -162.5 315.5t-19.5 382.5q35 244 170 453t336 330t416 121q147 0 278.5 -59.5t227.5 -172.5zM1522 870q23 160 -14.5 304.5t-125.5 246.5 q-145 166 -366 166q-172 0 -332 -99t-269.5 -270t-135.5 -374q-23 -160 13 -304.5t126 -244.5q143 -168 366 -168q172 0 332 99.5t268.5 271t137.5 372.5zM932 2124l-27 -187h-219l25 187h221zM1444 2124l-27 -187h-221l27 187h221z" glyph-name="Odieresis" horiz-adv-x="1798" unicode="Ö"/><glyph d="M1087 862l-417 -366l313 -365l-149 -131l-314 365l-418 -365l-112 131l418 365l-314 366l148 131l315 -366l418 366z" glyph-name="multiply" horiz-adv-x="1179" unicode="×"/><glyph d="M1753 1712l-186 -217q96 -131 134 -300t11 -351q-35 -244 -170 -452t-334.5 -328.5t-416.5 -120.5q-242 0 -424 151l-78 -90h-228l187 217q-96 129 -134 298t-12 351q33 244 169.5 453t336 330t414.5 121q244 0 426 -152l78 90h227zM285 844q-39 -274 88 -477l954 1114 q-129 106 -305 106q-170 0 -331 -99t-269 -270t-137 -374zM1530 870q37 274 -88 480l-957 -1117q131 -106 306 -106q172 0 331.5 99.5t269 271t138.5 372.5z" glyph-name="Oslash" horiz-adv-x="1812" unicode="Ø"/><glyph d="M1520 1712h186l-152 -1083q-25 -186 -142.5 -344t-293.5 -250t-368 -92q-150 0 -278 55t-218 160q-182 209 -141 497l149 1057h187l-152 -1083q-29 -205 96 -348q133 -152 357 -152q227 0 409 153.5t213 372.5zM1200 1954l-123 -105l-219 254l123 105z" glyph-name="Ugrave" unicode="Ù"/><glyph d="M1520 1712h186l-152 -1083q-25 -186 -142.5 -344t-293.5 -250t-368 -92q-150 0 -278 55t-218 160q-182 209 -141 497l149 1057h187l-152 -1083q-29 -205 96 -348q133 -152 357 -152q227 0 409 153.5t213 372.5zM1231 2095l-291 -254l-106 121l290 254z" glyph-name="Uacute" unicode="Ú"/><glyph d="M1520 1712h186l-152 -1083q-25 -186 -142.5 -344t-293.5 -250t-368 -92q-150 0 -278 55t-218 160q-182 209 -141 497l149 1057h187l-152 -1083q-29 -205 96 -348q133 -152 357 -152q227 0 409 153.5t213 372.5zM1044 2019l-178 -157l-108 123l303 264l233 -273l-123 -106 z" glyph-name="Ucircumflex" unicode="Û"/><glyph d="M1520 1712h186l-152 -1083q-25 -186 -142.5 -344t-293.5 -250t-368 -92q-150 0 -278 55t-218 160q-182 209 -141 497l149 1057h187l-152 -1083q-29 -205 96 -348q133 -152 357 -152q227 0 409 153.5t213 372.5zM891 2122l-27 -187h-221l27 187h221zM1401 2122l-25 -187 h-221l27 187h219z" glyph-name="Udieresis" unicode="Ü"/><glyph d="M1481 1708h243l-825 -831l-123 -877h-188l125 877l-594 831h243l467 -655zM1159 2095l-289 -254l-106 121l289 256z" glyph-name="Yacute" horiz-adv-x="1603" unicode="Ý"/><glyph d="M1034 1171q172 -68 259 -217t59 -358q-39 -270 -238 -462.5t-440 -192.5h-277l25 184h278q166 0 302.5 138t162.5 333q27 188 -81.5 306t-280.5 118l6 41l22 162l293 301h-471q-78 0 -141 -55.5t-76 -133.5l-186 -1337h-187l189 1337q23 156 147.5 265.5t278.5 109.5h676 l-33 -242z" glyph-name="germandbls" horiz-adv-x="1443" unicode="ß"/><glyph d="M969 1456l-123 -106l-217 256l123 104zM1120 1126q141 -164 109 -391l-103 -729h-186l18 144q-131 -207 -407 -207q-229 0 -372.5 131t-118 317.5t207 317.5t410.5 131q274 0 350 -207l16 129q20 143 -65 244q-84 96 -225 96q-129 0 -241 -53.5t-153 -137.5l-165 84 q66 131 220 212t339 81q225 0 366 -162zM991 369l6 45q2 100 -95 169.5t-245 69.5q-154 0 -274.5 -76.5t-136 -185t84 -185.5t253.5 -77q147 0 263.5 70t143.5 170z" glyph-name="agrave" horiz-adv-x="1341" unicode="à"/><glyph d="M979 1597l-289 -256l-108 123l290 254zM1120 1126q141 -162 109 -391l-103 -729h-186l18 144q-131 -207 -407 -207q-229 0 -372.5 131t-118 317.5t207 317.5t410.5 131q274 0 350 -207l16 129q20 143 -65 244q-84 96 -225 96q-129 0 -241 -53.5t-153 -137.5l-165 84 q66 131 220 212t339 81q225 0 366 -162zM991 369l6 45q2 100 -95 169.5t-245 69.5q-154 0 -274.5 -76.5t-136 -185t84 -185.5t253.5 -77q147 0 263.5 70t143.5 170z" glyph-name="aacute" horiz-adv-x="1341" unicode="á"/><glyph d="M782 1483l-178 -156l-106 121l301 264l233 -272l-123 -105zM1120 1126q141 -162 109 -391l-103 -729h-186l18 144q-131 -207 -407 -207q-229 0 -372.5 131t-118 317.5t207 317.5t410.5 131q274 0 350 -207l16 129q20 143 -65 244q-84 96 -225 96q-129 0 -241 -53.5 t-153 -137.5l-165 84q66 131 220 212t339 81q225 0 366 -162zM991 369l6 45q2 100 -95 169.5t-245 69.5q-154 0 -274.5 -76.5t-136 -185t84 -185.5t253.5 -77q147 0 263.5 70t143.5 170z" glyph-name="acircumflex" horiz-adv-x="1341" unicode="â"/><glyph d="M502 1462l-66 49l-63 50q84 113 220 142.5t243 -42.5q53 -35 124.5 -16.5t116.5 79.5l131 -96q-86 -113 -221 -142.5t-242 40.5q-53 37 -124.5 17t-118.5 -81zM1120 1126q141 -164 109 -391l-103 -729h-186l21 144q-133 -207 -410 -207q-229 0 -372.5 131t-118 317.5 t207 317.5t410.5 131q274 0 350 -207l16 129q20 143 -65 244q-84 96 -225 96q-129 0 -241 -53.5t-153 -137.5l-165 84q66 131 220 212t339 81q225 0 366 -162zM991 369l6 45q2 100 -95 169.5t-245 69.5q-154 0 -274.5 -76.5t-136 -185t84 -185.5t253.5 -77q147 0 263.5 70 t143.5 170z" glyph-name="atilde" horiz-adv-x="1341" unicode="ã"/><glyph d="M645 1593l-24 -186h-222l25 186h221zM1157 1593l-27 -186h-221l27 186h221zM1120 1126q141 -164 109 -391l-103 -729h-186l18 144q-131 -207 -407 -207q-229 0 -372.5 131t-118 317.5t207 317.5t410.5 131q274 0 350 -207l16 129q20 143 -65 244q-84 96 -225 96 q-129 0 -241 -53.5t-153 -137.5l-165 84q66 131 220 212t339 81q225 0 366 -162zM991 369l6 45q2 100 -95 169.5t-245 69.5q-154 0 -274.5 -76.5t-136 -185t84 -185.5t253.5 -77q147 0 263.5 70t143.5 170z" glyph-name="adieresis" horiz-adv-x="1341" unicode="ä"/><glyph d="M764 1325q-96 0 -156 70q-61 70 -47 166q12 90 83 151.5t159 61.5q96 0 155 -70q61 -70 48 -166q-12 -90 -82 -151.5t-160 -61.5zM721 1538q-2 -23 10 -37q10 -12 33 -12q29 0 53.5 21.5t28.5 50.5q4 23 -8 36q-12 12 -35 13q-29 0 -53.5 -21.5t-28.5 -50.5zM1120 1126 q141 -164 109 -391l-103 -729h-186l18 144q-131 -207 -407 -207q-229 0 -372.5 131t-118 317.5t207 317.5t410.5 131q274 0 350 -207l16 129q20 143 -65 244q-84 96 -225 96q-129 0 -241 -53.5t-153 -137.5l-165 84q66 131 220 212t339 81q225 0 366 -162zM991 369l6 45 q2 100 -95 169.5t-245 69.5q-154 0 -274.5 -76.5t-136 -185t84 -185.5t253.5 -77q147 0 263.5 70t143.5 170z" glyph-name="aring" horiz-adv-x="1341" unicode="å"/><glyph d="M2198 606l-13 -80h-979q0 -176 97 -286q92 -104 229 -105h12q119 0 230.5 49t195.5 138h219q-109 -166 -287 -267.5t-370 -105.5h-4h-3h-3h-2q-215 6 -357 168q-6 8 -16 20l-19 -131h-186l19 144q-131 -207 -408 -207q-213 0 -354.5 116.5t-139.5 286.5q0 25 4 49 q25 184 206.5 316.5t410.5 132.5q274 0 350 -209l17 129q4 18 4 35q4 121 -70 207q-84 96 -225 96q-129 0 -241 -53.5t-153 -135.5l-165 82l1 1l1 1l-2 2q66 131 220 211t339 80v-2v2q225 0 366 -160q43 -51 72 -112q96 125 228 197.5t272 72.5q223 0 368 -168 q84 -96 120 -231.5t16 -282.5zM997 410v2v2q2 100 -95 169.5t-243 69.5q-154 0 -274.5 -76.5t-134.5 -185.5q-2 -12 -2 -24q2 -100 98 -167t240 -67q150 0 267.5 71.5t139.5 174.5zM1237 711h782q0 176 -96 288q-92 104 -229 105q-145 0 -274.5 -111.5t-182.5 -281.5z" glyph-name="ae" horiz-adv-x="2314" unicode="æ"/><glyph d="M600 129q123 0 239.5 86t184.5 225l168 -82q-84 -170 -224.5 -279.5t-299.5 -129.5v-103q-53 0 -97.5 -35.5t-52.5 -86.5q-6 -41 19 -70q29 -31 77 -31v-164q-123 0 -198 88q-74 84 -58 199q18 131 136 209q-154 35 -261 158q-86 98 -121.5 233t-13.5 285 q37 272 232.5 465.5t433.5 193.5q180 0 316.5 -117.5t176.5 -308.5l-180 -41q-29 129 -113.5 206t-199.5 77q-170 0 -312.5 -147.5t-170.5 -354.5q-14 -109 9 -206t83 -165q90 -104 227 -104z" glyph-name="ccedilla" horiz-adv-x="1304" unicode="ç"/><glyph d="M1266 600l-13 -80h-979q0 -176 97 -287q90 -104 229 -104h12q117 0 229.5 50t194.5 136h221q-109 -166 -286.5 -267t-370.5 -103v-2h-4h-3h-3h-4q-213 6 -355 168q-86 98 -120.5 233t-14.5 283q39 270 233.5 462.5t432.5 192.5q223 0 368 -168q84 -96 120 -231.5 t16 -282.5zM305 707h782q0 174 -96 286q-92 104 -229 105q-147 0 -275.5 -111.5t-181.5 -279.5zM979 1450l-123 -104l-217 253l123 105z" glyph-name="egrave" horiz-adv-x="1380" unicode="è"/><glyph d="M1266 600l-13 -80h-979q0 -176 97 -287q90 -104 229 -104h12q117 0 229.5 50t194.5 136h221q-109 -166 -286.5 -267t-370.5 -103v-2h-4h-3h-3h-4q-213 6 -355 168q-86 98 -120.5 233t-14.5 283q39 270 233.5 462.5t432.5 192.5q223 0 368 -168q84 -96 120 -231.5 t16 -282.5zM305 707h782q0 174 -96 286q-92 104 -229 105q-147 0 -275.5 -111.5t-181.5 -279.5zM1014 1591l-289 -254l-107 121l289 254z" glyph-name="eacute" horiz-adv-x="1380" unicode="é"/><glyph d="M1266 600l-13 -80h-979q0 -176 97 -287q90 -104 229 -104h12q117 0 229.5 50t194.5 136h221q-109 -166 -286.5 -267t-370.5 -103v-2h-4h-3h-3h-4q-213 6 -355 168q-86 98 -120.5 233t-14.5 283q39 270 233.5 462.5t432.5 192.5q223 0 368 -168q84 -96 120 -231.5 t16 -282.5zM305 707h782q0 174 -96 286q-92 104 -229 105q-147 0 -275.5 -111.5t-181.5 -279.5zM807 1489l-178 -158l-107 123l301 264l234 -272l-123 -107z" glyph-name="ecircumflex" horiz-adv-x="1380" unicode="ê"/><glyph d="M1266 600l-13 -80h-979q0 -176 97 -287q90 -104 229 -104h12q117 0 229.5 50t194.5 136h221q-109 -166 -286.5 -267t-370.5 -103v-2h-4h-3h-3h-4q-213 6 -355 168q-86 98 -120.5 233t-14.5 283q39 270 233.5 462.5t432.5 192.5q223 0 368 -168q84 -96 120 -231.5 t16 -282.5zM305 707h782q0 174 -96 286q-92 104 -229 105q-147 0 -275.5 -111.5t-181.5 -279.5zM672 1591l-27 -186h-221l27 186h221zM1184 1591l-27 -186h-221l27 186h221z" glyph-name="edieresis" horiz-adv-x="1380" unicode="ë"/><glyph d="M63 0l173 1221h186l-172 -1221h-187zM543 1450l-123 -107l-219 256l123 105z" glyph-name="igrave" horiz-adv-x="487" unicode="ì"/><glyph d="M63 0l173 1221h186l-172 -1221h-187zM569 1591l-290 -254l-107 121l291 256z" glyph-name="iacute" horiz-adv-x="487" unicode="í"/><glyph d="M63 0l173 1221h186l-172 -1221h-187zM393 1718l234 -272l-123 -107l-127 150l-178 -158l-107 123z" glyph-name="icircumflex" horiz-adv-x="487" unicode="î"/><glyph d="M66 0l172 1221h186l-172 -1221h-186zM246 1591l-27 -186h-221l27 186h221zM535 1591h221l-27 -186h-219z" glyph-name="idieresis" horiz-adv-x="489" unicode="ï"/><glyph d="M838 1282q160 0 283.5 -90t181 -244.5t32.5 -337.5l-86 -610h-186l86 610q29 201 -70.5 342.5t-267.5 141.5t-307 -141.5t-168 -342.5l-86 -610h-187l170 1221h189l-33 -226q162 287 449 287zM608 1456l-65 47l-64 49q84 115 220.5 144.5t242.5 -41.5q51 -35 124 -16.5 t118 79.5l129 -98q-84 -113 -219.5 -142.5t-241.5 42.5q-53 35 -125 16t-119 -80z" glyph-name="ntilde" horiz-adv-x="1458" unicode="ñ"/><glyph d="M981 1448l-123 -107l-219 254l123 107zM1130 1114q84 -98 120 -233.5t16 -282.5q-39 -270 -234.5 -462.5t-431.5 -192.5q-223 0 -369 168q-86 96 -120.5 231t-14.5 283q39 272 233.5 464.5t432.5 192.5q223 0 368 -168zM1081 625q14 106 -9 202.5t-81 163.5 q-92 104 -229 105q-170 0 -311.5 -145.5t-169.5 -352.5q-16 -106 8 -202.5t82 -164.5q90 -104 229 -104q170 0 311 145.5t170 352.5z" glyph-name="ograve" horiz-adv-x="1359" unicode="ò"/><glyph d="M1008 1589l-291 -254l-107 123l291 254zM1130 1114q84 -98 120 -233.5t16 -282.5q-39 -270 -234.5 -462.5t-431.5 -192.5q-223 0 -369 168q-86 96 -120.5 231t-14.5 283q39 272 233.5 464.5t432.5 192.5q223 0 368 -168zM1081 625q14 106 -9 202.5t-81 163.5 q-92 104 -229 105q-170 0 -311.5 -145.5t-169.5 -352.5q-16 -106 8 -202.5t82 -164.5q90 -104 229 -104q170 0 311 145.5t170 352.5z" glyph-name="oacute" horiz-adv-x="1359" unicode="ó"/><glyph d="M1130 1114q84 -98 120 -233.5t16 -282.5q-39 -270 -234.5 -462.5t-431.5 -192.5q-223 0 -369 168q-86 96 -120.5 231t-14.5 283q39 272 233.5 464.5t432.5 192.5q223 0 368 -168zM1081 625q14 109 -9 204t-81 162q-92 104 -229 105q-170 0 -311.5 -145.5t-169.5 -352.5 q-16 -106 8 -202.5t82 -164.5q90 -104 229 -104q170 0 311 146.5t170 351.5zM811 1487l-178 -158l-107 123l301 264l236 -272l-123 -107z" glyph-name="ocircumflex" horiz-adv-x="1359" unicode="ô"/><glyph d="M1130 1114q84 -98 120 -233.5t16 -282.5q-39 -270 -234.5 -462.5t-431.5 -192.5q-223 0 -369 168q-86 96 -120.5 231t-14.5 283q39 272 233.5 464.5t432.5 192.5q223 0 368 -168zM1081 625q14 109 -9 204t-81 162q-92 104 -229 105q-170 0 -311.5 -145.5t-169.5 -352.5 q-16 -106 8 -202.5t82 -164.5q90 -104 229 -104q170 0 311 146.5t170 351.5zM774 1528q-53 37 -124.5 17.5t-117.5 -81.5l-131 97q86 115 221.5 144.5t241.5 -42.5q53 -35 125 -16.5t119 79.5l129 -96q-86 -113 -221.5 -142.5t-241.5 40.5z" glyph-name="otilde" horiz-adv-x="1359" unicode="õ"/><glyph d="M1130 1114q84 -98 120 -233.5t16 -282.5q-39 -270 -234.5 -462.5t-431.5 -192.5q-223 0 -369 168q-86 96 -120.5 231t-14.5 283q39 272 233.5 464.5t432.5 192.5q223 0 368 -168zM1081 625q14 109 -9 204t-81 162q-92 104 -229 105q-170 0 -311.5 -145.5t-169.5 -352.5 q-16 -106 8 -202.5t82 -164.5q90 -104 229 -104q170 0 311 146.5t170 351.5zM672 1589l-25 -186h-221l27 186h219zM1184 1589l-27 -186h-219l25 186h221z" glyph-name="odieresis" horiz-adv-x="1359" unicode="ö"/><glyph d="M1325 1221l-141 -166q127 -197 90 -457q-39 -270 -233.5 -462.5t-432.5 -192.5q-166 0 -295 98l-32 -39h-228l144 166q-127 197 -93 457q39 272 235 464.5t431 192.5q166 0 295 -100l33 39h227zM289 598q-23 -154 35 -279l620 723q-76 53 -174 54q-170 0 -311 -145.5 t-170 -352.5zM1090 625q23 156 -35 278l-621 -721q78 -55 174 -55q170 0 311.5 146.5t170.5 351.5z" glyph-name="oslash" horiz-adv-x="1376" unicode="ø"/><glyph d="M1208 1227h187l-172 -1219h-187l31 221q-162 -287 -446 -286q-162 0 -286 90t-181.5 244.5t-30.5 336.5l84 613h186l-86 -613q-29 -201 70.5 -342t268.5 -141t308.5 141.5t165.5 341.5zM1008 1454l-123 -104l-219 254l122 106z" glyph-name="ugrave" horiz-adv-x="1456" unicode="ù"/><glyph d="M1208 1227h187l-172 -1219h-187l31 221q-162 -287 -446 -286q-162 0 -286 90t-181.5 244.5t-30.5 336.5l84 613h186l-86 -613q-29 -201 70.5 -342t268.5 -141t308.5 141.5t165.5 341.5zM1038 1595l-290 -254l-107 123l291 254z" glyph-name="uacute" horiz-adv-x="1456" unicode="ú"/><glyph d="M1208 1227h187l-172 -1219h-187l31 221q-162 -287 -446 -286q-162 0 -286 90t-181.5 244.5t-30.5 336.5l84 613h186l-86 -613q-29 -201 70.5 -342t268.5 -141t308.5 141.5t165.5 341.5zM854 1493l-178 -158l-107 123l301 264l234 -272l-123 -107z" glyph-name="ucircumflex" horiz-adv-x="1456" unicode="û"/><glyph d="M1208 1227h187l-172 -1219h-187l31 221q-162 -287 -446 -286q-162 0 -286 90t-181.5 244.5t-30.5 336.5l84 613h186l-86 -613q-29 -201 70.5 -342t268.5 -141t308.5 141.5t165.5 341.5zM702 1595l-24 -186h-221l26 186h219zM1214 1595l-26 -186h-221l26 186h221z" glyph-name="udieresis" horiz-adv-x="1456" unicode="ü"/><glyph d="M1128 1217h195l-721 -1563q-43 -92 -127 -148.5t-178 -56.5h-412l27 191h412q35 0 65.5 20.5t44.5 52.5l131 283h-203l-231 1221h205l229 -1219zM969 1589l-291 -256l-107 123l291 254z" glyph-name="yacute" horiz-adv-x="1282" unicode="ý"/><glyph d="M1128 1217h195l-721 -1563q-43 -92 -127 -148.5t-178 -56.5h-412l27 191h412q35 0 65.5 20.5t44.5 52.5l131 283h-203l-231 1221h205l229 -1219zM635 1587l-27 -186h-221l27 186h221zM1145 1587l-25 -186h-221l27 186h219z" glyph-name="ydieresis" horiz-adv-x="1282" unicode="ÿ"/><glyph d="M1116 1708l322 -1708h-203l-105 551h-759l-258 -551h-205l803 1708h405zM459 735h637l-183 969zM1243 2103l-22 -155h-539l23 161h538v-6z" glyph-name="Amacron" horiz-adv-x="1587" unicode="Ā"/><glyph d="M1120 1128q143 -164 111 -391l-103 -729h-186l19 144q-131 -209 -408 -209q-229 0 -372.5 132t-118 317.5t207 317.5t410.5 132q274 0 348 -209l19 129q20 145 -66 244q-84 98 -225 98q-129 0 -241 -54.5t-153 -136.5l-165 84q66 131 220 211t339 80q225 0 364 -160z M991 371l6 43q2 102 -95 170.5t-243 68.5q-154 0 -274.5 -76.5t-136 -184t84 -184.5t253.5 -77q147 0 263.5 70t141.5 170zM1059 1577l-23 -158h-538l22 164h539v-6z" glyph-name="amacron" horiz-adv-x="1343" unicode="ā"/><glyph d="M983 1868q-121 0 -197 86q-63 76 -61 176h164q-2 -41 20 -70q27 -31 74 -30q45 0 85 28.5t56 71.5h168q-18 -111 -107 -186.5t-202 -75.5zM1116 1708l322 -1708h-203l-105 551h-759l-258 -551h-205l803 1708h405zM459 735h637l-183 969z" glyph-name="Abreve" horiz-adv-x="1587" unicode="Ă"/><glyph d="M778 1452q-121 0 -196 86q-63 74 -62 174h164q-2 -41 21 -67q27 -31 73 -31q43 0 83 27.5t59 70.5h167q-20 -111 -109 -185.5t-200 -74.5zM1120 1128q141 -164 111 -391l-103 -729h-186l19 144q-131 -209 -408 -209q-229 0 -372.5 132t-118 317.5t207 317.5t410.5 132 q274 0 348 -209l19 129q20 145 -66 244q-84 98 -225 98q-129 0 -241 -54.5t-153 -136.5l-165 84q66 131 220 211t339 80q225 0 364 -160zM991 371l6 43q2 102 -95 170.5t-243 68.5q-154 0 -274.5 -76.5t-136 -184t84 -184.5t253.5 -77q147 0 263.5 70t141.5 170z" glyph-name="abreve" horiz-adv-x="1343" unicode="ă"/><glyph d="M1116 1706l322 -1708l-11 -8v-154q-53 0 -98 -37t-51 -86q-6 -39 18 -67q27 -31 78 -31v-162q-125 0 -200 86q-72 84 -58 197q18 127 129 205l-115 608h-759l-258 -551h-205l803 1708h405zM459 733h637l-183 969z" glyph-name="Aogonek" horiz-adv-x="1587" unicode="Ą"/><glyph d="M1120 1124q141 -162 109 -391l-117 -823v-74q-53 0 -97 -37t-52 -86q-4 -39 18 -67q29 -31 78 -31v-162q-123 0 -199 86q-74 84 -57 197q18 125 127 203l28 208q-131 -207 -407 -206q-229 0 -372.5 132t-118 317t207 316.5t410.5 131.5q274 0 350 -207l16 129 q20 145 -65 244q-84 96 -225 96q-129 0 -241 -53.5t-153 -135.5l-165 82q66 131 220 212t339 81q225 0 366 -162zM989 367l8 45q2 100 -95 169.5t-245 69.5q-154 0 -274.5 -76.5t-136 -185t84 -185.5t253.5 -77q147 0 263.5 70t141.5 170z" glyph-name="aogonek" horiz-adv-x="1341" unicode="ą"/><glyph d="M772 127q174 0 338 108.5t272 296.5l160 -92q-131 -231 -338 -364t-432 -133q-145 0 -272 58t-224 167q-115 133 -162.5 316.5t-19.5 385.5q35 246 169 454t331 329t410 121q262 0 449 -176.5t228 -462.5l-182 -29q-33 217 -169 349t-326 132q-168 0 -326 -99 t-265.5 -270t-133.5 -374q-25 -162 12 -306.5t125 -246.5q141 -164 356 -164zM1233 2099l-289 -254l-108 123l290 254z" glyph-name="Cacute" horiz-adv-x="1710" unicode="Ć"/><glyph d="M600 127q123 0 239.5 86t184.5 225l166 -80q-92 -190 -253 -302.5t-337 -112.5q-223 0 -369 168q-84 98 -119.5 233t-15.5 285q39 272 234.5 465.5t431.5 193.5q180 0 316 -117.5t179 -308.5l-182 -41q-27 129 -112.5 206t-200.5 77q-170 0 -311.5 -146.5t-169.5 -355.5 q-16 -109 8 -206t84 -165q90 -104 227 -104zM989 1595l-289 -254l-108 123l291 254z" glyph-name="cacute" horiz-adv-x="1304" unicode="ć"/><glyph d="M772 127q174 0 338 108.5t272 296.5l160 -92q-131 -231 -338 -364t-432 -133q-145 0 -272 58t-224 167q-115 133 -162.5 316.5t-19.5 385.5q35 246 169 454t331 329t410 121q262 0 449 -176.5t228 -462.5l-182 -29q-33 217 -169 349t-326 132q-168 0 -326 -99 t-265.5 -270t-133.5 -374q-25 -162 12 -306.5t125 -246.5q141 -164 356 -164zM1042 2023l-178 -155l-108 121l301 264l235 -273l-123 -104z" glyph-name="Ccircumflex" horiz-adv-x="1710" unicode="Ĉ"/><glyph d="M600 127q123 0 239.5 86t184.5 225l166 -80q-92 -190 -253 -302.5t-337 -112.5q-223 0 -369 168q-84 98 -119.5 233t-15.5 285q39 272 234.5 465.5t431.5 193.5q180 0 316 -117.5t179 -308.5l-182 -41q-27 129 -112.5 206t-200.5 77q-170 0 -311.5 -146.5t-169.5 -355.5 q-16 -109 8 -206t84 -165q90 -104 227 -104zM795 1491l-179 -156l-108 121l303 264l233 -272l-122 -105z" glyph-name="ccircumflex" horiz-adv-x="1304" unicode="ĉ"/><glyph d="M772 127q174 0 338 108.5t272 296.5l160 -92q-131 -231 -338 -364t-432 -133q-145 0 -272 58t-224 167q-115 133 -162.5 316.5t-19.5 385.5q35 246 169 454t331 329t410 121q262 0 449 -176.5t228 -462.5l-182 -29q-33 217 -169 349t-326 132q-168 0 -326 -99 t-265.5 -270t-133.5 -374q-25 -162 12 -306.5t125 -246.5q141 -164 356 -164zM1019 1923q-46 0 -73.5 32t-20.5 78t44 78.5t82 32.5t72.5 -32.5t21.5 -78.5t-43 -78t-83 -32z" glyph-name="Cdotaccent" horiz-adv-x="1710" unicode="Ċ"/><glyph d="M600 127q123 0 239.5 86t184.5 225l166 -80q-92 -190 -253 -302.5t-337 -112.5q-223 0 -369 168q-84 98 -119.5 233t-15.5 285q39 272 234.5 465.5t431.5 193.5q180 0 316 -117.5t179 -308.5l-182 -41q-27 129 -112.5 206t-200.5 77q-170 0 -311.5 -146.5t-169.5 -355.5 q-16 -109 8 -206t84 -165q90 -104 227 -104zM772 1391q-45 0 -73.5 32.5t-21.5 77.5t44 78t82 33t72.5 -33t21.5 -78t-43 -77.5t-82 -32.5z" glyph-name="cdotaccent" horiz-adv-x="1304" unicode="ċ"/><glyph d="M772 127q174 0 338 108.5t272 296.5l160 -92q-131 -231 -338 -364t-432 -133q-145 0 -272 58t-224 167q-115 133 -162.5 316.5t-19.5 385.5q35 246 169 454t331 329t410 121q262 0 449 -176.5t228 -462.5l-182 -29q-33 217 -169 349t-326 132q-168 0 -326 -99 t-265.5 -270t-133.5 -374q-25 -162 12 -306.5t125 -246.5q141 -164 356 -164zM1313 2077l-301 -265l-234 273l123 106l127 -147l178 156z" glyph-name="Ccaron" horiz-adv-x="1710" unicode="Č"/><glyph d="M600 127q123 0 239.5 86t184.5 225l166 -80q-92 -190 -253 -302.5t-337 -112.5q-223 0 -369 168q-84 98 -119.5 233t-15.5 285q39 272 234.5 465.5t431.5 193.5q180 0 316 -117.5t179 -308.5l-182 -41q-27 129 -112.5 206t-200.5 77q-170 0 -311.5 -146.5t-169.5 -355.5 q-16 -109 8 -206t84 -165q90 -104 227 -104zM1073 1597l-301 -264l-235 273l122 104l129 -147l179 155z" glyph-name="ccaron" horiz-adv-x="1304" unicode="č"/><glyph d="M1194 2071l-301 -265l-234 273l123 106l127 -147l178 155zM1604 1470q100 -115 141 -262t18 -309l-16 -117q-29 -213 -159 -393t-325.5 -284.5t-408.5 -104.5h-809l240 1706h784q160 0 298.5 -60.5t236.5 -175.5zM1581 924q35 252 -117 426q-150 172 -395 172h-623 l-188 -1338h596q258 0 466 182.5t245 440.5z" glyph-name="Dcaron" horiz-adv-x="1851" unicode="Ď"/><glyph d="M1446 1710l-201 -1434q-6 -39 17 -65q20 -23 57 -25l-25 -182q-106 8 -172 86q-63 72 -63 174q-76 -152 -193.5 -236.5t-271.5 -84.5q-162 0 -286 90t-181 244.5t-31 336.5q39 276 240 473t446 197q152 0 245 -82t128 -229l105 737h186zM1094.5 613.5 q27.5 199.5 -71.5 342t-267 142.5t-307.5 -142.5t-168 -342t71 -342t268 -142.5t308 142.5t167 342zM1880 1589l-289 -254l-108 123l291 254z" glyph-name="dcaron" horiz-adv-x="1476" unicode="ď"/><glyph d="M1708 1473q100 -117 141 -264.5t19 -309.5l-17 -117q-29 -213 -158.5 -393t-325.5 -284.5t-409 -104.5h-808l145 1032h-211l27 187h211l67 487h785q160 0 298 -60t236 -173zM1686 926q35 250 -117 424q-150 172 -395 172h-623l-43 -303h215v-5l-25 -182h-217l-119 -846 h596q258 0 466 182.5t245 440.5z" glyph-name="Dcroat" horiz-adv-x="1955" unicode="Đ"/><glyph d="M1415 1497h172v-8l-24 -178h-172l-146 -1035q-6 -39 17 -65q20 -23 57 -25l-25 -182q-106 8 -172 86q-63 72 -63 174q-76 -152 -193.5 -236.5t-271.5 -84.5q-162 0 -286 90t-181 244.5t-31 336.5q39 276 240 473t446 197q152 0 245 -82t128 -229l47 338h-153v2l26 184 h154l31 213h186zM1094.5 613.5q27.5 199.5 -71.5 342t-267 142.5t-307.5 -142.5t-168 -342t71 -342t268 -142.5t308 142.5t167 342z" glyph-name="dcroat" horiz-adv-x="1472" unicode="đ"/><glyph d="M1278 2101l-23 -155h-538l22 161h539v-6zM1495 1522h-1046l-82 -576h845l-26 -184h-846l-80 -576h1049l-27 -186h-1235l240 1708h1235z" glyph-name="Emacron" horiz-adv-x="1468" unicode="Ē"/><glyph d="M1085 1573l-22 -156h-539l25 162h536v-6zM1266 600l-13 -80h-979q0 -176 97 -289q90 -102 229 -102h12q117 0 229.5 49t194.5 137h221q-109 -166 -286.5 -267t-370.5 -105h-4h-3h-3h-4q-213 6 -355 168q-86 98 -120.5 232t-14.5 282q39 272 233.5 464.5t432.5 192.5 q223 0 368 -168q84 -98 120 -232.5t16 -281.5zM305 705h782q0 176 -96 288q-92 104 -229 105q-147 0 -275.5 -111.5t-181.5 -281.5z" glyph-name="emacron" horiz-adv-x="1380" unicode="ē"/><glyph d="M1495 1522h-1046l-82 -576h845l-26 -184h-846l-80 -576h1049l-27 -186h-1235l240 1708h1235zM975 1868q-121 0 -197 86q-63 74 -61 176h164q-2 -41 20 -70q27 -31 74 -30q45 0 85 28.5t56 71.5h168q-18 -111 -107 -186.5t-202 -75.5z" glyph-name="Ebreve" horiz-adv-x="1468" unicode="Ĕ"/><glyph d="M1266 600l-13 -80h-979q0 -176 97 -289q90 -102 229 -102h12q117 0 229.5 49t194.5 137h221q-109 -166 -286.5 -267t-370.5 -105h-4h-3h-3h-4q-213 6 -355 168q-86 98 -120.5 232t-14.5 282q39 272 233.5 464.5t432.5 192.5q223 0 368 -168q84 -98 120 -232.5t16 -281.5z M305 705h782q0 176 -96 288q-92 104 -229 105q-147 0 -275.5 -111.5t-181.5 -281.5zM799 1448q-121 0 -197 88q-63 74 -61 174h164q-2 -41 20 -68q27 -31 74 -30q43 0 83 27.5t58 70.5h168q-20 -111 -109 -186.5t-200 -75.5z" glyph-name="ebreve" horiz-adv-x="1380" unicode="ĕ"/><glyph d="M1495 1522h-1046l-82 -576h845l-26 -184h-846l-80 -576h1049l-27 -186h-1235l240 1708h1235zM983 1917q-45 0 -72.5 32.5t-21.5 78t43 78t83 32.5t73.5 -32.5t20.5 -78t-44 -78t-82 -32.5z" glyph-name="Edotaccent" horiz-adv-x="1468" unicode="Ė"/><glyph d="M1266 600l-13 -80h-979q0 -176 97 -289q90 -102 229 -102h12q117 0 229.5 49t194.5 137h221q-109 -166 -286.5 -267t-370.5 -105h-4h-3h-3h-4q-213 6 -355 168q-86 98 -120.5 232t-14.5 282q39 272 233.5 464.5t432.5 192.5q223 0 368 -168q84 -98 120 -232.5t16 -281.5z M305 705h782q0 176 -96 288q-92 104 -229 105q-147 0 -275.5 -111.5t-181.5 -281.5zM790.5 1386q-45.5 0 -73 33t-21.5 78t43 78t83 33t74 -33t20.5 -78t-44 -78t-82 -33z" glyph-name="edotaccent" horiz-adv-x="1380" unicode="ė"/><glyph d="M1493 1522h-1047l-81 -576h845l-26 -184h-846l-80 -576h1049l-27 -186l-23 -162q-47 -8 -83.5 -43t-43.5 -80q-6 -41 19 -69q29 -31 76 -31l-23 -162q-109 10 -174 86q-74 84 -57 199q14 106 98 181t193 81h-1217l240 1708h1235z" glyph-name="Eogonek" horiz-adv-x="1466" unicode="Ę"/><glyph d="M1264 598l-11 -80h-979q0 -176 97 -289q90 -102 229 -102h12q117 0 228.5 49t195.5 137h221q-98 -150 -252.5 -247t-328.5 -119v-107q-53 0 -97 -36.5t-53 -88.5q-6 -41 19 -69q29 -31 78 -31v-162q-123 0 -199 86q-74 84 -57 199q18 133 139 213q-164 31 -275 158 q-86 98 -120.5 232t-14.5 282q39 272 233.5 464.5t432.5 192.5q221 0 368 -168q84 -98 120.5 -232.5t13.5 -281.5zM303 702h784q0 176 -98 289q-90 104 -227 105q-147 0 -275.5 -112t-183.5 -282z" glyph-name="eogonek" horiz-adv-x="1382" unicode="ę"/><glyph d="M1495 1522h-1046l-82 -576h845l-26 -184h-846l-80 -576h1049l-27 -186h-1235l240 1708h1235zM1270 2071l-301 -265l-234 273l123 106l127 -147l178 155z" glyph-name="Ecaron" horiz-adv-x="1468" unicode="Ě"/><glyph d="M1266 600l-13 -80h-979q0 -176 97 -289q90 -102 229 -102h12q117 0 229.5 49t194.5 137h221q-109 -166 -286.5 -267t-370.5 -105h-4h-3h-3h-4q-213 6 -355 168q-86 98 -120.5 232t-14.5 282q39 272 233.5 464.5t432.5 192.5q223 0 368 -168q84 -98 120 -232.5t16 -281.5z M305 705h782q0 176 -96 288q-92 104 -229 105q-147 0 -275.5 -111.5t-181.5 -281.5zM1085 1595l-301 -264l-235 273l123 104l129 -147l178 155z" glyph-name="ecaron" horiz-adv-x="1380" unicode="ě"/><glyph d="M1206 772h475l-108 -770h-189l60 408q-123 -219 -295 -343t-385 -124q-217 0 -384 122.5t-245 333.5t-43 459t172 459t339 334t419 123q158 0 294 -69t230 -196q90 -123 129 -282h-202q-31 88 -82 155q-72 98 -174.5 150.5t-221.5 52.5q-168 0 -322.5 -97t-261 -265 t-134 -364.5t32 -364.5t187.5 -265.5t294 -97.5q188 0 361 125t271 330h-243zM1004 2019l-179 -155l-106 121l301 264l233 -273l-123 -104z" glyph-name="Gcircumflex" horiz-adv-x="1802" unicode="Ĝ"/><glyph d="M1182 1221h186l-170 -1209q-33 -229 -219 -393t-418 -164q-166 0 -306 63.5t-232 178.5l145 115q66 -82 168 -127t225 -45q164 0 297 117.5t156 281.5l26 188q-162 -285 -446 -284q-160 0 -284 90t-182 244.5t-32 336.5q39 276 240 473t446 197q145 0 236.5 -74.5 t130.5 -210.5zM1094.5 613.5q27.5 199.5 -71.5 342t-267 142.5t-307.5 -142.5t-167 -342t72 -342t267 -142.5t307 142.5t167 342zM819 1487l-178 -156l-106 123l301 264l233 -272l-123 -107z" glyph-name="gcircumflex" horiz-adv-x="1429" unicode="ĝ"/><glyph d="M999 1868q-119 0 -194 88q-63 74 -62 174h162q-2 -41 23 -70q27 -31 71 -30q45 0 85 28.5t59 71.5h168q-20 -111 -109.5 -186.5t-202.5 -75.5zM1206 772h475l-108 -770h-189l60 408q-123 -219 -295 -343t-385 -124q-217 0 -384 122.5t-245 333.5t-43 459t172 459t339 334 t419 123q158 0 294 -69t230 -196q90 -123 129 -282h-202q-31 88 -82 155q-72 98 -174.5 150.5t-221.5 52.5q-168 0 -322.5 -97t-261 -265t-134 -364.5t32 -364.5t187.5 -265.5t294 -97.5q188 0 361 125t271 330h-243z" glyph-name="Gbreve" horiz-adv-x="1802" unicode="Ğ"/><glyph d="M823 1448q-121 0 -196 86q-63 74 -62 174h162q-2 -41 23 -68q27 -31 73 -30q43 0 83 27.5t59 70.5h168q-20 -111 -109.5 -185.5t-200.5 -74.5zM1180 1221h188l-170 -1209q-33 -229 -219 -393t-418 -164q-166 0 -306 63.5t-232 178.5l145 115q66 -82 168 -127t225 -45 q164 0 297 117.5t156 281.5l26 188q-162 -285 -446 -284q-160 0 -284 90t-182 244.5t-32 336.5q39 276 240 473t446 197q145 0 236.5 -74.5t130.5 -210.5zM1094.5 613.5q27.5 199.5 -71.5 342t-267 142.5t-307.5 -142.5t-167 -342t72 -342t267 -142.5t307 142.5t167 342z " glyph-name="gbreve" horiz-adv-x="1429" unicode="ğ"/><glyph d="M1206 772h475l-108 -770h-189l60 408q-123 -219 -295 -343t-385 -124q-217 0 -384 122.5t-245 333.5t-43 459t172 459t339 334t419 123q158 0 294 -69t230 -196q90 -123 129 -282h-202q-31 88 -82 155q-72 98 -174.5 150.5t-221.5 52.5q-168 0 -322.5 -97t-261 -265 t-134 -364.5t32 -364.5t187.5 -265.5t294 -97.5q188 0 361 125t271 330h-243zM986 1919q-46 0 -73.5 33t-21.5 78t43 77.5t83 32.5t73.5 -32.5t21.5 -77.5t-43 -78t-83 -33z" glyph-name="Gdotaccent" horiz-adv-x="1802" unicode="Ġ"/><glyph d="M1182 1221h186l-170 -1209q-33 -229 -219 -393t-418 -164q-166 0 -306 63.5t-232 178.5l145 115q66 -82 168 -127t225 -45q164 0 297 117.5t156 281.5l26 188q-162 -285 -446 -284q-160 0 -284 90t-182 244.5t-32 336.5q39 276 240 473t446 197q145 0 236.5 -74.5 t130.5 -210.5zM1094.5 613.5q27.5 199.5 -71.5 342t-267 142.5t-307.5 -142.5t-167 -342t72 -342t267 -142.5t307 142.5t167 342zM802 1386q-46 0 -74 33t-21.5 78t43 78t83 33t74 -33t21.5 -78t-43 -78t-83 -33z" glyph-name="gdotaccent" horiz-adv-x="1429" unicode="ġ"/><glyph d="M1206 770h475l-108 -770h-189l60 408q-123 -219 -295 -343t-385 -124q-217 0 -384 122.5t-245 333.5t-43 459t172 459t339 334t419 123q158 0 294 -69t230 -196q90 -123 129 -282h-202q-31 88 -82 155q-72 98 -174.5 150.5t-221.5 52.5q-168 0 -322.5 -97t-261 -265 t-134 -365t32 -364.5t187.5 -265t294 -97.5q188 0 361 125t271 330h-243zM868 -240l-288 -254l-107 121l289 254z" glyph-name="Gcommaaccent" horiz-adv-x="1802" unicode="Ģ"/><glyph d="M1182 1221h186l-170 -1209q-33 -229 -219 -393t-418 -164q-166 0 -306 63.5t-232 178.5l145 115q66 -82 168 -127t225 -45q164 0 297 117.5t156 281.5l26 188q-162 -285 -446 -284q-160 0 -284 90t-182 244.5t-32 336.5q39 276 240 473t446 197q145 0 236.5 -74.5 t130.5 -210.5zM1094.5 613.5q27.5 199.5 -71.5 342t-267 142.5t-307.5 -142.5t-167 -342t72 -342t267 -142.5t307 142.5t167 342zM1016 1589l-289 -254l-109 123l291 254z" glyph-name="gcommaaccent" horiz-adv-x="1429" unicode="ģ"/><glyph d="M1452 1708h186l-239 -1708h-189l109 762h-979l-107 -762h-188l242 1708h186l-106 -762h976zM1010 2019l-179 -155l-108 121l303 264l234 -273l-123 -104z" glyph-name="Hcircumflex" horiz-adv-x="1683" unicode="Ĥ"/><glyph d="M838 1280q160 0 283.5 -90t182 -244.5t31.5 -337.5l-84 -608h-186l86 608q27 201 -72.5 342.5t-267.5 141.5t-307 -141.5t-168 -342.5l-86 -608h-187l240 1704h186l-98 -711q162 287 447 287zM449 2015l-179 -155l-106 120l301 265l233 -273l-123 -104z" glyph-name="hcircumflex" horiz-adv-x="1458" unicode="ĥ"/><glyph d="M1722 1495h230l-27 -186h-229l-185 -1309h-186l107 762h-979l-107 -762h-188l184 1309h-223l26 186h224l30 213h187l-31 -213h979l31 213h186zM1458 946l49 363h-977l-51 -363h979z" glyph-name="Hbar" horiz-adv-x="1916" unicode="Ħ"/><glyph d="M838 1280q160 0 283.5 -90t182 -244.5t31.5 -337.5l-84 -608h-186l86 608q27 201 -72.5 342.5t-267.5 141.5t-307 -141.5t-168 -342.5l-86 -608h-187l185 1307h-164v2l27 184h163l29 211h186l-28 -211h162v-8l-25 -178h-164l-43 -314q162 287 447 287z" glyph-name="hbar" horiz-adv-x="1458" unicode="ħ"/><glyph d="M713 2157l129 -99q-84 -113 -220.5 -142.5t-242.5 42.5q-51 35 -124 16.5t-118 -80.5l-65 48l-66 49q86 115 221 144.5t242 -42.5q53 -35 125 -16t119 80zM45 0l242 1708h186l-240 -1708h-188z" glyph-name="Itilde" horiz-adv-x="522" unicode="Ĩ"/><glyph d="M668 1722l129 -98q-86 -113 -221.5 -142.5t-241.5 42.5q-53 35 -125 16.5t-117 -80.5l-65 47l-66 49q86 115 221 145t242 -42q53 -35 125 -16.5t119 79.5zM68 0l170 1221h188l-172 -1221h-186z" glyph-name="itilde" horiz-adv-x="491" unicode="ĩ"/><glyph d="M45 0l242 1708h186l-240 -1708h-188zM166 2105h536v-6l-22 -155h-537z" glyph-name="Imacron" horiz-adv-x="520" unicode="Ī"/><glyph d="M63 0l170 1221h189l-172 -1221h-187zM109 1579h536v-6l-20 -158h-539z" glyph-name="imacron" horiz-adv-x="487" unicode="ī"/><glyph d="M555 2118h168q-20 -111 -109.5 -185.5t-199.5 -74.5q-121 0 -197 86q-63 74 -61 174h161q0 -41 23 -68q27 -31 74 -31q43 0 83 28t58 71zM45 0l242 1708h186l-240 -1708h-188z" glyph-name="Ibreve" horiz-adv-x="522" unicode="Ĭ"/><glyph d="M512 1708h170q-20 -111 -109.5 -185.5t-201.5 -74.5q-119 0 -195 86q-63 74 -61 174h161q-2 -41 23 -68q27 -31 72 -30q45 0 85 27.5t56 70.5zM63 0l170 1221h189l-172 -1221h-187z" glyph-name="ibreve" horiz-adv-x="487" unicode="ĭ"/><glyph d="M473 1708l-240 -1708l-22 -164q-47 -10 -82 -44t-41 -77t18 -71q27 -29 72 -31l-22 -160q-104 8 -172 84q-72 86 -56 201q14 111 109 188l250 1782h186z" glyph-name="Iogonek" horiz-adv-x="518" unicode="Į"/><glyph d="M270 1593h222l-27 -186h-221zM236 1219h186l-170 -1219l-23 -164q-47 -10 -81.5 -44t-41.5 -77q-6 -43 19 -71q25 -29 72 -31l-23 -160q-106 8 -172 84q-72 86 -57 201q16 111 108 188z" glyph-name="iogonek" horiz-adv-x="487" unicode="į"/><glyph d="M45 0l242 1708h186l-240 -1708h-188zM319 2120h222l-27 -187h-221z" glyph-name="Idotaccent" horiz-adv-x="520" unicode="İ"/><glyph d="M233 1221h189l-172 -1221h-187z" glyph-name="dotlessi" horiz-adv-x="483" unicode="ı"/><glyph d="M45 0l240 1708h188l-242 -1708h-186zM1389 1708h188l-186 -1319q-25 -188 -172.5 -317t-335.5 -129q-193 0 -314 137q-109 127 -96 305h186q-14 -109 50.5 -183.5t173.5 -74.5q117 0 213 85t112 202z" glyph-name="IJ" horiz-adv-x="1613" unicode="Ĳ"/><glyph d="M494 1595l-27 -184h-219l24 184h222zM422 1221l-172 -1221h-187l170 1221h189zM844 1589h219l-25 -186h-221zM614 -152l197 1373h186l-198 -1399q-23 -154 -143.5 -260.5t-276.5 -106.5h-213l27 185h186q84 0 154.5 61t80.5 147z" glyph-name="ij" horiz-adv-x="1060" unicode="ĳ"/><glyph d="M1016 2247l233 -273l-123 -104l-127 147l-178 -155l-106 120zM694 414l180 1294h189l-186 -1321q-27 -186 -174.5 -315t-333.5 -129q-193 0 -314 137q-111 127 -96 303h186q-14 -109 50.5 -182.5t173.5 -73.5q115 0 212 85t113 202z" glyph-name="Jcircumflex" horiz-adv-x="1101" unicode="Ĵ"/><glyph d="M397 1737l234 -273l-123 -106l-127 149l-178 -155l-107 121zM51 -125l195 1374h186l-199 -1399q-20 -156 -142 -261t-277 -105h-213l26 184h187q84 0 154.5 61.5t82.5 145.5z" glyph-name="jcircumflex" horiz-adv-x="493" unicode="ĵ"/><glyph d="M973 -238l-289 -254l-106 121l288 254zM1798 1704l-930 -655l676 -1053h-235l-602 938l-381 -270l-95 -672h-188l242 1712h186l-113 -805l1139 805h301z" glyph-name="Kcommaaccent" horiz-adv-x="1699" unicode="Ķ"/><glyph d="M846 -238l-289 -254l-106 121l288 254zM1337 1217l-587 -416l518 -805h-236l-430 700l-283 -198l-71 -506h-187l242 1712h186l-137 -971l686 484h299z" glyph-name="kcommaaccent" horiz-adv-x="1382" unicode="ķ"/><glyph d="M1339 1225l-587 -416l518 -805h-236l-430 701l-282 -199l-72 -506h-187l173 1223h186l-68 -482l686 484h299z" glyph-name="kgreenlandic" horiz-adv-x="1384" unicode="ĸ"/><glyph d="M633 2095l-291 -254l-106 123l288 254zM260 186h758l-27 -186h-944l240 1708h186z" glyph-name="Lacute" horiz-adv-x="1128" unicode="Ĺ"/><glyph d="M639 2093l-289 -254l-106 123l288 254zM483 1708l-202 -1434q-6 -41 16 -65q20 -23 55 -25l-26 -184q-102 12 -168 88q-78 88 -62 211l201 1409h186z" glyph-name="lacute" horiz-adv-x="509" unicode="ĺ"/><glyph d="M256 180h758l-25 -186h-946l242 1708h186zM725 -238l-289 -254l-106 121l288 254z" glyph-name="Lcommaaccent" horiz-adv-x="1124" unicode="Ļ"/><glyph d="M283 270q-6 -41 16 -65q18 -23 55 -25l-26 -184q-102 12 -170 88q-76 88 -60 211l199 1409h188zM305 -238l-289 -254l-106 121l289 254z" glyph-name="lcommaaccent" horiz-adv-x="509" unicode="ļ"/><glyph d="M260 186h758l-27 -186h-944l240 1708h186zM911 1591l-290 -254l-107 123l289 254z" glyph-name="Lcaron" horiz-adv-x="1132" unicode="Ľ"/><glyph d="M483 1708l-202 -1434q-6 -41 16 -65q20 -23 55 -25l-26 -184q-102 12 -168 88q-78 88 -62 211l201 1409h186zM918 1587l-289 -254l-109 123l291 254z" glyph-name="lcaron" horiz-adv-x="509" unicode="ľ"/><glyph d="M258 186h758l-27 -186h-944l240 1708h186zM617.5 788q-46.5 0 -74 33t-21.5 78t43 78t83 33t74 -33t21.5 -78t-43 -78t-83 -33z" glyph-name="Ldot" horiz-adv-x="1126" unicode="Ŀ"/><glyph d="M483 1708l-202 -1434q-6 -41 16 -65q20 -23 55 -25l-26 -184q-102 12 -168 88q-78 88 -62 211l201 1409h186zM641 1008q45 0 73.5 -33t21.5 -78t-44 -78t-82 -33t-72.5 33t-21.5 78t43 78t82 33z" glyph-name="ldot" horiz-adv-x="741" unicode="ŀ"/><glyph d="M354 186h758l-25 -186h-946l117 829l-207 -86l29 213l209 88l92 664h188l-82 -580l213 91l-30 -215l-213 -89z" glyph-name="Lslash" horiz-adv-x="1222" unicode="Ł"/><glyph d="M518 1126l213 91l-31 -216l-213 -88l-90 -641q-6 -39 17 -63q20 -23 55 -25l-27 -184q-102 10 -168 88q-78 88 -61 211l76 528l-209 -86l31 213l208 88l95 666h186z" glyph-name="lslash" horiz-adv-x="710" unicode="ł"/><glyph d="M1210 2097l-288 -254l-107 121l289 254zM1444 1712h186l-239 -1710h-189h-192l-537 1704l-240 -1706h-186l240 1710h381l536 -1704z" glyph-name="Nacute" horiz-adv-x="1675" unicode="Ń"/><glyph d="M838 1280q162 0 284.5 -90t181 -244.5t31.5 -337.5l-84 -608h-186l86 608q27 201 -72.5 343.5t-267.5 142.5t-307 -142.5t-168 -343.5l-86 -608h-187l173 1219h186l-31 -224q162 285 447 285zM1094 1581l-291 -254l-107 123l291 254z" glyph-name="nacute" horiz-adv-x="1458" unicode="ń"/><glyph d="M870 -242l-290 -254l-107 123l291 254zM1440 1706h186l-240 -1710h-186h-192l-537 1704l-240 -1706h-188l242 1710h379l536 -1704z" glyph-name="Ncommaaccent" horiz-adv-x="1673" unicode="Ņ"/><glyph d="M838 1280q162 0 284.5 -90t181 -244.5t31.5 -337.5l-84 -608h-186l86 608q27 201 -72.5 343.5t-267.5 142.5t-307 -142.5t-168 -343.5l-86 -608h-187l173 1219h186l-31 -226q162 287 447 287zM827 -242l-290 -254l-107 123l291 254z" glyph-name="ncommaaccent" horiz-adv-x="1458" unicode="ņ"/><glyph d="M1288 2075l-303 -265l-233 273l122 106l127 -149l179 155zM1444 1712h186l-239 -1710h-189h-192l-537 1704l-240 -1706h-186l240 1710h381l536 -1704z" glyph-name="Ncaron" horiz-adv-x="1675" unicode="Ň"/><glyph d="M838 1280q162 0 284.5 -90t181 -244.5t31.5 -337.5l-84 -608h-186l86 608q27 201 -72.5 343.5t-267.5 142.5t-307 -142.5t-168 -343.5l-86 -608h-187l173 1219h186l-31 -226q162 287 447 287zM1161 1591l-301 -264l-235 272l123 107l129 -150l178 158z" glyph-name="ncaron" horiz-adv-x="1458" unicode="ň"/><glyph d="M838 1280q162 0 284.5 -90t181 -244.5t31.5 -337.5l-84 -608h-186l86 608q27 201 -72.5 343.5t-267.5 142.5t-307 -142.5t-168 -343.5l-86 -608h-187l173 1221h186l-31 -226q162 285 447 285zM569 1583l-290 -256l-107 123l291 254z" glyph-name="napostrophe" horiz-adv-x="1458" unicode="ŉ"/><glyph d="M1438 1704h186l-252 -1810q-27 -188 -174 -317.5t-334 -129.5q-195 0 -313 139q-111 125 -96 303h186q-14 -109 50.5 -182.5t172.5 -73.5q115 0 212.5 85t113.5 202l10 78h-192l-537 1704l-240 -1706h-188l242 1708h379l536 -1704z" glyph-name="Eng" horiz-adv-x="1671" unicode="Ŋ"/><glyph d="M838 1276q162 0 284.5 -90t181 -245t31.5 -337l-110 -788q-20 -156 -142 -262.5t-278 -106.5h-213l26 186h187q84 0 154.5 61.5t82.5 145.5l109 764q27 201 -72.5 343.5t-267.5 142.5t-307 -142.5t-168 -343.5l-86 -608h-187l173 1218h186l-31 -225q162 287 447 287z" glyph-name="eng" horiz-adv-x="1458" unicode="ŋ"/><glyph d="M1522 1542q117 -133 164 -315.5t20 -382.5q-35 -244 -171 -452t-336 -328.5t-415 -120.5q-150 0 -279.5 59t-228.5 170q-115 133 -162.5 315.5t-19.5 382.5q35 244 170 453t336 330t416 121q147 0 278.5 -59.5t227.5 -172.5zM1522 870q23 160 -14.5 304.5t-125.5 246.5 q-145 166 -366 166q-172 0 -332 -99t-269.5 -270t-135.5 -374q-23 -160 13 -304.5t126 -244.5q143 -168 366 -168q172 0 332 99.5t268.5 271t137.5 372.5zM1343 2103l-20 -155h-539l23 161h536v-6z" glyph-name="Omacron" horiz-adv-x="1798" unicode="Ō"/><glyph d="M1130 1114q84 -98 120 -233.5t16 -282.5q-39 -270 -234.5 -462.5t-431.5 -192.5q-223 0 -369 168q-86 96 -120.5 231t-14.5 283q39 272 233.5 464.5t432.5 192.5q223 0 368 -168zM1081 625q14 109 -9 204t-81 162q-92 104 -229 105q-170 0 -311.5 -145.5t-169.5 -352.5 q-16 -106 8 -202.5t82 -164.5q90 -104 229 -104q170 0 311 146.5t170 351.5zM1085 1569l-22 -156h-539l23 162h538v-6z" glyph-name="omacron" horiz-adv-x="1359" unicode="ō"/><glyph d="M1522 1542q117 -133 164 -315.5t20 -382.5q-35 -244 -171 -452t-336 -328.5t-415 -120.5q-150 0 -279.5 59t-228.5 170q-115 133 -162.5 315.5t-19.5 382.5q35 244 170 453t336 330t416 121q147 0 278.5 -59.5t227.5 -172.5zM1522 870q23 160 -14.5 304.5t-125.5 246.5 q-145 166 -366 166q-172 0 -332 -99t-269.5 -270t-135.5 -374q-23 -160 13 -304.5t126 -244.5q143 -168 366 -168q172 0 332 99.5t268.5 271t137.5 372.5zM1051 1870q-119 0 -195 86q-63 74 -61 174h161q-2 -41 23 -68q27 -31 72 -30q45 0 85 27.5t56 70.5h168 q-18 -111 -107 -185.5t-202 -74.5z" glyph-name="Obreve" horiz-adv-x="1798" unicode="Ŏ"/><glyph d="M1130 1114q84 -98 120 -233.5t16 -282.5q-39 -270 -234.5 -462.5t-431.5 -192.5q-223 0 -369 168q-86 96 -120.5 231t-14.5 283q39 272 233.5 464.5t432.5 192.5q223 0 368 -168zM1081 625q14 109 -9 204t-81 162q-92 104 -229 105q-170 0 -311.5 -145.5t-169.5 -352.5 q-16 -106 8 -202.5t82 -164.5q90 -104 229 -104q170 0 311 146.5t170 351.5zM807 1446q-121 0 -195 86q-63 74 -61 174h162q-2 -41 20 -68q29 -31 74 -30q45 0 85 27.5t56 70.5h168q-18 -111 -107 -185.5t-202 -74.5z" glyph-name="obreve" horiz-adv-x="1359" unicode="ŏ"/><glyph d="M1522 1542q117 -133 164 -315.5t20 -382.5q-35 -244 -171 -452t-336 -328.5t-415 -120.5q-150 0 -279.5 59t-228.5 170q-115 133 -162.5 315.5t-19.5 382.5q35 244 170 453t336 330t416 121q147 0 278.5 -59.5t227.5 -172.5zM1522 870q23 160 -14.5 304.5t-125.5 246.5 q-145 166 -366 166q-172 0 -332 -99t-269.5 -270t-135.5 -374q-23 -160 13 -304.5t126 -244.5q143 -168 366 -168q172 0 332 99.5t268.5 271t137.5 372.5zM1440 2093l-291 -254l-107 123l291 254zM1085 2095l-290 -254l-107 121l291 256z" glyph-name="Ohungarumlaut" horiz-adv-x="1798" unicode="Ő"/><glyph d="M1130 1114q84 -98 120 -233.5t16 -282.5q-39 -270 -234.5 -462.5t-431.5 -192.5q-223 0 -369 168q-86 96 -120.5 231t-14.5 283q39 272 233.5 464.5t432.5 192.5q223 0 368 -168zM1081 625q14 109 -9 204t-81 162q-92 104 -229 105q-170 0 -311.5 -145.5t-169.5 -352.5 q-16 -106 8 -202.5t82 -164.5q90 -104 229 -104q170 0 311 146.5t170 351.5zM1184 1591l-289 -254l-107 123l289 254zM829 1593l-288 -254l-107 123l289 254z" glyph-name="ohungarumlaut" horiz-adv-x="1359" unicode="ő"/><glyph d="M1640 1710h1246v-10l-25 -174h-1061l-80 -576h844l-27 -186h-843l-80 -576h1059v-8l-25 -176h-1247l35 260q-131 -152 -302 -236.5t-350 -84.5q-150 0 -279.5 59t-228.5 170q-115 133 -162.5 315.5t-19.5 382.5q35 244 170 453t336 330t416 121q147 0 278 -59.5 t228 -172.5q45 -49 80 -108zM1522 870q23 160 -14.5 304.5t-125.5 246.5q-145 166 -366 166q-172 0 -332 -99t-269.5 -270t-135.5 -374q-23 -160 13 -304.5t126 -244.5q143 -168 366 -168q172 0 332 99.5t268.5 270t137.5 373.5z" glyph-name="OE" horiz-adv-x="2832" unicode="Œ"/><glyph d="M2249 600l-11 -80h-978q-2 -176 96 -287q90 -104 229 -104h12q117 0 228.5 50t195.5 136h222q-109 -166 -287 -267t-371 -103v-2q-2 0 -5 1l-3 1l-2 -1q-2 -1 -4 -1v2q-213 4 -354 166q-53 61 -89 141q-98 -141 -238 -225t-290 -84q-223 0 -369 168q-86 98 -120.5 233 t-14.5 283q39 270 233.5 462.5t432.5 192.5q223 0 368 -168q53 -61 89 -139q96 141 236 224t292 83q221 0 369 -168q84 -96 118.5 -231.5t14.5 -282.5zM1081 627q14 106 -9 202.5t-81 163.5q-92 104 -229 105q-170 0 -311.5 -145.5t-169.5 -352.5q-16 -106 8 -202.5 t82 -164.5q90 -104 229 -104q170 0 311 145.5t170 352.5zM1288 707h785q0 174 -99 286q-90 104 -227 105q-147 0 -275.5 -111.5t-183.5 -279.5z" glyph-name="oe" horiz-adv-x="2365" unicode="œ"/><glyph d="M1571 1567q125 -143 96 -344q-27 -190 -181.5 -326.5t-344.5 -136.5h-47l405 -758h-223l-406 758h-530l-107 -760h-186l162 1147l78 561h960q201 0 324 -141zM1485 1247q16 119 -53 199q-70 78 -185 78h-798l-82 -578h774q123 0 224.5 89t119.5 212zM1305 2093l-291 -254 l-107 123l291 254z" glyph-name="Racute" horiz-adv-x="1701" unicode="Ŕ"/><glyph d="M815 1284q35 0 70 -6l-27 -191q-35 8 -70 9q-131 0 -249.5 -92.5t-180.5 -235.5l-108 -768h-187l170 1221h189l-45 -324q123 387 438 387zM842 1587l-289 -254l-107 121l289 254z" glyph-name="racute" horiz-adv-x="821" unicode="ŕ"/><glyph d="M1569 1567q125 -143 96 -344q-27 -190 -181.5 -326.5t-344.5 -136.5h-47l405 -758h-223l-406 758h-530l-107 -760h-186l107 760l133 948h960q201 0 324 -141zM1483 1247q16 119 -53 199q-70 78 -185 78h-799l-75 -539l-6 -39h774q123 0 224.5 89t119.5 212zM975 -236 l-289 -253l-108 120l290 256z" glyph-name="Rcommaaccent" horiz-adv-x="1699" unicode="Ŗ"/><glyph d="M817 1284q33 0 68 -6l-27 -191q-35 8 -67 9q-133 0 -251 -92.5t-182 -235.5l-106 -768h-189l173 1221h188l-47 -324q125 387 440 387zM313 -236l-288 -253l-107 122l289 254z" glyph-name="rcommaaccent" horiz-adv-x="823" unicode="ŗ"/><glyph d="M1571 1567q125 -143 96 -344q-27 -190 -181.5 -326.5t-344.5 -136.5h-47l405 -758h-223l-406 758h-530l-107 -760h-186l107 760l133 948h960q201 0 324 -141zM1485 1247q16 119 -53 199q-70 78 -185 78h-798l-82 -578h774q123 0 224.5 89t119.5 212zM1298 2073l-301 -265 l-233 273l123 104l127 -147l178 155z" glyph-name="Rcaron" horiz-adv-x="1701" unicode="Ř"/><glyph d="M377 897q123 387 438 387q35 0 70 -6l-27 -191q-35 8 -70 9q-131 0 -249.5 -91.5t-180.5 -236.5l-108 -768h-187l170 1221h189zM926 1593l-301 -264l-234 273l123 106l127 -149l178 157z" glyph-name="rcaron" horiz-adv-x="823" unicode="ř"/><glyph d="M1577 1284h-186q10 82 -52 154q-59 70 -171.5 109.5t-243.5 39.5q-231 0 -398.5 -102.5t-185.5 -229.5q-14 -109 90 -192q31 -25 97.5 -44.5t118.5 -26.5t153 -19q90 -10 139 -16.5t129 -24t129 -38t102.5 -55t90.5 -81.5q98 -127 69 -326q-29 -205 -251 -347t-515 -142 q-174 0 -321.5 56t-235.5 157q-109 125 -96 280h172l14 -4q-12 -84 51 -156q59 -70 171 -109.5t245 -39.5q229 0 397 102.5t185 229.5q18 121 -33 186q-27 35 -74 60.5t-119.5 42t-124 23.5t-147.5 20q-119 12 -182.5 22t-146 37t-134.5 68q-186 150 -155 364 q29 207 251 349.5t515 142.5q174 0 321.5 -57.5t233.5 -157.5q108 -123 98 -275zM1182 2097l-291 -254l-107 123l291 254z" glyph-name="Sacute" horiz-adv-x="1619" unicode="Ś"/><glyph d="M621 721q80 -8 125 -15.5t111.5 -24.5t113.5 -47t82 -73q76 -98 53 -250q-20 -156 -184 -262t-379 -106q-127 0 -235.5 42t-174.5 117q-80 92 -74 209h185q-6 -47 30 -88q37 -43 110 -68.5t159 -25.5q150 0 259 64.5t122 144.5q10 74 -19 108q-23 29 -78 48.5t-100 26.5 t-127 18q-88 10 -133 17t-105.5 26.5t-99.5 52.5q-143 115 -121 280q23 154 185.5 260.5t378.5 106.5q129 0 237.5 -42t171.5 -116q82 -94 76 -209h-186q6 45 -29 86q-39 45 -110.5 71t-159.5 26q-147 0 -258 -65.5t-121 -143.5q-8 -61 51 -111q41 -32 244 -57zM961 1591 l-289 -254l-109 121l291 256z" glyph-name="sacute" horiz-adv-x="1251" unicode="ś"/><glyph d="M1577 1284h-186q10 82 -52 154q-59 70 -171.5 109.5t-243.5 39.5q-231 0 -398.5 -102.5t-185.5 -229.5q-14 -109 90 -192q31 -25 97.5 -44.5t118.5 -26.5t153 -19q90 -10 139 -16.5t129 -24t129 -38t102.5 -55t90.5 -81.5q98 -127 69 -326q-29 -205 -251 -347t-515 -142 q-174 0 -321.5 56t-235.5 157q-109 125 -96 280h172l14 -4q-12 -84 51 -156q59 -70 171 -109.5t245 -39.5q229 0 397 102.5t185 229.5q18 121 -33 186q-27 35 -74 60.5t-119.5 42t-124 23.5t-147.5 20q-119 12 -182.5 22t-146 37t-134.5 68q-186 150 -155 364 q29 207 251 349.5t515 142.5q174 0 321.5 -57.5t233.5 -157.5q108 -123 98 -275zM979 2021l-178 -155l-107 121l301 264l236 -273l-123 -104z" glyph-name="Scircumflex" horiz-adv-x="1619" unicode="Ŝ"/><glyph d="M621 721q80 -8 125 -15.5t111.5 -24.5t113.5 -47t82 -73q76 -98 53 -250q-20 -156 -184 -262t-379 -106q-127 0 -235.5 42t-174.5 117q-80 92 -74 209h185q-6 -47 30 -88q37 -43 110 -68.5t159 -25.5q150 0 259 64.5t122 144.5q10 74 -19 108q-23 29 -78 48.5t-100 26.5 t-127 18q-88 10 -133 17t-105.5 26.5t-99.5 52.5q-143 115 -121 280q23 154 185.5 260.5t378.5 106.5q129 0 237.5 -42t171.5 -116q82 -94 76 -209h-186q6 45 -29 86q-39 45 -110.5 71t-159.5 26q-147 0 -258 -65.5t-121 -143.5q-8 -61 51 -111q41 -32 244 -57zM756 1489 l-178 -156l-107 123l301 264l234 -272l-123 -107z" glyph-name="scircumflex" horiz-adv-x="1251" unicode="ŝ"/><glyph d="M1577 1286h-184q10 82 -52 154q-61 70 -172.5 109.5t-242.5 39.5q-231 0 -398.5 -102.5t-185.5 -229.5q-14 -109 90 -192q31 -27 97.5 -45.5t118.5 -25.5t151 -19q92 -10 140 -17.5t128 -23.5t129 -36.5t103.5 -55.5t91.5 -82q96 -127 69 -326q-27 -180 -205 -315 t-428 -166v-113q-55 0 -99 -36.5t-50 -86.5q-6 -43 18 -69q27 -33 76 -33v-162q-123 0 -199 88q-74 84 -57 199q18 127 131 205q-162 8 -295 63t-215 150q-109 125 -96 278h170l16 -2q-12 -84 49 -155q61 -70 173 -110t245 -40q229 0 396 102.5t186 229.5q18 121 -33 186 q-27 35 -74 60.5t-120.5 41t-124 23.5t-146.5 19q-121 14 -183.5 24t-145 37t-134.5 68q-186 150 -157 364q31 207 252 349.5t516 142.5q174 0 321.5 -57.5t233.5 -157.5q106 -123 96 -275z" glyph-name="Scedilla" horiz-adv-x="1619" unicode="Ş"/><glyph d="M621 723q82 -8 126 -15.5t110.5 -24.5t114.5 -47t81 -75q76 -96 55 -248q-20 -139 -157.5 -241.5t-327.5 -122.5v-109q-53 0 -98.5 -36.5t-51.5 -86.5q-6 -43 19 -71q27 -31 75 -31v-162q-123 0 -198 88q-72 84 -58 199q20 133 140 211q-207 27 -316 153q-82 92 -76 209 h187q-6 -47 28 -88q39 -45 111 -70.5t160 -25.5q147 0 257.5 65.5t121.5 143.5q10 76 -19 111q-20 29 -76.5 48t-101.5 26t-127 16q-86 10 -132 17t-106.5 27.5t-99.5 51.5q-143 117 -119 280q20 156 184.5 262.5t379.5 106.5q127 0 235.5 -42t173.5 -116q80 -94 74 -208 h-184q6 45 -31 86q-37 45 -109.5 70.5t-158.5 25.5q-150 0 -259.5 -65.5t-121.5 -143.5q-8 -61 53 -111q41 -32 242 -57z" glyph-name="scedilla" horiz-adv-x="1251" unicode="ş"/><glyph d="M1577 1284h-186q10 82 -52 154q-59 70 -171.5 109.5t-243.5 39.5q-231 0 -398.5 -102.5t-185.5 -229.5q-14 -109 90 -192q31 -25 97.5 -44.5t118.5 -26.5t153 -19q90 -10 139 -16.5t129 -24t129 -38t102.5 -55t90.5 -81.5q98 -127 69 -326q-29 -205 -251 -347t-515 -142 q-174 0 -321.5 56t-235.5 157q-109 125 -96 280h172l14 -4q-12 -84 51 -156q59 -70 171 -109.5t245 -39.5q229 0 397 102.5t185 229.5q18 121 -33 186q-27 35 -74 60.5t-119.5 42t-124 23.5t-147.5 20q-119 12 -182.5 22t-146 37t-134.5 68q-186 150 -155 364 q29 207 251 349.5t515 142.5q174 0 321.5 -57.5t233.5 -157.5q108 -123 98 -275zM1255 2077l-301 -265l-233 273l123 104l127 -147l178 156z" glyph-name="Scaron" horiz-adv-x="1619" unicode="Š"/><glyph d="M621 721q80 -8 125 -15.5t111.5 -24.5t113.5 -47t82 -73q76 -98 53 -250q-20 -156 -184 -262t-379 -106q-127 0 -235.5 42t-174.5 117q-80 92 -74 209h185q-6 -47 30 -88q37 -43 110 -68.5t159 -25.5q150 0 259 64.5t122 144.5q10 74 -19 108q-23 29 -78 48.5t-100 26.5 t-127 18q-88 10 -133 17t-105.5 26.5t-99.5 52.5q-143 115 -121 280q23 154 185.5 260.5t378.5 106.5q129 0 237.5 -42t171.5 -116q82 -94 76 -209h-186q6 45 -29 86q-39 45 -110.5 71t-159.5 26q-147 0 -258 -65.5t-121 -143.5q-8 -61 51 -111q41 -32 244 -57zM1040 1597 l-301 -264l-235 273l123 106l127 -149l178 157z" glyph-name="scaron" horiz-adv-x="1251" unicode="š"/><glyph d="M133 1698h1481v-12l-25 -173h-651l-209 -1497v-161q-55 0 -99 -37t-52 -86q-4 -43 20 -72q27 -31 76 -31v-161q-123 0 -199 88q-74 84 -57 198q16 115 112 193l222 1566h-646z" glyph-name="Tcommaaccent" horiz-adv-x="1511" unicode="Ţ"/><glyph d="M489 1028l-108 -758q-4 -41 16 -65q23 -25 60 -25h270l-27 -178v-147q-53 0 -97 -37t-52 -86q-6 -43 18 -72q29 -31 78 -31v-161q-123 0 -198 88q-74 84 -58 198q10 80 64.5 145.5t132.5 96.5h-131q-121 0 -199 88t-59 211l102 733h-192l26 184h193l67 488h189l-70 -488 h358l-26 -184h-357z" glyph-name="tcommaaccent" horiz-adv-x="860" unicode="ţ"/><glyph d="M135 1702h1479v-10l-23 -174h-651l-213 -1518h-188l213 1518h-643zM1202 2073l-301 -265l-235 273l122 104l130 -147l178 155z" glyph-name="Tcaron" horiz-adv-x="1511" unicode="Ť"/><glyph d="M584 1706l-68 -487h356l-26 -187h-357l-106 -758q-6 -39 16 -65q20 -25 60 -25h268l-27 -184h-241q-123 0 -199 88q-78 88 -61 211l104 733h-192l24 187h195l67 487h187zM1026 1589l-291 -254l-106 121l289 256z" glyph-name="tcaron" horiz-adv-x="860" unicode="ť"/><glyph d="M156 1704h1478v-12l-22 -174h-651l-66 -465h481l-26 -187h-482l-120 -866h-189l123 866h-481l24 187h482l65 465h-643z" glyph-name="Tbar" horiz-adv-x="1552" unicode="Ŧ"/><glyph d="M877 1032h-357l-20 -137h358l-27 -186h-358l-61 -435q-4 -39 16 -63q23 -25 59 -25h271l-27 -186h-244q-121 0 -198 88q-78 90 -60 213l58 408h-193l27 186h192l19 137h-193l27 187h192l70 487h186l-69 -487h358z" glyph-name="tbar" horiz-adv-x="925" unicode="ŧ"/><glyph d="M1520 1712h186l-152 -1081q-25 -186 -142.5 -345t-293.5 -251t-368 -92q-150 0 -278 56t-218 161q-182 207 -141 495l149 1057h187l-152 -1081q-29 -205 96 -350q133 -152 357 -152q227 0 409 154.5t213 371.5zM985 1964q-53 37 -125 17.5t-119 -80.5l-129 96 q84 115 220.5 144.5t242.5 -42.5q53 -35 125 -16.5t117 80.5l131 -97q-86 -115 -221.5 -143.5t-241.5 41.5z" glyph-name="Utilde" unicode="Ũ"/><glyph d="M1208 1227h187l-172 -1221h-187l31 221q-162 -285 -446 -284q-162 0 -286 89t-181.5 244.5t-30.5 335.5l84 615h186l-86 -615q-29 -199 70.5 -341t268.5 -142t308.5 142.5t165.5 340.5zM565 1466l-65 50l-64 49q84 113 220.5 142.5t242.5 -42.5q51 -35 124 -15.5 t118 79.5l129 -97q-84 -113 -219.5 -142.5t-241.5 42.5q-53 35 -125 15t-119 -81z" glyph-name="utilde" horiz-adv-x="1456" unicode="ũ"/><glyph d="M1296 2107l-22 -157h-539l23 164h538v-7zM1520 1712h186l-152 -1081q-25 -186 -142.5 -345t-293.5 -251t-368 -92q-150 0 -278 56t-218 161q-182 207 -141 495l149 1057h187l-152 -1081q-29 -205 96 -350q133 -152 357 -152q227 0 409 154.5t213 371.5z" glyph-name="Umacron" unicode="Ū"/><glyph d="M1106 1579l-23 -156h-538l22 162h539v-6zM1208 1227h187l-172 -1221h-187l31 221q-162 -285 -446 -284q-162 0 -286 89t-181.5 244.5t-30.5 335.5l84 615h186l-86 -615q-29 -199 70.5 -341t268.5 -142t308.5 142.5t165.5 340.5z" glyph-name="umacron" horiz-adv-x="1456" unicode="ū"/><glyph d="M1042 1853q-121 0 -196 89q-63 72 -62 174h162q0 -43 23 -70q27 -31 73 -31q43 0 83 29t59 72h168q-20 -111 -109.5 -187t-200.5 -76zM1520 1712h186l-152 -1081q-25 -186 -142.5 -345t-293.5 -251t-368 -92q-150 0 -278 56t-218 161q-182 207 -141 495l149 1057h187 l-152 -1081q-29 -205 96 -350q133 -152 357 -152q227 0 409 154.5t213 371.5z" glyph-name="Ubreve" unicode="Ŭ"/><glyph d="M870 1456q-121 0 -196 86q-63 74 -62 174h162q0 -41 23 -67q27 -31 73 -31q43 0 83 27.5t59 70.5h168q-20 -111 -109.5 -185.5t-200.5 -74.5zM1208 1227h187l-172 -1221h-187l31 221q-162 -285 -446 -284q-162 0 -286 89t-181.5 244.5t-30.5 335.5l84 615h186l-86 -615 q-29 -199 70.5 -341t268.5 -142t308.5 142.5t165.5 340.5z" glyph-name="ubreve" horiz-adv-x="1456" unicode="ŭ"/><glyph d="M1520 1712h186l-152 -1081q-25 -186 -142.5 -345t-293.5 -251t-368 -92q-150 0 -278 56t-218 161q-182 207 -141 495l149 1057h187l-152 -1081q-29 -205 96 -350q133 -152 357 -152q227 0 409 154.5t213 371.5zM1012 1808q-96 0 -156 70q-61 70 -47 166q12 88 82 149.5 t160 61.5q96 0 155 -70q61 -70 47 -166q-12 -88 -82.5 -149.5t-158.5 -61.5zM969 2019q-4 -23 8 -34q12 -14 35 -15q29 0 53.5 21.5t28.5 52.5q2 23 -11 35q-10 14 -32 14q-29 0 -53.5 -21.5t-28.5 -52.5z" glyph-name="Uring" unicode="Ů"/><glyph d="M1208 1227h187l-172 -1221h-187l31 221q-162 -285 -446 -284q-162 0 -286 89t-181.5 244.5t-30.5 335.5l84 615h186l-86 -615q-29 -199 70.5 -341t268.5 -142t308.5 142.5t165.5 340.5zM848 1333q-94 0 -156 70q-59 70 -47 166q14 90 84 151.5t160 61.5q96 0 155 -70 q61 -70 48 -166q-12 -90 -83 -151.5t-161 -61.5zM807 1546q-4 -23 8 -37q12 -12 33 -12q29 0 54.5 21.5t29.5 50.5q2 23 -10 37q-10 12 -33 12q-29 0 -53.5 -21.5t-28.5 -50.5z" glyph-name="uring" horiz-adv-x="1456" unicode="ů"/><glyph d="M1520 1712h186l-152 -1081q-25 -186 -142.5 -345t-293.5 -251t-368 -92q-150 0 -278 56t-218 161q-182 207 -141 495l149 1057h187l-152 -1081q-29 -205 96 -350q133 -152 357 -152q227 0 409 154.5t213 371.5zM1395 2099l-291 -256l-107 123l289 254zM1038 2099 l-288 -256l-109 123l291 254z" glyph-name="Uhungarumlaut" unicode="Ű"/><glyph d="M1208 1227h187l-172 -1221h-187l31 221q-162 -285 -446 -284q-162 0 -286 89t-181.5 244.5t-30.5 335.5l84 615h186l-86 -615q-29 -199 70.5 -341t268.5 -142t308.5 142.5t165.5 340.5zM1262 1610l-291 -256l-107 123l291 254zM907 1610l-291 -256l-106 123l289 254z" glyph-name="uhungarumlaut" horiz-adv-x="1456" unicode="ű"/><glyph d="M1518 1708h188l-152 -1081q-37 -262 -243.5 -457t-474.5 -225v-105q-55 0 -99.5 -36.5t-52.5 -88.5q-4 -41 21 -69q27 -31 75 -31v-162q-123 0 -198 86q-74 84 -58 199q18 129 131 207q-248 31 -403 211q-180 207 -139 495l147 1057h186l-151 -1081q-29 -205 96 -351 q133 -152 357 -151q227 0 409 154.5t213 371.5z" glyph-name="Uogonek" unicode="Ų"/><glyph d="M1206 1219h187l-170 -1221h-189l31 221q-131 -233 -352 -276v-103q-53 0 -97.5 -36.5t-52.5 -88.5q-6 -41 19 -69q29 -31 77 -31v-162q-123 0 -198 86q-74 84 -58 199q16 125 125 203q-209 39 -325.5 226t-81.5 437l86 615h186l-88 -615q-27 -199 72.5 -341t267.5 -142 t307.5 142.5t167.5 340.5z" glyph-name="uogonek" horiz-adv-x="1456" unicode="ų"/><glyph d="M1731 2015l-179 -155l-106 120l301 265l233 -273l-122 -104zM3002 1706h205l-803 -1706h-405l-322 1702l-800 -1702h-408l-322 1706h205l322 -1704l801 1704h405l322 -1704z" glyph-name="Wcircumflex" horiz-adv-x="3115" unicode="Ŵ"/><glyph d="M1382 1483l-178 -156l-106 123l301 264l233 -272l-123 -107zM2339 1219h203l-572 -1219h-407l-228 1212l-571 -1212h-406l-231 1219h205l229 -1217l572 1217h405l229 -1217z" glyph-name="wcircumflex" horiz-adv-x="2500" unicode="ŵ"/><glyph d="M1481 1710h243l-825 -833l-123 -877h-188l125 877l-594 833h243l467 -657zM975 2023l-180 -157l-107 123l301 264l236 -273l-123 -106z" glyph-name="Ycircumflex" horiz-adv-x="1603" unicode="Ŷ"/><glyph d="M1128 1217h195l-721 -1563q-43 -92 -127 -148.5t-178 -56.5h-412l27 191h412q35 0 65.5 20.5t44.5 52.5l131 285h-203l-231 1219h205l229 -1219zM774 1485l-180 -156l-107 121l301 264l236 -272l-123 -105z" glyph-name="ycircumflex" horiz-adv-x="1282" unicode="ŷ"/><glyph d="M1481 1710h243l-825 -833l-123 -877h-188l125 877l-594 833h243l467 -657zM836 2126l-27 -187h-221l26 187h222zM1346 2126l-25 -187h-221l26 187h220z" glyph-name="Ydieresis" horiz-adv-x="1603" unicode="Ÿ"/><glyph d="M1780 1706l-31 -219l-1552 -1305h1370l-27 -182h-1599l30 219l1553 1305h-1368l24 182h1600zM1225 2093l-291 -254l-107 121l289 254z" glyph-name="Zacute" horiz-adv-x="1720" unicode="Ź"/><glyph d="M164 1221h1243l-27 -185l-1065 -852h945l-25 -184h-1243l26 184l1065 852h-946zM1026 1591l-291 -256l-106 123l291 254z" glyph-name="zacute" horiz-adv-x="1396" unicode="ź"/><glyph d="M1780 1706l-31 -219l-1552 -1305h1370l-27 -182h-1599l30 219l1553 1305h-1368l24 182h1600zM1011 1917q-46 0 -74 31.5t-21.5 78t43 78t82.5 31.5t74 -31.5t21.5 -78t-43 -78t-82.5 -31.5z" glyph-name="Zdotaccent" horiz-adv-x="1720" unicode="Ż"/><glyph d="M164 1223h1241l-27 -185l-1065 -852h947l-27 -184h-1241l24 184l1067 852h-946zM807 1389q-45 0 -72.5 31.5t-21.5 77.5t43 79t83 33t73.5 -33t21.5 -79t-44 -77.5t-83 -31.5z" glyph-name="zdotaccent" horiz-adv-x="1396" unicode="ż"/><glyph d="M1780 1710l-31 -219l-1552 -1305h1368l-25 -182h-1599l30 219l1553 1305h-1370l26 182h1600zM1303 2075l-302 -265l-233 273l123 106l127 -149l178 158z" glyph-name="Zcaron" horiz-adv-x="1720" unicode="Ž"/><glyph d="M164 1223h1241l-27 -185l-1065 -852h947l-27 -184h-1241l24 184l1067 852h-946zM1108 1591l-301 -264l-234 272l123 105l127 -148l178 156z" glyph-name="zcaron" horiz-adv-x="1396" unicode="ž"/><glyph d="M662 1708h270l-27 -186h-243q-45 0 -84 -34t-46 -81l-198 -1407h-189l148 1036h-172l24 185h172l31 213q16 115 107.5 194.5t206.5 79.5z" glyph-name="longs" horiz-adv-x="571" unicode="ſ"/><glyph d="M1575 1280h-184q10 82 -52 154q-61 70 -172.5 109.5t-244.5 39.5q-229 0 -396.5 -102.5t-185.5 -229.5q-16 -109 90 -192q31 -25 97.5 -44.5t118.5 -26.5t151 -19q92 -10 140 -16.5t128 -24t129 -38t103.5 -55t91.5 -81.5q96 -127 69 -326q-31 -205 -252 -347t-514 -142 q-174 0 -321.5 56t-235.5 157q-109 125 -96 280h170l14 -4q-10 -82 51 -156q61 -70 173 -109.5t245 -39.5q229 0 396 102.5t186 229.5q16 121 -33 186q-27 35 -74 60.5t-120.5 42t-124 23.5t-146.5 19q-121 12 -183.5 22.5t-145 37t-134.5 67.5q-186 150 -157 365 q31 207 252 349t514 142q174 0 321.5 -57t235.5 -158q106 -122 96 -274zM844 -236l-291 -253l-107 122l291 254z" glyph-name="Scommaaccent" horiz-adv-x="1617" unicode="Ș"/><glyph d="M621 717q80 -8 123.5 -15.5t111.5 -25t115 -47t80 -72.5q76 -98 55 -250q-23 -156 -185.5 -262t-377.5 -106q-127 0 -235.5 42t-174.5 117q-80 92 -76 209h187q-6 -47 28 -88q39 -43 112 -68.5t159 -25.5q147 0 257.5 64.5t123.5 144.5q10 74 -19 108q-23 29 -78 48.5 t-100 26.5t-129 18q-86 10 -131 17t-106.5 26.5t-98.5 52.5q-143 115 -121 280q23 154 185.5 260.5t378.5 106.5q127 0 235.5 -42t173.5 -116q82 -94 76 -209h-186q6 45 -29 86q-39 45 -111.5 71t-158.5 26q-147 0 -258 -65.5t-121 -143.5q-8 -61 51 -111q41 -32 244 -57z M694 -236l-288 -253l-109 122l291 254z" glyph-name="scommaaccent" horiz-adv-x="1249" unicode="ș"/><glyph d="M135 1702h1479v-10l-23 -174h-651l-213 -1518h-188l213 1518h-643zM795 -236l-291 -253l-107 122l291 254z" glyph-name="uni021A" horiz-adv-x="1511" unicode="Ț"/><glyph d="M489 1034l-106 -758q-6 -39 16 -65q20 -25 60 -25h268l-27 -184h-241q-123 0 -199 88q-78 88 -61 211l104 733h-192l24 187h193l69 487h187l-68 -487h356l-26 -187h-357zM414 -236l-289 -253l-107 122l289 254z" glyph-name="uni021B" horiz-adv-x="858" unicode="ț"/><glyph d="M45 698h1131l-25 -186h-1133z" glyph-name="endash" horiz-adv-x="1265" unicode="–"/><glyph d="M45 698h1509l-26 -186h-1510z" glyph-name="emdash" horiz-adv-x="1642" unicode="—"/><glyph d="M223 1731q16 115 109.5 196.5t208.5 81.5l-27 -186q-37 0 -67.5 -27t-36.5 -65l-25 -179h-186z" glyph-name="quoteleft" horiz-adv-x="389" unicode="‘"/><glyph d="M356 2009h185l-25 -178q-16 -115 -109.5 -197t-207.5 -82l26 187q39 0 70 26.5t37 65.5z" glyph-name="quoteright" horiz-adv-x="446" unicode="’"/><glyph d="M172 457h184l-49 -178q-33 -115 -137 -197t-219 -82l51 186q39 0 74 27t45 66z" glyph-name="quotesinglbase" horiz-adv-x="485" unicode="‚"/><glyph d="M170 1731q16 115 109.5 195.5t207.5 80.5l-26 -184q-37 0 -68 -28t-37 -64l-24 -179h-187zM496 1731q16 115 108 195.5t209 80.5l-27 -184q-39 0 -69.5 -28t-36.5 -64l-25 -179h-184z" glyph-name="quotedblleft" horiz-adv-x="606" unicode="“"/><glyph d="M305 2009h184l-24 -178q-16 -115 -109.5 -197t-208.5 -82l27 187q39 0 69.5 26.5t37.5 65.5zM629 2009h186l-27 -178q-16 -115 -108 -197t-207 -82l25 187q39 0 69.5 26.5t36.5 65.5z" glyph-name="quotedblright" horiz-adv-x="647" unicode="”"/><glyph d="M356 457l-49 -178q-33 -115 -137 -197t-219 -82l51 186q39 0 74 27t45 66l51 178h184zM496 457h184l-49 -178q-33 -115 -137.5 -197t-219.5 -82l54 186q37 0 71.5 27t46.5 66z" glyph-name="quotedblbase" horiz-adv-x="811" unicode="„"/><glyph d="M90 844h332l-47 -332h-332z" glyph-name="bullet" horiz-adv-x="514" unicode="•"/><glyph d="M-66 0l27 186h221l-26 -186h-222zM236 0l26 186h221l-26 -186h-221zM563 186h221l-26 -186h-221z" glyph-name="ellipsis" horiz-adv-x="933" unicode="…"/><glyph d="M485.5 1059q-147.5 0 -236.5 104.5t-68.5 252t139 252t266 104.5t236.5 -104.5t68.5 -252t-139 -252t-266 -104.5zM364.5 1415.5q-10.5 -69.5 32.5 -120t114 -50.5t128 50.5t67.5 120t-32.5 119.5t-114 50t-128 -50t-67.5 -119.5zM1261.5 657q147.5 0 237.5 -104 t69.5 -250.5t-140 -251t-266 -104.5t-236.5 104.5t-69.5 251t139 250.5t266 104zM1382.5 302q10.5 71 -32.5 121t-114 50t-128 -50t-66.5 -121t33.5 -121t114 -50t127 50t66.5 121zM2066.5 657q147.5 0 237.5 -104t69.5 -250.5t-140 -251t-266 -104.5t-237 104.5t-70 251 t139.5 250.5t266.5 104zM2187.5 302q10.5 71 -33 121t-114 50t-128 -50t-66.5 -121t34 -121t113.5 -50t127 50t67 121zM1491 1706h227l-1462 -1706h-229z" glyph-name="perthousand" horiz-adv-x="2535" unicode="‰"/><glyph d="M510 1157l-14 -113l-402 -210l342 -211l-16 -111l-344 211l16 111l17 110z" glyph-name="guilsinglleft" horiz-adv-x="569" unicode="‹"/><glyph d="M143 1157l344 -213l-16 -110l-14 -111l-404 -211l15 111l403 211l-344 210z" glyph-name="guilsinglright" horiz-adv-x="569" unicode="›"/><glyph d="M924 127q176 0 346 111.5t276 296.5l160 -93q-133 -231 -343 -365t-439 -134q-150 0 -281 59t-227 170q-100 115 -150.5 268.5t-42.5 323.5h-153l26 186h150q49 225 185 414.5t327.5 298.5t394.5 109q233 0 414.5 -141.5t251.5 -379.5l-179 -53q-53 180 -183 284.5 t-304 104.5q-238 0 -441.5 -183t-275.5 -454h486l-27 -186h-487q-12 -285 147 -469q146 -168 369 -168z" glyph-name="Euro" horiz-adv-x="1871" unicode="€"/></font>
</defs>
</svg>
