<?xml version="1.0" standalone="no"?>
<!DOCTYPE svg PUBLIC "-//W3C//DTD SVG 1.1//EN" "http://www.w3.org/Graphics/SVG/1.1/DTD/svg11.dtd">
<svg xmlns="http://www.w3.org/2000/svg"><metadata>This SVG WebFont was generated by YouWorkForThem.
</metadata><defs><font horiz-adv-x="1290" id="ywftsvg"><font-face ascent="1638" bbox="-231 -614 2793 2234" cap-height="1706" descent="-410" font-family="" font-stretch="normal" font-weight="300" panose-1="0 0 0 0 0 0 0 0 0 0" underline-position="0" underline-thickness="0" unicode-range="U+000A-20AC" units-per-em="2048" x-height="1214"/><missing-glyph d="M102 1434h875v-1434h-875v1434zM160 1393l379 -633l381 633h-760zM514 717l-369 614v-1231zM541 674l-379 -631h758zM565 717l371 -621v1239z" horiz-adv-x="1079"/><glyph d="M102 1434h875v-1434h-875v1434zM160 1393l379 -633l381 633h-760zM514 717l-369 614v-1231zM541 674l-379 -631h758zM565 717l371 -621v1239z" glyph-name=".notdef" horiz-adv-x="1079"/><glyph glyph-name="glyph1" horiz-adv-x="0"/><glyph glyph-name="glyph1" horiz-adv-x="0"/><glyph glyph-name="glyph2" horiz-adv-x="681"/><glyph glyph-name="uni000A" horiz-adv-x="0" unicode="&#x0a;"/><glyph glyph-name="space" horiz-adv-x="696" unicode=" "/><glyph d="M276 406h-114v1298h114v-1298zM295 0h-152v143h152v-143z" glyph-name="exclam" horiz-adv-x="438" unicode="!"/><glyph d="M1722 920h-268l-201 -601h269l-39 -116h-266l-89 -264h-127l89 264h-627l-88 -264h-125l88 264h-268l39 116h268l198 601h-266l37 116h268l82 244h127l-82 -244h627l80 244h127l-82 -244h268zM1128 319l201 601h-627l-200 -601h626z" glyph-name="numbersign" horiz-adv-x="1832" unicode="#"/><glyph d="M858 881q72 -8 126 -17.5t122 -27t117 -39t99 -57t82 -81t51.5 -109t19.5 -140.5q0 -180 -177.5 -309.5t-439.5 -145.5v-258h-117v258q-264 16 -440 145t-176 310h117q0 -129 145 -226.5t354 -111.5v706q-158 16 -258 39t-172 72q-186 131 -186 317q0 182 176 311.5 t440 143.5v256h117v-256q262 -14 439.5 -143t177.5 -312h-117q0 129 -145.5 227.5t-354.5 112.5v-665zM741 895v651q-209 -14 -354 -112.5t-145 -227.5q0 -125 137 -221q53 -37 139 -56.5t223 -33.5zM858 72q209 14 354.5 111.5t145.5 226.5q0 76 -23.5 132t-63.5 92 t-106.5 62.5t-136.5 41t-170 26.5v-692z" glyph-name="dollar" horiz-adv-x="1601" unicode="$"/><glyph d="M418 1124q-133 0 -227.5 94.5t-94.5 227.5t94.5 226t227.5 93t227 -93t94 -226t-94 -227.5t-227 -94.5zM417 1651q-85 0 -144.5 -60.5t-59.5 -145.5t59.5 -145.5t144.5 -60.5t145.5 60.5t60.5 145.5t-60.5 145.5t-145.5 60.5zM1251 580q133 0 226.5 -94.5t93.5 -226.5 t-93.5 -226t-226.5 -94t-227 94t-94 226t94 226.5t227 94.5zM1250 53q85 0 145.5 60.5t60.5 145.5t-60.5 145.5t-145.5 60.5t-145.5 -60.5t-60.5 -145.5t60.5 -145.5t145.5 -60.5zM1364 1700h182l-1224 -1706h-183z" glyph-name="percent" horiz-adv-x="1671" unicode="%"/><glyph d="M1327 565v-61q0 -84 -27 -166l293 -342h-153l-195 227q-80 -129 -221 -206.5t-309 -77.5q-254 0 -433.5 165.5t-179.5 399.5q0 190 123 340.5t314 204.5l-60 69q-74 86 -91 199t28 219q43 102 127 162.5t190 66.5h27q180 0 308 -118.5t128 -286.5q0 -164 -124 -283 t-302 -121l436 -510q4 29 4 58v61q0 100 70 172t168 72h199v-117h-199q-49 0 -85 -37t-36 -90zM522 1491q-33 -76 -20.5 -156t65.5 -141l105 -123h43h45q133 0 227 85t94 205t-94 204t-227 84h-21q-72 -4 -129 -46t-88 -112zM715 53q147 0 269 73t181 191l-540 631 q-174 -29 -290 -153.5t-116 -290.5q0 -186 145.5 -318.5t350.5 -132.5z" glyph-name="ampersand" horiz-adv-x="1726" unicode="&amp;"/><glyph d="M295 1880l72 -74l-254 -254l-72 74z" glyph-name="quotesingle" horiz-adv-x="299" unicode="'"/><glyph d="M612 1901q-362 -545 -362 -1095t362 -1093l-96 -65q-379 569 -379 1159t379 1157z" glyph-name="parenleft" horiz-adv-x="585" unicode="("/><glyph d="M68 1964q379 -567 378.5 -1157t-378.5 -1159l-97 65q365 545 365 1094t-365 1094z" glyph-name="parenright" horiz-adv-x="585" unicode=")"/><glyph d="M608 1737v-70h-192l135 -137l-49 -49l-135 137v-193h-70v193l-137 -137l-49 49l137 137h-193v70h193l-137 135l49 49l137 -135v190h70v-190l135 135l49 -49l-135 -135h192z" glyph-name="asterisk" horiz-adv-x="663" unicode="*"/><glyph d="M735 668h553v-115h-553v-553h-114v553h-553v115h553v553h114v-553z" glyph-name="plus" horiz-adv-x="1355" unicode="+"/><glyph d="M39 102h117v-178q0 -100 -72 -171.5t-172 -71.5v116q53 0 90 37t37 90v178z" glyph-name="comma" horiz-adv-x="194" unicode=","/><glyph d="M801 549h-756v143h756v-143z" glyph-name="hyphen" horiz-adv-x="845" unicode="-"/><glyph d="M199 0h-152v143h152v-143z" glyph-name="period" horiz-adv-x="245" unicode="."/><glyph d="M1255 1706h181l-1223 -1706h-182z" glyph-name="slash" horiz-adv-x="1460" unicode="/"/><glyph d="M775 1763q261 0 446.5 -185t185.5 -448v-561q0 -260 -185.5 -445t-446.5 -185t-446.5 185t-185.5 445v561q0 262 185.5 447.5t446.5 185.5zM1292 569v561q0 215 -151.5 366t-365.5 151t-364.5 -150.5t-150.5 -366.5v-561q0 -213 150.5 -364.5t364.5 -151.5t365.5 151.5 t151.5 364.5z" glyph-name="zero" horiz-adv-x="1552" unicode="0"/><glyph d="M616 1393v-1276h426v-117h-968v117h426v1276q0 82 -55.5 141t-135.5 59h-235v115h235q127 0 217 -92t90 -223z" glyph-name="one" horiz-adv-x="1075" unicode="1"/><glyph d="M618 459l-387 -342h1084v-117h-1200v168l426 377q35 31 118 100q80 66 124 103.5t118 109.5t115 125t75.5 123t41.5 133q10 129 -95 250q-139 164 -333 164q-197 0 -336.5 -167t-139.5 -401h-116q0 184 79.5 342t216 249t296.5 91q248 0 421 -202q135 -158 121 -336 q-6 -63 -29.5 -128t-67.5 -127.5t-84 -111.5t-109.5 -112.5t-109.5 -98.5t-114 -96q-82 -67 -115 -96z" glyph-name="two" horiz-adv-x="1413" unicode="2"/><glyph d="M109 1585v119h1275v-141l-524 -510q215 -41 357.5 -196t142.5 -355q0 -233 -185.5 -398t-445.5 -165t-445.5 164.5t-185.5 398.5h117q0 -184 150.5 -314.5t363.5 -130.5t363.5 130t150.5 314.5t-150.5 314.5t-363.5 130h-2v141l512 498h-1130z" glyph-name="three" horiz-adv-x="1503" unicode="3"/><glyph d="M1057 1706v-1106h305v-115h-305v-485h-117v485h-864v115l729 1108h135l-729 -1108h729v1106h117z" glyph-name="four" horiz-adv-x="1429" unicode="4"/><glyph d="M715 1065q260 0 445.5 -165t185.5 -398.5t-185.5 -398t-445.5 -164.5t-445.5 164.5t-185.5 398.5h117q0 -184 150.5 -314.5t363.5 -130.5t363.5 130t150.5 314.5t-150.5 314.5t-363.5 130q-123 0 -232 -47h-155l104 807h901v-119h-798l-76 -569q123 47 256 47z" glyph-name="five" horiz-adv-x="1464" unicode="5"/><glyph d="M776 1106q260 0 445.5 -171t185.5 -412.5t-185.5 -412.5t-445.5 -171t-445.5 171t-185.5 412q0 18 2 41v574q0 262 175.5 447t420.5 185h125q195 0 331 -145t136 -350h-116q0 154 -102.5 263.5t-248.5 109.5h-125q-199 0 -340 -149.5t-141 -360.5v-306q92 119 227 197 t287 78zM776 61q213 0 363.5 135.5t150.5 326t-150.5 325.5t-363.5 135q-203 0 -350 -123t-164 -303v-61q10 -182 159.5 -308.5t354.5 -126.5z" glyph-name="six" horiz-adv-x="1531" unicode="6"/><glyph d="M90 1589v117h1137v-137q-53 -47 -109.5 -102.5t-153 -161t-182.5 -210t-182 -243.5t-168 -272.5t-125 -287t-67 -292.5h-115q16 186 99 394t186.5 377t239.5 342t234.5 278.5t194.5 197.5h-989z" glyph-name="seven" horiz-adv-x="1275" unicode="7"/><glyph d="M989 860q150 -66 247 -181.5t97 -252.5q0 -201 -177 -344t-426 -143t-426 143t-177 344q0 137 95 254t247 180q-129 66 -211 178.5t-82 241.5q0 203 162 346t391 143t392 -143t163 -346q0 -129 -83 -241.5t-212 -178.5zM291 1280q0 -152 129 -258.5t310 -106.5t309 106.5 t128 258.5t-128 259.5t-309 107.5t-310 -107.5t-129 -259.5zM730 61q202 0 344.5 106.5t142.5 258.5t-142.5 259.5t-344.5 107.5t-344 -107.5t-142 -259.5t142 -258.5t344 -106.5z" glyph-name="eight" horiz-adv-x="1460" unicode="8"/><glyph d="M756 1765q260 0 445 -171t185 -410q0 -18 -2 -41v-574q0 -260 -175 -445t-421 -185h-126q-193 0 -329 144t-136 349h114q0 -154 102.5 -262.5t248.5 -108.5h126q199 0 339.5 149.5t140.5 358.5v305q-92 -119 -227.5 -196.5t-284.5 -77.5q-260 0 -445.5 171t-185.5 411.5 t185.5 411.5t445.5 171zM1268 1208h2q-12 182 -160.5 308t-353.5 126q-213 0 -363.5 -134t-150.5 -324.5t150.5 -325.5t363.5 -135q201 0 349 123t163 303v59z" glyph-name="nine" horiz-adv-x="1531" unicode="9"/><glyph d="M219 1032h-151v144h151v-144zM219 0h-151v143h151v-143z" glyph-name="colon" horiz-adv-x="286" unicode=":"/><glyph d="M76 -80v178h117v-178q0 -100 -72 -172t-172 -72v117q53 0 90 37t37 90zM209 971h-150v143h150v-143z" glyph-name="semicolon" horiz-adv-x="270" unicode=";"/><glyph d="M848 150v-150l-758 426v262l758 426v-149l-725 -408z" glyph-name="less" horiz-adv-x="942" unicode="&lt;"/><glyph d="M1280 827h-1221v117h1221v-117zM1280 276h-1221v115h1221v-115z" glyph-name="equal" horiz-adv-x="1339" unicode="="/><glyph d="M94 0v150l723 407l-723 408v149l758 -426v-262z" glyph-name="greater" horiz-adv-x="942" unicode=">"/><glyph d="M696 1733q258 0 440.5 -158t182.5 -381q0 -211 -163 -364.5t-400 -174.5v-249h-117v364h57q211 0 358.5 124t147.5 299t-147.5 300t-358.5 125q-215 0 -359 -114.5t-144 -284.5h-117q0 219 178 366.5t442 147.5zM772 0h-149v143h149v-143z" glyph-name="question" horiz-adv-x="1419" unicode="?"/><glyph d="M2390 623q4 -141 -42 -271.5t-132 -218.5q-135 -141 -334 -141h-10q-90 0 -156.5 59.5t-77.5 149.5q-49 -135 -144 -211t-234 -76q-221 0 -378 176t-157 425t156.5 425t378.5 176q137 0 232 -74.5t146 -205.5v239h115v-850q0 -49 35 -84t84 -35h10q150 0 252 107 q70 72 107.5 180.5t33.5 224.5q-4 125 -51 248t-121.5 221.5t-165 177t-188.5 130.5l-8 6q-225 117 -481 117q-209 0 -399.5 -80t-328 -215.5t-218.5 -321.5t-81 -391t81 -391.5t218.5 -321.5t328 -215t399.5 -80v-116q-233 0 -444.5 89t-365 239.5t-243.5 358.5t-90 436 t90 437t243.5 359.5t364.5 239.5t445 89q285 0 534 -131l10 -6q256 -137 417 -377.5t169 -496.5zM1244 57q161 0 275.5 134.5t114.5 324t-114.5 323.5t-275.5 134t-274.5 -134t-113.5 -323.5t113.5 -324t274.5 -134.5z" glyph-name="at" horiz-adv-x="2504" unicode="@"/><glyph d="M834 1706l561 -1706h-121l-193 586h-737l-192 -586h-123l561 1706h123l-332 -1006h661l-329 1006h121z" glyph-name="A" horiz-adv-x="1425" unicode="A"/><glyph d="M1530 1233q0 -115 -73 -216.5t-179 -162.5q106 -61 179 -162.5t73 -216.5v-37q0 -182 -128 -310t-310 -128h-928v1708h928q182 0 310 -128t128 -310v-37zM1413 475q0 133 -94 227.5t-227 94.5h-811v-680h811q133 0 227 94t94 227v37zM1092 911q133 0 227 94.5t94 227.5 v37q0 133 -94 227t-227 94h-811v-680h811z" glyph-name="B" horiz-adv-x="1648" unicode="B"/><glyph d="M852 55q182 0 335.5 117t237.5 317l107 -45q-96 -233 -279.5 -369t-400.5 -136q-207 0 -382 122.5t-276.5 333.5t-101.5 460t101.5 460t276.5 334t382 123q246 0 444.5 -173.5t276.5 -453.5l-111 -31q-68 242 -235.5 391.5t-374.5 149.5q-174 0 -322.5 -107.5 t-234.5 -292t-86 -400.5t86 -400.5t234.5 -292t322.5 -107.5z" glyph-name="C" horiz-adv-x="1640" unicode="C"/><glyph d="M831 1706q231 0 428 -114.5t310.5 -311.5t113.5 -428t-113.5 -428t-310 -310.5t-428.5 -113.5h-667v1706h667zM831 115q201 0 370 99t268.5 269t99.5 370t-99.5 370t-268.5 268t-370 98h-550v-1474h550z" glyph-name="D" horiz-adv-x="1767" unicode="D"/><glyph d="M1386 1589h-1105v-680h893v-114h-893v-680h1105v-115h-1222v1706h1222v-117z" glyph-name="E" horiz-adv-x="1435" unicode="E"/><glyph d="M1386 1587h-1105v-659h893v-117h-893v-811h-117v1704h1222v-117z" glyph-name="F" horiz-adv-x="1406" unicode="F"/><glyph d="M1210 729h412v-735h-117v495q-86 -240 -253 -380t-392 -140q-209 0 -387 119t-281.5 321.5t-103.5 441.5t103.5 441.5t281.5 320.5t387 118q229 0 419.5 -142.5t283.5 -376.5h-125q-86 182 -240 293t-338 111q-178 0 -329.5 -102.5t-238.5 -278.5t-87 -384t87 -384 t238.5 -278.5t329.5 -102.5q205 0 386 152.5t255 373.5h-291v117z" glyph-name="G" horiz-adv-x="1726" unicode="G"/><glyph d="M1329 1708h117v-1708h-117v795h-1048v-795h-117v1708h117v-799h1048v799z" glyph-name="H" horiz-adv-x="1609" unicode="H"/><glyph d="M281 0h-117v1706h117v-1706z" glyph-name="I" horiz-adv-x="444" unicode="I"/><glyph d="M758 1704h116v-1333q0 -178 -123.5 -305t-300 -127t-300 127t-123.5 305h116q0 -131 90.5 -223.5t217.5 -92.5t217 92.5t90 223.5v1333z" glyph-name="J" horiz-adv-x="1030" unicode="J"/><glyph d="M1583 1704l-825 -649l829 -1055h-147l-772 983l-387 -305v-678h-117v1706h117v-881l1116 879h186z" glyph-name="K" horiz-adv-x="1609" unicode="K"/><glyph d="M281 1710v-1593h804v-117h-921v1710h117z" glyph-name="L" horiz-adv-x="1093" unicode="L"/><glyph d="M1675 1710h238v-1708h-117v1704l-637 -1706h-241l-637 1706v-1704h-117v1708h235l639 -1708z" glyph-name="M" horiz-adv-x="2076" unicode="M"/><glyph d="M1309 1706h116v-1706h-235l-909 1702v-1702h-117v1706h235l910 -1704v1704z" glyph-name="N" horiz-adv-x="1589" unicode="N"/><glyph d="M864 1763q209 0 387.5 -121.5t280.5 -332.5t102 -459t-102 -458t-280.5 -331.5t-387.5 -121.5t-387 121.5t-281.5 331.5t-103.5 458t103.5 459t281.5 332.5t387 121.5zM864 53q178 0 328.5 106.5t239 291t88.5 400.5t-88.5 399.5t-239 291t-328.5 107.5t-329.5 -107.5 t-238.5 -291t-87 -399.5t87 -400.5t238.5 -291t329.5 -106.5z" glyph-name="O" horiz-adv-x="1728" unicode="O"/><glyph d="M1102 1710q182 0 311 -129t129 -311.5t-129 -310.5t-311 -128h-821v-831h-117v1712h117v-2h821zM1102 946q135 0 229 95.5t94 228.5t-94 228t-229 95h-821v-647h821z" glyph-name="P" horiz-adv-x="1595" unicode="P"/><glyph d="M1638 864q0 -197 -67.5 -372t-186.5 -304l297 -297l-82 -81l-299 299q-197 -158 -436 -158q-209 0 -387 122t-281.5 332.5t-103.5 458.5t103.5 459t281.5 333t388 122t388.5 -122t281.5 -333t103 -459zM864 66q193 0 355 127l-209 206l82 82l211 -211 q102 113 160.5 266.5t58.5 327.5q0 217 -88 400.5t-240 291t-330 107.5t-328.5 -107.5t-238.5 -291t-88 -400.5t88 -400t238.5 -290.5t328.5 -107.5z" glyph-name="Q" horiz-adv-x="1738" unicode="Q"/><glyph d="M1102 825h-76l553 -825h-137l-553 825h-608v-825h-117v1706h117v-2h821q182 0 311 -128t129 -310.5t-129 -311.5t-311 -129zM281 1589v-647h821q135 0 229 94t94 228.5t-94 229.5t-229 95h-821z" glyph-name="R" horiz-adv-x="1646" unicode="R"/><glyph d="M771 1651q-230 0 -394 -108.5t-164 -262.5q0 -139 139 -242q39 -31 111 -52t128 -29.5t163 -20.5q90 -10 137 -17.5t132 -26t134 -38.5t111.5 -59t95.5 -87.5t57.5 -121t24.5 -160.5q0 -133 -91 -244.5t-246 -177t-338 -65.5t-339 65.5t-246 177t-90 244.5h117 q0 -154 164 -262.5t394 -108.5t394 108.5t164 262.5q0 63 -14.5 114.5t-39 88.5t-67.5 65.5t-86 48t-110.5 35t-126 24.5t-146.5 19q-117 14 -178 23.5t-144 35t-134 64.5q-186 139 -187 336q0 133 90 244.5t246 176t339 64.5t338 -64.5t246 -176t91 -244.5h-117 q0 154 -164 262.5t-394 108.5z" glyph-name="S" horiz-adv-x="1546" unicode="S"/><glyph d="M6 1587v117h1512v-117h-699v-1587h-114v1587h-699z" glyph-name="T" horiz-adv-x="1525" unicode="T"/><glyph d="M1401 616v1090h115v-1090q0 -184 -92.5 -339.5t-250 -246.5t-344 -91t-345 91t-251 246.5t-92.5 339.5v1090h117v-1090q0 -231 167 -396t403.5 -165t404.5 165t168 396z" glyph-name="U" horiz-adv-x="1658" unicode="U"/><glyph d="M1288 1708h121l-571 -1708h-242l-573 1708h122l572 -1704z" glyph-name="V" horiz-adv-x="1433" unicode="V"/><glyph d="M2671 1708h122l-573 -1708h-242l-571 1702l-569 -1702h-242l-573 1708h122l572 -1704l571 1704h240l571 -1704z" glyph-name="W" horiz-adv-x="2816" unicode="W"/><glyph d="M1622 1706l-733 -852l735 -854h-151l-650 764l-651 -764h-152l738 854l-735 852h151l649 -762l647 762h152z" glyph-name="X" horiz-adv-x="1646" unicode="X"/><glyph d="M1599 1706l-745 -875v-831h-115v831l-745 875h151l652 -764l649 764h153z" glyph-name="Y" horiz-adv-x="1593" unicode="Y"/><glyph d="M45 1585v115h1600v-137l-1459 -1446h1459v-117h-1602v137l1460 1448h-1458z" glyph-name="Z" horiz-adv-x="1689" unicode="Z"/><glyph d="M508 1806h-227v-1966h227v-114h-344v2195h344v-115z" glyph-name="bracketleft" horiz-adv-x="444" unicode="["/><glyph d="M205 1708l1222 -1708h-180l-1224 1708h182z" glyph-name="backslash" horiz-adv-x="1454" unicode="\"/><glyph d="M-63 1921h344v-2195h-344v114h227v1966h-227v115z" glyph-name="bracketright" horiz-adv-x="446" unicode="]"/><glyph d="M655 1280q209 0 357.5 -147.5t148.5 -356.5v-778h-117v213q-39 -127 -140 -199.5t-265 -72.5q-227 0 -390 131t-163 316t163 317.5t390 132.5q164 0 265.5 -73t139.5 -200v213q0 160 -113.5 273.5t-275.5 113.5q-135 0 -244.5 -56t-142.5 -144l-108 38q45 123 183 201 t312 78zM623 74q174 0 296.5 92t122.5 221t-122.5 221t-296.5 92t-298 -92t-124 -221t124 -221t298 -92z" glyph-name="a" horiz-adv-x="1292" unicode="a"/><glyph d="M693 1282q161 0 297 -90t215 -244.5t79 -337t-79 -337t-215 -244.5t-297 -90t-269.5 92t-159.5 252v-285h-117v1710h117v-772q51 162 159.5 254t269.5 92zM715.5 72q187.5 0 320.5 157.5t133 381t-133 381t-320.5 157.5t-319.5 -157.5t-132 -381t132 -381t319.5 -157.5z " glyph-name="b" horiz-adv-x="1378" unicode="b"/><glyph d="M1047 397l108 -35q-61 -193 -200.5 -308t-309.5 -115q-150 0 -276.5 90t-200.5 244.5t-74 336t74 336t201 243.5t276 89q168 0 306.5 -111.5t201.5 -300.5l-111 -37q-51 152 -159.5 243t-237.5 91q-180 0 -307 -162.5t-127 -391t127 -391.5t307 -163q131 0 241 93 t161 249z" glyph-name="c" horiz-adv-x="1234" unicode="c"/><glyph d="M1231 254q0 -57 40 -98t95 -41v-117q-104 0 -178 76t-74 180v31q-53 -162 -160.5 -254t-269.5 -92q-160 0 -297 90t-216 244.5t-79 337t79 337t216 244.5t297 90q162 0 270.5 -93t159.5 -255v770h117v-1450zM660.5 72q187.5 0 320.5 157.5t133 381t-133 381t-320.5 157.5 t-320.5 -157.5t-133 -381t133 -381t320.5 -157.5z" glyph-name="d" horiz-adv-x="1433" unicode="d"/><glyph d="M1192 293l4 -2q-82 -164 -230.5 -258t-320.5 -94q-150 0 -276.5 89t-200.5 242.5t-74 334.5t74 335t201 243t276.5 89t275.5 -89t199.5 -243t73.5 -334v-59h-981q16 -207 140 -349.5t292 -142.5q125 0 236.5 62.5t181.5 175.5h129zM644 1157q-167 0 -291 -142.5 t-140 -350.5h864q-18 209 -142 351t-291 142z" glyph-name="e" unicode="e"/><glyph d="M492 1591q-57 0 -97.5 -41t-40.5 -98v-231h408v-115h-408v-1106h-116v1106h-195v115h195v231q0 106 74.5 181t179.5 75h270v-117h-270z" glyph-name="f" horiz-adv-x="790" unicode="f"/><glyph d="M1114 1221h115v-1229q0 -221 -158 -379t-379 -158q-156 0 -296 59.5t-240 166.5l84 79q84 -90 202.5 -139t249.5 -49q174 0 298 123t124 297v295q-53 -162 -161.5 -253t-268.5 -91t-297 90t-216 244.5t-79 337t79 337t216 244.5t297 90t268.5 -92t161.5 -252v279z M1114 602v23q-4 219 -136 373.5t-316 154.5q-188 0 -320.5 -157.5t-132.5 -381t132 -381t321 -157.5q184 0 316 153.5t136 372.5z" glyph-name="g" horiz-adv-x="1378" unicode="g"/><glyph d="M1284 618v-618h-115v618q-2 221 -135 378t-319 157q-184 0 -316.5 -154.5t-134.5 -373.5v-625h-117v1712h117v-780q49 166 157.5 259t270.5 93q160 0 296 -89t216 -243t80 -334z" glyph-name="h" horiz-adv-x="1404" unicode="h"/><glyph d="M264 0h-117v1219h117v-1219zM285 1425h-152v144h152v-144z" glyph-name="i" horiz-adv-x="411" unicode="i"/><glyph d="M147 -164v1413h117v-1413q0 -145 -101.5 -248.5t-244.5 -103.5h-149v117h149q96 0 162.5 68.5t66.5 166.5zM281 1454h-150v143h150v-143z" glyph-name="j" horiz-adv-x="411" unicode="j"/><glyph d="M1151 1221l-508 -398l619 -819h-146l-565 748l-287 -228v-524h-117v1708h117v-1036l699 549h188z" glyph-name="k" horiz-adv-x="1288" unicode="k"/><glyph d="M258 254q0 -57 40 -97t95 -40v-117q-104 0 -178 75t-74 179v1456h117v-1456z" glyph-name="l" horiz-adv-x="462" unicode="l"/><glyph d="M1714 1284q160 0 296 -89t216 -242.5t80 -334.5v-618h-115v618q-2 221 -135 378t-318.5 157t-318.5 -156.5t-135 -378.5v-618h-115v618q-2 221 -135 378t-317 157q-186 0 -318.5 -154.5t-134.5 -373.5v-625h-117v1221h117v-289q49 166 157.5 259t270.5 93 q186 0 337 -118.5t216 -311.5q45 197 166 313.5t303 116.5z" glyph-name="m" horiz-adv-x="2428" unicode="m"/><glyph d="M692 1284q160 0 296 -89t216 -242.5t80 -334.5v-618h-115v618q-2 221 -135 378t-319 157q-184 0 -316.5 -154.5t-134.5 -373.5v-625h-117v1221h117v-289q49 166 157.5 259t270.5 93z" glyph-name="n" horiz-adv-x="1404" unicode="n"/><glyph d="M645.5 1276q149.5 0 275.5 -89t199.5 -244t73.5 -336t-73.5 -335.5t-199.5 -243.5t-275.5 -89t-276.5 89t-201 243.5t-74 335.5t74 336t201 244t276.5 89zM644 53q179 0 307 163t128 391.5t-128 391t-307 162.5t-306 -162.5t-127 -391t127 -391.5t306 -163z" glyph-name="o" unicode="o"/><glyph d="M692 1280q160 0 297 -90t216 -244.5t79 -337t-79 -337t-216 -244.5t-297 -90t-268.5 92t-159.5 252v-770h-117v1710h117v-285q51 162 159.5 253t268.5 91zM715.5 70q187.5 0 320.5 157.5t133 380.5t-133 381t-320.5 158t-319.5 -158t-132 -381t132 -380.5t319.5 -157.5z " glyph-name="p" horiz-adv-x="1378" unicode="p"/><glyph d="M1114 934v287h115v-1710h-115v772q-53 -162 -160.5 -254t-268.5 -92t-298 90t-216 244.5t-79 337t79 337t216 244.5t298 90t268.5 -92t160.5 -254zM660.5 70q187.5 0 320.5 157.5t133 380.5t-133 381t-320.5 158t-320.5 -158t-133 -381t133 -380.5t320.5 -157.5z" glyph-name="q" horiz-adv-x="1378" unicode="q"/><glyph d="M264 825q31 213 136.5 336t291.5 123q20 0 45 -2v-131h-22q-184 0 -315.5 -153.5t-135.5 -372.5v-625h-117v1223h117v-398z" glyph-name="r" horiz-adv-x="759" unicode="r"/><glyph d="M587.5 1159q-151.5 0 -262 -73.5t-110.5 -174.5q0 -90 90 -159q27 -20 75 -35t86 -21t112 -14q47 -6 72.5 -9t73.5 -12.5t76.5 -17.5t70.5 -24.5t68 -35t54.5 -47t45 -61.5t27.5 -78t11 -96q0 -150 -143 -256t-346 -106t-346.5 106.5t-143.5 255.5h117q0 -100 110.5 -174 t262 -74t262.5 74t111 174q0 59 -19.5 102t-48.5 70t-84 45.5t-107.5 28.5t-138.5 20q-84 10 -128 17.5t-103.5 27t-95.5 47.5q-137 104 -138 252q0 152 143.5 258.5t346.5 106.5t346 -106.5t143 -258.5h-116q0 100 -111 174t-262.5 74z" glyph-name="s" horiz-adv-x="1177" unicode="s"/><glyph d="M352 1712v-491h408v-115h-408v-848q0 -59 40 -100t97 -41h271v-117h-271q-104 0 -178.5 76t-74.5 182v848h-195v115h195v491h116z" glyph-name="t" horiz-adv-x="815" unicode="t"/><glyph d="M1141 598v625h114v-1221h-114v289q-51 -166 -159 -259t-271 -93q-160 0 -296 89t-215 242.5t-81 333.5v619h117v-619q0 -221 133 -377.5t319 -156.5q184 0 316.5 154.5t136.5 373.5z" glyph-name="u" horiz-adv-x="1404" unicode="u"/><glyph d="M977 1219h121l-408 -1219h-244l-407 1219h123l407 -1215z" glyph-name="v" horiz-adv-x="1138" unicode="v"/><glyph d="M2028 1219h122l-407 -1219h-244l-405 1206l-404 -1206h-244l-407 1219h123l407 -1215l408 1215h235l408 -1215z" glyph-name="w" horiz-adv-x="2189" unicode="w"/><glyph d="M1227 1221l-531 -609l535 -612h-154l-444 522l-447 -522h-151l534 612l-530 609h151l443 -519l442 519h152z" glyph-name="x" horiz-adv-x="1265" unicode="x"/><glyph d="M563 -2l389 1216h123l-497 -1550q-31 -96 -113 -155.5t-184 -59.5h-240v115h240q63 0 114 38t72 99l94 295h-119l-401 1218h123z" glyph-name="y" horiz-adv-x="1118" unicode="y"/><glyph d="M215 117h1090v-117h-1246v133l1094 967h-1090v117h1242v-136z" glyph-name="z" horiz-adv-x="1366" unicode="z"/><glyph d="M326 866l-68 -75q-10 -10 -10 -26.5t10 -27.5l68 -75v-613q0 -111 67.5 -189.5t161.5 -78.5v-115q-143 0 -243.5 112.5t-100.5 270.5v567l-39 43q-39 43 -39 104.5t39 104.5l39 43v568q0 158 100.5 270.5t243.5 112.5v-115q-94 0 -161.5 -79t-67.5 -189v-613z" glyph-name="braceleft" horiz-adv-x="544" unicode="{"/><glyph d="M281 0h-117v1708h117v-1708z" glyph-name="bar" horiz-adv-x="444" unicode="|"/><glyph d="M371 868q41 -43 41 -104.5t-41 -104.5l-37 -43v-567q0 -158 -101.5 -270.5t-242.5 -112.5v115q94 0 160.5 79t66.5 189v613l70 75q8 10 8 26.5t-8 27.5l-70 75v613q0 111 -66.5 189.5t-160.5 78.5v115q141 0 242.5 -113t101.5 -270v-568z" glyph-name="braceright" horiz-adv-x="544" unicode="}"/><glyph glyph-name="uni00A0" horiz-adv-x="696" unicode=" "/><glyph d="M248 -516h-115v1298h115v-1298zM266 1044h-151v144h151v-144z" glyph-name="exclamdown" horiz-adv-x="380" unicode="¡"/><glyph d="M707 489l108 -38q-37 -104 -112.5 -175t-172.5 -88v-188h-116v188q-133 25 -222.5 144t-89.5 276.5t89.5 276.5t222.5 143v191h116v-191q94 -18 170 -86t113 -172l-108 -39q-31 84 -94.5 135.5t-139.5 51.5q-104 0 -178 -91.5t-74 -219.5t74 -218t178 -90q78 0 141.5 51 t94.5 139z" glyph-name="cent" horiz-adv-x="917" unicode="¢"/><glyph d="M737 1591q-80 0 -135 -59t-55 -143v-478h420v-116h-420v-678h823v-117h-1280v117h340v678h-340v116h340v478q0 131 90 224t217 93h633v-115h-633z" glyph-name="sterling" horiz-adv-x="1445" unicode="£"/><glyph d="M1620 1706l-557 -651h192v-117h-290l-91 -107v-79h381v-117h-381v-635h-114v635h-381v117h381v79l-92 107h-289v117h190l-555 651h152l651 -764l649 764h154z" glyph-name="yen" horiz-adv-x="1634" unicode="¥"/><glyph d="M1120 807q0 -152 -147 -256q2 -2 5 -3t5 -3q137 -102 137 -250q0 -147 -143 -251.5t-346 -104.5t-346.5 104t-143.5 252h117q0 -98 110.5 -170t262 -72t262.5 72t111 170q0 90 -91 158q-27 18 -74.5 32.5t-85.5 20.5t-112 14q-49 6 -74.5 9t-74 11.5t-77 17.5t-69.5 24.5 t-66.5 34t-55 46t-45 60.5t-27 77t-11.5 95q0 68 39 135.5t105 120.5l-3 2l-3 2q-137 102 -138 250q0 147 143.5 251.5t346.5 104.5t346 -104.5t143 -251.5h-116q0 98 -111 170t-262.5 72t-262 -72t-110.5 -170q0 -88 90 -156q27 -20 75 -34.5t86 -19.5t112 -15 q47 -4 72.5 -8.5t73.5 -12.5t76.5 -17t70.5 -24.5t68 -34t54.5 -46t45 -60.5t27.5 -76t11 -94zM838 606q78 35 122 87t44 114q0 57 -19.5 99t-48.5 67.5t-84 44t-107.5 28t-138.5 19.5q-131 16 -192 31q-70 -35 -113 -91.5t-43 -109.5q0 -59 18.5 -101t48 -68t85 -44 t107.5 -27.5t136 -19.5q128 -15 185 -29z" glyph-name="section" horiz-adv-x="1261" unicode="§"/><glyph d="M1041.5 1765q187.5 0 357.5 -71.5t294 -194.5t196.5 -292t72.5 -354t-72.5 -354t-196.5 -292t-294 -195.5t-357.5 -72.5t-358.5 72.5t-295 195.5t-196.5 292t-72.5 354t72.5 354t196.5 292t295 194.5t358.5 71.5zM1040.5 55q219.5 0 404.5 106.5t293.5 291t108.5 400.5 t-108.5 399.5t-293.5 291t-404.5 107.5t-404.5 -107.5t-292.5 -291t-107.5 -399.5t107.5 -400.5t292.5 -291t404.5 -106.5zM1055 457q94 0 173 66.5t115 176.5l109 -36q-47 -147 -155.5 -235.5t-241.5 -88.5q-178 0 -303 150.5t-125 362.5t125 362.5t303 150.5 q131 0 238.5 -87t156.5 -230l-109 -37q-39 109 -116.5 173t-169.5 64q-129 0 -221.5 -116.5t-92.5 -280.5t92.5 -279.5t221.5 -115.5z" glyph-name="copyright" horiz-adv-x="2082" unicode="©"/><glyph d="M438 1317q125 0 214 -88t89 -215v-467h-69v129q-51 -164 -244 -164q-137 0 -234.5 79t-97.5 190.5t97.5 190.5t234.5 79q193 0 244 -164v127q0 96 -68.5 164.5t-165.5 68.5q-82 0 -147.5 -33.5t-85.5 -87.5l-64 23q27 76 110 122t187 46zM417.5 594q104.5 0 178.5 54 t74 132t-74 133.5t-178.5 55.5t-178 -55.5t-73.5 -133.5t73.5 -132t178 -54z" glyph-name="ordfeminine" horiz-adv-x="847" unicode="ª"/><glyph d="M834 1157v-110l-373 -213l373 -211v-111l-375 213v219zM459 1047l-371 -213l371 -211v-111l-373 213v219l373 213v-110z" glyph-name="guillemotleft" horiz-adv-x="919" unicode="«"/><glyph glyph-name="uni00AD" horiz-adv-x="0" unicode="­"/><glyph d="M1041.5 1765q187.5 0 357.5 -71.5t294 -194.5t196.5 -292t72.5 -354t-72.5 -354t-196.5 -292t-294 -195.5t-357.5 -72.5t-358.5 72.5t-295 195.5t-196.5 292t-72.5 354t72.5 354t196.5 292t295 194.5t358.5 71.5zM1040.5 55q219.5 0 404.5 106.5t293.5 291t108.5 400.5 t-108.5 399.5t-293.5 291t-404.5 107.5t-404.5 -107.5t-292.5 -291t-107.5 -399.5t107.5 -400.5t292.5 -291t404.5 -106.5zM1403 1030q0 -94 -65.5 -162.5t-157.5 -76.5l235 -349h-137l-236 349h-241v-349h-117v828h479q98 0 169 -70t71 -170zM801 1155v-248h362q51 0 87 36 t36 87t-36 88t-87 37h-362z" glyph-name="registered" horiz-adv-x="2082" unicode="®"/><glyph d="M325.5 1960q110.5 0 188.5 -78t78 -188.5t-78 -189.5t-188.5 -79t-188.5 79t-78 189.5t78 188.5t188.5 78zM326.5 1542q62.5 0 106.5 44t44 106.5t-44 106.5t-106.5 44t-106.5 -44t-44 -106.5t44 -106.5t106.5 -44z" glyph-name="degree" horiz-adv-x="653" unicode="°"/><glyph d="M123 961h352v-39h-391v55l139 123q12 10 39 33q43 37 68.5 59t54.5 61t31 72q4 43 -31 82q-45 53 -109 53q-63 0 -109 -54t-46 -130h-37q0 92 56.5 156.5t135.5 64.5q82 0 138 -65q45 -51 39 -109q-2 -41 -33 -85t-57.5 -68.5t-75.5 -65.5q-27 -23 -39 -33z" glyph-name="uni00B2" horiz-adv-x="557" unicode="²"/><glyph d="M82 1497h414v-47l-170 -166q70 -12 115.5 -62.5t45.5 -115.5q0 -76 -59 -130t-144 -54t-145.5 54t-60.5 130h37q0 -59 49 -102t118.5 -43t119 43t49.5 102t-49.5 102t-118.5 43v45l166 162h-367v39z" glyph-name="uni00B3" horiz-adv-x="581" unicode="³"/><glyph d="M1161 1219h115v-617q0 -182 -80 -335.5t-216 -243t-296 -89.5q-162 0 -270.5 94.5t-157.5 258.5v-776h-117v1708h117v-623q2 -221 134 -374.5t317 -153.5q186 0 319 156.5t135 377.5v617z" glyph-name="uni00B5" horiz-adv-x="1402" unicode="µ"/><glyph d="M248 961h139v-39h-315v39h139v415q0 27 -18.5 45.5t-45.5 18.5h-75v39h75q43 0 72 -31t29 -72v-415z" glyph-name="uni00B9" horiz-adv-x="452" unicode="¹"/><glyph d="M427 1317q136 0 232.5 -118t96.5 -284.5t-96.5 -284.5t-232.5 -118t-233.5 118t-97.5 284.5t97.5 284.5t233.5 118zM427 582q108 0 183.5 97t75.5 235.5t-75.5 235.5t-183.5 97t-184.5 -97t-76.5 -235.5t76.5 -235.5t184.5 -97z" glyph-name="ordmasculine" horiz-adv-x="854" unicode="º"/><glyph d="M459 944v-219l-373 -213v111l373 211l-373 213v110zM459 1157l375 -213v-219l-375 -213v111l372 211l-372 213v110z" glyph-name="guillemotright" horiz-adv-x="919" unicode="»"/><glyph d="M1202 25h117q0 -219 -178 -366.5t-445 -147.5q-256 0 -438 157.5t-182 380.5q0 211 162.5 364.5t400.5 174.5v250h117v-365h-60q-209 0 -356 -124t-147 -299t147 -300t356 -125q217 0 361.5 115t144.5 285zM772 1100h-149v143h149v-143z" glyph-name="questiondown" horiz-adv-x="1351" unicode="¿"/><glyph d="M870 1942l-65 -66l-254 254l65 65zM831 1708l562 -1708h-121l-193 586h-737l-192 -586h-123l561 1708h123l-332 -1006h661l-329 1006h120z" glyph-name="Agrave" horiz-adv-x="1421" unicode="À"/><glyph d="M870 2130l-254 -254l-65 66l254 253zM831 1708l562 -1708h-121l-193 586h-737l-192 -586h-123l561 1708h123l-332 -1006h661l-329 1006h120z" glyph-name="Aacute" horiz-adv-x="1421" unicode="Á"/><glyph d="M711 2075l-179 -179l-65 66l244 244l241 -244l-65 -66zM831 1708l562 -1708h-121l-193 586h-737l-192 -586h-123l561 1708h123l-332 -1006h661l-329 1006h120z" glyph-name="Acircumflex" horiz-adv-x="1421" unicode="Â"/><glyph d="M831 1708l562 -1708h-121l-193 586h-737l-192 -586h-123l561 1708h123l-332 -1006h661l-329 1006h120zM686 1997q-72 43 -152.5 23.5t-123.5 -91.5l-80 47q63 104 182 133t223 -34q70 -43 152 -23.5t125 90.5l80 -49q-63 -102 -182.5 -130.5t-223.5 34.5z" glyph-name="Atilde" horiz-adv-x="1421" unicode="Ã"/><glyph d="M831 1708l562 -1708h-121l-193 586h-737l-192 -586h-123l561 1708h123l-332 -1006h661l-329 1006h120zM530 1964h-151v143h151v-143zM1040 1964h-149v143h149v-143z" glyph-name="Adieresis" horiz-adv-x="1421" unicode="Ä"/><glyph d="M831 1708l562 -1708h-121l-193 586h-737l-192 -586h-123l561 1708h123l-332 -1006h661l-329 1006h120zM709.5 1847q-78.5 0 -134 55.5t-55.5 133.5t55.5 133t134 55t134 -55t55.5 -133t-55.5 -133.5t-134 -55.5zM710 2132q-40 0 -68 -28.5t-28 -67.5t28 -68t68 -29 t67.5 29t27.5 68t-27.5 67.5t-67.5 28.5z" glyph-name="Aring" horiz-adv-x="1421" unicode="Å"/><glyph d="M2134 2h-741v-2h-121l-193 586h-737l-192 -586h-123l561 1708h123l-332 -1006h661l-329 1006h120v-2h742l39 -115h-742l224 -680h741l37 -114h-742l224 -680h743z" glyph-name="AE" horiz-adv-x="2144" unicode="Æ"/><glyph d="M852 63q182 0 335.5 117t237.5 318l107 -43q-82 -201 -229.5 -330t-327.5 -164v-63q-70 0 -119 -46.5t-49 -111t49 -110.5t119 -46v-116q-117 0 -200 79.5t-83 192.5q0 129 103 211q-193 18 -354.5 143t-255 329t-93.5 441q0 248 101.5 459t276.5 334t382 123 q246 0 444.5 -173t276.5 -454l-111 -31q-68 244 -235.5 392.5t-374.5 148.5q-174 0 -322.5 -106.5t-234.5 -291t-86 -401.5t86 -401t234.5 -292t322.5 -108z" glyph-name="Ccedilla" horiz-adv-x="1640" unicode="Ç"/><glyph d="M965 1917l-66 -66l-254 254l66 66zM1386 1589h-1105v-678h893v-116h-893v-678h1105v-117h-1222v1706h1222v-117z" glyph-name="Egrave" horiz-adv-x="1433" unicode="È"/><glyph d="M965 2105l-254 -254l-66 66l254 254zM1386 1589h-1105v-678h893v-116h-893v-678h1105v-117h-1222v1706h1222v-117z" glyph-name="Eacute" horiz-adv-x="1433" unicode="É"/><glyph d="M1386 1589h-1105v-678h893v-116h-893v-678h1105v-117h-1222v1706h1222v-117zM805 2050l-178 -176l-66 65l244 242l244 -242l-66 -65z" glyph-name="Ecircumflex" horiz-adv-x="1433" unicode="Ê"/><glyph d="M625 1939h-152v144h152v-144zM1137 1939h-152v144h152v-144zM1386 1589h-1105v-678h893v-116h-893v-678h1105v-117h-1222v1706h1222v-117z" glyph-name="Edieresis" horiz-adv-x="1433" unicode="Ë"/><glyph d="M381 1915l-66 -66l-254 254l66 66zM279 0h-115v1706h115v-1706z" glyph-name="Igrave" horiz-adv-x="444" unicode="Ì"/><glyph d="M381 2103l-254 -254l-66 66l254 254zM279 0h-115v1706h115v-1706z" glyph-name="Iacute" horiz-adv-x="444" unicode="Í"/><glyph d="M223 2179l242 -242l-66 -65l-176 176l-178 -176l-65 65zM281 0h-117v1706h117v-1706z" glyph-name="Icircumflex" horiz-adv-x="446" unicode="Î"/><glyph d="M43 1937h-152v144h152v-144zM553 1937h-150v144h150v-144zM281 0h-117v1706h117v-1706z" glyph-name="Idieresis" horiz-adv-x="446" unicode="Ï"/><glyph d="M768 1980q-72 43 -152.5 24t-126.5 -91l-79 47q66 106 184.5 135t220.5 -35q72 -45 154 -24.5t125 90.5l77 -47q-63 -104 -181 -133t-222 34zM1309 1706h116v-1706h-235l-909 1702v-1702h-117v1706h235l910 -1702v1702z" glyph-name="Ntilde" horiz-adv-x="1589" unicode="Ñ"/><glyph d="M1024 1919l-66 -66l-253 254l65 66zM864 1765q209 0 387.5 -122.5t280.5 -332.5t102 -458t-102 -459t-280.5 -332.5t-387.5 -121.5t-387 121.5t-281.5 332.5t-103.5 459t103.5 458t281.5 332.5t387 122.5zM864 55q178 0 328.5 106.5t239 290t88.5 399.5t-88.5 400.5 t-239 291t-328.5 106.5t-329.5 -106.5t-238.5 -291t-87 -400.5t87 -399.5t238.5 -290t329.5 -106.5z" glyph-name="Ograve" horiz-adv-x="1728" unicode="Ò"/><glyph d="M1024 2107l-254 -254l-65 66l253 254zM864 1765q209 0 386 -122.5t280.5 -332.5t103.5 -458t-103.5 -459t-280.5 -332.5t-386 -121.5t-387 121.5t-281.5 332.5t-103.5 459t103.5 458t281.5 332.5t387 122.5zM864 55q178 0 328.5 106.5t239 290t88.5 399.5t-88.5 400.5 t-239 291t-328.5 106.5t-329.5 -106.5t-238.5 -291t-87 -400.5t87 -399.5t238.5 -290t329.5 -106.5z" glyph-name="Oacute" horiz-adv-x="1728" unicode="Ó"/><glyph d="M864 2062l-178 -178l-65 66l243 243l242 -243l-66 -66zM864 1763q209 0 387.5 -121.5t280.5 -332.5t102 -458t-102 -458t-280.5 -332.5t-387.5 -121.5t-387 121.5t-281.5 332.5t-103.5 458t103.5 458t281.5 332.5t387 121.5zM864 53q178 0 328.5 106.5t239 291 t88.5 400.5t-88.5 399.5t-239 291t-328.5 107.5t-329.5 -107.5t-238.5 -291t-87 -399.5t87 -400.5t238.5 -291t329.5 -106.5z" glyph-name="Ocircumflex" horiz-adv-x="1728" unicode="Ô"/><glyph d="M864 1763q209 0 387.5 -121.5t280.5 -332.5t102 -458t-102 -458t-280.5 -332.5t-387.5 -121.5t-387 121.5t-281.5 332.5t-103.5 458t103.5 458t281.5 332.5t387 121.5zM864 53q178 0 328.5 106.5t239 291t88.5 400.5t-88.5 399.5t-239 291t-328.5 107.5t-329.5 -107.5 t-238.5 -291t-87 -399.5t87 -400.5t238.5 -291t329.5 -106.5zM563 1919l-41 25l-39 24q63 104 182 133t224 -35q72 -45 152.5 -24.5t123.5 90.5l80 -47q-63 -104 -182 -133t-223 35q-72 43 -153 23.5t-124 -91.5z" glyph-name="Otilde" horiz-adv-x="1728" unicode="Õ"/><glyph d="M864 1763q209 0 387.5 -121.5t280.5 -332.5t102 -458t-102 -458t-280.5 -332.5t-387.5 -121.5t-387 121.5t-281.5 332.5t-103.5 458t103.5 458t281.5 332.5t387 121.5zM864 53q178 0 328.5 106.5t239 291t88.5 400.5t-88.5 399.5t-239 291t-328.5 107.5t-329.5 -107.5 t-238.5 -291t-87 -399.5t87 -400.5t238.5 -291t329.5 -106.5zM684 1954h-152v143h152v-143zM1194 1954h-150v143h150v-143z" glyph-name="Odieresis" horiz-adv-x="1728" unicode="Ö"/><glyph d="M1030 862l-389 -389l389 -391l-82 -82l-389 391l-391 -391l-82 82l391 391l-391 389l82 82l391 -389l389 389z" glyph-name="multiply" horiz-adv-x="1118" unicode="×"/><glyph d="M1419 1491q104 -127 162.5 -292t58.5 -349q0 -246 -103 -457t-280.5 -332.5t-386.5 -121.5q-244 0 -444 165l-78 -108h-141l135 190q-115 127 -179.5 299t-64.5 365q0 248 103.5 459t282 332.5t386.5 121.5q260 0 469 -188l93 131h143zM412 283l860 1198 q-178 168 -402 168q-178 0 -329.5 -107.5t-238.5 -291t-87 -400.5q0 -164 51.5 -310t145.5 -257zM870 53q178 0 329 106.5t239 291t88 399.5q0 313 -176 543l-856 -1194q169 -146 376 -146z" glyph-name="Oslash" horiz-adv-x="1740" unicode="Ø"/><glyph d="M989 1927l-65 -65l-254 254l65 65zM1401 1704h115v-1090q0 -182 -92.5 -338.5t-250 -246.5t-344 -90t-345 90t-251 246.5t-92.5 338.5v1090h117v-1090q0 -231 167 -396t403.5 -165t404.5 165t168 396v1090z" glyph-name="Ugrave" horiz-adv-x="1658" unicode="Ù"/><glyph d="M989 2116l-256 -254l-65 65l256 254zM1401 1704h115v-1090q0 -182 -92.5 -338.5t-250 -246.5t-344 -90t-345 90t-251 246.5t-92.5 338.5v1090h117v-1090q0 -231 167 -396t403.5 -165t404.5 165t168 396v1090z" glyph-name="Uacute" horiz-adv-x="1658" unicode="Ú"/><glyph d="M1401 1704h115v-1090q0 -182 -92.5 -338.5t-250 -246.5t-344 -90t-345 90t-251 246.5t-92.5 338.5v1090h117v-1090q0 -231 167 -396t403.5 -165t404.5 165t168 396v1090zM829 2062l-178 -176l-65 66l243 241l242 -241l-65 -66z" glyph-name="Ucircumflex" horiz-adv-x="1658" unicode="Û"/><glyph d="M649 1952h-151v143h151v-143zM1159 1952h-149v143h149v-143zM1401 1704h115v-1090q0 -182 -92.5 -338.5t-250 -246.5t-344 -90t-345 90t-251 246.5t-92.5 338.5v1090h117v-1090q0 -231 167 -396t403.5 -165t404.5 165t168 396v1090z" glyph-name="Udieresis" horiz-adv-x="1658" unicode="Ü"/><glyph d="M956 2118l-254 -254l-65 65l254 254zM1446 1706h153l-745 -875v-831h-115v831l-745 875h151l652 -764z" glyph-name="Yacute" horiz-adv-x="1593" unicode="Ý"/><glyph d="M840 1147q193 -41 320.5 -210t127.5 -388q0 -252 -163.5 -431t-395.5 -179h-266v114h266q184 0 313 145.5t129 350.5t-129 350t-313 145h-12v136l321 409h-639q-55 0 -95 -42t-40 -99v-1452h-117v1452q0 106 74 181t178 75h762v-145z" glyph-name="germandbls" horiz-adv-x="1378" unicode="ß"/><glyph d="M655 1282q209 0 357.5 -148.5t148.5 -355.5v-780h-117v215q-39 -127 -140 -200.5t-265 -73.5q-227 0 -390 132t-163 317t163 317.5t390 132.5q164 0 265.5 -74t139.5 -199v213q0 160 -113.5 273.5t-275.5 113.5q-135 0 -244.5 -57t-142.5 -145l-108 41q45 123 183 200.5 t312 77.5zM623 76q174 0 296.5 91t122.5 221t-122.5 221t-296.5 91t-298 -91t-124 -221t124 -221t298 -91zM797 1430l-66 -66l-254 254l66 65z" glyph-name="agrave" horiz-adv-x="1292" unicode="à"/><glyph d="M655 1282q209 0 357.5 -148.5t148.5 -355.5v-780h-117v215q-39 -127 -140 -200.5t-265 -73.5q-227 0 -390 132t-163 317t163 317.5t390 132.5q164 0 265.5 -74t139.5 -199v213q0 160 -113.5 273.5t-275.5 113.5q-135 0 -244.5 -57t-142.5 -145l-108 41q45 123 183 200.5 t312 77.5zM623 76q174 0 296.5 91t122.5 221t-122.5 221t-296.5 91t-298 -91t-124 -221t124 -221t298 -91zM797 1618l-254 -254l-66 66l254 253z" glyph-name="aacute" horiz-adv-x="1292" unicode="á"/><glyph d="M623 1563l-179 -177l-65 66l244 242l241 -242l-65 -66zM655 1282q209 0 357.5 -148.5t148.5 -355.5v-780h-117v215q-39 -127 -140 -200.5t-265 -73.5q-227 0 -390 132t-163 317t163 317.5t390 132.5q164 0 265.5 -74t139.5 -199v213q0 160 -113.5 273.5t-275.5 113.5 q-135 0 -244.5 -57t-142.5 -145l-108 41q45 123 183 200.5t312 77.5zM623 76q174 0 296.5 91t122.5 221t-122.5 221t-296.5 91t-298 -91t-124 -221t124 -221t298 -91z" glyph-name="acircumflex" horiz-adv-x="1292" unicode="â"/><glyph d="M655 1282q209 0 357.5 -148.5t148.5 -355.5v-780h-117v215q-39 -127 -140 -200.5t-265 -73.5q-227 0 -390 132t-163 317t163 317.5t390 132.5q164 0 265.5 -74t139.5 -199v213q0 160 -113.5 273.5t-275.5 113.5q-135 0 -244.5 -57t-142.5 -145l-108 41q45 123 183 200.5 t312 77.5zM623 76q174 0 296.5 91t122.5 221t-122.5 221t-296.5 91t-298 -91t-124 -221t124 -221t298 -91zM445.5 1477.5q-80.5 -19.5 -123.5 -91.5l-80 50q63 104 182 132.5t223 -34.5q70 -45 152 -24.5t125 89.5l80 -47q-63 -104 -182.5 -132.5t-223.5 34.5 q-72 43 -152.5 23.5z" glyph-name="atilde" horiz-adv-x="1292" unicode="ã"/><glyph d="M442 1421h-151v144h151v-144zM952 1421h-149v144h149v-144zM655 1282q209 0 357.5 -148.5t148.5 -355.5v-780h-117v215q-39 -127 -140 -200.5t-265 -73.5q-227 0 -390 132t-163 317t163 317.5t390 132.5q164 0 265.5 -74t139.5 -199v213q0 160 -113.5 273.5t-275.5 113.5 q-135 0 -244.5 -57t-142.5 -145l-108 41q45 123 183 200.5t312 77.5zM623 76q174 0 296.5 91t122.5 221t-122.5 221t-296.5 91t-298 -91t-124 -221t124 -221t298 -91z" glyph-name="adieresis" horiz-adv-x="1292" unicode="ä"/><glyph d="M655 1282q209 0 357.5 -148.5t148.5 -355.5v-780h-117v215q-39 -127 -140 -200.5t-265 -73.5q-227 0 -390 132t-163 317t163 317.5t390 132.5q164 0 265.5 -74t139.5 -199v213q0 160 -113.5 273.5t-275.5 113.5q-135 0 -244.5 -57t-142.5 -145l-108 41q45 123 183 200.5 t312 77.5zM623 76q174 0 296.5 91t122.5 221t-122.5 221t-296.5 91t-298 -91t-124 -221t124 -221t298 -91zM622.5 1391q-77.5 0 -134 55t-56.5 133t56.5 133t134 55t133 -55t55.5 -133t-55.5 -133t-133 -55zM622 1675q-40 0 -68 -28.5t-28 -67.5t28 -67.5t68 -28.5 t68.5 28.5t28.5 68.5t-28.5 67.5t-68.5 27.5z" glyph-name="aring" horiz-adv-x="1292" unicode="å"/><glyph d="M2142 301l4 -2q-82 -162 -230.5 -257t-320.5 -95q-131 0 -244.5 69.5t-189.5 190.5v-209h-117v215q-39 -127 -140 -200.5t-265 -73.5q-227 0 -390 132t-163 317t163 317.5t390 132.5q164 0 265.5 -74t139.5 -199v213q0 160 -113.5 273.5t-275.5 113.5q-135 0 -244.5 -57 t-142.5 -145l-108 41q45 123 183 200.5t312 77.5q158 0 286 -89t183 -230q76 145 200 232t271 87q150 0 276 -89t199.5 -243.5t73.5 -335.5v-57h-981q16 -209 140 -351.5t292 -142.5q125 0 237 63.5t183 174.5h127zM1594 1165q-167 0 -290.5 -142t-140.5 -351h865 q-18 209 -142.5 351t-291.5 142zM623 76q174 0 296.5 91t122.5 221t-122.5 221t-296.5 91t-298 -91t-124 -221t124 -221t298 -91z" glyph-name="ae" horiz-adv-x="2240" unicode="æ"/><glyph d="M1047 401l108 -36q-53 -168 -168 -278t-260 -136v-113q-59 0 -101 -40t-42 -96t42 -96t101 -40v-115q-106 0 -183 74t-77 176q0 86 53 152.5t135 89.5h-4h-6q-150 0 -276.5 90t-200.5 243.5t-74 336t74 337t201 243.5t276 89q168 0 306.5 -112.5t201.5 -299.5l-111 -39 q-51 154 -159.5 245t-237.5 91q-180 0 -307 -162.5t-127 -392t127 -391.5t307 -162q131 0 241 93t161 249z" glyph-name="ccedilla" horiz-adv-x="1234" unicode="ç"/><glyph d="M834 1415l-66 -65l-254 254l66 65zM1192 293l4 -2q-82 -164 -230.5 -258t-320.5 -94q-150 0 -276.5 89t-200.5 242.5t-74 334.5t74 335t201 243t276.5 89t275.5 -89t199.5 -243t73.5 -334v-57h-981q16 -209 140 -351.5t292 -142.5q125 0 236.5 63.5t181.5 174.5h129z M644 1157q-167 0 -291 -142.5t-140 -350.5h864q-18 209 -142 351t-291 142z" glyph-name="egrave" unicode="è"/><glyph d="M834 1604l-254 -254l-66 65l254 254zM1192 293l4 -2q-82 -164 -230.5 -258t-320.5 -94q-150 0 -276.5 89t-200.5 242.5t-74 334.5t74 335t201 243t276.5 89t275.5 -89t199.5 -243t73.5 -334v-57h-981q16 -209 140 -351.5t292 -142.5q125 0 236.5 63.5t181.5 174.5h129z M644 1157q-167 0 -291 -142.5t-140 -350.5h864q-18 209 -142 351t-291 142z" glyph-name="eacute" unicode="é"/><glyph d="M1192 293l4 -2q-82 -164 -230.5 -258t-320.5 -94q-150 0 -276.5 89t-200.5 242.5t-74 334.5t74 335t201 243t276.5 89t275.5 -89t199.5 -243t73.5 -334v-57h-981q16 -209 140 -351.5t292 -142.5q125 0 236.5 63.5t181.5 174.5h129zM644 1157q-167 0 -291 -142.5 t-140 -350.5h864q-18 209 -142 351t-291 142zM674 1526l-178 -178l-66 65l244 244l244 -244l-66 -65z" glyph-name="ecircumflex" unicode="ê"/><glyph d="M465 1413h-152v143h152v-143zM975 1413h-150v143h150v-143zM1192 293l4 -2q-82 -164 -230.5 -258t-320.5 -94q-150 0 -276.5 89t-200.5 242.5t-74 334.5t74 335t201 243t276.5 89t275.5 -89t199.5 -243t73.5 -334v-57h-981q16 -209 140 -351.5t292 -142.5 q125 0 236.5 63.5t181.5 174.5h129zM644 1157q-167 0 -291 -142.5t-140 -350.5h864q-18 209 -142 351t-291 142z" glyph-name="edieresis" unicode="ë"/><glyph d="M365 1421l-66 -65l-254 254l66 65zM262 0h-115v1219h115v-1219z" glyph-name="igrave" horiz-adv-x="411" unicode="ì"/><glyph d="M365 1610l-254 -256l-66 65l254 256zM262 0h-115v1219h115v-1219z" glyph-name="iacute" horiz-adv-x="411" unicode="í"/><glyph d="M207 1663l242 -244l-66 -65l-176 178l-178 -178l-66 65zM264 0h-117v1219h117v-1219z" glyph-name="icircumflex" horiz-adv-x="413" unicode="î"/><glyph d="M27 1419h-152v144h152v-144zM537 1419h-150v144h150v-144zM264 0h-117v1219h117v-1219z" glyph-name="idieresis" horiz-adv-x="413" unicode="ï"/><glyph d="M1284 616v-616h-115v616q-2 221 -135 378t-319 157q-184 0 -316.5 -154.5t-134.5 -373.5v-623h-117v1221h117v-289q49 164 157.5 258t270.5 94q160 0 296 -89t216 -243t80 -336zM568 1474.5q-81 -20.5 -124 -90.5l-79 48q63 104 182 132.5t223 -34.5q70 -43 152 -23.5 t125 90.5l79 -49q-63 -104 -182 -133t-223 35q-72 45 -153 24.5z" glyph-name="ntilde" horiz-adv-x="1406" unicode="ñ"/><glyph d="M803 1421l-66 -65l-254 254l66 65zM645.5 1278q149.5 0 275.5 -90t199.5 -245t73.5 -336t-73.5 -334.5t-199.5 -243.5t-275.5 -90t-276.5 90t-201 243.5t-74 334.5t74 336t201 245t276.5 90zM644 55q179 0 307 162t128 391.5t-128 391t-307 161.5t-306 -161.5t-127 -391 t127 -391.5t306 -162z" glyph-name="ograve" unicode="ò"/><glyph d="M805 1610l-254 -256l-66 65l254 256zM645.5 1278q149.5 0 275.5 -90t199.5 -245t73.5 -336t-73.5 -334.5t-199.5 -243.5t-275.5 -90t-276.5 90t-201 243.5t-74 334.5t74 336t201 245t276.5 90zM644 55q179 0 307 162t128 391.5t-128 391t-307 161.5t-306 -161.5 t-127 -391t127 -391.5t306 -162z" glyph-name="oacute" unicode="ó"/><glyph d="M645 1534l-178 -178l-66 65l244 244l242 -244l-66 -65zM645.5 1276q149.5 0 275.5 -89t199.5 -244t73.5 -336t-73.5 -335.5t-199.5 -243.5t-275.5 -89t-276.5 89t-201 243.5t-74 335.5t74 336t201 244t276.5 89zM644 53q179 0 307 163t128 391.5t-128 391t-307 162.5 t-306 -162.5t-127 -391t127 -391.5t306 -163z" glyph-name="ocircumflex" unicode="ô"/><glyph d="M645.5 1276q149.5 0 275.5 -89t199.5 -244t73.5 -336t-73.5 -335.5t-199.5 -243.5t-275.5 -89t-276.5 89t-201 243.5t-74 335.5t74 336t201 244t276.5 89zM644 53q179 0 307 163t128 391.5t-128 391t-307 162.5t-306 -162.5t-127 -391t127 -391.5t306 -163zM621 1454 q-72 45 -153 24.5t-124 -89.5l-80 47q63 104 182 132.5t224 -34.5q70 -43 151.5 -23.5t124.5 91.5l80 -50q-63 -104 -182 -132.5t-223 34.5z" glyph-name="otilde" unicode="õ"/><glyph d="M645.5 1276q149.5 0 275.5 -89t199.5 -244t73.5 -336t-73.5 -335.5t-199.5 -243.5t-275.5 -89t-276.5 89t-201 243.5t-74 335.5t74 336t201 244t276.5 89zM644 53q179 0 307 163t128 391.5t-128 391t-307 162.5t-306 -162.5t-127 -391t127 -391.5t306 -163zM465 1421 h-152v144h152v-144zM975 1421h-150v144h150v-144z" glyph-name="odieresis" unicode="ö"/><glyph d="M1051 1065q150 -193 149 -459q0 -180 -73.5 -334.5t-199.5 -243.5t-276 -89q-176 0 -319 122l-45 -63h-144l107 149q-150 195 -150 459q0 182 74 337t201 244t276 89q176 0 320 -125l47 68h141zM322 248l581 809q-115 104 -252 104q-180 0 -307 -162.5t-127 -392.5 q1 -202 105 -358zM651 53q178 0 306 163t128 390q0 205 -104 361l-582 -811q113 -103 252 -103z" glyph-name="oslash" horiz-adv-x="1302" unicode="ø"/><glyph d="M817 1427l-65 -65l-254 254l65 65zM1141 1223h114v-1221h-114v289q-51 -166 -159 -259t-271 -93q-160 0 -296 89t-215 242.5t-81 335.5v617h117v-617q0 -223 133 -379.5t319 -156.5q184 0 316.5 154.5t136.5 373.5v625z" glyph-name="ugrave" horiz-adv-x="1404" unicode="ù"/><glyph d="M819 1616l-256 -254l-65 65l256 254zM1141 1223h114v-1221h-114v289q-51 -166 -159 -259t-271 -93q-160 0 -296 89t-215 242.5t-81 335.5v617h117v-617q0 -223 133 -379.5t319 -156.5q184 0 316.5 154.5t136.5 373.5v625z" glyph-name="uacute" horiz-adv-x="1404" unicode="ú"/><glyph d="M1139 1106h114v-1221h-114v289q-51 -166 -159 -259t-271 -93q-160 0 -296.5 89t-215 242.5t-80.5 335.5v617h116v-617q0 -223 133.5 -379.5t319.5 -156.5q184 0 316.5 154.5t136.5 373.5v625zM657 1421l-178 -178l-65 66l243 243l242 -243l-65 -66z" glyph-name="ucircumflex" horiz-adv-x="1388" unicode="û"/><glyph d="M479 1425h-151v144h151v-144zM989 1425h-149v144h149v-144zM1141 1223h114v-1221h-114v289q-51 -166 -159 -259t-271 -93q-160 0 -296 89t-215 242.5t-81 335.5v617h117v-617q0 -223 133 -379.5t319 -156.5q184 0 316.5 154.5t136.5 373.5v625z" glyph-name="udieresis" horiz-adv-x="1404" unicode="ü"/><glyph d="M725 1608l-254 -254l-65 63l253 256zM954 1214h123l-497 -1548q-31 -98 -113 -157.5t-184 -59.5h-240v115h240q63 0 114.5 38t71.5 99l94 295h-119l-401 1218h123l399 -1214z" glyph-name="yacute" horiz-adv-x="1120" unicode="ý"/><glyph d="M385 1417h-149v144h149v-144zM897 1417h-152v144h152v-144zM954 1214h123l-497 -1548q-31 -98 -113 -157.5t-184 -59.5h-240v115h240q63 0 114.5 38t71.5 99l94 295h-119l-401 1218h123l399 -1214z" glyph-name="ydieresis" horiz-adv-x="1120" unicode="ÿ"/><glyph d="M831 1708l562 -1708h-121l-193 586h-737l-192 -586h-123l561 1708h123l-332 -1006h661l-329 1006h120zM993 1980h-567v93h567v-93z" glyph-name="Amacron" horiz-adv-x="1421" unicode="Ā"/><glyph d="M655 1282q209 0 357.5 -148.5t148.5 -355.5v-780h-117v215q-39 -127 -140 -200.5t-265 -73.5q-227 0 -390 132t-163 317t163 317.5t390 132.5q164 0 265.5 -74t139.5 -201v215q0 160 -113.5 273.5t-275.5 113.5q-135 0 -244.5 -57t-142.5 -145l-108 41q45 123 183 200.5 t312 77.5zM623 76q174 0 296.5 91t122.5 221t-122.5 221t-296.5 91t-298 -91t-124 -221t124 -221t298 -91zM905 1446h-567v94h567v-94z" glyph-name="amacron" horiz-adv-x="1292" unicode="ā"/><glyph d="M831 1708l562 -1708h-121l-193 586h-737l-192 -586h-123l561 1708h123l-332 -1006h661l-329 1006h120zM709.5 1880q-103.5 0 -176 72.5t-72.5 175.5h92q0 -63 46 -109.5t110.5 -46.5t110.5 46t46 110h92q0 -102 -72.5 -175t-176 -73z" glyph-name="Abreve" horiz-adv-x="1421" unicode="Ă"/><glyph d="M655 1282q209 0 357.5 -148.5t148.5 -355.5v-780h-117v215q-39 -127 -140 -200.5t-265 -73.5q-227 0 -390 132t-163 317t163 317.5t390 132.5q164 0 265.5 -74t139.5 -199v213q0 160 -113.5 273.5t-275.5 113.5q-135 0 -244.5 -57t-142.5 -145l-108 41q45 123 183 200.5 t312 77.5zM623 76q174 0 296.5 91t122.5 221t-122.5 221t-296.5 91t-298 -91t-124 -221t124 -221t298 -91zM621.5 1446q-103.5 0 -176 73.5t-72.5 176.5h92q0 -63 46 -109.5t110.5 -46.5t110.5 46t46 110h92q0 -102 -72.5 -176t-176 -74z" glyph-name="abreve" horiz-adv-x="1292" unicode="ă"/><glyph d="M831 1704l562 -1708v-117q-70 0 -118 -46t-48 -110.5t48 -110.5t118 -46v-115q-117 0 -200 80t-83 193q0 82 47 148.5t123 98.5l-8 25l-193 586h-737l-192 -586h-123l561 1708h123l-332 -1006h661l-329 1006h120z" glyph-name="Aogonek" horiz-adv-x="1421" unicode="Ą"/><glyph d="M655 1286q209 0 357.5 -148.5t148.5 -355.5v-839v-58q-70 0 -119 -46t-49 -110.5t49.5 -110.5t118.5 -46v-117q-119 0 -201.5 81t-82.5 194q0 80 46 147.5t121 99.5v240q-39 -127 -140 -200.5t-265 -73.5q-227 0 -390 132t-163 317.5t163 317.5t390 132q164 0 265.5 -74 t139.5 -199v213q0 160 -113.5 273.5t-275.5 113.5q-135 0 -244.5 -57t-142.5 -145l-108 41q45 123 183 200.5t312 77.5zM623 80q174 0 296.5 91t122.5 221t-122.5 221.5t-296.5 91.5t-298 -91.5t-124 -221.5t124 -221t298 -91z" glyph-name="aogonek" horiz-adv-x="1292" unicode="ą"/><glyph d="M852 53q182 0 335.5 117t237.5 319l107 -45q-96 -233 -279.5 -369t-400.5 -136q-207 0 -382 122.5t-276.5 333.5t-101.5 459t101.5 459t276.5 333.5t382 122.5q246 0 444.5 -172t276.5 -454l-111 -31q-68 244 -235.5 393.5t-374.5 149.5q-174 0 -322.5 -107.5 t-234.5 -292t-86 -401.5t86 -401.5t234.5 -292t322.5 -107.5zM993 2122l-254 -254l-65 65l254 254z" glyph-name="Cacute" horiz-adv-x="1640" unicode="Ć"/><glyph d="M1047 397l108 -37q-61 -193 -200.5 -307t-309.5 -114q-150 0 -276.5 90t-200.5 243.5t-74 336t74 336t201 243.5t276 90q168 0 306.5 -112.5t201.5 -301.5l-111 -37q-51 152 -159.5 243t-237.5 91q-180 0 -307 -161.5t-127 -391t127 -392.5t307 -163q131 0 241 93 t161 251zM786 1608l-254 -254l-65 65l254 254z" glyph-name="cacute" horiz-adv-x="1234" unicode="ć"/><glyph d="M852 53q182 0 335.5 117t237.5 319l107 -45q-96 -233 -279.5 -369t-400.5 -136q-207 0 -382 122.5t-276.5 333.5t-101.5 459t101.5 459t276.5 333.5t382 122.5q246 0 444.5 -172t276.5 -454l-111 -31q-68 244 -235.5 393.5t-374.5 149.5q-174 0 -322.5 -107.5 t-234.5 -292t-86 -401.5t86 -401.5t234.5 -292t322.5 -107.5zM834 2066l-179 -176l-65 66l244 242l243 -244l-65 -64z" glyph-name="Ccircumflex" horiz-adv-x="1640" unicode="Ĉ"/><glyph d="M1047 397l108 -37q-61 -193 -200.5 -307t-309.5 -114q-150 0 -276.5 90t-200.5 243.5t-74 336t74 336t201 243.5t276 90q168 0 306.5 -112.5t201.5 -301.5l-111 -37q-51 152 -159.5 243t-237.5 91q-180 0 -307 -161.5t-127 -391t127 -392.5t307 -163q131 0 241 93 t161 251zM627 1530l-178 -176l-66 65l244 242l243 -242l-65 -65z" glyph-name="ccircumflex" horiz-adv-x="1234" unicode="ĉ"/><glyph d="M852 53q182 0 335.5 117t237.5 319l107 -45q-96 -233 -279.5 -369t-400.5 -136q-207 0 -382 122.5t-276.5 333.5t-101.5 459t101.5 459t276.5 333.5t382 122.5q246 0 444.5 -172t276.5 -454l-111 -31q-68 244 -235.5 393.5t-374.5 149.5q-174 0 -322.5 -107.5 t-234.5 -292t-86 -401.5t86 -401.5t234.5 -292t322.5 -107.5zM833.5 1937q-36.5 0 -62.5 27t-26 63.5t26 62.5t62.5 26t63.5 -26t27 -62.5t-27 -63.5t-63.5 -27z" glyph-name="Cdotaccent" horiz-adv-x="1640" unicode="Ċ"/><glyph d="M1047 397l108 -37q-61 -193 -200.5 -307t-309.5 -114q-150 0 -276.5 90t-200.5 243.5t-74 336t74 336t201 243.5t276 90q168 0 306.5 -112.5t201.5 -301.5l-111 -37q-51 152 -159.5 243t-237.5 91q-180 0 -307 -161.5t-127 -391t127 -392.5t307 -163q131 0 241 93 t161 251zM627 1401q-37 0 -63.5 26.5t-26.5 63.5t26.5 63.5t63.5 26.5t63.5 -26.5t26.5 -63.5t-26.5 -63.5t-63.5 -26.5z" glyph-name="cdotaccent" horiz-adv-x="1234" unicode="ċ"/><glyph d="M852 53q182 0 335.5 117t237.5 319l107 -45q-96 -233 -279.5 -369t-400.5 -136q-207 0 -382 122.5t-276.5 333.5t-101.5 459t101.5 459t276.5 333.5t382 122.5q246 0 444.5 -172t276.5 -454l-111 -31q-68 244 -235.5 393.5t-374.5 149.5q-174 0 -322.5 -107.5 t-234.5 -292t-86 -401.5t86 -401.5t234.5 -292t322.5 -107.5zM1077 2099l-243 -241l-244 241l65 66l179 -178l178 178z" glyph-name="Ccaron" horiz-adv-x="1640" unicode="Č"/><glyph d="M1047 397l108 -37q-61 -193 -200.5 -307t-309.5 -114q-150 0 -276.5 90t-200.5 243.5t-74 336t74 336t201 243.5t276 90q168 0 306.5 -112.5t201.5 -301.5l-111 -37q-51 152 -159.5 243t-237.5 91q-180 0 -307 -161.5t-127 -391t127 -392.5t307 -163q131 0 241 93 t161 251zM870 1563l-243 -242l-244 242l66 65l178 -176l178 176z" glyph-name="ccaron" horiz-adv-x="1234" unicode="č"/><glyph d="M958 2097l-243 -242l-242 242l66 66l176 -178l178 178zM831 1706q231 0 428 -114.5t310.5 -311.5t113.5 -428t-113.5 -428t-310 -310.5t-428.5 -113.5h-667v1706h667zM831 115q201 0 370 99t268.5 268t99.5 370t-99.5 371t-268.5 268t-370 98h-550v-1474h550z" glyph-name="Dcaron" horiz-adv-x="1767" unicode="Ď"/><glyph d="M1688 1610l-256 -254l-66 65l256 254zM1231 256q0 -59 40 -100t95 -41v-115q-104 0 -178 75t-74 181v31q-51 -162 -159.5 -255t-270.5 -93q-160 0 -297 90t-216 244.5t-79 337t79 337t216 244.5t297 90q162 0 270.5 -92t159.5 -254v770h117v-1450zM660.5 72 q187.5 0 320.5 157.5t133 381t-133 381t-320.5 157.5t-320.5 -157.5t-133 -381t133 -381t320.5 -157.5z" glyph-name="dcaron" horiz-adv-x="1433" unicode="ď"/><glyph d="M969 1706q231 0 427.5 -114.5t310.5 -311.5t114 -428t-114 -428t-310.5 -310.5t-427.5 -113.5h-668v1096h-264v114h264v496h668zM969 115q199 0 368.5 99t269 268t99.5 370t-99.5 371t-269.5 268t-368 98h-553v-379h264v-114h-264v-981h553z" glyph-name="Dcroat" horiz-adv-x="1904" unicode="Đ"/><glyph d="M1493 1374h-262v-1118q0 -59 40 -100t95 -41v-115q-104 0 -178 75t-74 181v31q-51 -162 -159.5 -255t-270.5 -93q-160 0 -297 90t-216 244.5t-79 337t79 337t216 244.5t297 90q162 0 270.5 -92t159.5 -254v438h-264v117h264v215h117v-215h262v-117zM660.5 72 q187.5 0 320.5 157.5t133 381t-133 381t-320.5 157.5t-320.5 -157.5t-133 -381t133 -381t320.5 -157.5z" glyph-name="dcroat" horiz-adv-x="1433" unicode="đ"/><glyph d="M1386 1589h-1105v-678h893v-116h-893v-680h1105v-115h-1222v1706h1222v-117zM1087 1982h-567v93h567v-93z" glyph-name="Emacron" horiz-adv-x="1435" unicode="Ē"/><glyph d="M1192 293l4 -2q-82 -164 -230.5 -258t-320.5 -94q-150 0 -276.5 89t-200.5 242.5t-74 334.5t74 335t201 243t276.5 89t275.5 -89t199.5 -243t73.5 -334v-59h-981q16 -207 140 -349.5t292 -142.5q125 0 236.5 62.5t181.5 175.5h129zM644 1157q-167 0 -291 -142.5 t-140 -350.5h864q-18 209 -142 351t-291 142zM958 1446h-567v94h567v-94z" glyph-name="emacron" unicode="ē"/><glyph d="M1386 1589h-1105v-678h893v-116h-893v-680h1105v-115h-1222v1706h1222v-117zM804.5 1882q-102.5 0 -176 73t-73.5 175h92q0 -63 46 -109.5t110.5 -46.5t111 46t46.5 110h94q0 -102 -74 -175t-176.5 -73z" glyph-name="Ebreve" horiz-adv-x="1435" unicode="Ĕ"/><glyph d="M1192 293l4 -2q-82 -164 -230.5 -258t-320.5 -94q-150 0 -276.5 89t-200.5 242.5t-74 334.5t74 335t201 243t276.5 89t275.5 -89t199.5 -243t73.5 -334v-59h-981q16 -207 140 -349.5t292 -142.5q125 0 236.5 62.5t181.5 175.5h129zM644 1157q-167 0 -291 -142.5 t-140 -350.5h864q-18 209 -142 351t-291 142zM673.5 1446q-102.5 0 -176 73.5t-73.5 176.5h94q0 -66 46 -111t110.5 -45t110.5 45t46 111h93q0 -102 -74 -176t-176.5 -74z" glyph-name="ebreve" unicode="ĕ"/><glyph d="M1386 1589h-1105v-678h893v-116h-893v-680h1105v-115h-1222v1706h1222v-117zM805 1939q-37 0 -63.5 27t-26.5 63.5t26.5 62.5t63.5 26t62.5 -26t25.5 -62.5t-25.5 -63.5t-62.5 -27z" glyph-name="Edotaccent" horiz-adv-x="1435" unicode="Ė"/><glyph d="M1192 293l4 -2q-82 -164 -230.5 -258t-320.5 -94q-150 0 -276.5 89t-200.5 242.5t-74 334.5t74 335t201 243t276.5 89t275.5 -89t199.5 -243t73.5 -334v-59h-981q16 -207 140 -349.5t292 -142.5q125 0 236.5 62.5t181.5 175.5h129zM644 1157q-167 0 -291 -142.5 t-140 -350.5h864q-18 209 -142 351t-291 142zM628 1397q-38 0 -63.5 26.5t-25.5 63.5t25.5 62.5t63.5 25.5t63.5 -25.5t25.5 -62.5t-25.5 -63.5t-63.5 -26.5z" glyph-name="edotaccent" unicode="ė"/><glyph d="M1386 1587h-1105v-678h893v-116h-893v-680h1105v-230q-68 0 -116.5 -46t-48.5 -110.5t49 -110.5t116 -46v-117q-117 0 -199.5 80t-82.5 193q0 106 74.5 184t183.5 88h-1198v1706h1222v-117z" glyph-name="Eogonek" horiz-adv-x="1435" unicode="Ę"/><glyph d="M1192 305l4 -2q-68 -135 -183.5 -224t-254.5 -118v-67q-70 0 -119 -46.5t-49 -111t49 -110.5t119 -46v-117q-119 0 -201 80t-82 193q0 137 113 219q-209 27 -351.5 216t-142.5 447q0 180 74 334t201 243t276.5 89t275.5 -89t199.5 -242.5t73.5 -334.5v-59h-981 q16 -207 140 -349t292 -142q125 0 236.5 62.5t181.5 174.5h129zM644 1169q-167 0 -291 -142t-140 -351h864q-18 209 -142 351t-291 142z" glyph-name="eogonek" unicode="ę"/><glyph d="M1386 1589h-1105v-678h893v-116h-893v-680h1105v-115h-1222v1706h1222v-117zM1049 2101l-244 -243l-244 243l66 66l178 -178l178 178z" glyph-name="Ecaron" horiz-adv-x="1435" unicode="Ě"/><glyph d="M918 1565l-244 -242l-242 242l66 65l176 -176l178 176zM1192 293l4 -2q-82 -164 -230.5 -258t-320.5 -94q-150 0 -276.5 89t-200.5 242.5t-74 334.5t74 335t201 243t276.5 89t275.5 -89t199.5 -243t73.5 -334v-59h-981q16 -207 140 -349.5t292 -142.5q125 0 236.5 62.5 t181.5 175.5h129zM644 1157q-167 0 -291 -142.5t-140 -350.5h864q-18 209 -142 351t-291 142z" glyph-name="ecaron" unicode="ě"/><glyph d="M825 2064l-176 -178l-65 66l241 243l244 -243l-65 -66zM1210 733h412v-735h-117v496q-86 -238 -253 -378.5t-392 -140.5q-209 0 -387 118t-281.5 320.5t-103.5 441.5t103.5 441.5t281.5 321.5t387 119q229 0 419.5 -143.5t283.5 -376.5h-125q-86 184 -240 293.5 t-338 109.5q-178 0 -329.5 -102.5t-238.5 -278.5t-87 -384t87 -384t238.5 -278.5t329.5 -102.5q205 0 386 152.5t255 373.5h-291v117z" glyph-name="Gcircumflex" horiz-adv-x="1728" unicode="Ĝ"/><glyph d="M631 1536l-176 -176l-66 65l242 242l243 -242l-65 -65zM1114 1221h115v-1229q0 -221 -158 -379t-379 -158q-156 0 -296 59.5t-240 168.5l84 77q84 -90 202.5 -139t249.5 -49q174 0 298 123t124 297v295q-53 -160 -161.5 -252t-268.5 -92t-297 90t-216 244.5t-79 337 t79 337t216 244.5t297 90t268.5 -91t161.5 -253v279zM1114 602v25q-4 219 -136 372.5t-316 153.5q-188 0 -321.5 -157.5t-133.5 -381t133 -381t322 -157.5q184 0 316 153.5t136 372.5z" glyph-name="gcircumflex" horiz-adv-x="1378" unicode="ĝ"/><glyph d="M826.5 1878q-103.5 0 -176 72.5t-72.5 175.5h92q0 -63 46 -109.5t110.5 -46.5t110.5 46t46 110h92q0 -102 -72.5 -175t-176 -73zM1210 733h412v-735h-117v496q-86 -238 -253 -378.5t-392 -140.5q-209 0 -387 118t-281.5 320.5t-103.5 441.5t103.5 441.5t281.5 321.5 t387 119q229 0 419.5 -143.5t283.5 -376.5h-125q-86 184 -240 293.5t-338 109.5q-178 0 -329.5 -102.5t-238.5 -278.5t-87 -384t87 -384t238.5 -278.5t329.5 -102.5q205 0 386 152.5t255 373.5h-291v117z" glyph-name="Gbreve" horiz-adv-x="1728" unicode="Ğ"/><glyph d="M631.5 1450q-103.5 0 -176 73.5t-72.5 176.5h92q0 -66 46 -111t110.5 -45t110.5 45t46 111h93q0 -102 -73 -176t-176.5 -74zM1114 1221h115v-1229q0 -221 -158 -379t-379 -158q-156 0 -296 59.5t-240 168.5l84 77q84 -90 202.5 -139t249.5 -49q174 0 298 123t124 297v295 q-53 -160 -161.5 -252t-268.5 -92t-297 90t-216 244.5t-79 337t79 337t216 244.5t297 90t268.5 -91t161.5 -253v279zM1114 604v23q-4 219 -136 372.5t-316 153.5q-188 0 -321.5 -157.5t-133.5 -381t133 -381t322 -157.5q184 0 316 154.5t136 373.5z" glyph-name="gbreve" horiz-adv-x="1378" unicode="ğ"/><glyph d="M825 1935q-37 0 -62.5 27t-25.5 63.5t25.5 62.5t62.5 26t63.5 -26t26.5 -62.5t-26.5 -63.5t-63.5 -27zM1210 733h412v-735h-117v496q-86 -238 -253 -378.5t-392 -140.5q-209 0 -387 118t-281.5 320.5t-103.5 441.5t103.5 441.5t281.5 321.5t387 119q229 0 419.5 -143.5 t283.5 -376.5h-125q-86 184 -240 293.5t-338 109.5q-178 0 -329.5 -102.5t-238.5 -278.5t-87 -384t87 -384t238.5 -278.5t329.5 -102.5q205 0 386 152.5t255 373.5h-291v117z" glyph-name="Gdotaccent" horiz-adv-x="1728" unicode="Ġ"/><glyph d="M631 1401q-37 0 -62.5 26.5t-25.5 63.5t25.5 62.5t62.5 25.5t63.5 -25.5t26.5 -62.5t-26.5 -63.5t-63.5 -26.5zM1114 1221h115v-1229q0 -221 -158 -379t-379 -158q-156 0 -296 59.5t-240 168.5l84 77q84 -90 202.5 -139t249.5 -49q174 0 298 123t124 297v295 q-53 -160 -161.5 -252t-268.5 -92t-297 90t-216 244.5t-79 337t79 337t216 244.5t297 90t268.5 -91t161.5 -253v279zM1114 604v23q-4 219 -136 372.5t-316 153.5q-188 0 -321.5 -157.5t-133.5 -381t133 -381t322 -157.5q184 0 316 153.5t136 374.5z" glyph-name="gdotaccent" horiz-adv-x="1378" unicode="ġ"/><glyph d="M1210 735h412v-735h-117v496q-86 -238 -252 -378.5t-393 -140.5q-209 0 -387 118t-281.5 320.5t-103.5 441.5t103.5 441.5t281.5 321.5t387 119q229 0 419.5 -143.5t283.5 -376.5h-125q-86 184 -240 293.5t-338 109.5q-178 0 -329.5 -102.5t-238.5 -278.5t-87 -384 t87 -384t238.5 -278.5t329.5 -102.5q205 0 386 152.5t255 373.5h-291v117zM985 -231l-254 -254l-65 65l254 254z" glyph-name="Gcommaaccent" horiz-adv-x="1728" unicode="Ģ"/><glyph d="M1114 1221h115v-1229q0 -221 -158 -379t-379 -158q-156 0 -296 59.5t-240 168.5l84 77q84 -90 202.5 -139t249.5 -49q174 0 298 123t124 297v295q-53 -160 -161.5 -252t-268.5 -92t-297 90t-216 244.5t-79 337t79 337t216 244.5t297 90t268.5 -91t161.5 -253v279z M1114 602v25q-4 219 -136 372.5t-316 153.5q-188 0 -321.5 -157.5t-133.5 -381t133 -381t322 -157.5q184 0 316 153.5t136 372.5zM791 1610l-254 -254l-66 65l254 254z" glyph-name="gcommaaccent" horiz-adv-x="1378" unicode="ģ"/><glyph d="M1329 1708h117v-1708h-117v795h-1048v-795h-117v1708h117v-797h1048v797zM805 2066l-178 -176l-66 66l244 242l244 -242l-66 -66z" glyph-name="Hcircumflex" horiz-adv-x="1609" unicode="Ĥ"/><glyph d="M1284 616h2v-616h-117v616q-2 221 -134 378t-318 157q-184 0 -316.5 -154.5t-136.5 -373.5v-623h-117v1710h117v-780q51 166 158.5 260t269.5 94q160 0 296 -90t216 -244t80 -334zM383 1894l-176 177l-178 -177l-66 66l244 242l242 -242z" glyph-name="hcircumflex" horiz-adv-x="1406" unicode="ĥ"/><glyph d="M1559 1497h233v-117h-233v-1380h-115v795h-1051v-795h-114v1380h-234v117h234v211h114v-211h1051v211h115v-211zM393 911h1051v469h-1051v-469z" glyph-name="Hbar" horiz-adv-x="1837" unicode="Ħ"/><glyph d="M1284 616v-616h-117v616q0 221 -133 378t-319 157q-184 0 -316.5 -154.5t-136.5 -373.5v-623h-115v1384h-264v117h264v209h115v-209h264v-117h-264v-454q51 166 158.5 260t271.5 94q160 0 296 -90t215 -244t81 -334z" glyph-name="hbar" horiz-adv-x="1404" unicode="ħ"/><glyph d="M279 0h-115v1706h115v-1706zM522 2134l80 -47q-63 -104 -182 -133t-223 35q-70 43 -152 23.5t-125 -91.5l-80 47q63 106 182 135t224 -35q72 -45 152.5 -24.5t123.5 90.5z" glyph-name="Itilde" horiz-adv-x="442" unicode="Ĩ"/><glyph d="M262 0h-115v1219h115v-1219zM506 1608l80 -49q-63 -104 -182 -133t-224 34q-70 45 -151.5 24.5t-124.5 -89.5l-80 47q63 104 182 133t223 -35q72 -43 153 -23.5t124 91.5z" glyph-name="itilde" horiz-adv-x="409" unicode="ĩ"/><glyph d="M506 1982h-567v93h567v-93zM281 0h-117v1706h117v-1706z" glyph-name="Imacron" horiz-adv-x="444" unicode="Ī"/><glyph d="M489 1454h-567v92h567v-92zM264 0h-117v1219h117v-1219z" glyph-name="imacron" horiz-adv-x="411" unicode="ī"/><glyph d="M379 2130h92q0 -104 -72.5 -177t-176 -73t-176.5 72.5t-73 177.5h93q0 -66 46 -112t110.5 -46t110.5 46t46 112zM281 0h-117v1706h117v-1706z" glyph-name="Ibreve" horiz-adv-x="446" unicode="Ĭ"/><glyph d="M362 1702h93q0 -102 -73 -175t-176.5 -73t-176 72.5t-72.5 175.5h92q0 -63 46 -109.5t110.5 -46.5t110.5 46.5t46 109.5zM264 0h-117v1219h117v-1219z" glyph-name="ibreve" horiz-adv-x="413" unicode="ĭ"/><glyph d="M164 1716h115v-1794v-28q-70 0 -118 -46.5t-48 -111t48 -110.5t118 -46v-117q-117 0 -200 81t-83 194q0 80 46 147.5t122 100.5v1730z" glyph-name="Iogonek" horiz-adv-x="444" unicode="Į"/><glyph d="M264 1225v-1215v-116q-70 0 -118 -46.5t-48 -111t48.5 -110.5t117.5 -46v-117q-117 0 -199.5 81t-82.5 194q0 80 46 147.5t119 100.5v1239h117zM281 1434h-152v143h152v-143z" glyph-name="iogonek" horiz-adv-x="411" unicode="į"/><glyph d="M279 0h-115v1708h115v-1708zM297 1952h-152v143h152v-143z" glyph-name="Idotaccent" horiz-adv-x="442" unicode="İ"/><glyph d="M262 0h-117v1221h117v-1221z" glyph-name="dotlessi" horiz-adv-x="407" unicode="ı"/><glyph d="M281 -2h-117v1708h117v-1708zM1192 1704h117v-1333q0 -178 -125 -305t-300 -127t-299 125.5t-124 306.5h114q0 -131 91.5 -223.5t218.5 -92.5t217 92.5t90 223.5v1333z" glyph-name="IJ" horiz-adv-x="1464" unicode="Ĳ"/><glyph d="M262 -2h-115v1221h115v-1221zM281 1417h-152v144h152v-144zM659 -195v1416h117v-1416q0 -145 -101.5 -247.5t-244.5 -102.5h-149v115h149q94 0 161.5 69.5t67.5 165.5zM793 1423h-152v144h152v-144z" glyph-name="ij" horiz-adv-x="923" unicode="ĳ"/><glyph d="M817 2198l242 -242l-66 -66l-176 176l-178 -176l-66 66zM758 369v1335h116v-1335q0 -178 -123.5 -304t-300 -126t-300 125.5t-123.5 304.5h116q0 -131 90.5 -223.5t217.5 -92.5t217 92.5t90 223.5z" glyph-name="Jcircumflex" horiz-adv-x="1030" unicode="Ĵ"/><glyph d="M207 1702l242 -244l-66 -65l-176 178l-178 -178l-66 65zM147 -164v1413h117v-1413q0 -145 -101.5 -248.5t-244.5 -103.5h-149v117h149q96 0 162.5 68.5t66.5 166.5z" glyph-name="jcircumflex" horiz-adv-x="413" unicode="ĵ"/><glyph d="M758 1055l829 -1057h-147l-772 985l-387 -305v-680h-117v1708h117v-881l1116 879h186zM1065 -233l-256 -254l-66 65l256 254z" glyph-name="Kcommaaccent" horiz-adv-x="1609" unicode="Ķ"/><glyph d="M643 819l619 -821h-146l-565 750l-287 -228v-524h-117v1708h117v-1036l699 549h188zM893 -233l-254 -254l-66 65l254 254z" glyph-name="kcommaaccent" horiz-adv-x="1292" unicode="ķ"/><glyph d="M1151 1221l-508 -400l619 -819h-146l-565 748l-287 -226v-524h-117v1221h117v-549l699 549h188z" glyph-name="kgreenlandic" horiz-adv-x="1288" unicode="ĸ"/><glyph d="M381 2124l-254 -254l-66 65l254 254zM279 117h806v-117h-921v1710h115v-1593z" glyph-name="Lacute" horiz-adv-x="1095" unicode="Ĺ"/><glyph d="M358 2124l-254 -254l-65 65l254 254zM256 252q0 -55 40 -95t97 -40v-117q-104 0 -178 73.5t-74 178.5v1456h115v-1456z" glyph-name="lacute" horiz-adv-x="458" unicode="ĺ"/><glyph d="M813 -233l-254 -254l-65 65l254 254zM281 117h804v-117h-921v1710h117v-1593z" glyph-name="Lcommaaccent" horiz-adv-x="1095" unicode="Ļ"/><glyph d="M358 -233l-254 -254l-65 65l254 254zM256 252q0 -55 41 -95t96 -40v-117q-104 0 -178 73.5t-74 178.5v1456h115v-1456z" glyph-name="lcommaaccent" horiz-adv-x="460" unicode="ļ"/><glyph d="M281 117h804v-117h-921v1710h117v-1593zM725 1649l-254 -254l-65 65l253 254z" glyph-name="Lcaron" horiz-adv-x="1095" unicode="Ľ"/><glyph d="M258 252q0 -55 40 -95t95 -40v-117q-104 0 -178 73.5t-74 178.5v1456h117v-1456zM711 1649l-254 -254l-66 65l254 254z" glyph-name="lcaron" horiz-adv-x="460" unicode="ľ"/><glyph d="M281 117h804v-117h-921v1710h117v-1593zM543 793q-37 0 -63.5 26.5t-26.5 63.5t26.5 63.5t63.5 26.5t62.5 -26.5t25.5 -63.5t-25.5 -63.5t-62.5 -26.5z" glyph-name="Ldot" horiz-adv-x="1095" unicode="Ŀ"/><glyph d="M258 252q0 -55 40 -95t95 -40v-117q-104 0 -178 73.5t-74 178.5v1456h117v-1456zM567 973q37 0 63.5 -26.5t26.5 -63.5t-26.5 -62.5t-63.5 -25.5t-63.5 25.5t-26.5 62.5t26.5 63.5t63.5 26.5z" glyph-name="ldot" horiz-adv-x="700" unicode="ŀ"/><glyph d="M451 117h806v-117h-923v928l-262 -117l-47 104l309 140v655h117v-602l262 117l47 -105l-309 -139v-864z" glyph-name="Lslash" horiz-adv-x="1263" unicode="Ł"/><glyph d="M463 254q0 -57 40 -97t97 -40v-117q-104 0 -179 75t-75 179v674l-262 -117l-47 104l309 140v655h117v-602l262 117l47 -105l-309 -139v-727z" glyph-name="lslash" horiz-adv-x="804" unicode="ł"/><glyph d="M954 -242l-254 -254l-65 66l254 254zM1309 1706h116v-1706h-235l-909 1702v-1702h-117v1706h235l910 -1702v1702z" glyph-name="Ncommaaccent" horiz-adv-x="1589" unicode="Ņ"/><glyph d="M905 -242l-254 -254l-65 66l254 254zM1284 614v-616h-115v616q-2 221 -135 378t-319 157q-184 0 -316.5 -153.5t-134.5 -374.5v-623h-117v1221h117v-289q49 164 157.5 258t270.5 94q160 0 296 -89t216 -243t80 -336z" glyph-name="ncommaaccent" horiz-adv-x="1406" unicode="ņ"/><glyph d="M1038 2101l-243 -243l-244 243l65 66l179 -178l178 178zM1309 1706h116v-1706h-235l-909 1702v-1702h-117v1706h235l910 -1702v1702z" glyph-name="Ncaron" horiz-adv-x="1589" unicode="Ň"/><glyph d="M1284 616v-616h-115v616q-2 221 -135 378t-319 157q-184 0 -316.5 -154.5t-134.5 -373.5v-623h-117v1221h117v-289q49 164 157.5 258t270.5 94q160 0 296 -89t216 -243t80 -336zM987 1571l-242 -244l-243 244l65 65l178 -178l177 178z" glyph-name="ncaron" horiz-adv-x="1406" unicode="ň"/><glyph d="M1284 616v-616h-117v616q0 221 -133 378t-319 157q-184 0 -316.5 -153.5t-136.5 -374.5v-623h-115v1221h115v-289q51 164 158.5 258t271.5 94q160 0 296 -89t215 -243t81 -336zM379 1616l-254 -254l-66 65l254 254z" glyph-name="napostrophe" horiz-adv-x="1406" unicode="ŉ"/><glyph d="M1309 1706h116v-1823q0 -178 -124.5 -304t-300 -126t-299 126t-123.5 304h114q0 -129 91 -222t218 -93t217.5 93t90.5 222v117h-119l-909 1702v-1704h-117v1708h235l910 -1702v1702z" glyph-name="Eng" horiz-adv-x="1589" unicode="Ŋ"/><glyph d="M1284 614v-813q0 -145 -101.5 -247.5t-242.5 -102.5h-152v115h152q94 0 161.5 69.5t67.5 165.5v813q-2 221 -135 378t-319 157q-184 0 -316.5 -153.5t-134.5 -374.5v-623h-117v1221h117v-289q49 164 157.5 258t270.5 94q160 0 296 -89t216 -243t80 -336z" glyph-name="eng" horiz-adv-x="1406" unicode="ŋ"/><glyph d="M864 1763q209 0 387.5 -121.5t280.5 -332.5t102 -458t-102 -458t-280.5 -332.5t-387.5 -121.5t-387 121.5t-281.5 332.5t-103.5 458t103.5 458t281.5 332.5t387 121.5zM864 53q178 0 328.5 107.5t239 291t88.5 399.5t-88.5 400.5t-239 291t-328.5 106.5t-329.5 -106.5 t-238.5 -291t-87 -400.5t87 -399.5t238.5 -291t329.5 -107.5zM1147 1980h-567v93h567v-93z" glyph-name="Omacron" horiz-adv-x="1728" unicode="Ō"/><glyph d="M645.5 1276q149.5 0 275.5 -89t199.5 -244t73.5 -336t-73.5 -335.5t-199.5 -243.5t-275.5 -89t-276.5 89t-201 243.5t-74 335.5t74 336t201 244t276.5 89zM644 53q179 0 307 163t128 391.5t-128 391t-307 162.5t-306 -162.5t-127 -391t127 -391.5t306 -163zM928 1448 h-568v92h568v-92z" glyph-name="omacron" unicode="ō"/><glyph d="M864 1763q209 0 387.5 -121.5t280.5 -332.5t102 -458t-102 -458t-280.5 -332.5t-387.5 -121.5t-387 121.5t-281.5 332.5t-103.5 458t103.5 458t281.5 332.5t387 121.5zM864 53q178 0 328.5 107.5t239 291t88.5 399.5t-88.5 400.5t-239 291t-328.5 106.5t-329.5 -106.5 t-238.5 -291t-87 -400.5t87 -399.5t238.5 -291t329.5 -107.5zM863.5 1878q-103.5 0 -176.5 73.5t-73 176.5h93q0 -63 46 -109.5t110.5 -46.5t110.5 46t46 110h92q0 -102 -72.5 -176t-176 -74z" glyph-name="Obreve" horiz-adv-x="1728" unicode="Ŏ"/><glyph d="M645.5 1276q149.5 0 275.5 -89t199.5 -244t73.5 -336t-73.5 -335.5t-199.5 -243.5t-275.5 -89t-276.5 89t-201 243.5t-74 335.5t74 336t201 244t276.5 89zM644 53q179 0 307 163t128 391.5t-128 391t-307 162.5t-306 -162.5t-127 -391t127 -391.5t306 -163zM644.5 1448 q-103.5 0 -176.5 73.5t-73 176.5h92q0 -66 46.5 -112t111 -46t110.5 46t46 112h92q0 -102 -72.5 -176t-176 -74z" glyph-name="obreve" unicode="ŏ"/><glyph d="M854 2118l-254 -254l-65 65l253 254zM1192 2118l-254 -254l-66 65l254 254zM864 1763q209 0 387.5 -121.5t280.5 -332.5t102 -458t-102 -458t-280.5 -332.5t-387.5 -121.5t-387 121.5t-281.5 332.5t-103.5 458t103.5 458t281.5 332.5t387 121.5zM864 53 q178 0 328.5 107.5t239 291t88.5 399.5t-88.5 400.5t-239 291t-328.5 106.5t-329.5 -106.5t-238.5 -291t-87 -400.5t87 -399.5t238.5 -291t329.5 -107.5z" glyph-name="Ohungarumlaut" horiz-adv-x="1728" unicode="Ő"/><glyph d="M635 1612l-254 -254l-66 65l254 254zM973 1612l-254 -254l-66 65l254 254zM645.5 1276q149.5 0 275.5 -89t199.5 -244t73.5 -336t-73.5 -335.5t-199.5 -243.5t-275.5 -89t-276.5 89t-201 243.5t-74 335.5t74 336t201 244t276.5 89zM644 53q179 0 307 163t128 391.5 t-128 391t-307 162.5t-306 -162.5t-127 -391t127 -391.5t306 -163z" glyph-name="ohungarumlaut" unicode="ő"/><glyph d="M2742 1587h-1106v-678h893v-116h-893v-678h1106v-117h-1222v373q-104 -199 -278.5 -315.5t-377.5 -116.5q-209 0 -387 121.5t-281.5 332.5t-103.5 458t103.5 458t281.5 332.5t387 121.5q203 0 377 -116.5t279 -315.5v373h1222v-117zM864 53q178 0 328.5 107.5t239 291 t88.5 399.5t-88.5 400.5t-239 291t-328.5 106.5t-329.5 -106.5t-238.5 -291t-87 -400.5t87 -399.5t238.5 -291t329.5 -107.5z" glyph-name="OE" horiz-adv-x="2791" unicode="Œ"/><glyph d="M2175 297l6 -2q-82 -162 -230.5 -256t-322.5 -94q-158 0 -290 100t-201 266q-68 -168 -200 -270t-292 -102q-150 0 -276.5 90t-200.5 244.5t-74 336t74 335t201 243.5t276 90q158 0 290 -101.5t202 -269.5q70 168 201.5 269.5t289.5 101.5q150 0 277 -89t200.5 -242.5 t73.5 -336.5v-57h-981q16 -209 140 -351.5t290 -142.5q127 0 237.5 63.5t182.5 174.5h127zM1629 1161q-167 0 -291 -142t-140 -351h862q-16 209 -140 351t-291 142zM644 55q179 0 307 162t128 391.5t-128 391t-307 161.5t-306 -161.5t-127 -391t127 -391.5t306 -162z" glyph-name="oe" horiz-adv-x="2277" unicode="œ"/><glyph d="M1061 2118l-256 -256l-66 65l256 254zM1026 827l553 -827h-137l-553 827h-608v-827h-117v1708h117v-2h821q182 0 311 -129t129 -310.5t-129 -310.5t-311 -129h-76zM281 1591v-647h821q135 0 229 94.5t94 228.5t-94 229t-229 95h-821z" glyph-name="Racute" horiz-adv-x="1642" unicode="Ŕ"/><glyph d="M631 1620l-254 -254l-66 66l254 254zM692 1284q20 0 45 -2v-131h-22q-184 0 -315.5 -153.5t-135.5 -372.5v-625h-117v1223h117v-398q31 213 136.5 336t291.5 123z" glyph-name="racute" horiz-adv-x="759" unicode="ŕ"/><glyph d="M1061 -236l-256 -253l-66 65l256 254zM1026 823l553 -827h-137l-553 827h-608v-827h-117v1708h117v-2h821q182 0 311 -129t129 -310.5t-129 -310.5t-311 -129h-76zM281 1587v-647h821q135 0 229 94t94 228.5t-94 229.5t-229 95h-821z" glyph-name="Rcommaaccent" horiz-adv-x="1644" unicode="Ŗ"/><glyph d="M365 -229l-254 -254l-66 65l254 254zM692 1282q18 0 45 -2v-131h-22q-184 0 -316.5 -153.5t-136.5 -372.5v-625h-115v1223h115v-398q33 213 138.5 336t291.5 123z" glyph-name="rcommaaccent" horiz-adv-x="759" unicode="ŗ"/><glyph d="M1026 827l553 -827h-137l-553 827h-608v-827h-117v1708h117v-2h821q182 0 311 -129t129 -310.5t-129 -310.5t-311 -129h-76zM281 1591v-647h821q135 0 229 94.5t94 228.5t-94 229t-229 95h-821zM1143 2095l-244 -244l-242 244l66 66l176 -179l178 179z" glyph-name="Rcaron" horiz-adv-x="1642" unicode="Ř"/><glyph d="M692 1284q20 0 45 -2v-131h-22q-184 0 -315.5 -153.5t-135.5 -372.5v-625h-117v1223h117v-398q31 213 136.5 336t291.5 123zM715 1567l-244 -244l-244 244l66 65l178 -178l178 178z" glyph-name="rcaron" horiz-adv-x="759" unicode="ř"/><glyph d="M930 2114l-254 -254l-66 65l254 254zM754 936q90 -12 137 -18.5t132 -25t134 -40t111.5 -59t95.5 -87t57.5 -121t24.5 -161.5q0 -131 -91 -242.5t-246 -177t-338 -65.5t-339 65.5t-246 177t-90 242.5h117q0 -152 164 -260.5t394 -108.5t394 108.5t164 260.5 q0 66 -14.5 116t-39 88t-67.5 66.5t-86 47t-110.5 34t-126 24.5t-146.5 19q-117 14 -178 24.5t-144 36t-134 64.5q-186 139 -187 336q0 131 90 243.5t246 177t339 64.5t338 -64.5t246 -177t91 -243.5h-117q0 154 -164 262.5t-394 108.5t-394 -108.5t-164 -262.5 q0 -139 139 -244q39 -29 111 -50t128.5 -29.5t162.5 -20.5z" glyph-name="Sacute" horiz-adv-x="1546" unicode="Ś"/><glyph d="M748 1614l-254 -254l-66 65l254 254zM578 684q47 -6 72.5 -10t73.5 -12.5t76.5 -17.5t70.5 -24.5t68 -35t54.5 -47t45 -60.5t27.5 -78t11 -96q0 -152 -143 -258t-346 -106t-346.5 106.5t-143.5 257.5h117q0 -100 110.5 -174t262 -74t262.5 74t111 174q0 59 -19.5 102.5 t-48.5 70t-84 45t-107.5 27.5t-138.5 21q-84 10 -128 16.5t-103.5 26t-95.5 50.5q-137 102 -138 251q0 150 143.5 256.5t346.5 106.5t346 -106.5t143 -256.5h-116q0 100 -111 174t-262.5 74t-262 -73.5t-110.5 -174.5q0 -92 90 -159q27 -20 75 -34.5t86 -21t112 -14.5z" glyph-name="sacute" horiz-adv-x="1177" unicode="ś"/><glyph d="M770 2060l-176 -178l-66 66l242 243l244 -243l-66 -66zM754 936q90 -12 137 -18.5t132 -25t134 -40t111.5 -59t95.5 -87t57.5 -121t24.5 -161.5q0 -131 -91 -242.5t-246 -177t-338 -65.5t-339 65.5t-246 177t-90 242.5h117q0 -152 164 -260.5t394 -108.5t394 108.5 t164 260.5q0 66 -14.5 116t-39 88t-67.5 66.5t-86 47t-110.5 34t-126 24.5t-146.5 19q-117 14 -178 24.5t-144 36t-134 64.5q-186 139 -187 336q0 131 90 243.5t246 177t339 64.5t338 -64.5t246 -177t91 -243.5h-117q0 154 -164 262.5t-394 108.5t-394 -108.5t-164 -262.5 q0 -139 139 -244q39 -29 111 -50t128.5 -29.5t162.5 -20.5z" glyph-name="Scircumflex" horiz-adv-x="1546" unicode="Ŝ"/><glyph d="M588 1559l-178 -177l-66 66l244 242l241 -242l-65 -66zM578 684q47 -6 72.5 -10t73.5 -12.5t76.5 -17.5t70.5 -24.5t68 -35t54.5 -47t45 -60.5t27.5 -78t11 -96q0 -152 -143 -258t-346 -106t-346.5 106.5t-143.5 257.5h117q0 -100 110.5 -174t262 -74t262.5 74t111 174 q0 59 -19.5 102.5t-48.5 70t-84 45t-107.5 27.5t-138.5 21q-84 10 -128 16.5t-103.5 26t-95.5 50.5q-137 102 -138 251q0 150 143.5 256.5t346.5 106.5t346 -106.5t143 -256.5h-116q0 100 -111 174t-262.5 74t-262 -73.5t-110.5 -174.5q0 -92 90 -159q27 -20 75 -34.5 t86 -21t112 -14.5z" glyph-name="scircumflex" horiz-adv-x="1177" unicode="ŝ"/><glyph d="M754 954q90 -10 137 -17t132 -24.5t134 -39t111.5 -60.5t95.5 -87t57.5 -119.5t24.5 -162.5q0 -172 -151.5 -305t-383.5 -170v-69q-68 0 -117 -46.5t-49 -112t49.5 -110.5t116.5 -45v-116q-117 0 -199.5 79.5t-82.5 192.5q0 135 112 217q-268 8 -456.5 149.5 t-188.5 335.5h117q0 -154 164 -262t394 -108t394 108.5t164 261.5q0 63 -14.5 114.5t-39 88.5t-67.5 66.5t-86 48t-110.5 34t-126 24.5t-146.5 20q-117 14 -178 23t-144 36t-134 66q-186 139 -187 335q0 131 90 243t246 177.5t339 65.5t338 -65.5t246 -177t91 -243.5h-117 q0 152 -164 260.5t-394 108.5t-394 -108.5t-164 -260.5q0 -139 139 -243q39 -31 111 -51.5t128.5 -30t162.5 -21.5z" glyph-name="Scedilla" horiz-adv-x="1546" unicode="Ş"/><glyph d="M578 702q47 -6 72.5 -9t73.5 -11t76.5 -17.5t70.5 -25.5t68 -34.5t54.5 -46.5t45 -61.5t27.5 -77.5t11 -97q0 -121 -98 -217.5t-250 -129.5v-75q-70 0 -119 -46.5t-49 -112t49 -110.5t119 -45v-116q-117 0 -200 79.5t-83 192.5q0 135 113 217q-193 8 -327 113.5 t-134 249.5h117q0 -100 110.5 -174t262 -74t262.5 73.5t111 174.5q0 61 -19.5 104t-48.5 69.5t-84 45t-107.5 28t-138.5 19.5q-84 10 -128 17t-103.5 26.5t-95.5 48.5q-137 104 -138 254q0 150 143.5 256t346.5 106t346 -106.5t143 -255.5h-116q0 100 -111 174t-262.5 74 t-262 -74t-110.5 -174q0 -92 90 -162q27 -20 75 -34.5t86 -20t112 -15.5z" glyph-name="scedilla" horiz-adv-x="1177" unicode="ş"/><glyph d="M1024 2093l-244 -244l-241 244l65 66l176 -179l178 179zM754 936q90 -12 137 -18.5t132 -25t134 -40t111.5 -59t95.5 -87t57.5 -121t24.5 -161.5q0 -131 -91 -242.5t-246 -177t-338 -65.5t-339 65.5t-246 177t-90 242.5h117q0 -152 164 -260.5t394 -108.5t394 108.5 t164 260.5q0 66 -14.5 116t-39 88t-67.5 66.5t-86 47t-110.5 34t-126 24.5t-146.5 19q-117 14 -178 24.5t-144 36t-134 64.5q-186 139 -187 336q0 131 90 243.5t246 177t339 64.5t338 -64.5t246 -177t91 -243.5h-117q0 154 -164 262.5t-394 108.5t-394 -108.5t-164 -262.5 q0 -139 139 -244q39 -29 111 -50t128.5 -29.5t162.5 -20.5z" glyph-name="Scaron" horiz-adv-x="1546" unicode="Š"/><glyph d="M829 1569l-241 -244l-244 244l66 65l178 -178l176 178zM578 684q47 -6 72.5 -10t73.5 -12.5t76.5 -17.5t70.5 -24.5t68 -35t54.5 -47t45 -60.5t27.5 -78t11 -96q0 -152 -143 -258t-346 -106t-346.5 106.5t-143.5 257.5h117q0 -100 110.5 -174t262 -74t262.5 74t111 174 q0 59 -19.5 102.5t-48.5 70t-84 45t-107.5 27.5t-138.5 21q-84 10 -128 16.5t-103.5 26t-95.5 50.5q-137 102 -138 251q0 150 143.5 256.5t346.5 106.5t346 -106.5t143 -256.5h-116q0 100 -111 174t-262.5 74t-262 -73.5t-110.5 -174.5q0 -92 90 -159q27 -20 75 -34.5 t86 -21t112 -14.5z" glyph-name="scaron" horiz-adv-x="1177" unicode="š"/><glyph d="M6 1591v117h1512v-117h-699v-1587v0v-115q-68 0 -117 -46t-49 -111.5t49.5 -110.5t116.5 -45v-117q-117 0 -199.5 80t-82.5 193q0 82 46 148.5t122 99.5v1611h-699z" glyph-name="Tcommaaccent" horiz-adv-x="1525" unicode="Ţ"/><glyph d="M760 1106h-408v-848q0 -59 40 -100t97 -41h271v-228q-70 0 -119 -46t-49 -111.5t49 -110.5t119 -45v-117q-117 0 -200 80t-83 193q0 100 67.5 176t168.5 92h-224q-104 0 -178.5 76t-74.5 182v848h-195v115h195v491h116v-491h408v-115z" glyph-name="tcommaaccent" horiz-adv-x="815" unicode="ţ"/><glyph d="M1006 2095l-244 -244l-244 244l66 66l178 -179l178 179zM6 1704h1512v-115h-699v-1589h-114v1589h-699v115z" glyph-name="Tcaron" horiz-adv-x="1525" unicode="Ť"/><glyph d="M791 1642l-254 -253l-66 65l254 254zM352 1712v-491h408v-115h-408v-848q0 -59 40 -100t97 -41h271v-117h-271q-104 0 -178.5 76t-74.5 182v848h-195v115h195v491h116z" glyph-name="tcaron" horiz-adv-x="815" unicode="ť"/><glyph d="M1536 1550h-698v-532h534v-117h-534v-901h-115v901h-535v117h535v532h-698v115h1511v-115z" glyph-name="Tbar" horiz-adv-x="1562" unicode="Ŧ"/><glyph d="M793 1032h-408v-264h408v-117h-408v-399q0 -57 40 -97t97 -40h271v-115h-271q-104 0 -179 73.5t-75 178.5v399h-194v117h194v264h-194v115h194v526h117v-524h408v-117z" glyph-name="tbar" horiz-adv-x="888" unicode="ŧ"/><glyph d="M1401 1706h115v-1090q0 -184 -92.5 -339.5t-250 -246.5t-344 -91t-345 91t-251 246.5t-92.5 339.5v1090h117v-1090q0 -231 167 -396t403.5 -165t404.5 165t168 396v1090zM528 1919l-41 23l-38 24q63 106 182 134t223 -36q70 -43 151.5 -23.5t124.5 91.5l80 -49 q-63 -102 -182 -131t-223 35q-72 43 -153 23.5t-124 -91.5z" glyph-name="Utilde" horiz-adv-x="1658" unicode="Ũ"/><glyph d="M635 1460q-72 43 -153 23.5t-126 -90.5l-80 47q66 104 185 134t221 -34q72 -45 154 -25.5t125 91.5l77 -47q-63 -104 -181 -133t-222 34zM1141 600v623h114v-1219h-114v289q-51 -166 -159 -260t-271 -94q-160 0 -296 90t-215 243.5t-81 333.5v617h117v-617 q0 -221 133 -377.5t319 -156.5q184 0 316.5 154.5t136.5 373.5z" glyph-name="utilde" horiz-adv-x="1404" unicode="ũ"/><glyph d="M1401 1706h115v-1090q0 -184 -92.5 -339.5t-250 -246.5t-344 -91t-345 91t-251 246.5t-92.5 339.5v1090h117v-1090q0 -231 167 -396t403.5 -165t404.5 165t168 396v1090zM1112 1978h-567v93h567v-93z" glyph-name="Umacron" horiz-adv-x="1658" unicode="Ū"/><glyph d="M942 1452h-567v94h567v-94zM1141 600v623h114v-1219h-114v289q-51 -166 -159 -260t-271 -94q-160 0 -296 90t-215 243.5t-81 333.5v617h117v-617q0 -221 133 -377.5t319 -156.5q184 0 316.5 154.5t136.5 373.5z" glyph-name="umacron" horiz-adv-x="1404" unicode="ū"/><glyph d="M1401 1706h115v-1090q0 -184 -92.5 -339.5t-250 -246.5t-344 -91t-345 91t-251 246.5t-92.5 339.5v1090h117v-1090q0 -231 167 -396t403.5 -165t404.5 165t168 396v1090zM828.5 1884q-103.5 0 -176 73t-72.5 177h92q0 -66 46 -112t110.5 -46t110.5 46t46 112h92 q0 -104 -72.5 -177t-176 -73z" glyph-name="Ubreve" horiz-adv-x="1658" unicode="Ŭ"/><glyph d="M658.5 1460q-103.5 0 -176 73t-72.5 175h92q0 -63 46 -109.5t110.5 -46.5t110.5 46.5t46 109.5h92q0 -102 -72.5 -175t-176 -73zM1141 600v623h114v-1219h-114v289q-51 -166 -159 -260t-271 -94q-160 0 -296 90t-215 243.5t-81 333.5v617h117v-617q0 -221 133 -377.5 t319 -156.5q184 0 316.5 154.5t136.5 373.5z" glyph-name="ubreve" horiz-adv-x="1404" unicode="ŭ"/><glyph d="M1401 1706h115v-1090q0 -184 -92.5 -339.5t-250 -246.5t-344 -91t-345 91t-251 246.5t-92.5 339.5v1090h117v-1090q0 -231 167 -396t403.5 -165t404.5 165t168 396v1090zM828.5 1855q-78.5 0 -134 55.5t-55.5 134.5t55.5 134t134 55t134 -55t55.5 -134t-55.5 -134.5 t-134 -55.5zM828 2140q-40 0 -67.5 -27.5t-27.5 -67.5t27.5 -67.5t67.5 -27.5t68 27.5t28 67.5t-28 67.5t-68 27.5z" glyph-name="Uring" horiz-adv-x="1658" unicode="Ů"/><glyph d="M657.5 1401q-77.5 0 -133 55t-55.5 133t55.5 133.5t133 55.5t133 -55.5t55.5 -133.5t-55.5 -133t-133 -55zM657 1686q-39 0 -67.5 -29t-28.5 -68t28.5 -67.5t67.5 -28.5t68 28.5t29 67.5t-29 68t-68 29zM1141 600v623h114v-1219h-114v289q-51 -166 -159 -260t-271 -94 q-160 0 -296 90t-215 243.5t-81 333.5v617h117v-617q0 -221 133 -377.5t319 -156.5q184 0 316.5 154.5t136.5 373.5z" glyph-name="uring" horiz-adv-x="1404" unicode="ů"/><glyph d="M1401 1706h115v-1090q0 -184 -92.5 -339.5t-250 -246.5t-344 -91t-345 91t-251 246.5t-92.5 339.5v1090h117v-1090q0 -231 167 -396t403.5 -165t404.5 165t168 396v1090zM819 2120l-254 -254l-65 65l254 254zM1157 2120l-254 -254l-65 65l254 254z" glyph-name="Uhungarumlaut" horiz-adv-x="1658" unicode="Ű"/><glyph d="M649 1630l-254 -254l-65 66l254 254zM987 1630l-254 -254l-65 66l254 254zM1141 600v623h114v-1221h-114v289q-51 -164 -159 -258t-271 -94q-160 0 -296 89t-215 242.5t-81 335.5v617h117v-617q0 -223 133 -378.5t319 -155.5q184 0 316.5 153.5t136.5 374.5z" glyph-name="uhungarumlaut" horiz-adv-x="1404" unicode="ű"/><glyph d="M1401 1712h115v-1089q0 -250 -164 -439.5t-412 -228.5v-68q-68 0 -117 -46t-49 -110.5t49 -110.5t117 -46v-117q-117 0 -200 80t-83 193q0 135 115 217q-266 23 -448.5 217t-182.5 459v1089h117v-1089q0 -231 167 -396.5t403.5 -165.5t404.5 165t168 397v1089z" glyph-name="Uogonek" horiz-adv-x="1658" unicode="Ų"/><glyph d="M1141 1219h114v-1219h-114v289q-47 -150 -139.5 -242t-231.5 -108v-56q-68 0 -117 -46t-49 -110.5t49 -110.5t117 -46v-117q-117 0 -200 80t-83 193q0 139 117 221q-207 43 -345 227t-140 428v617h117v-617q0 -221 133 -377.5t319 -156.5q184 0 316.5 154.5t136.5 373.5 v623z" glyph-name="uogonek" horiz-adv-x="1404" unicode="ų"/><glyph d="M1413 2066l-178 -178l-66 66l244 244l242 -244l-66 -66zM2671 1710h122l-573 -1708h-242l-571 1702l-569 -1702h-121v-2h-121l-573 1706h2l-2 4h122l572 -1704l571 1704h240l571 -1704z" glyph-name="Wcircumflex" horiz-adv-x="2816" unicode="Ŵ"/><glyph d="M1102 1532l-176 -176l-66 65l242 242l244 -242l-66 -65zM2030 1219h122l-407 -1219h-244l-405 1208l-404 -1208h-243l-408 1219h123l407 -1215l408 1215h235l408 -1215z" glyph-name="wcircumflex" horiz-adv-x="2193" unicode="ŵ"/><glyph d="M1446 1706h153l-745 -875v-831h-115v831l-745 875h151l652 -764zM797 2066l-179 -178l-65 66l244 244l243 -244l-65 -66z" glyph-name="Ycircumflex" horiz-adv-x="1593" unicode="Ŷ"/><glyph d="M952 1217h123l-497 -1549q-31 -98 -113 -157.5t-184 -59.5h-240v115h240q63 0 114 38t72 99l94 295h-119l-401 1219h123l399 -1215zM563 1532l-176 -178l-65 65l241 244l244 -244l-66 -65z" glyph-name="ycircumflex" horiz-adv-x="1118" unicode="ŷ"/><glyph d="M1446 1706h153l-745 -875v-831h-115v831l-745 875h151l652 -764zM616 1954h-151v143h151v-143zM1128 1954h-151v143h151v-143z" glyph-name="Ydieresis" horiz-adv-x="1593" unicode="Ÿ"/><glyph d="M1645 1700v-137l-1459 -1446h1459v-117h-1602v139l1460 1446h-1458v115h1600zM1004 2111l-254 -256l-66 66l254 256z" glyph-name="Zacute" horiz-adv-x="1689" unicode="Ź"/><glyph d="M215 117h1090v-117h-1246v133l1094 967h-1090v117h1242v-136zM842 1612l-254 -254l-66 65l254 254z" glyph-name="zacute" horiz-adv-x="1368" unicode="ź"/><glyph d="M1645 1700v-137l-1459 -1446h1459v-117h-1602v139l1460 1446h-1458v115h1600zM844 1925q-37 0 -62.5 26.5t-25.5 63.5t25.5 62.5t62.5 25.5t63.5 -25.5t26.5 -62.5t-26.5 -63.5t-63.5 -26.5z" glyph-name="Zdotaccent" horiz-adv-x="1689" unicode="Ż"/><glyph d="M215 117h1090v-117h-1246v133l1094 967h-1090v117h1242v-136zM682 1389q-37 0 -62.5 26.5t-25.5 63.5t25.5 62.5t62.5 25.5t63.5 -25.5t26.5 -62.5t-26.5 -63.5t-63.5 -26.5z" glyph-name="zdotaccent" horiz-adv-x="1368" unicode="ż"/><glyph d="M1087 2095l-243 -244l-242 244l66 66l176 -179l178 179zM1645 1700v-137l-1459 -1446h1459v-117h-1602v139l1460 1446h-1458v115h1600z" glyph-name="Zcaron" horiz-adv-x="1689" unicode="Ž"/><glyph d="M926 1565l-244 -244l-244 244l66 65l178 -178l178 178zM215 117h1090v-117h-1246v133l1094 967h-1090v117h1242v-136z" glyph-name="zcaron" horiz-adv-x="1368" unicode="ž"/><glyph d="M492 1708h270v-117h-270q-57 0 -97.5 -41t-40.5 -100v-1450h-116v1104h-195v117h195v229q0 106 75 182t179 76z" glyph-name="longs" horiz-adv-x="501" unicode="ſ"/><glyph d="M954 1931l-65 -65l-254 254l65 65zM1309 1706h116v-1706h-235l-909 1702v-1702h-117v1706h235l910 -1702v1702z" glyph-name="uni01F8" horiz-adv-x="1589" unicode="Ǹ"/><glyph d="M1278 616v-616h-115v616q-2 221 -135 378t-319 157q-184 0 -316.5 -154.5t-134.5 -373.5v-623h-117v1221h117v-289q49 164 157.5 258t270.5 94q160 0 296 -89t216 -243t80 -336zM899 1427l-65 -65l-254 254l65 65z" glyph-name="uni01F9" horiz-adv-x="1404" unicode="ǹ"/><glyph d="M930 -209l-254 -254l-66 66l254 254zM754 961q90 -12 137 -18.5t132 -25t134 -40t111.5 -59.5t95.5 -87t57.5 -120.5t24.5 -161.5q0 -131 -91 -243t-246 -177.5t-338 -65.5t-339 65.5t-246 177t-90 243.5h117q0 -152 164 -260.5t394 -108.5t394 108.5t164 260.5 q0 66 -14.5 115.5t-39 87.5t-67.5 67t-86 47t-110.5 33.5t-126 25t-146.5 19.5q-117 14 -178 24.5t-144 36t-134 64.5q-186 139 -187 336q0 131 90 243.5t246 177t339 64.5t338 -64.5t246 -177t91 -243.5h-117q0 154 -164 262t-394 108t-394 -108.5t-164 -261.5 q0 -139 139 -244q39 -29 111 -50.5t128.5 -29.5t162.5 -20z" glyph-name="Scommaaccent" horiz-adv-x="1546" unicode="Ș"/><glyph d="M748 -213l-254 -254l-66 66l254 254zM578 705q47 -6 72.5 -10.5t73.5 -12.5t76.5 -17.5t70.5 -24.5t68 -34.5t54.5 -47.5t45 -60.5t27.5 -77.5t11 -96q0 -152 -143 -258.5t-346 -106.5t-346.5 106.5t-143.5 258.5h117q0 -100 110.5 -174t262 -74t262.5 73.5t111 174.5 q0 59 -19.5 102t-48.5 69.5t-84 45t-107.5 28t-138.5 21.5q-84 10 -128 16t-103.5 25.5t-95.5 50.5q-137 102 -138 252q0 150 143.5 256t346.5 106t346 -106.5t143 -255.5h-116q0 100 -111 174t-262.5 74t-262 -74t-110.5 -174q0 -92 90 -160q27 -20 75 -34.5t86 -20.5 t112 -14z" glyph-name="scommaaccent" horiz-adv-x="1177" unicode="ș"/><glyph d="M922 -233l-254 -254l-66 65l254 254zM6 1702h1512v-115h-699v-1589h-114v1589h-699v115z" glyph-name="uni021A" horiz-adv-x="1525" unicode="Ț"/><glyph d="M455 -229l-254 -254l-66 65l254 254zM760 1104h-408v-848q0 -59 40 -100t97 -41h271v-117h-271q-104 0 -178.5 76t-74.5 182v848h-195v115h195v491h116v-491h408v-115z" glyph-name="uni021B" horiz-adv-x="815" unicode="ț"/><glyph d="M1180 512h-1133v143h1133v-143z" glyph-name="endash" horiz-adv-x="1226" unicode="–"/><glyph d="M1556 512h-1509v143h1509v-143z" glyph-name="emdash" horiz-adv-x="1605" unicode="—"/><glyph d="M47 1731q0 100 71.5 171.5t172.5 71.5v-116q-53 0 -90 -37t-37 -90v-179h-117v179z" glyph-name="quoteleft" horiz-adv-x="210" unicode="‘"/><glyph d="M174 1974h117v-178q0 -100 -72 -172t-172 -72v117q53 0 90 38t37 89v178z" glyph-name="quoteright" horiz-adv-x="311" unicode="’"/><glyph d="M195 420h116v-178q0 -100 -71.5 -171t-171.5 -71v115q53 0 90 37.5t37 89.5v178z" glyph-name="quotesinglbase" horiz-adv-x="387" unicode="‚"/><glyph d="M47 1731q0 100 71.5 170.5t172.5 70.5v-114q-53 0 -90 -38t-37 -89v-179h-117v179zM371 1731q0 100 71.5 170.5t171.5 70.5v-114q-53 0 -90 -38t-37 -89v-179h-116v179z" glyph-name="quotedblleft" horiz-adv-x="536" unicode="“"/><glyph d="M500 1974h114v-178q0 -100 -71.5 -172t-171.5 -72v117q53 0 91 38t38 89v178zM174 1796v178h117v-178q0 -100 -72 -172t-172 -72v117q53 0 90 38t37 89z" glyph-name="quotedblright" horiz-adv-x="636" unicode="”"/><glyph d="M193 242v178h116v-178q0 -100 -71.5 -171t-171.5 -71v115q53 0 90 38t37 89zM518 420h115v-178q0 -100 -72 -171t-172 -71v115q53 0 91 37.5t38 89.5v178z" glyph-name="quotedblbase" horiz-adv-x="710" unicode="„"/><glyph d="M299 512h-238v240h238v-240z" glyph-name="bullet" horiz-adv-x="362" unicode="•"/><glyph d="M500 0h-152v143h152v-143zM199 0h-152v143h152v-143zM801 0h-152v143h152v-143z" glyph-name="ellipsis" horiz-adv-x="847" unicode="…"/><glyph d="M418 1124q-133 0 -227.5 94.5t-94.5 227.5t94.5 227t227.5 94t227 -94t94 -227t-94 -227.5t-227 -94.5zM417 1651q-85 0 -144.5 -59.5t-59.5 -144.5t59.5 -145.5t144.5 -60.5t145.5 60.5t60.5 145.5t-60.5 144.5t-145.5 59.5zM1251 582q133 0 226.5 -94.5t93.5 -227.5 t-93.5 -227t-226.5 -94t-227 94t-94 227t94 227.5t227 94.5zM1250 55q85 0 145.5 60.5t60.5 144.5t-60.5 144.5t-145.5 60.5t-145.5 -60.5t-60.5 -144.5t60.5 -144.5t145.5 -60.5zM2029.5 582q133.5 0 227.5 -94.5t94 -227.5t-94 -227t-227.5 -94t-227.5 94t-94 227 t94 227.5t227.5 94.5zM2031 55q85 0 144 60.5t59 144.5t-59 144.5t-144 60.5t-145.5 -60.5t-60.5 -144.5t60.5 -144.5t145.5 -60.5zM1364 1702h182l-1224 -1708h-183z" glyph-name="perthousand" horiz-adv-x="2430" unicode="‰"/><glyph d="M459 1157v-110l-371 -213l371 -211v-111l-373 213v219z" glyph-name="guilsinglleft" horiz-adv-x="546" unicode="‹"/><glyph d="M86 1157l373 -213v-219l-373 -213v111l373 211l-373 213v110z" glyph-name="guilsinglright" horiz-adv-x="546" unicode="›"/><glyph d="M1636 492l107 -43q-98 -238 -284.5 -374t-407.5 -136q-203 0 -376 113.5t-278.5 310t-117.5 432.5h-213v116h213q12 236 117.5 433.5t278.5 311t376 113.5q221 0 407.5 -137t284.5 -372l-107 -46q-86 203 -242.5 321t-342.5 118q-172 0 -318.5 -98.5t-235.5 -268.5 t-102 -375h547v-116h-547q12 -203 101.5 -374t236 -269.5t318.5 -98.5q186 0 342.5 118t242.5 321z" glyph-name="Euro" horiz-adv-x="1847" unicode="€"/></font>
</defs>
</svg>
