<?xml version="1.0" standalone="no"?>
<!DOCTYPE svg PUBLIC "-//W3C//DTD SVG 1.1//EN" "http://www.w3.org/Graphics/SVG/1.1/DTD/svg11.dtd">
<svg xmlns="http://www.w3.org/2000/svg"><metadata>This SVG WebFont was generated by YouWorkForThem.
</metadata><defs><font horiz-adv-x="1452" id="ywftsvg"><font-face ascent="1638" bbox="-197 -629 3086 2259" cap-height="1708" descent="-410" font-family="" font-stretch="normal" font-weight="400" panose-1="0 0 0 0 0 0 0 0 0 0" underline-position="0" underline-thickness="0" unicode-range="U+000A-20AC" units-per-em="2048" x-height="1217"/><missing-glyph d="M102 1434h875v-1434h-875v1434zM160 1393l379 -633l381 633h-760zM514 717l-369 614v-1231zM541 674l-379 -631h758zM565 717l371 -621v1239z" horiz-adv-x="1079"/><glyph d="M102 1434h875v-1434h-875v1434zM160 1393l379 -633l381 633h-760zM514 717l-369 614v-1231zM541 674l-379 -631h758zM565 717l371 -621v1239z" glyph-name=".notdef" horiz-adv-x="1079"/><glyph glyph-name="glyph1" horiz-adv-x="0"/><glyph glyph-name="glyph1" horiz-adv-x="0"/><glyph glyph-name="glyph2" horiz-adv-x="681"/><glyph glyph-name="uni000A" horiz-adv-x="0" unicode="&#x0a;"/><glyph glyph-name="space" horiz-adv-x="663" unicode=" "/><glyph d="M367 0h-222v186h222v-186zM348 410h-184v1298h184v-1298z" glyph-name="exclam" horiz-adv-x="512" unicode="!"/><glyph d="M1708 858h-268l-154 -463h268l-63 -184h-266l-88 -264h-197l88 264h-487l-88 -264h-195l88 264h-268l61 184h269l153 463h-268l61 186h269l82 244h194l-80 -244h488l82 244h194l-82 -244h268zM1090 395l155 463h-487l-156 -463h488z" glyph-name="numbersign" horiz-adv-x="1847" unicode="#"/><glyph d="M928 891q100 -12 175 -28.5t163 -51.5t144 -84t95 -132t39 -189q0 -182 -176 -315.5t-440 -156.5v-258h-187v258q-266 23 -441 156t-175 316h184q0 -102 126 -184.5t306 -100.5v604q-145 16 -243.5 38.5t-169.5 70.5q-203 137 -203 337q0 182 175 315.5t441 155.5v254 h187v-254q264 -23 440 -155.5t176 -315.5h-186q0 100 -125 182.5t-305 102.5v-565zM741 911v545q-180 -20 -306 -102t-126 -183q0 -102 123 -182q73 -51 309 -78zM928 121q180 18 305 100t125 185q0 145 -103.5 206.5t-326.5 92.5v-584z" glyph-name="dollar" horiz-adv-x="1671" unicode="$"/><glyph d="M456.5 1055q-147.5 0 -252 104.5t-104.5 252t104.5 251.5t252 104t252 -104t104.5 -251.5t-104.5 -252t-252 -104.5zM455.5 1583q-70.5 0 -120.5 -50t-50 -121t50 -121t120.5 -50t121 50t50.5 121t-50.5 121t-121 50zM1289.5 653q146.5 0 251 -103.5t104.5 -250.5 t-104.5 -251.5t-251 -104.5t-251 104.5t-104.5 251.5t104.5 250.5t251 103.5zM1289.5 127q70.5 0 120.5 50t50 121t-50 121t-120.5 50t-121 -50t-50.5 -121t50.5 -121t121 -50zM1370 1704h229l-1224 -1708h-228z" glyph-name="percent" horiz-adv-x="1746" unicode="%"/><glyph d="M1393 362l340 -362h-254l-179 190q-92 -115 -233 -181t-307 -66q-176 0 -327.5 77.5t-240 209.5t-88.5 288q0 174 107.5 316.5t284.5 209.5q-207 227 -121 465q41 113 143.5 183.5t237.5 81.5q143 8 265 -53.5t179 -174.5q49 -92 44 -195.5t-62 -197.5 q-53 -86 -136 -146.5t-180 -82.5q47 -51 121 -129q111 -121 168 -181l76 -82v54q0 111 79 188.5t191 77.5h182v-184h-182q-35 0 -59.5 -23.5t-24.5 -58.5v-68q1 -80 -24 -156zM549 1448q-51 -141 96 -295q6 -4 62 -61q29 2 53 2q76 0 148.5 43t113.5 112q70 109 14 213 q-33 63 -102.5 96t-145.5 33q-10 0 -20 -2q-80 -4 -138 -42t-81 -99zM760 129q131 0 240.5 54.5t170.5 144.5l-153 161q-57 61 -168 181q-129 137 -211 225q-152 -35 -251 -139.5t-99 -237.5q0 -162 138 -275.5t333 -113.5z" glyph-name="ampersand" horiz-adv-x="1818" unicode="&amp;"/><glyph d="M49 1731q0 115 82 195.5t197 80.5v-184q-39 0 -67 -28t-28 -64v-179h-184v179z" glyph-name="quotesingle" horiz-adv-x="282" unicode="'"/><glyph d="M676 1872q-715 -1047 0 -2093l-152 -105q-387 563 -387 1150t387 1152z" glyph-name="parenleft" horiz-adv-x="665" unicode="("/><glyph d="M141 1976q385 -565 385 -1151.5t-385 -1150.5l-153 105q717 1047 0 2093z" glyph-name="parenright" horiz-adv-x="665" unicode=")"/><glyph d="M571 1765l-116 -116h166v-93h-166l116 -116l-65 -66l-117 117v-164h-92v164l-117 -117l-65 66l116 116h-163v93h163l-116 116l65 66l117 -117v166h92v-166l117 117z" glyph-name="asterisk" horiz-adv-x="688" unicode="*"/><glyph d="M778 702h518v-184h-518v-518h-184v518h-518v184h518v519h184v-519z" glyph-name="plus" horiz-adv-x="1372" unicode="+"/><glyph d="M51 174h187v-178q0 -115 -82 -197t-197 -82v187q39 0 65.5 26.5t26.5 65.5v178z" glyph-name="comma" horiz-adv-x="288" unicode=","/><glyph d="M809 514h-756v186h756v-186z" glyph-name="hyphen" horiz-adv-x="862" unicode="-"/><glyph d="M274 0h-221v186h221v-186z" glyph-name="period" horiz-adv-x="327" unicode="."/><glyph d="M1255 1708h228l-1225 -1708h-227z" glyph-name="slash" horiz-adv-x="1509" unicode="/"/><glyph d="M808 1772q181 0 334.5 -90.5t243 -244t89.5 -333.5v-494q0 -182 -89.5 -335.5t-243 -242.5t-334.5 -89t-335 89t-243 242.5t-89 335.5v494q0 180 89 333.5t243 244t335 90.5zM1290 610v494q0 199 -141 340t-341 141t-341 -141t-141 -340v-494q0 -201 141 -341t341 -140 t341 140t141 341z" glyph-name="zero" horiz-adv-x="1617" unicode="0"/><glyph d="M668 1368v-1184h391v-184h-969v184h391v1184q0 63 -45 108.5t-110 45.5h-236v184h236q141 0 241.5 -99.5t100.5 -238.5z" glyph-name="one" horiz-adv-x="1107" unicode="1"/><glyph d="M754 479l-365 -295h963v-184h-1229v209l514 416q35 27 113 86q55 43 95 73.5t84 69.5t73.5 71.5t59.5 69.5t45 74t25.5 77t9.5 82t-14 89q-29 115 -115.5 189.5t-199.5 80.5h-25q-203 0 -346 -143.5t-143 -347.5h-184q0 184 90 339.5t245.5 247t337.5 91.5q16 0 35 -2 q172 -8 306.5 -121t179.5 -289q16 -61 17 -122.5t-6 -113t-32.5 -104.5t-48 -93t-64.5 -88t-72 -78t-81 -73t-80 -64.5t-80 -62.5q-75 -57 -108 -84z" glyph-name="two" horiz-adv-x="1470" unicode="2"/><glyph d="M961 1087q201 -57 327.5 -210.5t126.5 -346.5q0 -160 -88 -295t-239.5 -213.5t-328.5 -78.5t-328.5 78.5t-240 214t-88.5 294.5h185q0 -166 138 -283.5t333.5 -117.5t333 118t137.5 283q0 170 -140.5 308.5t-330.5 138.5v174l389 373h-1006v184h1272v-186z" glyph-name="three" horiz-adv-x="1542" unicode="3"/><glyph d="M1192 1706v-1071h270v-184h-270v-451h-186v451h-922v184l704 1073h222v-2h182zM305 635h701v1067z" glyph-name="four" horiz-adv-x="1546" unicode="4"/><glyph d="M745 1116q178 0 330 -79t240 -214t88 -293.5t-88 -294t-239.5 -214t-329 -78.5t-329 78.5t-239.5 214t-88 294.5h184q0 -166 138.5 -283.5t334 -117.5t333 118t137.5 282.5t-137.5 282.5t-334.5 118q-141 0 -262 -68h-198l135 848h944v-186h-786l-72 -449q116 41 239 41z " glyph-name="five" horiz-adv-x="1523" unicode="5"/><glyph d="M797 1126q178 0 329.5 -78.5t239.5 -215t88 -297t-88 -297t-239.5 -216t-328.5 -79.5t-329 79.5t-240 216t-88 296.5v530q0 193 91.5 355.5t247 258t339.5 95.5q150 0 289 -70t230.5 -196t91.5 -275h-187q0 98 -65.5 181t-162.5 127t-196 44q-205 0 -349 -152.5 t-144 -367.5v-166q246 227 471 227zM797.5 131q195.5 0 333 119t137.5 285.5t-137.5 285.5t-333 119t-333.5 -119t-138 -285.5t138 -285.5t333.5 -119z" glyph-name="six" horiz-adv-x="1583" unicode="6"/><glyph d="M989 1522h-885v184h1137v-197q-248 -240 -457 -503q-481 -608 -481 -1006h-186q0 158 64.5 342t156.5 343t220 330t227.5 284.5t203.5 222.5z" glyph-name="seven" horiz-adv-x="1300" unicode="7"/><glyph d="M1098 866q145 -74 242.5 -185.5t97.5 -234.5q0 -135 -88 -251.5t-240 -184t-329 -67.5t-328.5 67.5t-239.5 184t-88 251.5q0 123 97 235t243 185q-123 78 -205 183.5t-82 220.5q0 207 177 355.5t426 148.5t426 -148.5t177 -355.5q0 -115 -81.5 -220.5t-204.5 -183.5z M362 1269q0 -132 123 -224.5t296 -92.5t296 92.5t123 224.5t-123 225t-296 93t-296 -93t-123 -225zM781.5 129q191.5 0 330.5 94t139 223t-139 223.5t-330.5 94.5t-332 -94.5t-140.5 -223.5t140.5 -223t332 -94z" glyph-name="eight" horiz-adv-x="1562" unicode="8"/><glyph d="M785.5 1774q177.5 0 329 -80t239.5 -216.5t88 -295.5v-531q0 -193 -91 -355.5t-247 -257.5t-340 -95q-150 0 -289 68.5t-230 195.5t-91 276h186q0 -98 65.5 -181t162 -127t196.5 -44q203 0 347 152.5t144 367.5v166q-244 -227 -471 -227q-176 0 -327.5 79t-239.5 215 t-88 296.5t88 297t239.5 216.5t329 80zM785.5 776q195.5 0 332.5 119t137 286t-137 285.5t-332.5 118.5t-334 -118.5t-138.5 -285.5t138.5 -286t334 -119z" glyph-name="nine" horiz-adv-x="1583" unicode="9"/><glyph d="M297 0h-221v186h221v-186zM297 1032h-221v185h221v-185z" glyph-name="colon" horiz-adv-x="372" unicode=":"/><glyph d="M90 2v176h186v-176q0 -115 -81.5 -196.5t-196.5 -81.5v186q39 0 65.5 26.5t26.5 65.5zM293 1032h-219v185h219v-185z" glyph-name="semicolon" horiz-adv-x="368" unicode=";"/><glyph d="M823 1241v-213l-717 -407l717 -408v-213l-719 410v421z" glyph-name="less" horiz-adv-x="927" unicode="&lt;"/><glyph d="M1296 793h-1220v186h1220v-186zM1296 242h-1220v184h1220v-184z" glyph-name="equal" horiz-adv-x="1372" unicode="="/><glyph d="M104 1241l719 -410v-421l-719 -410v213l717 408l-717 407v213z" glyph-name="greater" horiz-adv-x="927" unicode=">"/><glyph d="M840 0h-219v186h219v-186zM729 1772q178 0 329.5 -77t239.5 -209t88 -288q0 -217 -161.5 -378t-401.5 -191v-219h-186v399h92q197 0 334 113.5t137 274.5t-137 275.5t-334 114.5q-201 0 -336 -104.5t-135 -259.5h-184q0 236 187 392.5t468 156.5z" glyph-name="question" horiz-adv-x="1486" unicode="?"/><glyph d="M2462 643q4 -147 -44 -284.5t-139 -229.5q-147 -154 -360 -154h-10q-113 0 -191 79t-78 192v149q-29 -209 -135 -335t-286 -126q-221 0 -379 176.5t-158 425t157.5 425t379.5 176.5q180 0 286.5 -126t134.5 -333v418h185v-850q0 -35 24.5 -59.5t59.5 -24.5h10 q133 0 227 96q63 66 98 168t33 211q-8 236 -156.5 437.5t-351.5 309.5l-8 7q-217 113 -465 112q-203 0 -386 -76.5t-316 -208t-212 -311.5t-79 -377.5t79 -378t212 -310.5t316.5 -207.5t385.5 -77.5v-185q-240 0 -457.5 92.5t-375.5 247t-251 369.5t-93 450.5t93 449.5 t251 369.5t376 248t457 92.5q293 0 551 -136l11 -6q262 -141 429 -391t175 -514zM1241 133q141 0 241.5 118t100.5 284.5t-100.5 284.5t-241.5 118t-241.5 -118t-100.5 -284.5t100.5 -284.5t241.5 -118z" glyph-name="at" horiz-adv-x="2578" unicode="@"/><glyph d="M1171 551h-759l-181 -551h-204l561 1708h405l563 -1708h-204zM791 1704l-318 -967h637z" glyph-name="A" horiz-adv-x="1585" unicode="A"/><glyph d="M1208 0h-1044v1712h987q188 0 322.5 -148.5t134.5 -357.5q0 -109 -61.5 -205t-160.5 -159q100 -72 161 -177.5t61 -222.5q0 -182 -118 -312t-282 -130zM1151 764h-803v-580h860q88 0 150.5 76t62.5 182q0 133 -79.5 227.5t-190.5 94.5zM1151 1528h-803v-580h860 q88 0 150.5 76t62.5 182q0 133 -79.5 227.5t-190.5 94.5z" glyph-name="B" horiz-adv-x="1724" unicode="B"/><glyph d="M885 -57q-215 0 -398.5 122.5t-290 333.5t-106.5 459t106.5 459t290 334t398.5 123q258 0 466 -173.5t287 -453.5l-176 -51q-63 221 -223 357t-354 136q-166 0 -306.5 -98t-222.5 -266t-82 -367t82 -366.5t222.5 -265t306.5 -97.5q172 0 317.5 105.5t222.5 289.5l170 -73 q-100 -236 -291.5 -372t-418.5 -136z" glyph-name="C" horiz-adv-x="1705" unicode="C"/><glyph d="M1753 797q0 -217 -106.5 -400.5t-289.5 -290t-399 -106.5h-794v1708h794q215 0 398.5 -106.5t290 -290t106.5 -398.5v-116zM348 1522v-1336h610q252 0 431.5 179.5t179.5 431.5v116q0 252 -179.5 430.5t-431.5 178.5h-610z" glyph-name="D" horiz-adv-x="1847" unicode="D"/><glyph d="M1421 186v-186h-1257v1708h1257v-186h-1073v-576h860v-184h-860v-576h1073z" glyph-name="E" horiz-adv-x="1486" unicode="E"/><glyph d="M348 762v-762h-184v1708h1257v-186h-1073v-576h860v-184h-860z" glyph-name="F" unicode="F"/><glyph d="M1315 1384q-178 201 -426 201q-166 0 -307.5 -97t-224.5 -265t-83 -364.5t83 -364.5t224.5 -265.5t307.5 -97.5q188 0 344 126t225 331h-215v184h447v-770h-187v412q-90 -221 -244.5 -346t-369.5 -125t-399.5 122.5t-292 333.5t-107.5 459t107.5 459t292 334t399.5 123 q160 0 305 -69t258 -196q109 -123 170 -280h-205q-43 85 -102 155z" glyph-name="G" horiz-adv-x="1798" unicode="G"/><glyph d="M348 760v-760h-184v1708h184v-762h981v762h187v-1708h-187v760h-981z" glyph-name="H" horiz-adv-x="1679" unicode="H"/><glyph d="M348 0h-184v1708h184v-1708z" glyph-name="I" horiz-adv-x="514" unicode="I"/><glyph d="M758 1708h186v-1307q0 -190 -134 -324t-324.5 -134t-324.5 134t-134 324h184q0 -113 81 -193.5t193.5 -80.5t192.5 81t80 193v1307z" glyph-name="J" horiz-adv-x="1097" unicode="J"/><glyph d="M694 938l-346 -270v-668h-184v1708h184v-805l1028 805h301l-837 -657l823 -1051h-236z" glyph-name="K" horiz-adv-x="1693" unicode="K"/><glyph d="M1120 184v-184h-956v1708h184v-1524h772z" glyph-name="L" horiz-adv-x="1136" unicode="L"/><glyph d="M348 0h-184v1708h379l544 -1704l545 1704h379v-1708h-186v1704l-545 -1704h-190h-195l-547 1706v-1706z" glyph-name="M" horiz-adv-x="2174" unicode="M"/><glyph d="M1501 1708v-1708h-379l-774 1698v-1696h-184v1706h375l776 -1706v1706h186z" glyph-name="N" horiz-adv-x="1665" unicode="N"/><glyph d="M1702 858q0 -248 -107.5 -459t-294 -333.5t-404.5 -122.5t-403.5 122.5t-294 333.5t-108.5 459t108.5 459t294 334t403.5 123t404.5 -123t294 -334t107.5 -459zM274 858q0 -199 84 -366.5t226.5 -265t311.5 -97.5t312.5 97.5t226.5 265t83 366.5t-83 367t-226.5 266 t-312.5 98t-311.5 -98t-226.5 -266t-84 -367z" glyph-name="O" horiz-adv-x="1794" unicode="O"/><glyph d="M1137 1712q197 0 336 -139t139 -335t-139.5 -335t-335.5 -139h-789v-764h-184v1712h184h789zM1137 948q119 0 203.5 85t84.5 205t-85 204t-203 84h-789v-578h789z" glyph-name="P" horiz-adv-x="1667" unicode="P"/><glyph d="M1706 854q0 -193 -67.5 -365t-186.5 -299l287 -284l-131 -131l-295 295q-193 -129 -416 -129q-219 0 -404.5 121.5t-294 332.5t-108.5 458t108.5 458t294 332.5t404.5 121.5t405.5 -121.5t295 -332.5t108.5 -457zM897 125q150 0 281 78l-160 162l131 131l174 -174 q92 102 144.5 239t52.5 293q0 197 -83 364.5t-226.5 265t-312.5 97.5t-312.5 -97.5t-227.5 -265t-84 -365.5t84 -366t227.5 -265t311.5 -97z" glyph-name="Q" horiz-adv-x="1804" unicode="Q"/><glyph d="M1137 760h-37l514 -760h-225l-512 760h-529v-760h-184v1708h184h789q197 0 336 -139t139 -335t-139 -335t-336 -139zM348 1522v-578h789q119 0 203.5 85t84.5 205t-85 204t-203 84h-789z" glyph-name="R" horiz-adv-x="1693" unicode="R"/><glyph d="M807 1589q-213 0 -368.5 -95t-155.5 -224q0 -115 125 -203q37 -27 107.5 -46.5t123.5 -27.5t156 -18q90 -10 138 -17.5t136 -26t139.5 -40t118 -61t102 -90t62.5 -126t27 -168.5q0 -139 -94.5 -254.5t-257 -182t-358.5 -66.5t-358.5 66.5t-257 182t-94.5 254.5h185 q0 -129 155.5 -223t368.5 -94t368.5 94t155.5 223q0 66 -15.5 114t-52 83t-78.5 58.5t-114 41t-135.5 26.5t-161.5 22q-121 14 -184.5 23t-149.5 36t-141 65q-201 145 -201 355q0 139 94.5 254.5t257 182.5t358.5 67t358.5 -67t257 -182.5t94.5 -254.5h-187 q0 129 -155.5 224t-368.5 95z" glyph-name="S" horiz-adv-x="1619" unicode="S"/><glyph d="M14 1516v184h1512v-184h-664v-1516h-184v1516h-664z" glyph-name="T" horiz-adv-x="1542" unicode="T"/><glyph d="M1399 641v1067h184v-1067q0 -188 -96 -350t-263 -255t-362.5 -93t-362.5 93t-263.5 255t-96.5 350v1067h185v-1067q0 -211 157.5 -362.5t379.5 -151.5t380 151.5t158 362.5z" glyph-name="U" horiz-adv-x="1724" unicode="U"/><glyph d="M791 4l563 1704h205l-564 -1708h-407l-561 1708h204z" glyph-name="V" horiz-adv-x="1585" unicode="V"/><glyph d="M2882 1708h204l-563 -1708h-407l-560 1704l-563 -1704h-405l-561 1708h204l560 -1704l563 1704h405l559 -1704z" glyph-name="W" horiz-adv-x="3112" unicode="W"/><glyph d="M1718 1708l-749 -854l749 -854h-243l-605 711l-604 -711h-243l749 854l-749 854h243l604 -711l605 711h243z" glyph-name="X" horiz-adv-x="1740" unicode="X"/><glyph d="M1362 1708h244l-711 -834v-874h-184v874l-711 834h244l559 -657z" glyph-name="Y" horiz-adv-x="1605" unicode="Y"/><glyph d="M57 1524v184h1600v-219l-1370 -1305h1370v-184h-1600v219l1368 1305h-1368z" glyph-name="Z" horiz-adv-x="1714" unicode="Z"/><glyph d="M543 1737h-195v-1825h195v-186h-379v2195h379v-184z" glyph-name="bracketleft" horiz-adv-x="512" unicode="["/><glyph d="M254 1706l1225 -1706h-228l-1224 1706h227z" glyph-name="backslash" horiz-adv-x="1509" unicode="\"/><glyph d="M350 1921v-2195h-379v186h193v1825h-193v184h379z" glyph-name="bracketright" horiz-adv-x="514" unicode="]"/><glyph d="M920 -205h-756v187h756v-187z" glyph-name="underscore" horiz-adv-x="1083" unicode="_"/><glyph d="M670 1288q223 0 380.5 -158.5t157.5 -381.5v-746h-184v150q-102 -209 -381 -209q-227 0 -390 131t-163 316t163 317.5t390 132.5q279 0 381 -209v117q0 147 -104.5 250.5t-249.5 103.5q-135 0 -232.5 -53.5t-122.5 -126.5l-174 63q47 133 196 218t333 85zM1024 381v20 q-6 104 -114.5 177t-258.5 73q-156 0 -265.5 -75.5t-109.5 -184t110 -185.5t265 -77q150 0 258.5 74t114.5 178z" glyph-name="a" horiz-adv-x="1339" unicode="a"/><glyph d="M741 1286q160 0 296.5 -90t216 -244.5t79.5 -337t-79.5 -337t-216 -244.5t-296.5 -90q-145 0 -248.5 76.5t-160.5 211.5v-229h-185v1712h185v-715q57 135 160.5 211t248.5 76zM741 131q168 0 287 142.5t119 342t-119 342t-287 142.5t-287.5 -142.5t-119.5 -342 t119.5 -342t287.5 -142.5z" glyph-name="b" horiz-adv-x="1425" unicode="b"/><glyph d="M1049 428l174 -59q-66 -195 -214.5 -310.5t-328.5 -115.5q-160 0 -294 90t-213 245.5t-79 338t79 338t213 245.5t294 90q178 0 325.5 -113.5t215.5 -302.5l-174 -63q-49 133 -148.5 213t-218.5 80q-166 0 -283.5 -142.5t-117.5 -345t117.5 -345t283.5 -142.5 q121 0 221.5 82t147.5 217z" glyph-name="c" horiz-adv-x="1302" unicode="c"/><glyph d="M1288 289q0 -41 30 -71t73 -30v-186q-111 0 -193 75t-94 185q-53 -150 -159.5 -234.5t-260.5 -84.5q-160 0 -297 90t-216 244.5t-79 337t79 337t216 244.5t297 90q154 0 259.5 -84t160.5 -231v739h184v-1421zM684 131q168 0 288 141.5t120 342t-120 342t-288 141.5 t-288 -141.5t-120 -342t120 -342t288 -141.5z" glyph-name="d" horiz-adv-x="1476" unicode="d"/><glyph d="M1075 315h221q-88 -170 -255 -271t-363 -101q-160 0 -294 90t-213 243.5t-79 336t79 337t213 243.5t293 89t294 -89t213 -243.5t78 -337.5v-92h-977q27 -168 137 -279.5t256 -111.5q117 0 221 49t176 137zM676.5 1098q-144.5 0 -255 -112t-136.5 -281h784 q-27 170 -137.5 281.5t-255 111.5z" glyph-name="e" horiz-adv-x="1378" unicode="e"/><glyph d="M510 1522q-43 0 -72.5 -30t-29.5 -73v-198h372v-187h-372v-1034h-185v1034h-162v187h162v198q0 119 84 204t203 85h270v-186h-270z" glyph-name="f" horiz-adv-x="817" unicode="f"/><glyph d="M1092 997v226h186v-1196q0 -236 -168 -404t-403 -168q-164 0 -310.5 62.5t-253.5 175.5l138 127q78 -86 189.5 -132t236.5 -46q160 0 272.5 112.5t112.5 272.5v204q-57 -137 -160 -212.5t-248 -75.5q-160 0 -297 90t-216 244.5t-79 337t79 337t216 244.5t297 90 q145 0 248 -77t160 -212zM684 131q168 0 288 141.5t120 342t-120 342t-288 141.5t-288 -141.5t-120 -342t120 -342t288 -141.5z" glyph-name="g" horiz-adv-x="1425" unicode="g"/><glyph d="M741 1284q160 0 296.5 -90t216 -244.5t79.5 -337.5v-612h-186v612q0 199 -119 341.5t-287 142.5t-287.5 -141.5t-119.5 -342.5h-2v-612h-185v1708h185v-713q57 135 160.5 212t248.5 77z" glyph-name="h" horiz-adv-x="1454" unicode="h"/><glyph d="M332 0h-187v1221h187v-1221zM352 1411h-221v186h221v-186z" glyph-name="i" horiz-adv-x="479" unicode="i"/><glyph d="M147 -135v1386h187v-1386q0 -158 -111.5 -269.5t-269.5 -111.5h-150v186h150q82 0 138 57.5t56 137.5zM352 1434h-221v186h221v-186z" glyph-name="j" horiz-adv-x="481" unicode="j"/><glyph d="M721 807l631 -805h-236l-528 700l-256 -200v-502h-185v1708h185v-971l618 486h301z" glyph-name="k" horiz-adv-x="1378" unicode="k"/><glyph d="M324 287q0 -43 30.5 -73t71.5 -30v-184q-119 0 -203 84t-84 203v1419h185v-1419z" glyph-name="l" horiz-adv-x="512" unicode="l"/><glyph d="M2331 612v-612h-185v612q0 201 -119.5 342.5t-287.5 141.5q-164 0 -283 -137.5t-123 -331.5v-7v-8v-612h-186v612q0 201 -119 342.5t-287 141.5t-287.5 -141.5t-119.5 -342.5h-2v-612h-185v1219h185v-224q57 135 160.5 212t248.5 77q164 0 302.5 -95t216.5 -253 q66 160 190.5 254t288.5 94q160 0 297 -90t216 -245t79 -337z" glyph-name="m" horiz-adv-x="2453" unicode="m"/><glyph d="M1333 612v-612h-186v612q0 201 -119 342.5t-287 141.5t-287.5 -141.5t-119.5 -342.5h-2v-612h-185v1219h185v-224q57 137 160.5 213t248.5 76q160 0 296.5 -90t216 -245t79.5 -337z" glyph-name="n" horiz-adv-x="1454" unicode="n"/><glyph d="M677 1282q159 0 294 -90t213 -243.5t78 -336t-78 -336t-213 -243.5t-294 -90t-293 90t-213 243.5t-79 336t79 336t213 243.5t293 90zM677 127q165 0 282.5 142.5t117.5 343t-117.5 343t-282.5 142.5t-283 -142.5t-118 -343t118 -343t283 -142.5z" glyph-name="o" horiz-adv-x="1355" unicode="o"/><glyph d="M739 1282q162 0 298.5 -90t215 -244.5t78.5 -336t-78.5 -336t-215 -244.5t-298.5 -90q-145 0 -246.5 75.5t-160.5 208.5v-714h-185v1708h185v-222q59 133 160.5 209t246.5 76zM739 127q168 0 288 142.5t120 342t-120 342t-288 142.5t-286.5 -142.5t-118.5 -342 t118.5 -342t286.5 -142.5z" glyph-name="p" horiz-adv-x="1425" unicode="p"/><glyph d="M1094 1217h184v-1706h-184v716q-57 -137 -161 -213.5t-249 -76.5q-160 0 -297 90t-216 244.5t-79 337t79 337t216 244.5t297 90q145 0 248.5 -77t161.5 -212v226zM684 125q168 0 288 141.5t120 342t-120 342t-288 141.5t-288 -141.5t-120 -342t120 -342t288 -141.5z" glyph-name="q" horiz-adv-x="1427" unicode="q"/><glyph d="M719 1282q33 0 69 -6v-189q-37 6 -69 7q-133 0 -239.5 -92.5t-147.5 -239.5v-762h-185v1219h185v-328q70 391 387 391z" glyph-name="r" horiz-adv-x="819" unicode="r"/><glyph d="M618 721q47 -6 74 -9t77 -11.5t81 -17.5t75 -26.5t71.5 -37t59 -49t50 -64.5t30 -81t11.5 -101q0 -160 -151.5 -270.5t-372 -110.5t-372 110.5t-151.5 270.5h185q0 -74 98 -135.5t241.5 -61.5t241 61.5t97.5 135.5q0 109 -79 149.5t-288 63.5q-86 10 -132 17t-108.5 26.5 t-103.5 50.5q-152 109 -152 270q0 160 151.5 270.5t372 110.5t372 -110.5t151.5 -270.5h-184q0 74 -97.5 135.5t-241 61.5t-241.5 -61.5t-98 -135.5q0 -66 75 -121q49 -34 258 -59z" glyph-name="s" horiz-adv-x="1251" unicode="s"/><glyph d="M776 1032h-373v-745q0 -41 30 -71t73 -30h270v-186h-270q-119 0 -203 84t-84 203v745h-162v187h162v489h184v-489h373v-187z" glyph-name="t" horiz-adv-x="845" unicode="t"/><glyph d="M1118 1229h187v-1221h-187v223q-57 -135 -159.5 -211.5t-247.5 -76.5q-160 0 -296 90t-216 244.5t-80 336.5v615h184l2 -615q0 -199 119 -341t287 -142t287.5 142.5t119.5 340.5v615z" glyph-name="u" unicode="u"/><glyph d="M1047 1221h202l-401 -1221h-406l-401 1221h205l399 -1217z" glyph-name="v" horiz-adv-x="1292" unicode="v"/><glyph d="M2253 1221h205l-402 -1221h-405l-402 1217l-401 -1217h-406l-401 1221h205l399 -1217l402 1217h405l401 -1217z" glyph-name="w" horiz-adv-x="2498" unicode="w"/><glyph d="M776 614l547 -614h-244l-401 471l-402 -471h-243l547 614l-539 607h242l395 -463l395 463h242z" glyph-name="x" horiz-adv-x="1355" unicode="x"/><glyph d="M1038 1217h195l-502 -1563q-29 -92 -105.5 -148.5t-170.5 -56.5h-410v191h410q35 0 62.5 19t37.5 54l92 283h-205l-401 1221h205l401 -1221z" glyph-name="y" horiz-adv-x="1275" unicode="y"/><glyph d="M1317 1036l-946 -850h946v-186h-1243v186l946 850h-946v187h1243v-187z" glyph-name="z" horiz-adv-x="1390" unicode="z"/><glyph d="M397 920l-78 -86v-7.5v-7.5l78 -86v-639q0 -100 56.5 -172t136.5 -72v-184q-156 0 -267.5 125t-111.5 303v570l-29 32q-49 55 -49 130t49 130l29 33v570q0 176 111.5 302t267.5 126v-187q-80 0 -136.5 -70.5t-56.5 -170.5v-639z" glyph-name="braceleft" horiz-adv-x="581" unicode="{"/><glyph d="M348 0h-184v1706h184v-1706z" glyph-name="bar" horiz-adv-x="512" unicode="|"/><glyph d="M397 956q49 -55 49 -129.5t-49 -130.5l-28 -32v-570q0 -178 -112 -303t-267 -125v184q80 0 136 72t56 172v639l78 86v7v8l-78 86v639q0 100 -56 170.5t-136 70.5v187q156 0 267.5 -126t111.5 -302v-570z" glyph-name="braceright" horiz-adv-x="581" unicode="}"/><glyph glyph-name="uni00A0" horiz-adv-x="663" unicode=" "/><glyph d="M340 1006h-221v186h221v-186zM322 -516h-185v1298h185v-1298z" glyph-name="exclamdown" horiz-adv-x="458" unicode="¡"/><glyph d="M709 500l176 -60q-37 -109 -112 -181.5t-173 -98.5v-160h-184v160q-135 37 -223.5 161.5t-88.5 286.5t88.5 286t223.5 161v164h184v-164q96 -25 171 -96.5t112 -176.5l-174 -63q-27 76 -81.5 120t-119.5 44q-90 0 -154.5 -81t-64.5 -194.5t64.5 -193.5t154.5 -80 q66 0 121 45t80 121z" glyph-name="cent" horiz-adv-x="987" unicode="¢"/><glyph d="M752 1520q-66 0 -111 -45t-45 -111v-418h385v-186h-385v-574h788v-186h-1280v186h306v574h-306v186h306v418q0 141 100 241.5t242 100.5h632v-186h-632z" glyph-name="sterling" horiz-adv-x="1474" unicode="£"/><glyph d="M1647 1708l-504 -592h221v-186h-379l-49 -56v-135h428v-184h-428v-555h-184v555h-428v184h428v135l-50 56h-378v186h221l-504 592h244l559 -657l559 657h244z" glyph-name="yen" horiz-adv-x="1687" unicode="¥"/><glyph d="M1190 817q0 -141 -121 -248q121 -104 121 -245q0 -160 -151.5 -270.5t-372 -110.5t-372 110.5t-151.5 270.5h185q0 -74 98 -135.5t241.5 -61.5t241 61.5t97.5 135.5q0 66 -76 120q-49 35 -256 60q-49 6 -76 9t-77 12.5t-79.5 18.5t-74.5 25.5t-73 36t-59.5 49t-49 64.5 t-30 81t-12.5 101q0 135 121 246q-121 106 -121 246q0 162 151.5 272.5t372 110.5t372 -111t151.5 -272h-184q0 74 -97.5 135t-241 61t-241.5 -61.5t-98 -134.5q0 -66 75 -119q49 -37 259 -60q47 -6 73.5 -9t76.5 -12t81 -18.5t75 -25.5t71.5 -35.5t59 -49.5t50 -64.5 t30 -82t11.5 -100.5zM870 662q63 29 99.5 69.5t36.5 85.5q0 109 -79 149t-288 64q-125 14 -184 27q-55 -29 -91 -73t-36 -83q0 -109 78.5 -148.5t287.5 -64.5q119 -14 176 -26z" glyph-name="section" horiz-adv-x="1333" unicode="§"/><glyph d="M1073.5 1772q194.5 0 371.5 -72t305 -195t204 -293t76 -355t-76 -355t-204 -293t-305 -194.5t-371.5 -71.5t-372 71.5t-305.5 194.5t-203.5 293t-75.5 355t75.5 355t203.5 293t305.5 195t372 72zM1073 127q209 0 387 98.5t281.5 266t103.5 365.5t-103.5 366t-281.5 266 t-387 98t-387 -98t-281.5 -266t-103.5 -366t103.5 -365.5t281.5 -266t387 -98.5zM1087 512q84 0 154 57.5t102 153.5l175 -59q-51 -154 -169 -245t-262 -91q-193 0 -327.5 155.5t-134.5 373.5t135 373.5t327 155.5q141 0 258 -89t171 -238l-175 -64q-33 94 -102.5 150.5 t-151.5 56.5q-115 0 -196.5 -101.5t-81.5 -243.5t81.5 -243.5t196.5 -101.5z" glyph-name="copyright" horiz-adv-x="2148" unicode="©"/><glyph d="M444 1319q133 0 228.5 -94.5t95.5 -229.5v-446h-113v90q-61 -127 -227 -127q-137 0 -234.5 79t-97.5 190.5t97.5 190.5t234.5 79q166 0 227 -125v69q0 88 -61.5 150.5t-149.5 62.5q-82 0 -139 -31.5t-74 -76.5l-104 39q29 80 117.5 130t199.5 50zM655 776v10 q-2 63 -67.5 107.5t-155.5 44.5q-92 0 -157.5 -46t-65.5 -110.5t65.5 -110.5t157.5 -46q90 0 155.5 44t67.5 107z" glyph-name="ordfeminine" horiz-adv-x="874" unicode="ª"/><glyph d="M834 1157v-113l-373 -210l373 -211v-111l-375 211v221zM459 1044l-371 -210l371 -211v-111l-373 211v221l373 213v-113z" glyph-name="guillemotleft" horiz-adv-x="919" unicode="«"/><glyph glyph-name="uni00AD" horiz-adv-x="0" unicode="­"/><glyph d="M1073.5 1772q194.5 0 371.5 -72t305 -195t204 -293t76 -355t-76 -355t-204 -293t-305 -194.5t-371.5 -71.5t-372 71.5t-305.5 194.5t-203.5 293t-75.5 355t75.5 355t203.5 293t305.5 195t372 72zM1073 127q209 0 387 98.5t281.5 266t103.5 365.5t-103.5 366t-281.5 266 t-387 98t-387 -98t-281.5 -266t-103.5 -366t103.5 -365.5t281.5 -266t387 -98.5zM1493 1034q0 -102 -67.5 -179t-168.5 -91l216 -318h-185l-211 314h-184v-314h-186v863h512q115 0 194.5 -80t79.5 -195zM1219 946q37 0 63.5 25.5t26.5 62.5t-27 63.5t-63 26.5h-326v-178h326 z" glyph-name="registered" horiz-adv-x="2148" unicode="®"/><glyph d="M342 1872q113 0 192.5 -80t79.5 -192.5t-79.5 -192.5t-192.5 -80t-192.5 80t-79.5 192.5t79.5 192.5t192.5 80zM342 1454q59 0 102 43t43 102.5t-43 102.5t-102 43t-102 -43t-43 -102.5t43 -102.5t102 -43z" glyph-name="degree" horiz-adv-x="686" unicode="°"/><glyph d="M172 981h311v-59h-397v67l166 135q12 8 37 27q76 57 106.5 99t16.5 98q-10 37 -38 60.5t-65 25.5h-8q-66 0 -112 -46.5t-46 -111.5h-59q0 90 63.5 154.5t153.5 64.5h12q55 -4 98.5 -41t57.5 -92q6 -23 7 -44.5t-5 -41t-13 -35.5t-21.5 -33.5t-25 -30t-28.5 -27.5 t-28.5 -23.5t-28.5 -22.5q-25 -18 -35 -27z" glyph-name="uni00B2" horiz-adv-x="567" unicode="²"/><glyph d="M356 1290q66 -18 107 -67t41 -113q0 -78 -62.5 -133t-149.5 -55t-149.5 55t-62.5 133h59q0 -53 45 -91t107.5 -38t107.5 38t45 91q0 55 -46 100t-107 45v56l125 121h-324v59h410v-59z" glyph-name="uni00B3" horiz-adv-x="589" unicode="³"/><glyph d="M1137 1214h186v-612q0 -182 -80 -336.5t-216 -245t-296 -90.5q-145 0 -248.5 77t-160.5 212v-708h-185v1703h185v-612h2q0 -199 119.5 -341t287.5 -142t287 142t119 341v612z" glyph-name="uni00B5" horiz-adv-x="1447" unicode="µ"/><glyph d="M262 1364v-383h127v-59h-313v59h127v383q0 20 -15.5 34.5t-35.5 14.5h-76v60h76q45 0 77.5 -32t32.5 -77z" glyph-name="uni00B9" horiz-adv-x="456" unicode="¹"/><glyph d="M447.5 1315q144.5 0 248 -118t103.5 -283.5t-103.5 -283.5t-248 -118t-248 118t-103.5 283.5t103.5 283.5t248 118zM447.5 623q99.5 0 169 85t69.5 205.5t-69.5 205.5t-169 85t-170 -85t-70.5 -205.5t70.5 -205.5t170 -85z" glyph-name="ordmasculine" horiz-adv-x="894" unicode="º"/><glyph d="M459 944v-221l-373 -211v111l373 211l-373 210v113zM459 1157l375 -213v-221l-375 -211v111l372 211l-372 210v113z" glyph-name="guillemotright" horiz-adv-x="919" unicode="»"/><glyph d="M844 1096h-219v186h219v-186zM1204 59h187q0 -236 -188.5 -392t-469.5 -156q-176 0 -327.5 76.5t-239.5 208.5t-88 288q0 215 161.5 377t401.5 192v219h186v-399h-94q-195 0 -333 -113.5t-138 -274.5t138.5 -275.5t332.5 -114.5q203 0 337 104t134 260z" glyph-name="questiondown" horiz-adv-x="1429" unicode="¿"/><glyph d="M995 1708l564 -1708h-205l-180 551h-760l-181 -551h-204l561 1708h405zM475 737h637l-319 967zM979 1966l-115 -115l-254 254l113 115z" glyph-name="Agrave" horiz-adv-x="1589" unicode="À"/><glyph d="M995 1708l564 -1708h-205l-180 551h-760l-181 -551h-204l561 1708h405zM475 737h637l-319 967zM977 2105l-254 -254l-115 115l254 254z" glyph-name="Aacute" horiz-adv-x="1589" unicode="Á"/><glyph d="M995 1708l564 -1708h-205l-180 551h-760l-181 -551h-204l561 1708h405zM475 737h637l-319 967zM795 2025l-154 -153l-115 115l269 268l266 -268l-115 -115z" glyph-name="Acircumflex" horiz-adv-x="1589" unicode="Â"/><glyph d="M995 1708l564 -1708h-205l-180 551h-760l-181 -551h-204l561 1708h405zM475 737h637l-319 967zM618.5 1986.5q-67.5 -16.5 -102.5 -75.5l-139 84q72 117 204 148.5t248 -38.5q59 -37 127 -20.5t103 76.5l139 -86q-72 -115 -205 -147t-248 38q-59 37 -126.5 20.5z" glyph-name="Atilde" horiz-adv-x="1589" unicode="Ã"/><glyph d="M995 1708l564 -1708h-205l-180 551h-760l-181 -551h-204l561 1708h405zM475 737h637l-319 967zM647 1942h-221v186h221v-186zM1159 1942h-221v186h221v-186z" glyph-name="Adieresis" horiz-adv-x="1589" unicode="Ä"/><glyph d="M995 1708l564 -1708h-205l-180 551h-760l-181 -551h-204l561 1708h405zM475 737h637l-319 967zM794.5 1812q-92.5 0 -158 66t-65.5 158t65.5 157.5t158 65.5t158 -65.5t65.5 -157.5t-65.5 -158t-158 -66zM793.5 2097q-25.5 0 -43 -18.5t-17.5 -44t17.5 -43t43 -17.5 t44 17.5t18.5 43t-18.5 44t-44 18.5z" glyph-name="Aring" horiz-adv-x="1589" unicode="Å"/><glyph d="M1497 184h666l61 -184h-870l-180 551h-760l-181 -551h-204l561 1708h1071l61 -186h-665l190 -576h664l61 -184h-663zM475 737h637l-319 967z" glyph-name="AE" horiz-adv-x="2240" unicode="Æ"/><glyph d="M885 119q172 0 317.5 106.5t222.5 288.5l170 -74q-90 -211 -257 -344t-369 -155v-105q-51 0 -87 -33.5t-36 -80t36 -79t87 -32.5v-164q-119 0 -202 81t-83 196q0 133 111 217q-195 25 -357 151.5t-255 326t-93 431.5q0 248 106.5 459t290 333.5t398.5 122.5 q258 0 466 -173t287 -455l-176 -52q-66 221 -224.5 357.5t-352.5 136.5q-166 0 -306.5 -97.5t-222.5 -266t-82 -366.5t82 -366t222.5 -266t306.5 -98z" glyph-name="Ccedilla" horiz-adv-x="1705" unicode="Ç"/><glyph d="M1024 1958l-115 -115l-254 254l115 115zM1421 1522h-1073v-576h860v-184h-860v-576h1073v-186h-1257v1706h1257v-184z" glyph-name="Egrave" horiz-adv-x="1486" unicode="È"/><glyph d="M1024 2097l-254 -254l-115 115l254 254zM1421 1522h-1073v-576h860v-184h-860v-576h1073v-186h-1257v1706h1257v-184z" glyph-name="Eacute" horiz-adv-x="1486" unicode="É"/><glyph d="M1421 1522h-1073v-576h860v-184h-860v-576h1073v-186h-1257v1706h1257v-184zM840 2019l-154 -153l-115 114l269 269l266 -269l-115 -114z" glyph-name="Ecircumflex" horiz-adv-x="1486" unicode="Ê"/><glyph d="M1421 1522h-1073v-576h860v-184h-860v-576h1073v-186h-1257v1706h1257v-184zM694 1935h-221v187h221v-187zM1206 1935h-221v187h221v-187z" glyph-name="Edieresis" horiz-adv-x="1486" unicode="Ë"/><glyph d="M440 1956l-114 -115l-254 254l114 115zM348 0h-184v1706h184v-1706z" glyph-name="Igrave" horiz-adv-x="514" unicode="Ì"/><glyph d="M440 2095l-254 -254l-114 115l254 254zM350 0h-186v1706h186v-1706z" glyph-name="Iacute" horiz-adv-x="514" unicode="Í"/><glyph d="M256 2247l266 -269l-114 -114l-152 153l-154 -153l-114 114zM348 0h-186v1706h186v-1706z" glyph-name="Icircumflex" horiz-adv-x="512" unicode="Î"/><glyph d="M111 1933h-222v187h222v-187zM623 1933h-222v187h222v-187zM348 0h-184v1706h184v-1706z" glyph-name="Idieresis" horiz-adv-x="512" unicode="Ï"/><glyph d="M1075 1706q215 0 398.5 -106.5t290 -290t106.5 -398.5v-116q0 -215 -106.5 -398.5t-290 -290t-398.5 -106.5h-794v1032h-230v185h230v489h794zM1686 795v116q0 252 -179.5 431.5t-431.5 179.5h-610v-305h229v-185h-229v-846h610q252 0 431.5 178.5t179.5 430.5z" glyph-name="Eth" horiz-adv-x="1964" unicode="Ð"/><glyph d="M1319 1706h186v-1706h-379l-778 1706v-1706h-184v1706h379l776 -1704v1704zM666.5 1975.5q-66.5 -15.5 -103.5 -74.5l-139 81q72 119 205 151t248 -40q59 -35 126.5 -18.5t102.5 73.5l139 -84q-72 -117 -204 -148.5t-248 40.5q-60 35 -126.5 19.5z" glyph-name="Ntilde" horiz-adv-x="1669" unicode="Ñ"/><glyph d="M1079 1960l-114 -113l-254 254l114 115zM896 1774q218 0 404.5 -123t294 -334t107.5 -459t-107.5 -459t-294 -333.5t-404.5 -122.5t-403.5 122.5t-294 333.5t-108.5 459t108.5 459t294 334t403.5 123zM896 127q169 0 312.5 98.5t226.5 266t83 365.5t-83 367t-226.5 266 t-312.5 97t-311.5 -97t-226.5 -266t-84 -367t84 -365.5t226.5 -266t311.5 -98.5z" glyph-name="Ograve" horiz-adv-x="1794" unicode="Ò"/><glyph d="M1081 2099l-254 -254l-114 115l254 254zM896 1774q218 0 404.5 -123t294 -334t107.5 -459t-107.5 -459t-294 -333.5t-404.5 -122.5t-403.5 122.5t-294 333.5t-108.5 459t108.5 459t294 334t403.5 123zM896 127q169 0 312.5 98.5t226.5 266t83 365.5t-83 367t-226.5 266 t-312.5 97t-311.5 -97t-226.5 -266t-84 -367t84 -365.5t226.5 -266t311.5 -98.5z" glyph-name="Oacute" horiz-adv-x="1794" unicode="Ó"/><glyph d="M896 1774q218 0 404.5 -123t294 -334t107.5 -459t-107.5 -459t-294 -333.5t-404.5 -122.5t-403.5 122.5t-294 333.5t-108.5 459t108.5 459t294 334t403.5 123zM896 129q169 0 312.5 97.5t226.5 265t83 366.5t-83 367t-226.5 265t-312.5 97t-311.5 -97t-226.5 -265 t-84 -367t84 -366.5t226.5 -265t311.5 -97.5zM897 2021l-154 -153l-114 114l268 269l266 -269l-114 -114z" glyph-name="Ocircumflex" horiz-adv-x="1794" unicode="Ô"/><glyph d="M896 1774q218 0 404.5 -123t294 -334t107.5 -459t-107.5 -459t-294 -333.5t-404.5 -122.5t-403.5 122.5t-294 333.5t-108.5 459t108.5 459t294 334t403.5 123zM896 129q169 0 312.5 97.5t226.5 265t83 366.5t-83 367t-226.5 265t-312.5 97t-311.5 -97t-226.5 -265 t-84 -367t84 -366.5t226.5 -265t311.5 -97.5zM854 1962q-59 37 -125.5 20.5t-103.5 -75.5l-140 84q72 117 205 148.5t250 -38.5q57 -37 125 -20.5t104 76.5l138 -86q-72 -115 -204 -148t-249 39z" glyph-name="Otilde" horiz-adv-x="1794" unicode="Õ"/><glyph d="M896 1774q218 0 404.5 -123t294 -334t107.5 -459t-107.5 -459t-294 -333.5t-404.5 -122.5t-403.5 122.5t-294 333.5t-108.5 459t108.5 459t294 334t403.5 123zM896 129q169 0 312.5 97.5t226.5 265t83 366.5t-83 367t-226.5 265t-312.5 97t-311.5 -97t-226.5 -265 t-84 -367t84 -366.5t226.5 -265t311.5 -97.5zM752 1937h-222v187h222v-187zM1262 1937h-220v187h220v-187z" glyph-name="Odieresis" horiz-adv-x="1794" unicode="Ö"/><glyph d="M721 496l364 -365l-131 -131l-364 365l-367 -365l-131 131l367 365l-367 366l131 131l367 -366l364 366l131 -131z" glyph-name="multiply" horiz-adv-x="1179" unicode="×"/><glyph d="M1479 1499q111 -125 171 -291t60 -350q0 -248 -107.5 -459t-294 -333.5t-403.5 -122.5q-238 0 -438 147l-59 -86h-230l152 213q-109 125 -170.5 291t-61.5 350q0 248 108.5 459t294 334t404.5 123q238 0 436 -148l62 86h227zM442 371l791 1106q-150 111 -328 110 q-170 0 -312 -97t-226 -265t-84 -367q-1 -278 159 -487zM905 129q168 0 311.5 97.5t226.5 265t83 366.5q0 279 -158 488l-793 -1106q152 -111 330 -111z" glyph-name="Oslash" horiz-adv-x="1808" unicode="Ø"/><glyph d="M1399 641v1067h184v-1067q0 -188 -96 -349t-263 -255t-362.5 -94t-362.5 94t-263.5 255t-96.5 349v1067h185v-1067q0 -211 157.5 -362.5t379.5 -151.5t380 151.5t158 362.5zM1047 1958l-115 -115l-254 254l113 115z" glyph-name="Ugrave" horiz-adv-x="1724" unicode="Ù"/><glyph d="M1399 1710h184v-1067q0 -190 -96 -351t-263 -255t-362.5 -94t-362.5 94t-263.5 255t-96.5 351v1067h185v-1067q0 -213 157.5 -363.5t379.5 -150.5t380 150.5t158 363.5v1067zM1044 2099l-253 -254l-115 115l254 254z" glyph-name="Uacute" horiz-adv-x="1724" unicode="Ú"/><glyph d="M1399 1710h184v-1067q0 -190 -96 -351t-263 -255t-362.5 -94t-362.5 94t-263.5 255t-96.5 351v1067h185v-1067q0 -213 157.5 -363.5t379.5 -150.5t380 150.5t158 363.5v1067zM862 2019l-153 -153l-115 114l268 269l266 -269l-114 -114z" glyph-name="Ucircumflex" horiz-adv-x="1724" unicode="Û"/><glyph d="M1399 1710h184v-1067q0 -190 -96 -351t-263 -255t-362.5 -94t-362.5 94t-263.5 255t-96.5 351v1067h185v-1067q0 -213 157.5 -363.5t379.5 -150.5t380 150.5t158 363.5v1067zM709 1935h-222v187h222v-187zM1219 1935h-222v187h222v-187z" glyph-name="Udieresis" horiz-adv-x="1724" unicode="Ü"/><glyph d="M1362 1708h244l-711 -834v-874h-184v874l-711 834h244l559 -657zM987 2097l-254 -254l-115 115l254 254z" glyph-name="Yacute" horiz-adv-x="1605" unicode="Ý"/><glyph d="M952 1174q182 -70 291 -218.5t109 -359.5q0 -176 -79 -327.5t-214 -239.5t-293 -88h-279v186h279q166 0 282.5 137t116.5 332q0 188 -125 307t-297 119v39v162l250 303h-471q-78 0 -134 -55.5t-56 -135.5v-1335h-185v1335q0 156 110 265.5t265 109.5h676v-242z" glyph-name="germandbls" horiz-adv-x="1441" unicode="ß"/><glyph d="M836 1458l-115 -115l-254 254l115 115zM670 1288q223 0 380.5 -157.5t157.5 -380.5v-746h-184v148q-102 -209 -381 -209q-227 0 -390 132t-163 317.5t163 316.5t390 131q279 0 381 -209v119q0 145 -104.5 248.5t-249.5 103.5q-135 0 -232.5 -53.5t-122.5 -124.5l-174 63 q47 133 196 217t333 84zM1024 381v20q-6 104 -114.5 178t-258.5 74q-156 0 -265.5 -76.5t-109.5 -185t110 -185.5t265 -77q150 0 258.5 74t114.5 178z" glyph-name="agrave" horiz-adv-x="1339" unicode="à"/><glyph d="M836 1597l-254 -254l-115 115l254 254zM670 1288q223 0 380.5 -157.5t157.5 -380.5v-746h-184v148q-102 -209 -381 -209q-227 0 -390 132t-163 317.5t163 316.5t390 131q279 0 381 -209v119q0 145 -104.5 248.5t-249.5 103.5q-135 0 -232.5 -53.5t-122.5 -124.5l-174 63 q47 133 196 217t333 84zM1024 381v20q-6 104 -114.5 178t-258.5 74q-156 0 -265.5 -76.5t-109.5 -185t110 -185.5t265 -77q150 0 258.5 74t114.5 178z" glyph-name="aacute" horiz-adv-x="1339" unicode="á"/><glyph d="M651 1481l-153 -154l-115 115l268 268l267 -268l-115 -115zM670 1288q223 0 380.5 -157.5t157.5 -380.5v-746h-184v148q-102 -209 -381 -209q-227 0 -390 132t-163 317.5t163 316.5t390 131q279 0 381 -209v119q0 145 -104.5 248.5t-249.5 103.5q-135 0 -232.5 -53.5 t-122.5 -124.5l-174 63q47 133 196 217t333 84zM1024 381v20q-6 104 -114.5 178t-258.5 74q-156 0 -265.5 -76.5t-109.5 -185t110 -185.5t265 -77q150 0 258.5 74t114.5 178z" glyph-name="acircumflex" horiz-adv-x="1339" unicode="â"/><glyph d="M482.5 1542.5q-66.5 -16.5 -103.5 -76.5l-139 84q72 117 205 150t247 -39q59 -37 127 -20.5t105 75.5l137 -84q-72 -117 -204 -148.5t-249 38.5q-59 37 -125.5 20.5zM670 1288q223 0 380.5 -157.5t157.5 -380.5v-746h-184v148q-102 -209 -381 -209q-227 0 -390 132 t-163 317.5t163 316.5t390 131q279 0 381 -209v119q0 145 -104.5 248.5t-249.5 103.5q-135 0 -232.5 -53.5t-122.5 -124.5l-174 63q47 133 196 217t333 84zM1024 381v20q-6 104 -114.5 178t-258.5 74q-156 0 -265.5 -76.5t-109.5 -185t110 -185.5t265 -77q150 0 258.5 74 t114.5 178z" glyph-name="atilde" horiz-adv-x="1339" unicode="ã"/><glyph d="M506 1405h-221v184h221v-184zM1016 1405h-219v184h219v-184zM670 1288q223 0 380.5 -157.5t157.5 -380.5v-746h-184v148q-102 -209 -381 -209q-227 0 -390 132t-163 317.5t163 316.5t390 131q279 0 381 -209v119q0 145 -104.5 248.5t-249.5 103.5q-135 0 -232.5 -53.5 t-122.5 -124.5l-174 63q47 133 196 217t333 84zM1024 381v20q-6 104 -114.5 178t-258.5 74q-156 0 -265.5 -76.5t-109.5 -185t110 -185.5t265 -77q150 0 258.5 74t114.5 178z" glyph-name="adieresis" horiz-adv-x="1339" unicode="ä"/><glyph d="M649 1323q-92 0 -157.5 65.5t-65.5 157.5t65.5 157.5t157.5 65.5t157.5 -65.5t65.5 -157.5t-65.5 -157.5t-157.5 -65.5zM649.5 1608q-24.5 0 -43 -17.5t-18.5 -43t18.5 -44t43 -18.5t43 18.5t18.5 44t-18.5 43t-43 17.5zM670 1288q223 0 380.5 -157.5t157.5 -380.5v-746 h-184v148q-102 -209 -381 -209q-227 0 -390 132t-163 317.5t163 316.5t390 131q279 0 381 -209v119q0 145 -104.5 248.5t-249.5 103.5q-135 0 -232.5 -53.5t-122.5 -124.5l-174 63q47 133 196 217t333 84zM1024 381v20q-6 104 -114.5 178t-258.5 74q-156 0 -265.5 -76.5 t-109.5 -185t110 -185.5t265 -77q150 0 258.5 74t114.5 178z" glyph-name="aring" horiz-adv-x="1339" unicode="å"/><glyph d="M1608 131q119 0 223 50t176 138h219q-86 -170 -254 -271t-364 -101q-176 0 -321.5 110.5t-213.5 290.5q-12 -182 -118.5 -293.5t-311.5 -111.5q-227 0 -390 132t-163 317.5t163 316.5t390 131q279 0 381 -209v119q0 145 -104.5 248.5t-249.5 103.5q-135 0 -232.5 -53.5 t-122.5 -124.5l-174 63q47 133 195.5 217t333.5 84q147 0 272 -74.5t197 -199.5q82 127 204.5 199.5t264.5 72.5q160 0 294 -90t212.5 -243.5t78.5 -336.5v-92h-976q27 -170 137.5 -281.5t253.5 -111.5zM1608.5 1102q-144.5 0 -255 -111.5t-136.5 -281.5h784 q-27 170 -137.5 281.5t-255 111.5zM650.5 129q154.5 0 264 77t109.5 185.5t-109.5 185t-264 76.5t-264.5 -76.5t-110 -185t110 -185.5t264.5 -77z" glyph-name="ae" horiz-adv-x="2310" unicode="æ"/><glyph d="M680 131q121 0 221 82t148 217l174 -59q-57 -170 -181 -282t-280 -136v-105q-49 0 -85 -32.5t-36 -79.5t36 -80t85 -33v-162q-117 0 -200 81t-83 194q0 135 111 217q-211 39 -353.5 227.5t-142.5 437.5q0 182 79 338t213 246t294 90q178 0 325.5 -113.5t215.5 -301.5 l-174 -64q-49 133 -148.5 213t-218.5 80q-166 0 -283.5 -142.5t-117.5 -344t117.5 -345t283.5 -143.5z" glyph-name="ccedilla" horiz-adv-x="1302" unicode="ç"/><glyph d="M862 1456l-114 -115l-254 254l114 115zM1075 315h221q-88 -168 -255 -270t-363 -102q-160 0 -294 90t-213 244.5t-79 336t79 336t213 244.5t293 90t294 -90t213 -244.5t78 -335.5v-94h-977q27 -168 137 -279.5t256 -111.5q117 0 221 50t176 136zM676.5 1098 q-144.5 0 -255 -112t-136.5 -279h784q-27 168 -137.5 279.5t-255 111.5z" glyph-name="egrave" horiz-adv-x="1378" unicode="è"/><glyph d="M862 1595l-254 -254l-114 115l254 254zM1075 315h221q-88 -168 -255 -270t-363 -102q-160 0 -294 90t-213 244.5t-79 336t79 336t213 244.5t293 90t294 -90t213 -244.5t78 -335.5v-94h-977q27 -168 137 -279.5t256 -111.5q117 0 221 50t176 136zM676.5 1098 q-144.5 0 -255 -112t-136.5 -279h784q-27 168 -137.5 279.5t-255 111.5z" glyph-name="eacute" horiz-adv-x="1378" unicode="é"/><glyph d="M1075 315h221q-88 -168 -255 -270t-363 -102q-160 0 -294 90t-213 244.5t-79 336t79 336t213 244.5t293 90t294 -90t213 -244.5t78 -335.5v-94h-977q27 -168 137 -279.5t256 -111.5q117 0 221 50t176 136zM676.5 1098q-144.5 0 -255 -112t-136.5 -279h784 q-27 168 -137.5 279.5t-255 111.5zM678 1489l-154 -154l-114 115l268 268l266 -268l-115 -115z" glyph-name="ecircumflex" horiz-adv-x="1378" unicode="ê"/><glyph d="M1075 315h221q-88 -168 -255 -270t-363 -102q-160 0 -294 90t-213 244.5t-79 336t79 336t213 244.5t293 90t294 -90t213 -244.5t78 -335.5v-94h-977q27 -168 137 -279.5t256 -111.5q117 0 221 50t176 136zM676.5 1098q-144.5 0 -255 -112t-136.5 -279h784 q-27 168 -137.5 279.5t-255 111.5zM532 1405h-221v186h221v-186zM1042 1405h-219v186h219v-186z" glyph-name="edieresis" horiz-adv-x="1378" unicode="ë"/><glyph d="M424 1454l-115 -115l-254 256l115 115zM332 0h-185v1221h185v-1221z" glyph-name="igrave" horiz-adv-x="481" unicode="ì"/><glyph d="M424 1595l-254 -254l-115 115l254 254zM332 0h-185v1221h185v-1221z" glyph-name="iacute" horiz-adv-x="481" unicode="í"/><glyph d="M240 1718l266 -268l-115 -115l-151 154l-154 -154l-115 115zM332 0h-187v1221h187v-1221z" glyph-name="icircumflex" horiz-adv-x="479" unicode="î"/><glyph d="M94 1405h-221v186h221v-186zM606 1405h-221v186h221v-186zM332 0h-185v1221h185v-1221z" glyph-name="idieresis" horiz-adv-x="479" unicode="ï"/><glyph d="M1333 612v-612h-186v612q0 201 -119 343.5t-287 142.5t-287.5 -142.5t-119.5 -343.5h-2v-612h-185v1221h185v-224q57 135 160.5 211t248.5 76q160 0 296.5 -90t216 -245t79.5 -337zM719 1520q-59 37 -127 20.5t-105 -76.5l-137 84q70 117 203 150t250 -39 q59 -37 125.5 -20.5t103.5 75.5l137 -84q-70 -117 -202.5 -148.5t-247.5 38.5z" glyph-name="ntilde" unicode="ñ"/><glyph d="M862 1452l-114 -115l-254 254l114 115zM677 1282q159 0 294 -90t213 -244.5t78 -336t-78 -336t-213 -243.5t-294 -89t-293 89t-213 243.5t-79 336t79 336t213 244.5t293 90zM677 127q165 0 282.5 142.5t117.5 343t-117.5 342t-282.5 141.5t-283 -141.5t-118 -342 t118 -343t283 -142.5z" glyph-name="ograve" horiz-adv-x="1355" unicode="ò"/><glyph d="M862 1593l-256 -256l-114 115l256 256zM677 1282q159 0 294 -90t213 -244.5t78 -336t-78 -336t-213 -243.5t-294 -89t-293 89t-213 243.5t-79 336t79 336t213 244.5t293 90zM677 127q165 0 282.5 142.5t117.5 343t-117.5 342t-282.5 141.5t-283 -141.5t-118 -342 t118 -343t283 -142.5z" glyph-name="oacute" horiz-adv-x="1355" unicode="ó"/><glyph d="M677 1282q159 0 294 -90t213 -243.5t78 -336t-78 -336t-213 -243.5t-294 -90t-293 90t-213 243.5t-79 336t79 336t213 243.5t293 90zM677 127q165 0 282.5 142.5t117.5 343t-117.5 343t-282.5 142.5t-283 -142.5t-118 -343t118 -343t283 -142.5zM678 1487l-154 -152 l-114 115l268 266l266 -266l-115 -115z" glyph-name="ocircumflex" horiz-adv-x="1355" unicode="ô"/><glyph d="M677 1282q159 0 294 -90t213 -243.5t78 -336t-78 -336t-213 -243.5t-294 -90t-293 90t-213 243.5t-79 336t79 336t213 243.5t293 90zM677 127q165 0 282.5 142.5t117.5 343t-117.5 343t-282.5 142.5t-283 -142.5t-118 -343t118 -343t283 -142.5zM508.5 1547.5 q-66.5 -15.5 -102.5 -74.5l-140 83q72 117 205 149t248 -40q59 -35 126.5 -18.5t104.5 73.5l137 -84q-72 -117 -203.5 -148.5t-248.5 40.5q-60 35 -126.5 19.5z" glyph-name="otilde" horiz-adv-x="1355" unicode="õ"/><glyph d="M677 1282q159 0 294 -90t213 -243.5t78 -336t-78 -336t-213 -243.5t-294 -90t-293 90t-213 243.5t-79 336t79 336t213 243.5t293 90zM677 127q165 0 282.5 142.5t117.5 343t-117.5 343t-282.5 142.5t-283 -142.5t-118 -343t118 -343t283 -142.5zM532 1405h-221v184h221 v-184zM1042 1405h-219v184h219v-184z" glyph-name="odieresis" horiz-adv-x="1355" unicode="ö"/><glyph d="M1120 1059q150 -190 150 -447q0 -182 -78 -335.5t-213 -243.5t-293 -90q-162 0 -299 94l-25 -35h-227l115 162q-150 193 -150 448q0 182 79 336t213 244t294 90t299 -94l23 33h229zM365 324l512 714q-90 59 -191 60q-166 0 -283.5 -142.5t-117.5 -343.5q0 -159 80 -288z M686 127q164 0 281.5 142.5t117.5 342.5q0 160 -79 289l-512 -715q90 -59 192 -59z" glyph-name="oslash" horiz-adv-x="1372" unicode="ø"/><glyph d="M889 1458l-115 -115l-254 254l115 115zM1118 1227h187v-1221h-187v223q-57 -135 -159.5 -210.5t-247.5 -75.5q-160 0 -296 90t-216 244.5t-80 336.5v613h184l2 -613q0 -201 119 -343t287 -142t287.5 142.5t119.5 342.5v613z" glyph-name="ugrave" unicode="ù"/><glyph d="M889 1599l-254 -256l-115 115l254 254zM1118 1227h187v-1221h-187v223q-57 -135 -159.5 -210.5t-247.5 -75.5q-160 0 -296 90t-216 244.5t-80 336.5v613h184l2 -613q0 -201 119 -343t287 -142t287.5 142.5t119.5 342.5v613z" glyph-name="uacute" unicode="ú"/><glyph d="M711 1491l-152 -152l-115 115l267 266l268 -266l-115 -115zM1118 1227h187v-1221h-187v223q-57 -135 -159.5 -210.5t-247.5 -75.5q-160 0 -296 90t-216 244.5t-80 336.5v613h184l2 -613q0 -201 119 -343t287 -142t287.5 142.5t119.5 342.5v613z" glyph-name="ucircumflex" unicode="û"/><glyph d="M561 1409h-221v184h221v-184zM1071 1409h-219v184h219v-184zM1118 1227h187v-1221h-187v223q-57 -135 -159.5 -210.5t-247.5 -75.5q-160 0 -296 90t-216 244.5t-80 336.5v613h184l2 -613q0 -201 119 -343t287 -142t287.5 142.5t119.5 342.5v613z" glyph-name="udieresis" unicode="ü"/><glyph d="M1038 1219h195l-502 -1563q-29 -90 -105.5 -146.5t-170.5 -56.5h-410v189h410q35 0 62.5 20.5t37.5 52.5l92 285h-205l-401 1219h205l401 -1219zM821 1593l-254 -254l-114 115l254 254z" glyph-name="yacute" horiz-adv-x="1275" unicode="ý"/><glyph d="M1038 1219h195l-502 -1563q-29 -90 -105.5 -146.5t-170.5 -56.5h-410v189h410q35 0 62.5 20.5t37.5 52.5l92 285h-205l-401 1219h205l401 -1219zM492 1405h-222v184h222v-184zM1004 1405h-222v184h222v-184z" glyph-name="ydieresis" horiz-adv-x="1275" unicode="ÿ"/><glyph d="M995 1708l564 -1708h-205l-180 551h-760l-181 -551h-204l561 1708h405zM475 737h637l-319 967zM1077 1948h-567v161h567v-161z" glyph-name="Amacron" horiz-adv-x="1589" unicode="Ā"/><glyph d="M670 1288q223 0 380.5 -157.5t157.5 -380.5v-746h-184v148q-102 -209 -381 -209q-227 0 -390 132t-163 317.5t163 316.5t390 131q279 0 381 -209v119q0 145 -104.5 248.5t-249.5 103.5q-135 0 -232.5 -53.5t-122.5 -124.5l-174 63q47 133 196 217t333 84zM1024 381v20 q-6 104 -114.5 178t-258.5 74q-156 0 -265.5 -76.5t-109.5 -185t110 -185.5t265 -77q150 0 258.5 74t114.5 178zM934 1415h-567v164h567v-164z" glyph-name="amacron" horiz-adv-x="1339" unicode="ā"/><glyph d="M995 1708l564 -1708h-205l-180 551h-760l-181 -551h-204l561 1708h405zM475 735h637l-319 969zM793.5 1847q-117.5 0 -200.5 83t-83 200h162q0 -49 35.5 -85t86 -36t86 36t35.5 85h162q0 -117 -83 -200t-200.5 -83z" glyph-name="Abreve" horiz-adv-x="1589" unicode="Ă"/><glyph d="M670 1288q223 0 380.5 -157.5t157.5 -380.5v-746h-184v148q-102 -209 -381 -209q-227 0 -390 132t-163 317.5t163 316.5t390 131q279 0 381 -209v119q0 145 -104.5 248.5t-249.5 103.5q-135 0 -232.5 -53.5t-122.5 -124.5l-174 63q47 133 196 217t333 84zM1024 381v20 q-6 104 -114.5 178t-258.5 74q-156 0 -265.5 -76.5t-109.5 -185t110 -185.5t265 -77q150 0 258.5 74t114.5 178zM650 1423q-118 0 -200.5 83t-82.5 202h161q0 -51 36 -87t86 -36t86 36t36 87h162q0 -119 -83 -202t-201 -83z" glyph-name="abreve" horiz-adv-x="1339" unicode="ă"/><glyph d="M1556 -170q-49 0 -84.5 -33t-35.5 -78t35.5 -77.5t84.5 -32.5v-162q-117 0 -200.5 80t-83.5 192q0 127 102 209l-203 615h-759l-181 -551h-204l561 1708h405l563 -1708v0v-162zM473 729h637l-319 967z" glyph-name="Aogonek" horiz-adv-x="1585" unicode="Ą"/><glyph d="M670 1280q223 0 380.5 -157.5t157.5 -381.5v-911q-49 0 -85 -33t-36 -78t36 -77.5t85 -32.5v-162q-117 0 -199.5 80t-82.5 192q0 125 98 207v219q-102 -211 -381 -211q-227 0 -390 132.5t-163 317.5t163 317.5t390 132.5q279 0 381 -211v118q0 147 -104.5 251t-249.5 104 q-135 0 -232.5 -54.5t-122.5 -126.5l-174 64q47 133 196 217t333 84zM651 123q150 0 258.5 73.5t114.5 178.5v18q-6 106 -114.5 179t-258.5 73q-156 0 -265.5 -76.5t-109.5 -184.5t109.5 -184.5t265.5 -76.5z" glyph-name="aogonek" horiz-adv-x="1339" unicode="ą"/><glyph d="M885 127q172 0 317.5 106.5t222.5 288.5l170 -73q-100 -233 -291.5 -369.5t-418.5 -136.5q-215 0 -398.5 122.5t-290 333.5t-106.5 459t106.5 459t290 334t398.5 123q258 0 466 -173.5t287 -453.5l-176 -51q-63 221 -223 356t-354 135q-166 0 -306.5 -97t-222.5 -265 t-82 -367t82 -366.5t222.5 -266t306.5 -98.5zM1049 2103l-254 -254l-115 115l254 254z" glyph-name="Cacute" horiz-adv-x="1705" unicode="Ć"/><glyph d="M1049 428l174 -59q-66 -195 -214.5 -310.5t-328.5 -115.5q-160 0 -294 90t-213 245.5t-79 338t79 337t213 245.5t294 91q178 0 325.5 -113.5t215.5 -304.5l-174 -61q-49 133 -148.5 213t-218.5 80q-166 0 -283.5 -143.5t-117.5 -345t117.5 -345t283.5 -143.5 q121 0 221.5 82t147.5 219zM846 1599l-254 -253l-115 114l254 254z" glyph-name="cacute" horiz-adv-x="1302" unicode="ć"/><glyph d="M885 127q172 0 317.5 106.5t222.5 288.5l170 -73q-100 -233 -291.5 -369.5t-418.5 -136.5q-215 0 -398.5 122.5t-290 333.5t-106.5 459t106.5 459t290 334t398.5 123q258 0 466 -173.5t287 -453.5l-176 -51q-63 221 -223 356t-354 135q-166 0 -306.5 -97t-222.5 -265 t-82 -367t82 -366.5t222.5 -266t306.5 -98.5zM866 2023l-153 -151l-115 115l268 266l269 -266l-115 -115z" glyph-name="Ccircumflex" horiz-adv-x="1705" unicode="Ĉ"/><glyph d="M1049 428l174 -59q-66 -195 -214.5 -310.5t-328.5 -115.5q-160 0 -294 90t-213 245.5t-79 338t79 337t213 245.5t294 91q178 0 325.5 -113.5t215.5 -304.5l-174 -61q-49 133 -148.5 213t-218.5 80q-166 0 -283.5 -143.5t-117.5 -345t117.5 -345t283.5 -143.5 q121 0 221.5 82t147.5 219zM662 1493l-154 -154l-115 115l269 266l268 -266l-115 -115z" glyph-name="ccircumflex" horiz-adv-x="1302" unicode="ĉ"/><glyph d="M885 127q172 0 317.5 106.5t222.5 288.5l170 -73q-100 -233 -291.5 -369.5t-418.5 -136.5q-215 0 -398.5 122.5t-290 333.5t-106.5 459t106.5 459t290 334t398.5 123q258 0 466 -173.5t287 -453.5l-176 -51q-63 221 -223 356t-354 135q-166 0 -306.5 -97t-222.5 -265 t-82 -367t82 -366.5t222.5 -266t306.5 -98.5zM976 2022q-5 -46 -40 -74.5t-81 -24.5t-74.5 40t-24.5 81t39.5 74.5t81 24.5t75 -40t24.5 -81z" glyph-name="Cdotaccent" horiz-adv-x="1705" unicode="Ċ"/><glyph d="M1049 428l174 -59q-66 -195 -214.5 -310.5t-328.5 -115.5q-160 0 -294 90t-213 245.5t-79 338t79 337t213 245.5t294 91q178 0 325.5 -113.5t215.5 -304.5l-174 -61q-49 133 -148.5 213t-218.5 80q-166 0 -283.5 -143.5t-117.5 -345t117.5 -345t283.5 -143.5 q121 0 221.5 82t147.5 219zM661.5 1391q-45.5 0 -78 32.5t-32.5 77.5t32.5 78t78 33t78 -33t32.5 -78t-32.5 -77.5t-78 -32.5z" glyph-name="cdotaccent" horiz-adv-x="1302" unicode="ċ"/><glyph d="M885 127q172 0 317.5 106.5t222.5 288.5l170 -73q-100 -233 -291.5 -369.5t-418.5 -136.5q-215 0 -398.5 122.5t-290 333.5t-106.5 459t106.5 459t290 334t398.5 123q258 0 466 -173.5t287 -453.5l-176 -51q-63 221 -223 356t-354 135q-166 0 -306.5 -97t-222.5 -265 t-82 -367t82 -366.5t222.5 -266t306.5 -98.5zM1135 2081l-269 -266l-268 266l115 114l153 -151l154 151z" glyph-name="Ccaron" horiz-adv-x="1705" unicode="Č"/><glyph d="M1049 428l174 -59q-66 -195 -214.5 -310.5t-328.5 -115.5q-160 0 -294 90t-213 245.5t-79 338t79 337t213 245.5t294 91q178 0 325.5 -113.5t215.5 -304.5l-174 -61q-49 133 -148.5 213t-218.5 80q-166 0 -283.5 -143.5t-117.5 -345t117.5 -345t283.5 -143.5 q121 0 221.5 82t147.5 219zM930 1599l-268 -266l-269 266l115 115l154 -151l153 151z" glyph-name="ccaron" horiz-adv-x="1302" unicode="č"/><glyph d="M1016 2075l-266 -267l-269 267l115 114l154 -151l151 151zM958 1706q215 0 398.5 -106.5t290 -290t106.5 -398.5v-116q0 -215 -106.5 -398.5t-289.5 -290t-399 -106.5h-794v1706h794zM1569 795v116q0 252 -179.5 431.5t-431.5 179.5h-610v-1338h610q252 0 431.5 179.5 t179.5 431.5z" glyph-name="Dcaron" horiz-adv-x="1847" unicode="Ď"/><glyph d="M1288 289q0 -41 30 -71t73 -30v-186q-111 0 -193 75t-94 185q-53 -150 -159.5 -234.5t-260.5 -84.5q-160 0 -297 90t-216 244.5t-79 337t79 337t216 243.5t297 89q154 0 259.5 -83t160.5 -230v739h184v-1421zM684 129q168 0 288 142.5t120 343t-120 342t-288 141.5 t-288 -141.5t-120 -342t120 -343t288 -142.5zM1737 1595l-254 -256l-115 115l254 256z" glyph-name="dcaron" horiz-adv-x="1476" unicode="ď"/><glyph d="M1436 1311h-148v-1022q0 -41 30 -71t73 -30v-186q-111 0 -193 75t-94 185q-53 -150 -159.5 -234.5t-260.5 -84.5q-160 0 -297 90t-216 244.5t-79 337t79 337t216 243.5t297 89q154 0 259.5 -83t160.5 -230v340h-148v186h148v213h184v-213h148v-186zM684 129 q168 0 288 142.5t120 343t-120 342t-288 141.5t-288 -141.5t-120 -342t120 -343t288 -142.5z" glyph-name="dcroat" horiz-adv-x="1476" unicode="đ"/><glyph d="M1421 1522h-1073v-576h860v-184h-860v-576h1073v-186h-1257v1708h1257v-186zM1122 1948h-567v161h567v-161z" glyph-name="Emacron" horiz-adv-x="1486" unicode="Ē"/><glyph d="M1075 313h221q-88 -168 -255 -269t-363 -101q-160 0 -294 89t-213 243.5t-79 336t79 336t213 244.5t293 90t294 -90t213 -244.5t78 -335.5v-94h-977q27 -168 137 -279.5t256 -111.5q117 0 221 50t176 136zM676.5 1096q-144.5 0 -255 -112t-136.5 -279h784 q-27 168 -137.5 279.5t-255 111.5zM961 1415h-568v162h568v-162z" glyph-name="emacron" horiz-adv-x="1378" unicode="ē"/><glyph d="M1421 1522h-1073v-576h860v-184h-860v-576h1073v-186h-1257v1708h1257v-186zM838.5 1845q-117.5 0 -200.5 84t-83 201h162q0 -51 35.5 -86t86 -35t86.5 35t36 86h161q0 -117 -83 -201t-200.5 -84z" glyph-name="Ebreve" horiz-adv-x="1486" unicode="Ĕ"/><glyph d="M1075 313h221q-88 -168 -255 -269t-363 -101q-160 0 -294 89t-213 243.5t-79 336t79 336t213 244.5t293 90t294 -90t213 -244.5t78 -335.5v-94h-977q27 -168 137 -279.5t256 -111.5q117 0 221 50t176 136zM676.5 1096q-144.5 0 -255 -112t-136.5 -279h784 q-27 168 -137.5 279.5t-255 111.5zM677 1425q-118 0 -201 83t-83 200h162q0 -49 36 -85t86 -36t86 36t36 85h162q0 -117 -83 -200t-201 -83z" glyph-name="ebreve" horiz-adv-x="1378" unicode="ĕ"/><glyph d="M1421 1522h-1073v-576h860v-184h-860v-576h1073v-186h-1257v1708h1257v-186zM839 1919q-46 0 -78 31.5t-32 78t32 78t78 31.5t78.5 -31.5t32.5 -78t-32.5 -78t-78.5 -31.5z" glyph-name="Edotaccent" horiz-adv-x="1486" unicode="Ė"/><glyph d="M1075 313h221q-88 -168 -255 -269t-363 -101q-160 0 -294 89t-213 243.5t-79 336t79 336t213 244.5t293 90t294 -90t213 -244.5t78 -335.5v-94h-977q27 -168 137 -279.5t256 -111.5q117 0 221 50t176 136zM676.5 1096q-144.5 0 -255 -112t-136.5 -279h784 q-27 168 -137.5 279.5t-255 111.5zM677 1386q-46 0 -78 32t-32 78t32 79t78 33t78.5 -33t32.5 -79t-32.5 -78t-78.5 -32z" glyph-name="edotaccent" horiz-adv-x="1378" unicode="ė"/><glyph d="M1421 1516h-1073v-576h860v-184h-860v-576h1073v-346q-49 0 -85 -32.5t-36 -79t36 -80t85 -33.5v-162q-117 0 -199.5 81t-82.5 193q0 104 70.5 182.5t176.5 90.5h-1222v1708h1257v-186z" glyph-name="Eogonek" horiz-adv-x="1484" unicode="Ę"/><glyph d="M1075 307l221 2q-76 -147 -213 -244.5t-305 -121.5v-109q-49 0 -85 -32.5t-36 -79t36 -80t85 -33.5v-162q-117 0 -199.5 81t-82.5 193q0 137 112 220q-219 31 -367.5 220t-148.5 445q0 180 79 335t213 245t293 90t294 -90t213 -245t78 -335v-94h-977q27 -168 137 -279.5 t256 -111.5q117 0 221 50t176 136zM676.5 1090q-144.5 0 -255 -112t-136.5 -280h784q-27 168 -137.5 280t-255 112z" glyph-name="eogonek" horiz-adv-x="1378" unicode="ę"/><glyph d="M1421 1522h-1073v-576h860v-184h-860v-576h1073v-186h-1257v1708h1257v-186zM1106 2077l-266 -269l-269 269l115 114l154 -153l151 153z" glyph-name="Ecaron" horiz-adv-x="1486" unicode="Ě"/><glyph d="M1075 313h221q-88 -168 -255 -269t-363 -101q-160 0 -294 89t-213 243.5t-79 336t79 336t213 244.5t293 90t294 -90t213 -244.5t78 -335.5v-94h-977q27 -168 137 -279.5t256 -111.5q117 0 221 50t176 136zM676.5 1096q-144.5 0 -255 -112t-136.5 -279h784 q-27 168 -137.5 279.5t-255 111.5zM944 1597l-266 -268l-268 268l114 115l154 -153l151 153z" glyph-name="ecaron" horiz-adv-x="1378" unicode="ě"/><glyph d="M1243 772h447v-770h-187v410q-90 -221 -244.5 -345t-369.5 -124t-399.5 121.5t-292 332.5t-107.5 460t107.5 460t292 333t399.5 122q160 0 305 -68t258 -197q109 -121 170 -280h-205q-43 88 -102 155q-178 203 -426 203q-166 0 -307.5 -98t-224.5 -265t-83 -365 t83 -364.5t224.5 -264t307.5 -97.5q188 0 344 125t225 330h-215v186zM829 2019l-153 -153l-115 114l268 269l269 -269l-115 -114z" glyph-name="Gcircumflex" horiz-adv-x="1798" unicode="Ĝ"/><glyph d="M1092 1221h186v-1196q0 -236 -168 -403t-403 -167q-164 0 -310.5 61.5t-253.5 174.5l138 127q78 -84 189.5 -131t236.5 -47q160 0 272.5 113.5t112.5 271.5v204q-57 -135 -160 -210.5t-248 -75.5q-160 0 -297 90t-216 244.5t-79 336t79 336t216 244.5t297 90 q145 0 247.5 -75.5t160.5 -211.5v224zM684 129q168 0 288 142.5t120 342t-120 342t-288 142.5t-288 -142.5t-120 -342t120 -342t288 -142.5zM684 1487l-154 -154l-114 115l268 268l268 -268l-114 -115z" glyph-name="gcircumflex" horiz-adv-x="1425" unicode="ĝ"/><glyph d="M829.5 1845q-116.5 0 -200.5 84t-84 201h162q0 -51 35.5 -86t87 -35t86 35t34.5 86h164q0 -117 -84 -201t-200.5 -84zM1243 772h447v-770h-187v410q-90 -221 -244.5 -345t-369.5 -124t-399.5 121.5t-292 332.5t-107.5 460t107.5 460t292 333t399.5 122q160 0 305 -68 t258 -197q109 -121 170 -280h-205q-43 88 -102 155q-178 203 -426 203q-166 0 -307.5 -98t-224.5 -265t-83 -365t83 -364.5t224.5 -264t307.5 -97.5q188 0 344 125t225 330h-215v186z" glyph-name="Gbreve" horiz-adv-x="1798" unicode="Ğ"/><glyph d="M684 1425q-117 0 -201 83t-84 200h164q0 -49 36 -85t86 -36t86 36t36 85h162q0 -117 -84 -200t-201 -83zM1092 1221h186v-1196q0 -236 -168 -403t-403 -167q-164 0 -310.5 61.5t-253.5 174.5l138 127q78 -84 189.5 -131t236.5 -47q160 0 272.5 113.5t112.5 271.5v204 q-57 -135 -160 -210.5t-248 -75.5q-160 0 -297 90t-216 243.5t-79 336t79 337t216 244.5t297 90q145 0 247.5 -75.5t160.5 -211.5v224zM684 129q168 0 288 142.5t120 342t-120 342t-288 142.5t-288 -142.5t-120 -342t120 -342t288 -142.5z" glyph-name="gbreve" horiz-adv-x="1425" unicode="ğ"/><glyph d="M829 1919q-45 0 -77.5 31.5t-32.5 78t32.5 78t77.5 31.5t78 -31.5t33 -78t-33 -78t-78 -31.5zM1243 772h447v-770h-187v410q-90 -221 -244.5 -345t-369.5 -124t-399.5 121.5t-292 332.5t-107.5 460t107.5 460t292 333t399.5 122q160 0 305 -68t258 -197 q109 -121 170 -280h-205q-43 88 -102 155q-178 203 -426 203q-166 0 -307.5 -98t-224.5 -265t-83 -365t83 -364.5t224.5 -264t307.5 -97.5q188 0 344 125t225 330h-215v186z" glyph-name="Gdotaccent" horiz-adv-x="1798" unicode="Ġ"/><glyph d="M684 1386q-45 0 -78 32t-33 78t33 79t78 33t78 -33t33 -79t-33 -78t-78 -32zM1092 1221h186v-1196q0 -236 -168 -403t-403 -167q-164 0 -310.5 61.5t-253.5 174.5l138 127q78 -84 189.5 -131t236.5 -47q160 0 272.5 113.5t112.5 271.5v204q-57 -135 -160 -210.5 t-248 -75.5q-160 0 -297 90t-216 244.5t-79 336t79 336t216 244.5t297 90q145 0 247.5 -75.5t160.5 -211.5v224zM684 129q168 0 288 142.5t120 342t-120 342t-288 142.5t-288 -142.5t-120 -342t120 -342t288 -142.5z" glyph-name="gdotaccent" horiz-adv-x="1425" unicode="ġ"/><glyph d="M1243 768h447v-770h-187v410q-90 -221 -244.5 -345t-369.5 -124t-399.5 121.5t-292 332.5t-107.5 460t107.5 460t292 332.5t399.5 121.5q160 0 305 -67.5t258 -196.5q109 -121 170 -280h-205q-43 88 -102 155q-178 203 -426 203q-166 0 -307.5 -98.5t-224.5 -265 t-83 -364.5t83 -364.5t224.5 -264t307.5 -97.5q188 0 344 125t225 330h-215v186zM1014 -240l-254 -254l-115 115l254 254z" glyph-name="Gcommaaccent" horiz-adv-x="1796" unicode="Ģ"/><glyph d="M1092 1221h186v-1194q0 -238 -168 -405t-403 -167q-164 0 -310.5 61.5t-253.5 174.5l136 127q80 -84 191.5 -131t236.5 -47q160 0 272.5 113.5t112.5 273.5v202q-57 -135 -160 -210.5t-248 -75.5q-160 0 -297 90t-216 244.5t-79 336t79 336t216 244.5t297 90 q145 0 247.5 -75.5t160.5 -211.5v224zM684 129q168 0 288 142.5t120 342t-120 342t-288 142.5t-288 -142.5t-120 -342t120 -342t288 -142.5zM868 1591l-254 -254l-114 115l254 254z" glyph-name="gcommaaccent" horiz-adv-x="1425" unicode="ģ"/><glyph d="M1329 1708h187v-1708h-187v760h-981v-760h-184v1708h184v-762h981v762zM840 2019l-154 -153l-115 114l269 269l266 -269l-115 -114z" glyph-name="Hcircumflex" horiz-adv-x="1679" unicode="Ĥ"/><glyph d="M1331 612v-612h-184v612q0 201 -120 343.5t-288 142.5t-287.5 -142.5t-119.5 -343.5v-612h-187v1710h187v-713q57 135 159.5 211t247.5 76q162 0 298.5 -90t215 -245t78.5 -337zM391 1868l-151 153l-154 -153l-115 114l269 269l266 -269z" glyph-name="hcircumflex" unicode="ĥ"/><glyph d="M1647 1493h247v-184h-247v-1309h-187v760h-979v-760h-186v1309h-248v184h248v215h186v-215h979v215h187v-215zM1460 946v363h-979v-363h979z" glyph-name="Hbar" horiz-adv-x="1941" unicode="Ħ"/><glyph d="M1333 612v-612h-186v612q0 201 -119 343.5t-288 142.5t-287.5 -142.5t-118.5 -343.5h-2v-612h-185v1311h-147v184h147v215h185v-215h147v-184h-147v-314q57 135 159.5 211t249.5 76q160 0 296.5 -90t216 -245t79.5 -337z" glyph-name="hbar" horiz-adv-x="1454" unicode="ħ"/><glyph d="M350 0h-186v1706h186v-1706zM528 2150l140 -84q-72 -117 -204 -148.5t-249 40.5q-59 35 -127 18.5t-102 -73.5l-140 82q72 119 205 150.5t248 -40.5q59 -35 126.5 -18.5t102.5 73.5z" glyph-name="Itilde" horiz-adv-x="514" unicode="Ĩ"/><glyph d="M332 0h-185v1219h185v-1219zM506 1716l139 -84q-72 -117 -204 -148.5t-248 40.5q-59 35 -127 18.5t-103 -74.5l-139 82q72 119 204 151t248 -40q59 -35 127 -19.5t103 74.5z" glyph-name="itilde" horiz-adv-x="479" unicode="ĩ"/><glyph d="M350 0h-186v1706h186v-1706zM541 1946h-568v161h568v-161z" glyph-name="Imacron" horiz-adv-x="514" unicode="Ī"/><glyph d="M334 0h-187v1219h187v-1219zM524 1417h-567v162h567v-162z" glyph-name="imacron" horiz-adv-x="481" unicode="ī"/><glyph d="M350 0h-186v1706h186v-1706zM379 2128h162q0 -119 -83 -202t-201 -83t-201 83t-83 202h162q0 -51 36 -87t86 -36t86 36t36 87z" glyph-name="Ibreve" horiz-adv-x="516" unicode="Ĭ"/><glyph d="M334 0h-187v1219h187v-1219zM362 1710h162q0 -117 -83 -200t-200.5 -83t-200.5 83t-83 200h162q0 -49 35.5 -85t86 -36t86 36t35.5 85z" glyph-name="ibreve" horiz-adv-x="483" unicode="ĭ"/><glyph d="M164 1710h186v-1870q-51 0 -87 -32.5t-36 -78.5t36 -80t87 -34v-162q-119 0 -201.5 81t-82.5 194q0 125 98 209v1773z" glyph-name="Iogonek" horiz-adv-x="514" unicode="Į"/><glyph d="M147 -63v1282h187v-1379q-51 0 -87 -32.5t-36 -78.5t36 -80t87 -34v-162q-119 0 -202 81t-83 194q0 125 98 209zM354 1411h-221v184h221v-184z" glyph-name="iogonek" horiz-adv-x="481" unicode="į"/><glyph d="M348 0h-184v1708h184v-1708zM367 1935h-222v185h222v-185z" glyph-name="Idotaccent" horiz-adv-x="512" unicode="İ"/><glyph d="M330 0h-185v1221h185v-1221z" glyph-name="dotlessi" horiz-adv-x="477" unicode="ı"/><glyph d="M348 0h-184v1706h184v-1706zM1262 1706h186v-1307q0 -190 -135 -324t-324.5 -134t-324 134t-134.5 324h185q0 -115 79.5 -194.5t193.5 -79.5t194 80t80 194v1307z" glyph-name="IJ" horiz-adv-x="1601" unicode="Ĳ"/><glyph d="M690 -166v1385h184v-1385q0 -158 -111.5 -269.5t-266.5 -111.5h-152v185h152q80 0 137 57t57 139zM893 1403h-221v184h221v-184zM334 0h-187v1219h187v-1219zM354 1411h-221v184h221v-184z" glyph-name="ij" horiz-adv-x="1024" unicode="ĳ"/><glyph d="M758 401v1307h186v-1307q0 -190 -134 -324t-324.5 -134t-324.5 134t-134 324h184q0 -115 81 -194.5t193.5 -79.5t192.5 79.5t80 194.5zM852 2249l266 -269l-114 -114l-152 153l-154 -153l-114 114z" glyph-name="Jcircumflex" horiz-adv-x="1099" unicode="Ĵ"/><glyph d="M147 -135v1386h187v-1386q0 -158 -111.5 -269.5t-269.5 -111.5h-150v186h150q82 0 138 57.5t56 137.5zM242 1739l266 -266l-115 -115l-151 151l-154 -151l-115 115z" glyph-name="jcircumflex" horiz-adv-x="483" unicode="ĵ"/><glyph d="M1677 1704l-837 -655l823 -1053h-236l-733 938l-346 -270v-668h-184v1708h184v-805l1028 805h301zM1116 -233l-254 -254l-114 114l253 254z" glyph-name="Kcommaaccent" horiz-adv-x="1697" unicode="Ķ"/><glyph d="M721 801l631 -805h-236l-528 700l-256 -198v-504h-185v1708h185v-971l618 486h301zM958 -233l-253 -254l-115 114l254 254z" glyph-name="kcommaaccent" horiz-adv-x="1380" unicode="ķ"/><glyph d="M440 2099l-254 -254l-114 115l254 254zM348 184h772v-184h-956v1708h184v-1524z" glyph-name="Lacute" horiz-adv-x="1136" unicode="Ĺ"/><glyph d="M416 2099l-254 -254l-115 115l254 254zM324 287q0 -41 30.5 -72t71.5 -31v-184q-119 0 -203 84t-84 203v1421h185v-1421z" glyph-name="lacute" horiz-adv-x="512" unicode="ĺ"/><glyph d="M872 -227l-254 -254l-114 112l254 256zM348 184h772v-184h-956v1708h184v-1524z" glyph-name="Lcommaaccent" horiz-adv-x="1136" unicode="Ļ"/><glyph d="M416 -227l-254 -254l-115 112l254 256zM324 287q0 -41 30.5 -72t71.5 -31v-184q-119 0 -203 84t-84 203v1421h185v-1421z" glyph-name="lcommaaccent" horiz-adv-x="512" unicode="ļ"/><glyph d="M797 1595l-254 -254l-115 115l254 254zM348 184h772v-184h-956v1708h184v-1524z" glyph-name="Lcaron" horiz-adv-x="1136" unicode="Ľ"/><glyph d="M772 1595l-254 -254l-115 115l254 254zM324 287q0 -41 30.5 -72t71.5 -31v-184q-119 0 -203 84t-84 203v1421h185v-1421z" glyph-name="lcaron" horiz-adv-x="514" unicode="ľ"/><glyph d="M348 184h772v-184h-956v1708h184v-1524zM727 888q-4 -46 -40 -75t-81 -24.5t-74.5 40t-24.5 80.5t40 75t81 25t74.5 -40t24.5 -81z" glyph-name="Ldot" horiz-adv-x="1136" unicode="Ŀ"/><glyph d="M324 287q0 -41 30.5 -72t71.5 -31v-184q-119 0 -203 84t-84 203v1421h185v-1421zM577.5 791q-45.5 0 -78 31.5t-32.5 77.5t32.5 78t78 32t78 -32t32.5 -78t-32.5 -77.5t-78 -31.5z" glyph-name="ldot" horiz-adv-x="733" unicode="ŀ"/><glyph d="M508 184h772v-184h-958v836l-213 -97l-76 170l289 129v670h186v-586l213 97l76 -170l-289 -129v-736z" glyph-name="Lslash" horiz-adv-x="1294" unicode="Ł"/><glyph d="M516 287q0 -41 29.5 -71t70.5 -30v-186q-119 0 -202.5 84t-83.5 203v549l-213 -97l-76 170l289 129v670h186v-586l213 97l76 -170l-289 -129v-633z" glyph-name="lslash" horiz-adv-x="841" unicode="ł"/><glyph d="M1319 1708h188v-1708h-381l-776 1706v-1704h-2v-2h-184v1706v2h379l776 -1706v1706zM1020 2097l-254 -254l-115 115l254 254z" glyph-name="Nacute" horiz-adv-x="1673" unicode="Ń"/><glyph d="M1333 612v-612h-186v612q0 201 -119 343.5t-287 142.5t-287.5 -142.5t-119.5 -343.5h-2v-612h-185v1221h185v-224q57 135 160.5 211t248.5 76q160 0 296.5 -90t216 -245t79.5 -337zM944 1591l-254 -254l-115 115l254 254z" glyph-name="nacute" horiz-adv-x="1454" unicode="ń"/><glyph d="M1321 1706h186v-1708h-381l-776 1706v-1704h-2v-2h-184v1706h2v2h379l776 -1706v1706zM1020 -236l-254 -253l-115 114l254 254z" glyph-name="Ncommaaccent" horiz-adv-x="1673" unicode="Ņ"/><glyph d="M1333 608v-612h-186v612q0 201 -119 343.5t-287 142.5t-287.5 -142.5t-119.5 -343.5h-2v-612h-185v1221h185v-224q57 135 160.5 211t248.5 76q160 0 296.5 -90t216 -245t79.5 -337zM944 -236l-254 -253l-115 114l254 254z" glyph-name="ncommaaccent" horiz-adv-x="1454" unicode="ņ"/><glyph d="M1319 1708h186v-1708h-379l-778 1706v-1704h-184v1706h379l776 -1706v1706zM1110 2077l-268 -269l-269 269l115 114l154 -153l153 153z" glyph-name="Ncaron" horiz-adv-x="1669" unicode="Ň"/><glyph d="M1333 612v-612h-186v612q0 201 -119 343.5t-287 142.5t-287.5 -142.5t-119.5 -343.5h-2v-612h-185v1221h185v-224q57 135 160.5 211t248.5 76q160 0 296.5 -90t216 -245t79.5 -337zM1022 1602l-268 -269l-269 269l115 114l154 -153l153 153z" glyph-name="ncaron" horiz-adv-x="1454" unicode="ň"/><glyph d="M739 1284q162 0 298.5 -90t216 -244.5t79.5 -337.5v-612h-186v612q0 201 -119 343.5t-288 142.5t-287.5 -142.5t-118.5 -343.5h-2v-612h-185v1221h185v-224q57 135 159.5 211t247.5 76zM424 1591l-254 -254l-115 115l254 254z" glyph-name="napostrophe" horiz-adv-x="1454" unicode="ŉ"/><glyph d="M1321 1700h184v-1796q0 -188 -134 -323.5t-323.5 -135.5t-324.5 135t-135 324h186q0 -113 80 -193t192.5 -80t193.5 80t81 193v88h-195l-778 1706v-1704h-184v1706h379l778 -1706v1706z" glyph-name="Eng" horiz-adv-x="1671" unicode="Ŋ"/><glyph d="M1333 608v-776q0 -158 -111.5 -269.5t-269.5 -111.5h-149v187h149q82 0 138.5 57t56.5 137v776q0 201 -119 343.5t-287 142.5t-287.5 -142.5t-119.5 -343.5h-2v-612h-185v1221h185v-224q57 135 160.5 211t248.5 76q160 0 296.5 -90t216 -245t79.5 -337z" glyph-name="eng" horiz-adv-x="1454" unicode="ŋ"/><glyph d="M896 1772q218 0 404.5 -122t294 -333t107.5 -460t-107.5 -460t-294 -332.5t-404.5 -121.5t-403.5 121.5t-294 332.5t-108.5 460t108.5 460t294 333t403.5 122zM896 127q169 0 312.5 98.5t226.5 266t83 365.5t-83 366t-226.5 266t-312.5 98t-311.5 -98t-226.5 -266 t-84 -366t84 -365.5t226.5 -266t311.5 -98.5zM1180 1948h-568v161h568v-161z" glyph-name="Omacron" horiz-adv-x="1794" unicode="Ō"/><glyph d="M677 1284q159 0 294 -90t213 -244.5t78 -336t-78 -336t-213 -244.5t-294 -90t-293 90t-213 244.5t-79 336t79 336t213 244.5t293 90zM677 129q165 0 282.5 142.5t117.5 342t-117.5 342t-282.5 142.5t-283 -142.5t-118 -342t118 -342t283 -142.5zM961 1415h-568v162h568 v-162z" glyph-name="omacron" horiz-adv-x="1355" unicode="ō"/><glyph d="M896 1772q218 0 404.5 -122t294 -333t107.5 -460t-107.5 -460t-294 -332.5t-404.5 -121.5t-403.5 121.5t-294 332.5t-108.5 460t108.5 460t294 333t403.5 122zM896 127q169 0 312.5 98.5t226.5 266t83 365.5t-83 366t-226.5 266t-312.5 98t-311.5 -98t-226.5 -266 t-84 -366t84 -365.5t226.5 -266t311.5 -98.5zM896 1845q-118 0 -201 83t-83 202h162q0 -51 36 -87t86 -36t86 36t36 87h162q0 -119 -83 -202t-201 -83z" glyph-name="Obreve" horiz-adv-x="1794" unicode="Ŏ"/><glyph d="M677 1284q159 0 294 -90t213 -244.5t78 -336t-78 -336t-213 -244.5t-294 -90t-293 90t-213 244.5t-79 336t79 336t213 244.5t293 90zM677 129q165 0 282.5 142.5t117.5 342t-117.5 342t-282.5 142.5t-283 -142.5t-118 -342t118 -342t283 -142.5zM677 1423q-118 0 -201 84 t-83 201h162q0 -49 36 -85t86 -36t86 36t36 85h162q0 -117 -83 -201t-201 -84z" glyph-name="obreve" horiz-adv-x="1355" unicode="ŏ"/><glyph d="M896 1772q218 0 404.5 -122t294 -333t107.5 -460t-107.5 -460t-294 -332.5t-404.5 -121.5t-403.5 121.5t-294 332.5t-108.5 460t108.5 460t294 333t403.5 122zM896 127q169 0 312.5 98.5t226.5 266t83 365.5t-83 366t-226.5 266t-312.5 98t-311.5 -98t-226.5 -266 t-84 -366t84 -365.5t226.5 -266t311.5 -98.5zM1257 2097l-253 -254l-115 115l254 254zM903 2097l-254 -254l-114 115l253 254z" glyph-name="Ohungarumlaut" horiz-adv-x="1794" unicode="Ő"/><glyph d="M677 1284q159 0 294 -90t213 -244.5t78 -336t-78 -336t-213 -244.5t-294 -90t-293 90t-213 244.5t-79 336t79 336t213 244.5t293 90zM677 129q165 0 282.5 142.5t117.5 342t-117.5 342t-282.5 142.5t-283 -142.5t-118 -342t118 -342t283 -142.5zM1038 1597l-254 -254 l-114 115l254 254zM684 1597l-254 -254l-115 115l254 254z" glyph-name="ohungarumlaut" horiz-adv-x="1355" unicode="ő"/><glyph d="M2775 1526h-1073v-576h860v-186h-860v-576h1073v-184h-1257v270q-113 -156 -276 -243.5t-345 -87.5q-219 0 -404.5 121.5t-294 332.5t-108.5 460t108.5 460t294 333t404.5 122q182 0 345 -88.5t276 -243.5v270h1257v-184zM896 127q169 0 312.5 98.5t226.5 266t83 365.5 t-83 366t-226.5 266t-312.5 98t-311.5 -98t-226.5 -266t-84 -366t84 -365.5t226.5 -266t311.5 -98.5z" glyph-name="OE" horiz-adv-x="2840" unicode="Œ"/><glyph d="M2060 315h219q-86 -170 -253.5 -271t-364.5 -101q-152 0 -282 83t-210 226q-80 -143 -210 -226t-281 -83q-160 0 -294 89t-213 243.5t-79 336t79 336t213 244.5t294 90q152 0 282 -84t209 -225q80 141 210 225t282 84q160 0 295 -90t213 -243.5t78 -336.5v-92h-977 q27 -170 137.5 -281.5t253.5 -111.5q119 0 223 50t176 138zM1662 1096q-144 0 -255 -112t-137 -279h784q-27 168 -137.5 279.5t-254.5 111.5zM677 127q165 0 282.5 142.5t117.5 343t-117.5 342t-282.5 141.5t-283 -141.5t-118 -342t118 -343t283 -142.5z" glyph-name="oe" horiz-adv-x="2363" unicode="œ"/><glyph d="M1118 2095l-254 -254l-114 115l256 254zM1100 758l514 -758h-225l-512 758h-529v-758h-184v1706h184h789q197 0 336 -139.5t139 -335t-139.5 -334.5t-335.5 -139h-37zM348 1522v-578h789q119 0 203.5 84t84.5 204t-85 205t-203 85h-789z" glyph-name="Racute" horiz-adv-x="1695" unicode="Ŕ"/><glyph d="M698 1589l-254 -254l-114 115l254 254zM719 1280q33 0 69 -4v-191q-37 8 -69 9q-133 0 -239.5 -93.5t-147.5 -238.5v-762h-185v1217h185v-328q70 391 387 391z" glyph-name="racute" horiz-adv-x="819" unicode="ŕ"/><glyph d="M1118 -229l-254 -254l-114 114l254 254zM1100 762l514 -758h-225l-512 758h-529v-758h-184v1706h184h789q197 0 336 -139t139 -335t-139.5 -335t-335.5 -139h-37zM348 1526v-578h789q119 0 203.5 84t84.5 204t-85 205t-203 85h-789z" glyph-name="Rcommaaccent" horiz-adv-x="1695" unicode="Ŗ"/><glyph d="M424 -229l-254 -254l-115 114l254 254zM719 1284q33 0 69 -4v-190q-37 8 -69 8q-133 0 -239.5 -93.5t-147.5 -238.5v-762h-185v1217h185v-328q70 391 387 391z" glyph-name="rcommaaccent" horiz-adv-x="819" unicode="ŗ"/><glyph d="M1118 2075l-268 -269l-268 269l114 114l154 -153l154 153zM1100 758l514 -758h-225l-512 758h-529v-758h-184v1706h184h789q197 0 336 -139.5t139 -335t-139.5 -334.5t-335.5 -139h-37zM348 1522v-578h789q119 0 203.5 84t84.5 204t-85 205t-203 85h-789z" glyph-name="Rcaron" horiz-adv-x="1695" unicode="Ř"/><glyph d="M782 1595l-268 -266l-268 266l114 115l154 -154l154 154zM719 1280q33 0 69 -4v-191q-37 8 -69 9q-133 0 -239.5 -93.5t-147.5 -238.5v-762h-185v1217h185v-328q70 391 387 391z" glyph-name="rcaron" horiz-adv-x="819" unicode="ř"/><glyph d="M991 2103l-254 -254l-114 115l254 254zM795 975q90 -10 138 -16.5t136 -26t139.5 -41t118 -61t102 -90t62.5 -125t27 -169.5q0 -139 -94.5 -254.5t-257 -182t-358.5 -66.5t-358.5 66.5t-257 182t-94.5 254.5h185q0 -129 155.5 -223t368.5 -94t368.5 94t155.5 223 q0 66 -15.5 114t-52 83t-78.5 58.5t-114 41t-135.5 27.5t-161.5 21q-121 14 -184.5 23t-149.5 36t-141 65q-201 145 -201 355q0 139 94.5 254.5t257 182.5t358.5 67t358.5 -67t257 -182.5t94.5 -254.5h-187q0 131 -155.5 225t-368.5 94t-368.5 -94t-155.5 -225 q0 -115 125 -203q37 -27 107.5 -46.5t124 -26.5t155.5 -19z" glyph-name="Sacute" horiz-adv-x="1617" unicode="Ś"/><glyph d="M809 1595l-256 -254l-115 115l256 254zM618 721q47 -6 74 -9t77 -11.5t81 -17.5t75 -26.5t71.5 -37t59 -49t50 -64.5t30 -81t11.5 -101q0 -160 -151.5 -270.5t-372 -110.5t-372 110.5t-151.5 270.5h185q0 -74 98 -135.5t241.5 -61.5t241 61.5t97.5 135.5q0 109 -79 149.5 t-288 63.5q-86 10 -132 17t-108.5 26.5t-103.5 50.5q-152 109 -152 270q0 160 151.5 270.5t372 110.5t372 -110.5t151.5 -270.5h-184q0 74 -97.5 135.5t-241 61.5t-241.5 -61.5t-98 -135.5q0 -66 75 -121q49 -34 258 -59z" glyph-name="sacute" horiz-adv-x="1251" unicode="ś"/><glyph d="M807 2025l-152 -153l-114 115l266 268l268 -268l-114 -115zM795 975q90 -10 138 -16.5t136 -26t139.5 -41t118 -61t102 -90t62.5 -125t27 -169.5q0 -139 -94.5 -254.5t-257 -182t-358.5 -66.5t-358.5 66.5t-257 182t-94.5 254.5h185q0 -129 155.5 -223t368.5 -94 t368.5 94t155.5 223q0 66 -15.5 114t-52 83t-78.5 58.5t-114 41t-135.5 27.5t-161.5 21q-121 14 -184.5 23t-149.5 36t-141 65q-201 145 -201 355q0 139 94.5 254.5t257 182.5t358.5 67t358.5 -67t257 -182.5t94.5 -254.5h-187q0 131 -155.5 225t-368.5 94t-368.5 -94 t-155.5 -225q0 -115 125 -203q37 -27 107.5 -46.5t124 -26.5t155.5 -19z" glyph-name="Scircumflex" horiz-adv-x="1617" unicode="Ŝ"/><glyph d="M625 1491l-154 -154l-115 115l269 268l266 -268l-115 -115zM618 721q47 -6 74 -9t77 -11.5t81 -17.5t75 -26.5t71.5 -37t59 -49t50 -64.5t30 -81t11.5 -101q0 -160 -151.5 -270.5t-372 -110.5t-372 110.5t-151.5 270.5h185q0 -74 98 -135.5t241.5 -61.5t241 61.5 t97.5 135.5q0 109 -79 149.5t-288 63.5q-86 10 -132 17t-108.5 26.5t-103.5 50.5q-152 109 -152 270q0 160 151.5 270.5t372 110.5t372 -110.5t151.5 -270.5h-184q0 74 -97.5 135.5t-241 61.5t-241.5 -61.5t-98 -135.5q0 -66 75 -121q49 -34 258 -59z" glyph-name="scircumflex" horiz-adv-x="1251" unicode="ŝ"/><glyph d="M807 1569q-213 0 -368.5 -94.5t-155.5 -225.5q0 -113 125 -202q37 -27 107.5 -46.5t123.5 -26.5t156 -20q90 -10 138 -16t136 -24.5t139.5 -41t118 -62.5t102 -90t62.5 -125t27 -167q0 -193 -173.5 -334t-435.5 -166v-94q-51 0 -87 -32.5t-36 -80t36 -80t87 -32.5v-162 q-117 0 -200.5 81t-83.5 193q0 123 96 205q-268 23 -445.5 164t-177.5 338h185q0 -131 155.5 -225t368.5 -94t368.5 94t155.5 225q0 63 -15.5 111.5t-52 83t-78.5 58.5t-114 41t-135.5 27.5t-161.5 20.5q-121 14 -184.5 23.5t-149.5 36t-141 67.5q-201 143 -201 352 q0 139 94.5 255t257 182.5t358.5 66.5t358.5 -66.5t257 -182t94.5 -255.5h-187q0 131 -155.5 225.5t-368.5 94.5z" glyph-name="Scedilla" horiz-adv-x="1619" unicode="Ş"/><glyph d="M618 702q47 -4 74 -8t77 -12t81 -17.5t75 -26.5t71.5 -36.5t59 -49.5t50 -63.5t30 -81t11.5 -102.5q0 -139 -119 -243.5t-303 -131.5v-96q-49 0 -85 -32.5t-36 -80t36 -80t85 -32.5v-162q-117 0 -200 81t-83 193q0 125 97 207q-188 23 -313.5 128.5t-125.5 248.5h185 q0 -74 98 -135t241.5 -61t241 61t97.5 135q0 111 -79 151t-288 62q-86 10 -132 17.5t-108.5 27t-103.5 49.5q-152 109 -152 271q0 160 151.5 270.5t372 110.5t372 -111t151.5 -270h-184q0 74 -97.5 135t-241 61t-241.5 -61.5t-98 -134.5q0 -66 75 -121q49 -35 258 -60z" glyph-name="scedilla" horiz-adv-x="1251" unicode="ş"/><glyph d="M1075 2083l-268 -268l-266 268l114 115l152 -154l154 154zM795 975q90 -10 138 -16.5t136 -26t139.5 -41t118 -61t102 -90t62.5 -125t27 -169.5q0 -139 -94.5 -254.5t-257 -182t-358.5 -66.5t-358.5 66.5t-257 182t-94.5 254.5h185q0 -129 155.5 -223t368.5 -94t368.5 94 t155.5 223q0 66 -15.5 114t-52 83t-78.5 58.5t-114 41t-135.5 27.5t-161.5 21q-121 14 -184.5 23t-149.5 36t-141 65q-201 145 -201 355q0 139 94.5 254.5t257 182.5t358.5 67t358.5 -67t257 -182.5t94.5 -254.5h-187q0 131 -155.5 225t-368.5 94t-368.5 -94t-155.5 -225 q0 -115 125 -203q37 -27 107.5 -46.5t124 -26.5t155.5 -19z" glyph-name="Scaron" horiz-adv-x="1617" unicode="Š"/><glyph d="M891 1602l-266 -267l-269 267l115 114l154 -153l151 153zM618 721q47 -6 74 -9t77 -11.5t81 -17.5t75 -26.5t71.5 -37t59 -49t50 -64.5t30 -81t11.5 -101q0 -160 -151.5 -270.5t-372 -110.5t-372 110.5t-151.5 270.5h185q0 -74 98 -135.5t241.5 -61.5t241 61.5 t97.5 135.5q0 109 -79 149.5t-288 63.5q-86 10 -132 17t-108.5 26.5t-103.5 50.5q-152 109 -152 270q0 160 151.5 270.5t372 110.5t372 -110.5t151.5 -270.5h-184q0 74 -97.5 135.5t-241 61.5t-241.5 -61.5t-98 -135.5q0 -66 75 -121q49 -34 258 -59z" glyph-name="scaron" horiz-adv-x="1251" unicode="š"/><glyph d="M14 1516v184h1512v-184h-664v-1672q-49 0 -85 -32.5t-36 -79.5t36 -80t85 -33v-162q-117 0 -199.5 81t-82.5 194q0 125 98 209v1575h-664z" glyph-name="Tcommaaccent" horiz-adv-x="1542" unicode="Ţ"/><glyph d="M778 1032h-372v-745q0 -43 29.5 -73t72.5 -30h270v-340q-51 0 -87 -32.5t-36 -79.5t36 -80t87 -33v-162q-119 0 -201.5 81t-82.5 194q0 96 62 170.5t159 97.5h-207q-119 0 -203 84t-84 203v745h-162v185h162v491h185v-491h372v-185z" glyph-name="tcommaaccent" horiz-adv-x="849" unicode="ţ"/><glyph d="M14 1702h1512v-186h-664v-1516h-184v1516h-664v186zM1038 2079l-268 -269l-268 269l114 114l154 -153l154 153z" glyph-name="Tcaron" horiz-adv-x="1542" unicode="Ť"/><glyph d="M403 1708v-489h373v-185h-373v-745q0 -43 30 -73t73 -30h270v-186h-270q-119 0 -203 85t-84 204v745h-162v185h162v489h184zM852 1597l-254 -254l-115 115l254 254z" glyph-name="tcaron" horiz-adv-x="845" unicode="ť"/><glyph d="M1546 1516h-663v-463h499v-187h-499v-866h-185v866h-499v187h499v463h-663v186h1511v-186z" glyph-name="Tbar" horiz-adv-x="1583" unicode="Ŧ"/><glyph d="M805 1032h-373v-194h373v-185h-373v-366q0 -41 30 -71t73 -30h270v-186h-270q-119 0 -203 84t-84 203v366h-162v185h162v194h-162v187h162v489h184v-489h373v-187z" glyph-name="tbar" horiz-adv-x="913" unicode="ŧ"/><glyph d="M1399 1710h184v-1067q0 -190 -96 -351t-263 -255t-362.5 -94t-362.5 94t-263.5 255t-96.5 351v1067h185v-1067q0 -213 157.5 -363.5t379.5 -150.5t380 150.5t158 363.5v1067zM819 1960q-59 37 -125.5 20.5t-103.5 -75.5l-139 84q72 119 204.5 150.5t247.5 -40.5 q59 -37 127 -20.5t103 75.5l139 -83q-72 -117 -204 -149t-249 38z" glyph-name="Utilde" horiz-adv-x="1724" unicode="Ũ"/><glyph d="M1118 1227h187v-1221h-187v223q-57 -135 -159.5 -210.5t-247.5 -75.5q-160 0 -296 89t-216 244.5t-80 335.5v615h184v-615h2q0 -199 119 -341t287 -142t287.5 142.5t119.5 340.5v615zM670 1528q-59 35 -127 18.5t-103 -73.5l-139 81q72 117 205 150t248 -39 q59 -35 126.5 -19.5t102.5 74.5l139 -84q-72 -117 -203.5 -148.5t-248.5 40.5z" glyph-name="utilde" unicode="ũ"/><glyph d="M1399 1710h184v-1067q0 -190 -96 -351t-263 -255t-362.5 -94t-362.5 94t-263.5 255t-96.5 351v1067h185v-1067q0 -213 157.5 -363.5t379.5 -150.5t380 150.5t158 363.5v1067zM1145 1948h-567v163h567v-163z" glyph-name="Umacron" horiz-adv-x="1724" unicode="Ū"/><glyph d="M1118 1227h187v-1221h-187v223q-57 -135 -159.5 -210.5t-247.5 -75.5q-160 0 -296 89t-216 244.5t-80 335.5v615h184v-615h2q0 -199 119 -341t287 -142t287.5 142.5t119.5 340.5v615zM995 1421h-567v162h567v-162z" glyph-name="umacron" unicode="ū"/><glyph d="M1399 1710h184v-1067q0 -190 -96 -351t-263 -255t-362.5 -94t-362.5 94t-263.5 255t-96.5 351v1067h185v-1067q0 -213 157.5 -363.5t379.5 -150.5t380 150.5t158 363.5v1067zM877.5 1847q-117.5 0 -200.5 83t-83 200h162q0 -49 35.5 -85t86 -36t86 36t35.5 85h162 q0 -117 -83 -200t-200.5 -83z" glyph-name="Ubreve" horiz-adv-x="1724" unicode="Ŭ"/><glyph d="M1118 1227h187v-1221h-187v223q-57 -135 -159.5 -210.5t-247.5 -75.5q-160 0 -296 89t-216 244.5t-80 335.5v615h184v-615h2q0 -199 119 -341t287 -142t287.5 142.5t119.5 340.5v615zM731 1430q-117 0 -201 83.5t-84 200.5h162q0 -51 36 -87t86 -36t86 36t36 87h162 q0 -117 -83 -200.5t-200 -83.5z" glyph-name="ubreve" unicode="ŭ"/><glyph d="M1399 1710h184v-1067q0 -190 -96 -351t-263 -255t-362.5 -94t-362.5 94t-263.5 255t-96.5 351v1067h185v-1067q0 -213 157.5 -363.5t379.5 -150.5t380 150.5t158 363.5v1067zM861 1806q-93 0 -158.5 65.5t-65.5 158t65.5 158t158.5 65.5t158.5 -65.5t65.5 -158 t-65.5 -158t-158.5 -65.5zM861.5 2091q-25.5 0 -43 -18.5t-17.5 -43t17.5 -43t43 -18.5t43 18.5t17.5 43t-17.5 43t-43 18.5z" glyph-name="Uring" horiz-adv-x="1724" unicode="Ů"/><glyph d="M1118 1227h187v-1221h-187v223q-57 -135 -159.5 -210.5t-247.5 -75.5q-160 0 -296 89t-216 244.5t-80 335.5v615h184v-615h2q0 -199 119 -341t287 -142t287.5 142.5t119.5 340.5v615zM732 1331q-93 0 -158.5 65.5t-65.5 159t65.5 159t158.5 65.5t158.5 -65.5t65.5 -159 t-65.5 -159t-158.5 -65.5zM732.5 1616q-25.5 0 -43 -17.5t-17.5 -43t17.5 -43t43 -17.5t43 17.5t17.5 43t-17.5 43t-43 17.5z" glyph-name="uring" unicode="ů"/><glyph d="M1399 1710h184v-1067q0 -190 -96 -351t-263 -255t-362.5 -94t-362.5 94t-263.5 255t-96.5 351v1067h185v-1067q0 -213 157.5 -363.5t379.5 -150.5t380 150.5t158 363.5v1067zM1223 2099l-254 -254l-115 115l254 254zM868 2099l-254 -254l-114 115l254 254z" glyph-name="Uhungarumlaut" horiz-adv-x="1724" unicode="Ű"/><glyph d="M1118 1227h187v-1221h-187v223q-57 -135 -159.5 -210.5t-247.5 -75.5q-160 0 -296 89t-216 244.5t-80 335.5v615h184v-615h2q0 -199 119 -341t287 -142t287.5 142.5t119.5 340.5v615zM1126 1610l-256 -254l-114 114l256 254zM770 1610l-254 -254l-115 114l254 254z" glyph-name="uhungarumlaut" unicode="ű"/><glyph d="M1399 1708h184v-1067q0 -262 -178 -458.5t-442 -233.5v-109q-51 0 -86 -33.5t-35 -79.5t34.5 -79t86.5 -33v-162q-117 0 -201 80t-84 195q0 135 113 217q-274 27 -463 226.5t-189 469.5v1067h185v-1067q0 -213 157.5 -363.5t379.5 -150.5t380 150.5t158 363.5v1067z" glyph-name="Uogonek" horiz-adv-x="1724" unicode="Ų"/><glyph d="M1118 1221h187v-1221h-187v223q-98 -233 -311 -278v-105q-51 0 -87 -33.5t-36 -79.5t36 -79t87 -33v-162q-117 0 -201 80t-84 195q0 131 109 215q-217 33 -364.5 222t-147.5 441v615h184v-615h2q0 -199 119 -341t287 -142t287.5 142.5t119.5 340.5v615z" glyph-name="uogonek" unicode="ų"/><glyph d="M2882 1708h202l-563 -1708h-405l-560 1702l-561 -1702h-407l-561 1708h204l560 -1704l563 1704h403l561 -1704zM1559 2017l-154 -151l-115 114l269 267l266 -267l-115 -114z" glyph-name="Wcircumflex" horiz-adv-x="3112" unicode="Ŵ"/><glyph d="M2255 1221h205l-402 -1221h-407l-402 1219l-401 -1219h-406l-401 1221h205l399 -1217l402 1217h407l399 -1217zM1249 1487l-151 -154l-115 115l266 268l269 -268l-115 -115z" glyph-name="wcircumflex" horiz-adv-x="2500" unicode="ŵ"/><glyph d="M1360 1708h244l-711 -834v-874h-184v874l-711 834h244l559 -655zM801 2019l-154 -153l-115 114l269 269l268 -269l-115 -114z" glyph-name="Ycircumflex" horiz-adv-x="1601" unicode="Ŷ"/><glyph d="M1038 1217h195l-502 -1563q-29 -92 -105.5 -148.5t-170.5 -56.5h-410v191h410q35 0 62.5 20.5t37.5 52.5l92 283h-205l-401 1221h205l401 -1219zM637 1485l-154 -154l-114 115l268 268l268 -268l-114 -115z" glyph-name="ycircumflex" horiz-adv-x="1277" unicode="ŷ"/><glyph d="M1360 1708h244l-711 -834v-874h-184v874l-711 834h244l559 -655zM655 1935h-221v187h221v-187zM1167 1935h-221v187h221v-187z" glyph-name="Ydieresis" horiz-adv-x="1601" unicode="Ÿ"/><glyph d="M1657 1708v-219l-1370 -1305h1370v-184h-1600v219l1368 1307h-1368v182h1600zM1040 2097l-254 -254l-114 115l254 254z" glyph-name="Zacute" horiz-adv-x="1714" unicode="Ź"/><glyph d="M1319 1034l-946 -850h946v-184h-1243v184l946 850h-946v187h1243v-187zM881 1593l-254 -254l-115 115l254 254z" glyph-name="zacute" horiz-adv-x="1394" unicode="ź"/><glyph d="M1657 1708v-219l-1370 -1305h1370v-184h-1600v219l1368 1307h-1368v182h1600zM864 1918q-45 -3 -79.5 26.5t-38 75.5t26.5 81t76 38t81 -27.5t38 -75.5t-28 -80t-76 -38z" glyph-name="Zdotaccent" horiz-adv-x="1714" unicode="Ż"/><glyph d="M1319 1034l-946 -850h946v-184h-1243v184l946 850h-946v187h1243v-187zM697 1386q-46 0 -78.5 32t-32.5 78t32.5 78t78.5 32t78 -32t32 -78t-32 -78t-78 -32z" glyph-name="zdotaccent" horiz-adv-x="1394" unicode="ż"/><glyph d="M1657 1708v-219l-1370 -1305h1370v-184h-1600v219l1368 1307h-1368v182h1600zM1124 2077l-268 -269l-266 269l115 114l151 -153l154 153z" glyph-name="Zcaron" horiz-adv-x="1714" unicode="Ž"/><glyph d="M1319 1034l-946 -850h946v-184h-1243v184l946 850h-946v187h1243v-187zM965 1591l-269 -266l-266 266l115 115l151 -154l154 154z" glyph-name="zcaron" horiz-adv-x="1394" unicode="ž"/><glyph d="M510 1708h270v-186h-270q-43 0 -72.5 -30t-29.5 -71v-1421h-185v1036h-162v185h162v200q0 119 84 203t203 84z" glyph-name="longs" horiz-adv-x="555" unicode="ſ"/><glyph d="M991 -229l-254 -254l-114 114l254 254zM795 971q90 -10 138 -16.5t136 -26t139.5 -41t118 -61.5t102 -90t62.5 -124.5t27 -169.5q0 -139 -94.5 -254.5t-257 -182t-358.5 -66.5t-358.5 66.5t-257 182t-94.5 254.5h185q0 -129 155.5 -223t368.5 -94t368.5 94t155.5 223 q0 66 -15.5 114t-52 83t-78.5 58.5t-114 41t-135.5 27.5t-161.5 20q-121 14 -184.5 23.5t-149.5 36t-141 65.5q-201 145 -201 355q0 139 94.5 254.5t257 182t358.5 66.5t358.5 -66.5t257 -182t94.5 -254.5h-187q0 131 -155.5 225t-368.5 94t-368.5 -94t-155.5 -225 q0 -115 125 -203q37 -27 107.5 -46.5t124 -26.5t155.5 -19z" glyph-name="Scommaaccent" horiz-adv-x="1619" unicode="Ș"/><glyph d="M809 -229l-254 -254l-115 114l254 254zM618 719q47 -6 74 -9t77 -11.5t81 -17.5t75 -26.5t71.5 -37t59 -49t50 -64.5t30 -81t11.5 -101q0 -160 -151.5 -270.5t-372 -110.5t-372 110.5t-151.5 270.5h185q0 -74 98 -135.5t241.5 -61.5t241 61.5t97.5 135.5q0 109 -79 149.5 t-288 63.5q-86 10 -132 17t-108.5 26.5t-103.5 50.5q-152 109 -152 270q0 160 151.5 270.5t372 110.5t372 -110.5t151.5 -270.5h-184q0 74 -97.5 135.5t-241 61.5t-241.5 -61.5t-98 -135.5q0 -66 75 -121q49 -34 258 -59z" glyph-name="scommaaccent" horiz-adv-x="1251" unicode="ș"/><glyph d="M12 1702h1512v-186h-664v-1516h-184v1516h-664v186zM952 -229l-254 -254l-114 114l254 254z" glyph-name="uni021A" horiz-adv-x="1538" unicode="Ț"/><glyph d="M776 1034h-373v-745q0 -43 30 -73t73 -30h270v-186h-270q-119 0 -203 85t-84 204v745h-162v185h162v489h184v-489h373v-185zM498 -229l-254 -254l-115 114l254 254z" glyph-name="uni021B" horiz-adv-x="845" unicode="ț"/><glyph d="M1186 512h-1133v186h1133v-186z" glyph-name="endash" horiz-adv-x="1239" unicode="–"/><glyph d="M1563 512h-1510v186h1510v-186z" glyph-name="emdash" horiz-adv-x="1617" unicode="—"/><glyph d="M49 1731q0 115 82 196.5t197 81.5v-186q-39 0 -67 -27t-28 -65v-179h-184v179z" glyph-name="quoteleft" horiz-adv-x="282" unicode="‘"/><glyph d="M141 2009h187v-178q0 -115 -82 -197t-197 -82v187q39 0 65.5 26.5t26.5 65.5v178z" glyph-name="quoteright" horiz-adv-x="339" unicode="’"/><glyph d="M166 457h186v-178q0 -115 -82 -197t-196 -82v186q39 0 65.5 27t26.5 66v178z" glyph-name="quotesinglbase" horiz-adv-x="430" unicode="‚"/><glyph d="M49 1731q0 115 82 195.5t197 80.5v-184q-39 0 -67 -28t-28 -64v-179h-184v179zM373 1731q0 115 82 195.5t196 80.5v-184q-39 0 -65.5 -28t-26.5 -64v-179h-186v179z" glyph-name="quotedblleft" horiz-adv-x="608" unicode="“"/><glyph d="M141 1831v178h187v-178q0 -115 -82 -197t-197 -82v187q39 0 65.5 26.5t26.5 65.5zM467 2009h184v-178q0 -115 -82 -197t-196 -82v187q39 0 66.5 26.5t27.5 65.5v178z" glyph-name="quotedblright" horiz-adv-x="665" unicode="”"/><glyph d="M166 279v178h186v-178q0 -115 -82 -197t-196 -82v186q39 0 65.5 27t26.5 66zM492 457h184v-178q0 -115 -82 -197t-197 -82v186q39 0 67 27t28 66v178z" glyph-name="quotedblbase" horiz-adv-x="755" unicode="„"/><glyph d="M403 512h-331v332h331v-332z" glyph-name="bullet" horiz-adv-x="477" unicode="•"/><glyph d="M274 0h-221v186h221v-186zM575 0h-221v186h221v-186zM877 0h-222v186h222v-186z" glyph-name="ellipsis" horiz-adv-x="929" unicode="…"/><glyph d="M456.5 1055q-147.5 0 -252 104.5t-104.5 252t104.5 251.5t252 104t252 -104t104.5 -251.5t-104.5 -252t-252 -104.5zM455.5 1581q-70.5 0 -120.5 -50t-50 -120t50 -120t120.5 -50t121 50t50.5 120t-50.5 120t-121 50zM1289.5 653q146.5 0 251 -104.5t104.5 -250.5 t-104.5 -250.5t-251 -104.5t-251 104.5t-104.5 250.5t104.5 250.5t251 104.5zM1289.5 127q70.5 0 120.5 50t50 121t-50 121t-120.5 50t-121 -50t-50.5 -121t50.5 -121t121 -50zM2095.5 653q147.5 0 250.5 -104.5t103 -250.5t-103 -250.5t-250.5 -104.5t-252 104.5 t-104.5 250.5t104.5 250.5t252 104.5zM2094 127q71 0 121 50t50 121t-50 121t-121 50t-121 -50t-50 -121t50 -121t121 -50zM1370 1702h229l-1224 -1706h-228z" glyph-name="perthousand" horiz-adv-x="2533" unicode="‰"/><glyph d="M459 1157v-113l-371 -210l371 -211v-111l-373 211v221z" glyph-name="guilsinglleft" horiz-adv-x="546" unicode="‹"/><glyph d="M86 1157l373 -213v-221l-373 -211v111l373 211l-373 210v113z" glyph-name="guilsinglright" horiz-adv-x="546" unicode="›"/><glyph d="M1061 127q176 0 324.5 107.5t228.5 291.5l170 -73q-102 -236 -297 -373t-426 -137q-207 0 -384 108.5t-289 297t-132 415.5h-180v186h180q20 227 132 415.5t289 297.5t384 109q231 0 425.5 -137.5t297.5 -372.5l-170 -74q-80 184 -228.5 291.5t-324.5 107.5 q-238 0 -413 -183t-206 -454h510v-186h-510q31 -270 206 -453.5t413 -183.5z" glyph-name="Euro" horiz-adv-x="1890" unicode="€"/></font>
</defs>
</svg>
